<svg xmlns="http://www.w3.org/2000/svg" xml:space="preserve" fill-rule="evenodd" stroke-linejoin="round" stroke-miterlimit="2" clip-rule="evenodd" viewBox="0 0 15 15"><path fill="#a83c3a" d="M13.002 6.371c.481 0 .541 1.534.179 1.915a.23.23 0 0 0-.164.169c-.171.539-1.015 3.889-1.015 3.889s-.188 1.042-1 1.042h-7c-.812 0-1-1.042-1-1.042L2 8.425a.1.1 0 0 0-.085-.073c-.468-.171-.435-1.978.086-1.98z"/><path fill="#272727" d="M3.002 3.456s.188-1.062 1-1.062h1.006C5 2 5 1.615 5.508 1.615h3.984c.508 0 .5.385.5.779h1.01c.515-.002.893.524 1 1.062l.591 2.915h-.937l-.634-2.905a.1.1 0 0 0-.098-.079l-6.857-.004a.1.1 0 0 0-.098.079l-.631 2.909h-.952l.615-2.915Zm2.001 8.061c.044.324-.18.61-.499.61a.54.54 0 0 1-.533-.465l-.187-1.267-.206-1.285a.54.54 0 0 1 .532-.61c.268 0 .496.2.532.465l.326 1.307q.03.12.031.244l.002 1.001Zm6.418-2.408-.394 2.552a.54.54 0 0 1-.532.465c-.318 0-.54-.286-.496-.61l.002-1.011q0-.125.031-.247l.324-1.295a.54.54 0 0 1 .532-.465.54.54 0 0 1 .532.61Zm-4.42-.11v2.5c0 .265-.235.5-.5.5a.515.515 0 0 1-.5-.5v-2.5c0-.265.235-.5.5-.5s.5.235.5.5m2 0v2.5c0 .265-.235.5-.5.5a.515.515 0 0 1-.5-.5v-2.5c0-.265.235-.5.5-.5s.5.235.5.5"/></svg>