<?xml version="1.0" encoding="UTF-8" standalone="no"?><!DOCTYPE svg PUBLIC "-//W3C//DTD SVG 1.1//EN" "http://www.w3.org/Graphics/SVG/1.1/DTD/svg11.dtd"><svg width="100%" height="100%" viewBox="0 0 15 15" version="1.1" xmlns="http://www.w3.org/2000/svg" xmlns:xlink="http://www.w3.org/1999/xlink" xml:space="preserve" xmlns:serif="http://www.serif.com/" style="fill-rule:evenodd;clip-rule:evenodd;stroke-linejoin:round;stroke-miterlimit:2;"><path d="M13.6,9.73c-0.3,-0.23 -0.52,-0.52 -0.66,-0.85c-0.29,-0.68 -0.36,-3.39 -0.34,-4.94l0,-0.07c-0.08,-1.47 -3.23,-1.87 -5.1,-1.87c-1.87,0 -5.02,0.4 -5.1,1.87l-0,0.07c0.02,1.55 -0.05,4.26 -0.34,4.94c-0.14,0.33 -0.36,0.62 -0.66,0.85c-0.25,0.19 -0.39,0.49 -0.4,0.82c-0.01,0.33 0.13,0.63 0.36,0.84l0.12,0.1c0.16,0.14 0.37,0.22 0.58,0.22c0.26,0 0.52,-0.12 0.69,-0.33c0.24,-0.28 0.72,-0.76 1.19,-0.76c0.03,0 0.06,0 0.1,0.01c0.07,0.01 0.08,0.03 0.09,0.04c0.05,0.09 0.1,0.4 -0.06,1.03c-0.14,0.54 0.15,1.12 0.65,1.27c0.09,0.02 0.18,0.03 0.27,0.03c0.44,0 0.81,-0.32 0.92,-0.79c0.18,-0.81 0.83,-1.38 1.6,-1.38c0.76,0 1.42,0.57 1.6,1.38c0.1,0.46 0.48,0.79 0.92,0.79c0.09,0 0.18,-0.01 0.26,-0.04c0.5,-0.16 0.79,-0.73 0.65,-1.27c-0.16,-0.62 -0.11,-0.94 -0.06,-1.03c0.01,-0.01 0.02,-0.03 0.09,-0.04c0.03,0 0.06,-0.01 0.1,-0.01c0.48,0 0.95,0.48 1.19,0.76c0.18,0.21 0.43,0.33 0.69,0.33c0.21,0 0.41,-0.08 0.58,-0.22l0.12,-0.1c0.24,-0.2 0.37,-0.51 0.36,-0.83c-0.01,-0.33 -0.15,-0.63 -0.4,-0.82l-0.01,-0Zm-6.1,-6.69c2.58,0 3.3,0.37 3.5,0.66c-0.53,0.85 -2.12,0.81 -3.52,0.85c-1.47,-0.11 -2.85,0 -3.48,-0.85c0.2,-0.29 0.92,-0.66 3.5,-0.66Z" style="fill:#472a00;fill-rule:nonzero;"/><path d="M7.5,3.04c2.58,0 3.3,0.37 3.5,0.66c-0.53,0.85 -2.12,0.81 -3.52,0.85c-1.47,-0.11 -2.85,0 -3.48,-0.85c0.2,-0.29 0.92,-0.66 3.5,-0.66Z" style="fill:#957b32;"/></svg>