<?xml version="1.0" encoding="UTF-8" standalone="no"?><!DOCTYPE svg PUBLIC "-//W3C//DTD SVG 1.1//EN" "http://www.w3.org/Graphics/SVG/1.1/DTD/svg11.dtd"><svg width="100%" height="100%" viewBox="0 0 15 15" version="1.1" xmlns="http://www.w3.org/2000/svg" xmlns:xlink="http://www.w3.org/1999/xlink" xml:space="preserve" xmlns:serif="http://www.serif.com/" style="fill-rule:evenodd;clip-rule:evenodd;stroke-linejoin:round;stroke-miterlimit:2;"><path d="M6.596,12.304l0,1.357c0,0.452 1.809,0.452 1.809,0l0,-1.357l-1.809,0Z" style="fill:#472a00;"/><path d="M2.731,12.128c-0.032,0.027 -0.043,0.071 -0.029,0.111c0.015,0.039 0.052,0.065 0.094,0.065c1.418,-0 7.989,-0 9.407,-0c0.042,0 0.079,-0.026 0.094,-0.065c0.015,-0.039 0.003,-0.083 -0.029,-0.111c-0.572,-0.491 -2.182,-1.871 -2.755,-2.361c-0.032,-0.027 -0.043,-0.071 -0.029,-0.111c0.015,-0.039 0.052,-0.065 0.094,-0.065c0.445,0 1.324,0 1.749,0c0.04,-0 0.077,-0.024 0.092,-0.062c0.015,-0.037 0.007,-0.08 -0.022,-0.109c-0.488,-0.488 -1.884,-1.884 -2.372,-2.372c-0.029,-0.029 -0.037,-0.072 -0.022,-0.109c0.015,-0.037 0.052,-0.062 0.092,-0.062c0.356,0 1.015,0 1.354,0c0.039,-0 0.074,-0.022 0.091,-0.058c0.016,-0.035 0.011,-0.077 -0.014,-0.106c-0.403,-0.484 -1.584,-1.901 -1.987,-2.385c-0.025,-0.03 -0.03,-0.071 -0.014,-0.106c0.016,-0.035 0.052,-0.058 0.091,-0.058c0.261,-0 0.697,-0 0.949,-0c0.037,0 0.072,-0.021 0.089,-0.054c0.017,-0.033 0.014,-0.073 -0.008,-0.104c-0.397,-0.556 -1.724,-2.413 -2.067,-2.893c-0.019,-0.026 -0.049,-0.042 -0.081,-0.042c-0.032,0 -0.063,0.016 -0.081,0.042c-0.343,0.48 -1.669,2.337 -2.067,2.893c-0.022,0.03 -0.025,0.071 -0.008,0.104c0.017,0.033 0.051,0.054 0.089,0.054c0.251,0 0.688,0 0.949,0c0.039,0 0.074,0.022 0.091,0.058c0.016,0.035 0.011,0.077 -0.014,0.106c-0.403,0.484 -1.584,1.901 -1.987,2.385c-0.025,0.03 -0.03,0.071 -0.014,0.106c0.016,0.035 0.052,0.058 0.091,0.058c0.339,-0 0.998,-0 1.354,-0c0.04,-0 0.077,0.024 0.092,0.062c0.015,0.037 0.007,0.08 -0.022,0.109c-0.488,0.488 -1.884,1.884 -2.372,2.372c-0.029,0.029 -0.037,0.072 -0.022,0.109c0.015,0.037 0.052,0.062 0.092,0.062c0.425,-0 1.304,-0 1.749,-0c0.042,-0 0.079,0.026 0.094,0.065c0.015,0.039 0.003,0.083 -0.029,0.111c-0.572,0.491 -2.182,1.871 -2.755,2.361Z" style="fill:#588f35;"/><path d="M5.691,9.591l3.617,0" style="fill:none;"/><path d="M6.143,6.878l2.713,0" style="fill:none;"/><path d="M8.404,4.165l-1.809,0" style="fill:none;"/></svg>