<?xml version="1.0" encoding="UTF-8" standalone="no"?><!DOCTYPE svg PUBLIC "-//W3C//DTD SVG 1.1//EN" "http://www.w3.org/Graphics/SVG/1.1/DTD/svg11.dtd"><svg width="100%" height="100%" viewBox="0 0 15 15" version="1.1" xmlns="http://www.w3.org/2000/svg" xmlns:xlink="http://www.w3.org/1999/xlink" xml:space="preserve" xmlns:serif="http://www.serif.com/" style="fill-rule:evenodd;clip-rule:evenodd;stroke-linejoin:round;stroke-miterlimit:2;"><path d="M6.808,13.667l0,-3.111c0,-0.889 0,-1.111 -0.692,-1.556c-0.473,-0.284 -2.386,-0.974 -2.719,-1.093c-0.031,-0.011 -0.055,-0.037 -0.063,-0.069c-0.047,-0.181 -0.206,-0.794 -0.286,-1.102c-0.009,-0.036 0.002,-0.073 0.029,-0.099c0.027,-0.025 0.066,-0.033 0.1,-0.021c0.758,0.261 3.701,1.273 3.701,1.273l0,-1.111c0,-0.667 -0.069,-0.667 -0.415,-0.889c-0.316,-0.203 -1.784,-1.145 -2.039,-1.309c-0.024,-0.015 -0.04,-0.04 -0.045,-0.069c-0.023,-0.145 -0.096,-0.613 -0.137,-0.879c-0.006,-0.037 0.009,-0.074 0.039,-0.096c0.03,-0.022 0.069,-0.026 0.103,-0.01c0.604,0.291 2.598,1.251 2.598,1.251c0,0 0.092,-2.563 0.103,-2.861c0.001,-0.018 0.006,-0.036 0.017,-0.052c0.058,-0.088 0.267,-0.404 0.416,-0.628c0.023,-0.035 0.067,-0.052 0.108,-0.042c0.041,0.01 0.071,0.046 0.075,0.088c0.08,0.878 0.32,3.495 0.32,3.495c0,0 1.994,-0.96 2.598,-1.251c0.033,-0.016 0.073,-0.012 0.103,0.01c0.03,0.022 0.045,0.059 0.039,0.096c-0.041,0.265 -0.114,0.733 -0.137,0.879c-0.004,0.028 -0.021,0.053 -0.045,0.069c-0.255,0.164 -1.723,1.106 -2.039,1.309c-0.346,0.222 -0.415,0.222 -0.415,0.889l0,1.111c0,0 2.943,-1.012 3.701,-1.273c0.035,-0.012 0.073,-0.004 0.1,0.021c0.027,0.025 0.038,0.063 0.029,0.099c-0.08,0.307 -0.238,0.916 -0.285,1.099c-0.009,0.033 -0.034,0.06 -0.067,0.07c-0.371,0.116 -2.573,0.81 -2.889,1.095c-0.519,0.444 -0.519,0.667 -0.519,1.556l0,3.111c0,0.444 -1.385,0.444 -1.385,0Z" style="fill:#472a00;fill-rule:nonzero;"/></svg>