<?xml version="1.0" encoding="UTF-8" standalone="no"?><!DOCTYPE svg PUBLIC "-//W3C//DTD SVG 1.1//EN" "http://www.w3.org/Graphics/SVG/1.1/DTD/svg11.dtd"><svg width="100%" height="100%" viewBox="0 0 15 15" version="1.1" xmlns="http://www.w3.org/2000/svg" xmlns:xlink="http://www.w3.org/1999/xlink" xml:space="preserve" xmlns:serif="http://www.serif.com/" style="fill-rule:evenodd;clip-rule:evenodd;stroke-linejoin:round;stroke-miterlimit:2;"><path d="M6,7.5l0,-4.55c0,-3.95 3,-2.95 3,1.05l0,5c0,0 -0.5,0 0.5,0c1,0 1,-1 1,-2c0,-2 1.5,-1.5 1.5,0c0,2 0,4 -2,4l-1,0l0,3c0,1 -3,1 -3,0l0,-4.5c0,0 0.5,0 -1,0c-2.5,0 -2.5,-2.5 -2.5,-4.5c0,-1 1.5,-2 1.5,0c0,1 0,2.5 1,2.5l1,0Z" style="fill:#588f35;fill-rule:nonzero;"/></svg>