<?xml version="1.0" encoding="UTF-8" standalone="no"?><!DOCTYPE svg PUBLIC "-//W3C//DTD SVG 1.1//EN" "http://www.w3.org/Graphics/SVG/1.1/DTD/svg11.dtd"><svg width="100%" height="100%" viewBox="0 0 15 15" version="1.1" xmlns="http://www.w3.org/2000/svg" xmlns:xlink="http://www.w3.org/1999/xlink" xml:space="preserve" xmlns:serif="http://www.serif.com/" style="fill-rule:evenodd;clip-rule:evenodd;stroke-linecap:round;stroke-linejoin:round;stroke-miterlimit:1.5;"><path d="M1,11c-0,0.265 0.105,0.52 0.293,0.707c0.188,0.188 0.442,0.293 0.707,0.293c2.422,-0 8.579,-0 11,-0c0.265,-0 0.52,-0.105 0.707,-0.293c0.188,-0.188 0.293,-0.442 0.293,-0.707c0,-1.732 0,-5.268 0,-7c0,-0.265 -0.105,-0.52 -0.293,-0.707c-0.188,-0.188 -0.442,-0.293 -0.707,-0.293c-2.422,0 -8.579,0 -11,0c-0.265,0 -0.52,0.105 -0.707,0.293c-0.188,0.188 -0.293,0.442 -0.293,0.707c-0,1.732 -0,5.268 -0,7Z" style="fill:#00329b;"/><path d="M4,4.5l7,0c0,0.828 0.672,1.5 1.5,1.5l0,3c-0.828,0 -1.5,0.672 -1.5,1.5l-7,0c-0,-0.828 -0.672,-1.5 -1.5,-1.5l0,-3c0.828,0 1.5,-0.672 1.5,-1.5Z" style="fill:#f4f4f4;fill-opacity:0;stroke:#f4f4f4;stroke-width:1px;"/><path d="M7.188,8.349c0,0 0.003,-1.353 0,-1.367c0,-0.014 -0.001,-0.028 -0.004,-0.041c-0.008,-0.033 -0.025,-0.062 -0.05,-0.087c-0.022,-0.028 -0.058,-0.042 -0.108,-0.041l-0.327,0l0,-0.312l0.294,0c0.132,0 0.255,-0.04 0.368,-0.12c0.116,-0.083 0.207,-0.153 0.273,-0.253c0.017,-0.022 0.03,-0.043 0.041,-0.062c0.014,-0.022 0.025,-0.044 0.033,-0.066l0.294,0l0,2.382c0,0.066 0.015,0.121 0.045,0.165c0.03,0.041 0.069,0.062 0.116,0.062l0.36,0l0,0.39l-1.824,0l0,-0.39l0.327,0c0.063,0 0.106,-0.014 0.128,-0.041c0.022,-0.03 0.033,-0.103 0.033,-0.219Z" style="fill:#f4f4f4;fill-rule:nonzero;"/></svg>