<?xml version="1.0" encoding="UTF-8" standalone="no"?><!DOCTYPE svg PUBLIC "-//W3C//DTD SVG 1.1//EN" "http://www.w3.org/Graphics/SVG/1.1/DTD/svg11.dtd"><svg width="100%" height="100%" viewBox="0 0 15 15" version="1.1" xmlns="http://www.w3.org/2000/svg" xmlns:xlink="http://www.w3.org/1999/xlink" xml:space="preserve" xmlns:serif="http://www.serif.com/" style="fill-rule:evenodd;clip-rule:evenodd;stroke-linejoin:round;stroke-miterlimit:2;"><rect x="4" y="4" width="7" height="9" style="fill:#090909;"/><path d="M5,6l-1,-0l0,-1l1,0l0,-1l1,-0l0,1l3,0l0,-1l1,0l0,1l1,0l-0,1l-1,0l-0,1l1,0l0,1l-1,0l0,1l1,0l0,1l-1,0l-0,1l1,0l0,1l-1,0l0,1l-1,0l-0,-1l-3,0l0,1l-1,0l-0,-1l-1,-0l-0,-1l1,0l0,-1l-1,-0l0,-1l1,0l0,-1l-1,-0l0,-1l1,0l0,-1Zm4,-0l-3,0l-0,1l3,0l0,-1Zm-0,3l0,-1l-3,0l0,1l3,0Zm-0,2l0,-1l-3,0l-0,1l3,0Z" style="fill:#402c21;"/><path d="M4.659,9.952c0.088,0.266 0.062,0.557 -0.072,0.803c-0.134,0.246 -0.364,0.424 -0.634,0.492l-1.71,0.431c-0.299,0.075 -0.615,0.008 -0.858,-0.183c-0.243,-0.191 -0.385,-0.484 -0.385,-0.794l-0,-3.092c0,-0.374 0.206,-0.717 0.534,-0.891l1.256,-0.666c0.356,-0.189 0.789,-0.144 1.1,0.113c0.311,0.257 0.439,0.676 0.325,1.064l-0.126,0.43c-0.058,0.198 -0.054,0.409 0.01,0.604l0.559,1.689Zm1.381,4.011c-0.026,-0 -0.05,-0.01 -0.069,-0.028l-0.061,-0.059c-0.209,-0.201 -0.307,-0.492 -0.264,-0.78c0.043,-0.288 0.223,-0.536 0.481,-0.666l0.661,-0.333c0.139,-0.07 0.292,-0.106 0.447,-0.106l2.35,0c0.265,-0 0.52,-0.106 0.707,-0.295l0.414,-0.417c0.188,-0.189 0.293,-0.445 0.293,-0.712l0,-0.173c0,-0.267 0.105,-0.523 0.293,-0.712l0.197,-0.199c0.304,-0.307 0.769,-0.383 1.154,-0.189l0.803,0.404c0.339,0.171 0.553,0.519 0.553,0.901l0,2.394c0,0.268 -0.106,0.525 -0.295,0.714c-0.189,0.189 -0.444,0.295 -0.711,0.293l-6.955,-0.037Zm-3.326,-12.7c0.184,-0.169 0.424,-0.263 0.674,-0.263l3.212,-0c0.323,0 0.626,0.157 0.814,0.422c0.188,0.265 0.237,0.605 0.132,0.912l-0.384,1.128c-0.101,0.297 -0.334,0.529 -0.63,0.628l-2.138,0.718c-0.252,0.084 -0.526,0.065 -0.763,-0.055l-1.077,-0.542c-0.339,-0.171 -0.553,-0.519 -0.553,-0.901l0,-0.947c0,-0.283 0.118,-0.553 0.326,-0.744l0.387,-0.356Zm7.417,5.08c-0.084,-0.253 -0.064,-0.53 0.054,-0.769l0.696,-1.402c0.078,-0.157 0.195,-0.29 0.34,-0.388l1.224,-0.822c0.307,-0.206 0.701,-0.225 1.027,-0.05c0.325,0.175 0.528,0.517 0.528,0.888l0,2.916c0,0.156 -0.036,0.311 -0.106,0.45l-0.618,1.245c-0.169,0.341 -0.516,0.557 -0.894,0.557l-0.661,-0c-0.43,0 -0.813,-0.277 -0.949,-0.689l-0.641,-1.937Z" style="fill:#5a5a5a;"/><path d="M10.049,1.019c0.186,-0.036 0.378,-0.019 0.555,0.05l1.76,0.691c0.384,0.151 0.637,0.523 0.637,0.938l-0,1.276c0,0.294 -0.128,0.574 -0.35,0.765c-0.222,0.191 -0.516,0.275 -0.804,0.23l-5.068,-0.796c-0.283,-0.044 -0.533,-0.209 -0.688,-0.451l-0.296,-0.464c-0.179,-0.281 -0.208,-0.633 -0.078,-0.939c0.13,-0.307 0.403,-0.529 0.728,-0.592l3.604,-0.707Zm-4.078,12.425c-0.169,0.341 -0.516,0.557 -0.894,0.557l-2.909,-0c-0.252,0 -0.494,-0.095 -0.679,-0.267l-0.168,-0.157c-0.361,-0.336 -0.426,-0.886 -0.154,-1.298l0.563,-0.85c0.185,-0.28 0.498,-0.449 0.832,-0.449l1.308,-0c0.121,0 0.241,0.022 0.354,0.065l1.435,0.547c0.265,0.101 0.474,0.31 0.577,0.575c0.103,0.265 0.09,0.562 -0.037,0.817l-0.228,0.46Zm-1.376,-8.386c0.217,0.49 0.013,1.066 -0.463,1.308l-1.682,0.855c-0.31,0.158 -0.679,0.142 -0.975,-0.041c-0.296,-0.183 -0.476,-0.508 -0.476,-0.858l0,-3.119c0,-0.261 0.101,-0.512 0.281,-0.699l0.267,-0.278c0.188,-0.197 0.448,-0.308 0.719,-0.308l0.291,0c0.395,-0 0.753,0.234 0.914,0.598l1.123,2.542Zm6.965,1.843c0.16,-0.244 0.417,-0.405 0.704,-0.443c0.287,-0.038 0.577,0.051 0.794,0.245l0.5,0.447c0.198,0.177 0.319,0.426 0.335,0.693l0.105,1.757c0.016,0.267 -0.074,0.529 -0.25,0.728c-0.176,0.2 -0.424,0.321 -0.688,0.337l-1.293,0.078c-0.497,0.03 -0.94,-0.312 -1.04,-0.803l-0.191,-0.942c-0.053,-0.262 -0.001,-0.534 0.145,-0.757l0.879,-1.34Z" style="fill:#7a7a7a;"/></svg>