<svg xmlns="http://www.w3.org/2000/svg" xml:space="preserve" fill-rule="evenodd" stroke-linejoin="round" stroke-miterlimit="2" clip-rule="evenodd" viewBox="0 0 15 15"><path fill="#a20220" d="M1 9.655v-.729a1 1 0 0 1 1-1h.748a1 1 0 0 1 1 1v.729a1 1 0 0 1-1 1H2a1 1 0 0 1-1-1m10.252 0v-.729a1 1 0 0 1 1-1H13a1 1 0 0 1 1 1v.729a1 1 0 0 1-1 1h-.748a1 1 0 0 1-1-1m-6.86 0v-.729a1 1 0 0 1 1-1h.748a1 1 0 0 1 1 1v.729a1 1 0 0 1-1 1h-.748a1 1 0 0 1-1-1m3.43 0v-.729a1 1 0 0 1 1-1h.748a1 1 0 0 1 1 1v.729a1 1 0 0 1-1 1h-.748a1 1 0 0 1-1-1M1 11.579a.5.5 0 0 1 .5-.5h12a.5.5 0 1 1 0 1h-12a.5.5 0 0 1-.5-.5"/><path fill="#7a7a7a" d="M6.093 1.926a.99.99 0 0 1 .786-.595l1.006-.128c.347-.044.703.106.914.385l-2.707.338Zm2.809.649A1.23 1.23 0 0 1 8 3.192v3.81a.5.5 0 0 1-.499.5.515.515 0 0 1-.501-.5V3.308a1 1 0 0 1-.789-.397z"/><path fill="#272727" d="m13.5 2-12 1.5a.5.5 0 0 1 0-1l12-1.5a.5.5 0 0 1 0 1"/></svg>