<svg xmlns="http://www.w3.org/2000/svg" xml:space="preserve" fill-rule="evenodd" stroke-linejoin="round" stroke-miterlimit="2" clip-rule="evenodd" viewBox="0 0 15 15"><path fill="#7a7a7a" d="M8.923 2.068c-.21.456-.555.59-.923.62V5H7V2.804a1 1 0 0 1-.788-.397zm-2.832-.646A.99.99 0 0 1 6.88.827L7.886.699c.347-.044.701.107.913.385z"/><path fill="#414141" d="M1.212 12C1 11.192 1 10.596 1 10c0-1.34 0-2.681.706-4.38A1 1 0 0 1 2.631 5s8.393-.007 9.737 0c.402 0 .765.243.918.615.713 1.697.713 3.045.713 4.385 0 .596 0 1.192-.209 2-.103.399-.258.85-.488 1.378-.154.376-.52.622-.926.622-1.934 0-7.818 0-9.753-.008a.99.99 0 0 1-.919-.617A9 9 0 0 1 1.211 12Z"/><path fill="#7da8e6" d="M12.026 6.007a.5.5 0 0 1 .469.326c.516 1.395.505 2.533.505 3.666a1 1 0 0 1-1 1H3a.997.997 0 0 1-1-1c0-1.134-.012-2.271.501-3.667a.5.5 0 0 1 .468-.327c1.503-.001 7.558.001 9.057.002"/><path fill="#272727" d="m1.5 1.996 12-1.5a.5.5 0 0 1 0 1l-12 1.5a.5.5 0 0 1 0-1"/></svg>