<svg xmlns="http://www.w3.org/2000/svg" xml:space="preserve" fill-rule="evenodd" stroke-linejoin="round" stroke-miterlimit="2" clip-rule="evenodd" viewBox="0 0 15 15"><path fill="#090909" d="M8.5 3.929a.5.5 0 0 1-.438.496l-1 .125a.5.5 0 0 1-.562-.496V2c0-.55.45-1 1-1s1 .45 1 1zm-.562 3.022a.5.5 0 0 1 .562.496v6.054a.5.5 0 0 1-.5.5H7a.5.5 0 0 1-.5-.5V7.572a.5.5 0 0 1 .438-.496z"/><path fill="#5a5a5a" d="M4.5 4.85c-.55 0-1-.45-1-1s.45-1 1-1 1 .45 1 1-.45 1-1 1m6-.8c-.55 0-1-.45-1-1s.45-1 1-1 1 .45 1 1-.45 1-1 1m-6 5.4c-.55 0-1-.45-1-1s.45-1 1-1 1 .45 1 1-.45 1-1 1m6-.8c-.55 0-1-.45-1-1s.45-1 1-1 1 .45 1 1-.45 1-1 1"/><path fill="#272727" d="M1.56 7A.51.51 0 0 1 1 6.56.51.51 0 0 1 1.44 6l12-1.5c.27-.03.52.16.56.44a.51.51 0 0 1-.44.56z"/></svg>