<svg xmlns="http://www.w3.org/2000/svg" xml:space="preserve" fill-rule="evenodd" stroke-linejoin="round" stroke-miterlimit="2" clip-rule="evenodd" viewBox="0 0 15 15"><path fill="#7a7a7a" d="M8.923 3.273c-.21.456-.555.59-.923.62v2.309H7V4.009a1 1 0 0 1-.788-.397zm-2.832-.646a.99.99 0 0 1 .789-.595l1.006-.128c.347-.044.701.107.913.385z"/><path fill="#272727" d="m1.5 3.201 12-1.5a.5.5 0 0 1 0 1l-12 1.5a.5.5 0 0 1 0-1"/><path fill="#a20220" d="M2.547 11.722c-.167-.637-.167-1.107-.167-1.577 0-1.057 0-2.114.557-3.455a.79.79 0 0 1 .73-.489s6.62 0 7.68.006c.317 0 .603.192.724.485.563 1.338.563 2.396.563 3.453 0 .47 0 .94-.165 1.577-.081.315-.203.67-.385 1.087a.79.79 0 0 1-.731.49c-1.526 0-6.166 0-7.692-.006a.78.78 0 0 1-.725-.487 7 7 0 0 1-.389-1.085Z"/><path fill="#abc5e9" d="M11.004 6.995c.212 0 .401.133.471.333.378 1.066.37 1.943.37 2.817v.001c0 .418-.37.788-.788.788h-7.1a.81.81 0 0 1-.789-.788l.001-.001c0-.874-.009-1.75.368-2.817a.5.5 0 0 1 .47-.333c1.271-.002 5.73 0 6.998.001Z"/></svg>