<?xml version="1.0" encoding="UTF-8" standalone="no"?><!DOCTYPE svg PUBLIC "-//W3C//DTD SVG 1.1//EN" "http://www.w3.org/Graphics/SVG/1.1/DTD/svg11.dtd"><svg width="100%" height="100%" viewBox="0 0 15 15" version="1.1" xmlns="http://www.w3.org/2000/svg" xmlns:xlink="http://www.w3.org/1999/xlink" xml:space="preserve" xmlns:serif="http://www.serif.com/" style="fill-rule:evenodd;clip-rule:evenodd;stroke-linejoin:round;stroke-miterlimit:2;"><path d="M5.6,3c0.4,1.3 1.4,2.8 1.4,4l0,6c-0,0.5 -0.5,1 -1,1l-3,0c-0.6,0 -1,-0.4 -1,-1l0,-6c0,-1.3 1.1,-2.7 1.4,-4l2.2,-0Z" style="fill:#2e4228;"/><path d="M5.5,1c0.3,0 0.3,1 0,1l0,0.5c0,0.2 0,0.3 0.1,0.5l-2.2,0c0,-0.2 0.1,-0.3 0.1,-0.5l0,-0.5c-0.3,0 -0.3,-1 0,-1l0,-0.5c0,-0.3 0.2,-0.5 0.5,-0.5l1,0c0.3,0 0.5,0.2 0.5,0.5l0,0.5Z" style="fill:#8e3849;"/><rect x="2" y="7" width="5" height="5" style="fill:#e4e4e4;"/><rect x="10" y="7" width="2" height="1.5" style="fill:#a83c3a;"/><path d="M13,4.5c0,-0.1 -0.1,-0.3 -0.1,-0.4c-0.1,-0.1 -0.2,-0.1 -0.4,-0.1c-0.8,-0 -2.2,-0 -3,-0c-0.1,-0 -0.3,0.1 -0.4,0.1c-0.1,0.1 -0.1,0.2 -0.1,0.4c0,1 0,3 0,3c0,0.9 0.6,1.7 1.5,1.9l0,3.6l-0.5,0c-0.3,0 -0.5,0.2 -0.5,0.5c0,0.3 0.2,0.5 0.5,0.5l2,0c0.3,0 0.5,-0.2 0.5,-0.5c0,-0.3 -0.2,-0.5 -0.5,-0.5l-0.5,0l0,-3.6c0.9,-0.2 1.5,-1 1.5,-1.9l0,-3Zm-1,3c0,0.6 -0.4,1 -1,1c-0.6,0 -1,-0.4 -1,-1l0,-2.5l2,0l0,2.5Z" style="fill:#c5cfdc;"/></svg>