<?xml version="1.0" encoding="UTF-8" standalone="no"?><!DOCTYPE svg PUBLIC "-//W3C//DTD SVG 1.1//EN" "http://www.w3.org/Graphics/SVG/1.1/DTD/svg11.dtd"><svg width="100%" height="100%" viewBox="0 0 15 15" version="1.1" xmlns="http://www.w3.org/2000/svg" xmlns:xlink="http://www.w3.org/1999/xlink" xml:space="preserve" xmlns:serif="http://www.serif.com/" style="fill-rule:evenodd;clip-rule:evenodd;stroke-linejoin:round;stroke-miterlimit:2;"><path d="M8.046,6.703c0.936,0.243 1.621,1.092 1.621,2.097c0,0.856 -0.499,1.598 -1.218,1.951c-0.175,0.079 -0.288,0.253 -0.288,0.446c-0.011,0.231 -0.011,0.548 -0.011,0.827c-0,0.165 0.081,0.32 0.217,0.413c0.136,0.093 0.31,0.113 0.464,0.053c0.713,-0.308 1.212,-0.874 1.529,-1.75c0.121,-0.338 0.494,-0.511 0.832,-0.381c0.338,0.121 0.511,0.494 0.381,0.832c-0.667,1.846 -2.071,2.808 -4.073,2.808c-2.002,0 -3.406,-0.962 -4.073,-2.808c-0.13,-0.338 0.043,-0.711 0.381,-0.832c0.338,-0.13 0.711,0.043 0.832,0.381c0.316,0.875 0.816,1.442 1.535,1.733c0.148,0.058 0.316,0.038 0.447,-0.052c0.131,-0.09 0.21,-0.239 0.21,-0.398c0.018,-0.28 0.018,-0.597 0.018,-0.827c-0,-0.196 -0.116,-0.375 -0.295,-0.455c-0.723,-0.344 -1.222,-1.086 -1.222,-1.942c0,-1.005 0.685,-1.855 1.621,-2.097c0.364,-0.085 0.728,-0.084 1.092,0Zm-0.546,2.964c0.477,0 0.867,-0.39 0.867,-0.867c0,-0.477 -0.39,-0.867 -0.867,-0.867c-0.477,0 -0.867,0.39 -0.867,0.867c0,0.477 0.39,0.867 0.867,0.867Z" style="fill:#172a61;"/><path d="M4.786,5.777l-1.278,-0.852c-0.151,-0.101 -0.242,-0.27 -0.242,-0.452l-0,-2.93c0,-0.3 0.243,-0.543 0.543,-0.543l0.977,0l0,4.777Zm1.086,-4.777l3.257,0l0,5.5l-1.327,0.885c-0.182,0.122 -0.42,0.122 -0.602,0l-1.327,-0.885l0,-5.5Zm4.342,0l0.977,0c0.3,-0 0.543,0.243 0.543,0.543l0,2.93c-0,0.181 -0.091,0.351 -0.242,0.452l-1.278,0.852l0,-4.777Z" style="fill:#4166d0;"/><path d="M4.786,1l1.086,0l0,5.5l-1.086,-0.724l-0,-4.777Zm4.342,-0l1.086,0l0,4.777l-1.086,0.724l0,-5.5Z" style="fill:#d39f10;"/></svg>