<?xml version="1.0" encoding="UTF-8" standalone="no"?><!DOCTYPE svg PUBLIC "-//W3C//DTD SVG 1.1//EN" "http://www.w3.org/Graphics/SVG/1.1/DTD/svg11.dtd"><svg width="100%" height="100%" viewBox="0 0 15 15" version="1.1" xmlns="http://www.w3.org/2000/svg" xmlns:xlink="http://www.w3.org/1999/xlink" xml:space="preserve" xmlns:serif="http://www.serif.com/" style="fill-rule:evenodd;clip-rule:evenodd;stroke-linejoin:round;stroke-miterlimit:2;"><path d="M7.5,4.117c0.494,0 0.898,0.404 0.898,0.898l-0,8.586c-0,0.276 -0.224,0.5 -0.5,0.5c-0.249,-0 -0.548,-0 -0.797,-0c-0.276,0 -0.5,-0.224 -0.5,-0.5c-0,-1.903 -0,-8.586 -0,-8.586c0,-0.494 0.404,-0.898 0.898,-0.898Z" style="fill:#171717;"/><path d="M4.993,2.797c-0.207,0.027 -0.117,-0.009 -0.279,0.108c-1.078,1.069 -1.078,3.153 0,4.223c0.171,0.18 0.458,0.18 0.629,0c0.18,-0.171 0.18,-0.458 0,-0.629c-0.719,-0.728 -0.719,-2.237 0,-2.965c0.18,-0.171 0.18,-0.458 0,-0.629l-0.144,-0.099l-0.207,-0.009Z" style="fill:#588f35;"/><path d="M9.71,2.797c-0.207,0.027 -0.117,-0.009 -0.279,0.108c-0.18,0.171 -0.18,0.458 0,0.629c0.719,0.728 0.719,2.237 0,2.965c-0.18,0.171 -0.18,0.458 0,0.629c0.171,0.18 0.458,0.18 0.629,0c1.078,-1.069 1.078,-3.153 0,-4.223l-0.144,-0.099l-0.207,-0.009Z" style="fill:#588f35;"/><path d="M11.687,1c-0.395,0.018 -0.252,-0.054 -0.476,0.126c-0.171,0.189 -0.153,0.467 0.036,0.629c1.824,1.626 1.824,4.905 0,6.522c-0.189,0.162 -0.207,0.449 -0.036,0.629c0.162,0.189 0.449,0.207 0.629,0.036c2.237,-1.968 2.237,-5.876 0,-7.852l-0.153,-0.09Z" style="fill:#588f35;"/><path d="M3.313,1l-0.153,0.09c-2.237,1.977 -2.237,5.885 0,7.852c0.189,0.171 0.467,0.153 0.629,-0.036c0.171,-0.18 0.153,-0.467 -0.036,-0.629c-1.824,-1.617 -1.824,-4.896 0,-6.522c0.189,-0.162 0.207,-0.44 0.036,-0.629c-0.225,-0.18 -0.081,-0.108 -0.476,-0.126Z" style="fill:#588f35;"/></svg>