<svg xmlns="http://www.w3.org/2000/svg" xml:space="preserve" fill-rule="evenodd" stroke-linejoin="round" stroke-miterlimit="2" clip-rule="evenodd" viewBox="0 0 15 15"><path fill="#f4f4f4" fill-rule="nonzero" d="M5.4 3.866V2a1 1 0 0 1 1-1h2.2a1 1 0 0 1 1 1v1.866l1.617-.933a1 1 0 0 1 1.366.366l1.1 1.902a.997.997 0 0 1-.366 1.366l-1.616.933 1.616.933a1 1 0 0 1 .366 1.366l-1.1 1.902a1 1 0 0 1-1.366.366L9.6 11.134V13a1 1 0 0 1-1 1H6.4a1 1 0 0 1-1-1v-1.866l-1.617.933a1 1 0 0 1-1.366-.366l-1.1-1.902a.997.997 0 0 1 .366-1.366L3.299 7.5l-1.616-.933a1 1 0 0 1-.366-1.366l1.1-1.902a1 1 0 0 1 1.366-.366z"/><path fill="#ce4d4b" fill-rule="nonzero" d="M8.6 1.5a.5.5 0 0 1 .5.5v1.866a.499.499 0 0 0 .75.433l1.617-.933a.5.5 0 0 1 .683.183l1.1 1.902a.504.504 0 0 1-.183.684l-1.616.933a.499.499 0 0 0 0 .866l1.616.933a.5.5 0 0 1 .183.684l-1.1 1.902a.5.5 0 0 1-.683.183l-1.617-.933a.502.502 0 0 0-.75.433v1.866a.5.5 0 0 1-.5.5H6.4a.5.5 0 0 1-.5-.5v-1.866a.499.499 0 0 0-.75-.433l-1.617.933a.5.5 0 0 1-.683-.183l-1.1-1.902a.504.504 0 0 1 .183-.684l1.616-.933a.499.499 0 0 0 0-.866l-1.616-.933a.5.5 0 0 1-.183-.684l1.1-1.902a.5.5 0 0 1 .683-.183l1.617.933a.502.502 0 0 0 .75-.433V2a.5.5 0 0 1 .5-.5z"/></svg>