<?xml version="1.0" encoding="UTF-8" standalone="no"?><!DOCTYPE svg PUBLIC "-//W3C//DTD SVG 1.1//EN" "http://www.w3.org/Graphics/SVG/1.1/DTD/svg11.dtd"><svg width="100%" height="100%" viewBox="0 0 15 15" version="1.1" xmlns="http://www.w3.org/2000/svg" xmlns:xlink="http://www.w3.org/1999/xlink" xml:space="preserve" xmlns:serif="http://www.serif.com/" style="fill-rule:evenodd;clip-rule:evenodd;stroke-linejoin:round;stroke-miterlimit:2;"><path d="M11.921,6.685l-0.663,-2.769c-0.116,-0.483 -0.607,-0.787 -1.092,-0.666c-0.426,0.105 -0.634,0.399 -0.72,0.609c-0.1,0.245 -0.545,1.359 -0.647,1.588c-0.035,0.081 -0.113,0.121 -0.129,0.129c-0.089,0.038 -0.971,0.413 -0.971,0.413l0,0.003c-0.175,0.081 -0.294,0.256 -0.294,0.458c0,0.28 0.229,0.51 0.515,0.51c0.062,0 0.119,-0.013 0.175,-0.032l0,0.003l1.173,-0.488c0.162,-0.075 0.24,-0.17 0.318,-0.307c0.032,-0.059 0.135,-0.302 0.218,-0.502l0.706,2.958l0,4.581c0,0.456 0.313,0.825 0.774,0.828c0.461,0.003 0.793,-0.367 0.795,-0.822c0,0 0.005,-5.153 0.005,-5.406c0,-0.253 -0.102,-0.857 -0.159,-1.081l-0.005,-0.005Z" style="fill-rule:nonzero;"/><path d="M6.916,7.052l-1.742,-3.499l0,0.003c-0.128,-0.266 -0.4,-0.446 -0.715,-0.446l-1.608,0c-0.438,0 -0.794,0.353 -0.794,0.788l0,9.55c-0,0.133 0.053,0.26 0.146,0.354c0.094,0.094 0.221,0.146 0.354,0.146c0.949,-0 3.003,-0 3.952,-0c0.133,-0 0.26,-0.053 0.354,-0.146c0.094,-0.094 0.146,-0.221 0.146,-0.354c0,-1.523 0,-6.002 0,-6.002c0,-0.14 -0.032,-0.274 -0.09,-0.394l-0.003,0Z" style="fill:#272727;fill-rule:nonzero;"/><path d="M8.316,2.082c-0.001,0.017 -0.001,0.035 -0.001,0.052c0,0.565 0.47,1.03 1.041,1.03c0.571,0 1.041,-0.465 1.041,-1.03c0,-0.017 -0,-0.035 -0.001,-0.052c0.001,-0.017 0.001,-0.035 0.001,-0.052c0,-0.565 -0.47,-1.03 -1.041,-1.03c-0.571,0 -1.041,0.465 -1.041,1.03c0,0.017 0,0.035 0.001,0.052Z" style="fill-rule:nonzero;"/><path d="M4.296,12.241c-0.322,-0.038 -0.581,-0.16 -0.782,-0.359c-0.183,-0.183 -0.304,-0.436 -0.368,-0.756c-0.005,-0.025 0.001,-0.051 0.016,-0.071c0.015,-0.02 0.038,-0.034 0.063,-0.036l0.551,-0.06c0.044,-0.004 0.085,0.024 0.097,0.067c0.033,0.118 0.082,0.221 0.151,0.312c0.081,0.107 0.174,0.186 0.272,0.234l0,-1.172c-0.365,-0.104 -0.631,-0.262 -0.8,-0.474c-0.171,-0.211 -0.254,-0.469 -0.254,-0.769c0,-0.306 0.096,-0.563 0.289,-0.769c0.191,-0.206 0.448,-0.329 0.767,-0.359l0,-0.198c0,-0.021 0.008,-0.041 0.023,-0.056c0.015,-0.015 0.035,-0.023 0.056,-0.023l0.246,-0c0.021,-0 0.041,0.008 0.056,0.023c0.015,0.015 0.023,0.035 0.023,0.056l-0,0.198c0.294,0.036 0.531,0.138 0.704,0.303c0.153,0.146 0.259,0.337 0.315,0.572c0.006,0.025 0.001,0.051 -0.014,0.072c-0.015,0.021 -0.037,0.035 -0.063,0.038l-0.528,0.069c-0.044,0.005 -0.086,-0.022 -0.098,-0.065c-0.052,-0.179 -0.156,-0.303 -0.316,-0.373l0,1.093c0.445,0.122 0.75,0.278 0.911,0.471c0.161,0.194 0.242,0.441 0.242,0.741c0,0.336 -0.101,0.621 -0.304,0.853l-0.003,-0c-0.204,0.232 -0.486,0.372 -0.848,0.425l0,0.443c-0,0.021 -0.008,0.041 -0.023,0.056c-0.015,0.015 -0.035,0.023 -0.056,0.023l-0.246,0c-0.021,0 -0.041,-0.008 -0.056,-0.023c-0.015,-0.015 -0.023,-0.035 -0.023,-0.056l-0,-0.43Zm0.403,-1.722l0,1.09c0.141,-0.025 0.252,-0.092 0.34,-0.194c0.088,-0.104 0.131,-0.224 0.131,-0.364c0,-0.125 -0.035,-0.232 -0.108,-0.323c-0.073,-0.089 -0.194,-0.158 -0.362,-0.209Zm-0.664,-1.694c-0.065,0.089 -0.098,0.188 -0.098,0.295c0,0.099 0.03,0.191 0.088,0.275c0.06,0.084 0.151,0.153 0.269,0.206l0,-0.968c-0.108,0.038 -0.196,0.102 -0.262,0.191l0.003,0Z" style="fill:#588f35;"/></svg>