<?xml version="1.0" encoding="UTF-8" standalone="no"?><!DOCTYPE svg PUBLIC "-//W3C//DTD SVG 1.1//EN" "http://www.w3.org/Graphics/SVG/1.1/DTD/svg11.dtd"><svg width="100%" height="100%" viewBox="0 0 15 15" version="1.1" xmlns="http://www.w3.org/2000/svg" xmlns:xlink="http://www.w3.org/1999/xlink" xml:space="preserve" xmlns:serif="http://www.serif.com/" style="fill-rule:evenodd;clip-rule:evenodd;stroke-linejoin:round;stroke-miterlimit:2;"><path d="M11,4.1c0,-0.3 -0.2,-0.5 -0.5,-0.5c-1.3,-0 -4.7,-0 -6,-0c-0.3,0 -0.5,0.2 -0.5,0.5c0,1.7 0,7.3 0,7.3c0,0.4 0.3,0.8 0.8,0.8l5.4,0c0.4,0 0.8,-0.3 0.8,-0.8l0,-7.3Z" style="fill:#588f35;fill-rule:nonzero;"/><path d="M10.2,6.3c0,1.1 -1.2,1.9 -2.7,1.9c-1.5,0 -2.7,-0.9 -2.7,-1.9c0,-1.1 1.2,-1.9 2.7,-1.9c1.5,0 2.7,0.9 2.7,1.9Zm-3.5,-1.2l-0.2,0.1l0,1.8l0.2,-0.3l0,-1.6Zm1.9,0.5c-0.1,-0 -0.1,-0 -0.2,-0.1l0,1.5c0.1,-0 0.1,-0 0.2,-0.1l0,-1.4Zm-0.4,-0.1l-0.2,0l0,1.6l0.2,0l0,-1.6Zm-0.4,0l-0.2,0l0,1.6l0.2,0l0,-1.6Zm-0.8,0l-0.2,-0.2l0,1.6l0.2,0.2l0,-1.6Zm0.4,0l-0.2,0l0,1.6l0.2,0l0,-1.6Zm-1.2,-0.2c-0.1,0 -0.1,0.1 -0.2,0.1l0,1.8c0.1,0.1 0.2,0.1 0.2,0.1l0,-2Zm2.7,1c0,-0.2 -0.1,-0.4 -0.2,-0.5l0,1.1c0.1,-0.1 0.2,-0.3 0.2,-0.5Zm-3.1,-0.7c-0.1,0.1 -0.1,0.1 -0.2,0.2l0,1.1c0.1,0.1 0.1,0.1 0.2,0.2l0,-1.5Z" style="fill:#e7e299;"/><path d="M6.3,11c0,0.2 -0.2,0.4 -0.4,0.4l-0.7,0c-0.3,-0 -0.5,-0.2 -0.5,-0.5l0,-0.7c0,-0.2 0.2,-0.4 0.4,-0.4c0.2,0 0.4,0.2 0.4,0.4c0,0.2 -0.2,0.4 -0.4,0.4l0.4,0.4c0,-0.2 0.2,-0.4 0.4,-0.4c0.2,0 0.4,0.2 0.4,0.4Z" style="fill:#e7e299;"/><path d="M10.2,10.2l0,0.7c-0,0.3 -0.2,0.5 -0.5,0.5l-0.7,0c-0.2,0 -0.4,-0.2 -0.4,-0.4c0,-0.2 0.2,-0.4 0.4,-0.4c0.2,0 0.4,0.2 0.4,0.4l0.4,-0.4c-0.2,0 -0.4,-0.2 -0.4,-0.4c0,-0.2 0.2,-0.4 0.4,-0.4c0.2,0 0.4,0.2 0.4,0.4Z" style="fill:#e7e299;"/><path d="M4,12.3c0,0.9 0.4,1.3 0.9,1.3l5.3,0c0.5,0 0.9,-0.4 0.9,-1.3c-0.3,0.2 -0.4,0.4 -0.9,0.4l-5.3,0.1c-0.4,-0 -0.6,-0.2 -0.9,-0.5Z" style="fill:#588f35;"/><path d="M11.5,2.3l-8,0c-0.3,0 -0.5,0.2 -0.5,0.5l-0,0.7c-0,0.1 -0.1,0.3 -0.2,0.4c-0.1,0.1 -0.3,0.1 -0.4,0.1c-0.2,-0 -0.4,-0.2 -0.4,-0.5l-0,-1.7c0,-0.3 0.2,-0.5 0.5,-0.5l10,0c0.3,0 0.5,0.2 0.5,0.5l-0,1.7c0,0.3 -0.2,0.5 -0.4,0.5c-0.1,0 -0.3,-0 -0.4,-0.1c-0.1,-0.1 -0.2,-0.2 -0.2,-0.4l0,-0.7c0,-0.3 -0.2,-0.5 -0.5,-0.5Z" style="fill:#414141;"/><path d="M3,4l-1,0" style="fill:none;"/></svg>