<?xml version="1.0" encoding="UTF-8" standalone="no"?><!DOCTYPE svg PUBLIC "-//W3C//DTD SVG 1.1//EN" "http://www.w3.org/Graphics/SVG/1.1/DTD/svg11.dtd"><svg width="100%" height="100%" viewBox="0 0 15 15" version="1.1" xmlns="http://www.w3.org/2000/svg" xmlns:xlink="http://www.w3.org/1999/xlink" xml:space="preserve" xmlns:serif="http://www.serif.com/" style="fill-rule:evenodd;clip-rule:evenodd;stroke-linejoin:round;stroke-miterlimit:2;"><path d="M4.033,5.765l0.452,0c0.241,-0 0.447,0.171 0.491,0.408c0.179,0.956 0.612,3.262 0.612,3.262c-0.013,0.368 -0.32,0.664 -0.688,0.663l-0.91,0c-0.229,0 -0.429,-0.156 -0.485,-0.379c-0.225,-0.899 -0.772,-3.088 -0.772,-3.088c0,0 0,-0.867 1.3,-0.867Zm6.933,0c1.3,0 1.3,0.867 1.3,0.867c0,0 -0.547,2.189 -0.772,3.088c-0.056,0.223 -0.256,0.379 -0.485,0.379c-0.383,-0 -0.91,-0 -0.91,-0c-0.368,0.001 -0.675,-0.295 -0.688,-0.663c0,0 0.432,-2.306 0.612,-3.262c0.044,-0.236 0.251,-0.408 0.491,-0.408c0.223,0 0.452,0 0.452,0Zm1.666,5.035c-0.218,-0.159 -0.362,-0.414 -0.366,-0.701c0,0 0.21,-1.048 0.337,-1.686c0.031,-0.156 0.134,-0.287 0.277,-0.355c0.144,-0.068 0.311,-0.063 0.45,0.012c0.099,0.067 0.198,0.137 0.286,0.219c0.178,0.161 0.301,0.372 0.356,0.603c0.012,0.053 0.021,0.107 0.027,0.161l0,1.412c-0,0.276 -0.224,0.5 -0.5,0.5c-0.145,0 -0.264,0 -0.264,0c-0.028,0.003 -0.057,0.004 -0.085,0.004c-0.193,0 -0.372,-0.063 -0.518,-0.169Zm-10.553,0.138c-0.074,0.02 -0.151,0.031 -0.23,0.031c-0.028,0 -0.057,-0.001 -0.085,-0.004l-0.264,0c-0.276,-0 -0.5,-0.224 -0.5,-0.5c0,-0.566 0,-1.412 0,-1.412c0.028,-0.293 0.164,-0.566 0.382,-0.764c0.058,-0.054 0.119,-0.102 0.184,-0.144c0.034,-0.022 0.069,-0.042 0.104,-0.061c0.139,-0.075 0.305,-0.08 0.447,-0.013c0.143,0.067 0.245,0.198 0.276,0.352c0.131,0.638 0.339,1.675 0.339,1.675c-0.006,0.4 -0.283,0.739 -0.654,0.84Zm4.12,-1.273l-0.612,-4.436c-0.003,-1.198 1.912,-1.198 1.912,-1.198c0,0 0.968,0 1.526,0.432c0.226,0.175 0.385,0.421 0.385,0.766l-0.612,4.436l0,0.018c0,0.465 -0.383,0.848 -0.848,0.848l-0.018,-0l-0.867,0l-0.018,0c-0.465,0 -0.848,-0.383 -0.848,-0.848l0,-0.018Z" style="fill:#b67138;"/></svg>