<?xml version="1.0" encoding="UTF-8" standalone="no"?><!DOCTYPE svg PUBLIC "-//W3C//DTD SVG 1.1//EN" "http://www.w3.org/Graphics/SVG/1.1/DTD/svg11.dtd"><svg width="100%" height="100%" viewBox="0 0 15 15" version="1.1" xmlns="http://www.w3.org/2000/svg" xmlns:xlink="http://www.w3.org/1999/xlink" xml:space="preserve" xmlns:serif="http://www.serif.com/" style="fill-rule:evenodd;clip-rule:evenodd;stroke-linejoin:round;stroke-miterlimit:2;"><path id="rect5668" d="M1,3c-0.554,0 -1,0.446 -1,1l0,7c0,0.554 0.446,1 1,1l13,0c0.554,0 1,-0.446 1,-1l0,-7c0,-0.554 -0.446,-1 -1,-1l-13,0Zm0,1l1.5,0c0.276,0 0.5,0.224 0.5,0.5c0,0.276 -0.224,0.5 -0.5,0.5c-0.276,0 -0.5,-0.224 -0.5,-0.5l-0.5,0.5c0.276,0 0.5,0.224 0.5,0.5c0,0.276 -0.224,0.5 -0.5,0.5c-0.276,0 -0.5,-0.224 -0.5,-0.5l0,-1.5Zm6.5,0c1.381,0 2.5,1.567 2.5,3.5c0,1.933 -1.119,3.5 -2.5,3.5c-1.381,0 -2.5,-1.567 -2.5,-3.5c0,-1.933 1.119,-3.5 2.5,-3.5Zm5,0l1.5,0l0,1.5c0,0.276 -0.224,0.5 -0.5,0.5c-0.276,0 -0.5,-0.224 -0.5,-0.5c0,-0.276 0.224,-0.5 0.5,-0.5l-0.5,-0.5c0,0.276 -0.224,0.5 -0.5,0.5c-0.276,0 -0.5,-0.224 -0.5,-0.5c0,-0.276 0.224,-0.5 0.5,-0.5Zm-5,1.5c-0.323,0 -0.534,0.109 -0.682,0.25l1.363,0c-0.148,-0.141 -0.359,-0.25 -0.682,-0.25Zm-0.875,0.5c-0.045,0.091 -0.062,0.171 -0.08,0.25l1.91,0c-0.018,-0.079 -0.035,-0.159 -0.08,-0.25l-1.75,0Zm-0.125,0.5l0,0.25l2,0l0,-0.25l-2,0Zm0,0.5l0,0.25l2,0l0,-0.25l-2,0Zm0,0.5l0,0.25l2,0l0,-0.25l-2,0Zm0,0.5l-0.25,0.25l2,0l0.25,-0.25l-2,0Zm-0.5,0.5c0,0 0.035,0.102 0.102,0.25l2.273,0l-0.375,-0.25l-2,0Zm-4.5,0.5c0.276,0 0.5,0.224 0.5,0.5c0,0.276 -0.224,0.5 -0.5,0.5l0.5,0.5c0,-0.276 0.224,-0.5 0.5,-0.5c0.276,0 0.5,0.224 0.5,0.5c0,0.276 -0.224,0.5 -0.5,0.5l-1.5,0l0,-1.5c0,-0.276 0.224,-0.5 0.5,-0.5Zm4.738,0c0.046,0.086 0.076,0.159 0.137,0.25l2.268,0c0.067,-0.138 0.107,-0.25 0.107,-0.25l-2.512,0Zm7.262,0c0.276,0 0.5,0.224 0.5,0.5l0,1.5l-1.5,0c-0.276,0 -0.5,-0.224 -0.5,-0.5c0,-0.276 0.224,-0.5 0.5,-0.5c0.276,0 0.5,0.224 0.5,0.5l0.5,-0.5c-0.276,0 -0.5,-0.224 -0.5,-0.5c0,-0.276 0.224,-0.5 0.5,-0.5Zm-6.934,0.5c0.079,0.091 0.165,0.176 0.26,0.25l1.42,0c0.1,-0.077 0.188,-0.162 0.254,-0.25l-1.934,0Z" style="fill:#588f35;fill-rule:nonzero;"/><path d="M1,4l1.5,0c0.276,0 0.5,0.224 0.5,0.5c0,0.276 -0.224,0.5 -0.5,0.5c-0.276,0 -0.5,-0.224 -0.5,-0.5l-0.5,0.5c0.276,0 0.5,0.224 0.5,0.5c0,0.276 -0.224,0.5 -0.5,0.5c-0.276,0 -0.5,-0.224 -0.5,-0.5l0,-1.5Z" style="fill:#e7e299;"/><path d="M12.5,4l1.5,0l0,1.5c0,0.276 -0.224,0.5 -0.5,0.5c-0.276,0 -0.5,-0.224 -0.5,-0.5c0,-0.276 0.224,-0.5 0.5,-0.5l-0.5,-0.5c0,0.276 -0.224,0.5 -0.5,0.5c-0.276,0 -0.5,-0.224 -0.5,-0.5c0,-0.276 0.224,-0.5 0.5,-0.5Z" style="fill:#e7e299;"/><path d="M13.5,9c0.276,0 0.5,0.224 0.5,0.5l0,1.5l-1.5,0c-0.276,0 -0.5,-0.224 -0.5,-0.5c0,-0.276 0.224,-0.5 0.5,-0.5c0.276,0 0.5,0.224 0.5,0.5l0.5,-0.5c-0.276,0 -0.5,-0.224 -0.5,-0.5c0,-0.276 0.224,-0.5 0.5,-0.5Z" style="fill:#e7e299;"/><path d="M1.5,9c0.276,0 0.5,0.224 0.5,0.5c0,0.276 -0.224,0.5 -0.5,0.5l0.5,0.5c0,-0.276 0.224,-0.5 0.5,-0.5c0.276,0 0.5,0.224 0.5,0.5c0,0.276 -0.224,0.5 -0.5,0.5l-1.5,0l0,-1.5c0,-0.276 0.224,-0.5 0.5,-0.5Z" style="fill:#e7e299;"/><path d="M7.5,4c1.381,0 2.5,1.567 2.5,3.5c0,1.933 -1.119,3.5 -2.5,3.5c-1.381,0 -2.5,-1.567 -2.5,-3.5c0,-1.933 1.119,-3.5 2.5,-3.5Zm-1,4l-0.25,0.25l2,0l0.25,-0.25l-2,0Zm0,-1l0,0.25l2,0l0,-0.25l-2,0Zm0.125,-1c-0.045,0.091 -0.062,0.171 -0.08,0.25l1.91,0c-0.018,-0.079 -0.035,-0.159 -0.08,-0.25l-1.75,0Zm0.875,-0.5c-0.323,0 -0.534,0.109 -0.682,0.25l1.363,0c-0.148,-0.141 -0.359,-0.25 -0.682,-0.25Zm-0.934,4c0.079,0.091 0.165,0.176 0.26,0.25l1.42,0c0.1,-0.077 0.188,-0.162 0.254,-0.25l-1.934,0Zm-0.066,-3l0,0.25l2,0l0,-0.25l-2,0Zm-0.5,2c0,0 0.035,0.102 0.102,0.25l2.273,0l-0.375,-0.25l-2,0Zm0.238,0.5c0.046,0.086 0.076,0.159 0.137,0.25l2.268,0c0.067,-0.138 0.107,-0.25 0.107,-0.25l-2.512,0Zm0.262,-1.5l0,0.25l2,0l0,-0.25l-2,0Z" style="fill:#e7e299;"/></svg>