<?xml version="1.0" encoding="UTF-8" standalone="no"?><!DOCTYPE svg PUBLIC "-//W3C//DTD SVG 1.1//EN" "http://www.w3.org/Graphics/SVG/1.1/DTD/svg11.dtd"><svg width="100%" height="100%" viewBox="0 0 15 15" version="1.1" xmlns="http://www.w3.org/2000/svg" xmlns:xlink="http://www.w3.org/1999/xlink" xml:space="preserve" xmlns:serif="http://www.serif.com/" style="fill-rule:evenodd;clip-rule:evenodd;stroke-linejoin:round;stroke-miterlimit:2;"><path d="M7.5,1c-2,0 -7,0.25 -6.5,0.75l5.861,6.105c0.089,0.093 0.139,0.217 0.139,0.346l0,3.799c0,0.803 -1.934,0.639 -2.697,1.32c-0.061,0.14 -0.047,0.302 0.037,0.43c0.084,0.128 0.227,0.205 0.38,0.205c1.343,0.046 4.216,0.046 5.559,0.046c0.169,0 0.326,-0.084 0.419,-0.225c0.093,-0.141 0.108,-0.319 0.041,-0.474c-0.805,-0.662 -2.74,-0.498 -2.74,-1.301l-0,-3.799c-0,-0.129 0.05,-0.253 0.139,-0.346l5.861,-6.105c0.5,-0.5 -4.5,-0.75 -6.5,-0.75Zm-0.354,5.646c-0.978,-0.978 -4.396,-4.396 -4.396,-4.396c0,0 2.25,-0.25 4.75,-0.25c2.5,0 4.75,0.25 4.75,0.25c0,0 -3.419,3.419 -4.396,4.396c-0.094,0.094 -0.221,0.146 -0.354,0.146c-0.133,0 -0.26,-0.053 -0.354,-0.146Z" style="fill:#c5cfdc;"/><path d="M11.5,3c0,0 -2.669,2.669 -3.646,3.646c-0.094,0.094 -0.221,0.146 -0.354,0.146c-0.133,0 -0.26,-0.053 -0.354,-0.146c-0.978,-0.978 -3.646,-3.646 -3.646,-3.646l8,0Z" style="fill:#a83c3a;"/></svg>