<?xml version="1.0" encoding="UTF-8" standalone="no"?><!DOCTYPE svg PUBLIC "-//W3C//DTD SVG 1.1//EN" "http://www.w3.org/Graphics/SVG/1.1/DTD/svg11.dtd"><svg width="100%" height="100%" viewBox="0 0 15 15" version="1.1" xmlns="http://www.w3.org/2000/svg" xmlns:xlink="http://www.w3.org/1999/xlink" xml:space="preserve" xmlns:serif="http://www.serif.com/" style="fill-rule:evenodd;clip-rule:evenodd;stroke-linejoin:round;stroke-miterlimit:2;"><path d="M13.023,9.5l-11.045,-0l-0.134,-0.015l-0.126,-0.044l-0.113,-0.071l-0.096,-0.096l-0.072,-0.115l-0.044,-0.126l-0.015,-0.133l0.015,-0.134l1.064,-4.634c0.07,-0.307 0.281,-0.562 0.568,-0.69l4.069,-1.808c0.259,-0.115 0.554,-0.115 0.812,-0l4.069,1.808c0.287,0.128 0.498,0.383 0.568,0.69l1.064,4.634l0.015,0.134l-0.015,0.133l-0.044,0.126l-0.072,0.115l-0.096,0.096l-0.113,0.071l-0.126,0.044l-0.134,0.015Z" style="fill:#f4f4f4;"/><path d="M12,9l0,4.9c-0,0.027 -0.011,0.052 -0.029,0.071c-0.019,0.019 -0.044,0.029 -0.071,0.029c-0.919,0 -7.881,0 -8.8,0c-0.027,0 -0.052,-0.011 -0.071,-0.029c-0.019,-0.019 -0.029,-0.044 -0.029,-0.071c0,-0.705 0,-4.9 0,-4.9l-1.023,0c-0.03,0 -0.059,-0.014 -0.078,-0.038c-0.019,-0.024 -0.026,-0.055 -0.019,-0.085c0.15,-0.654 0.859,-3.74 1.064,-4.634c0.035,-0.153 0.141,-0.281 0.284,-0.345c0.78,-0.346 3.329,-1.479 4.069,-1.808c0.129,-0.057 0.277,-0.057 0.406,-0c0.74,0.329 3.289,1.462 4.069,1.808c0.144,0.064 0.249,0.192 0.284,0.345c0.205,0.894 0.914,3.98 1.064,4.634c0.007,0.03 -0,0.061 -0.019,0.085c-0.019,0.024 -0.048,0.038 -0.078,0.038c-0.298,-0 -1.023,-0 -1.023,-0Z" style="fill:#a83c3a;"/><path d="M3,14l-0,-5l9,0l-0,5l-0.5,0l0,-4.5l-1.5,-0l-0,4.5l-0.5,-0l0,-4.5l-4,-0l-0,4.5l-0.5,0l0,-4.5l-1.5,0l-0,4.5l-0.5,0Zm2.5,-9c-0,-0.133 0.053,-0.26 0.146,-0.354c0.094,-0.094 0.221,-0.146 0.354,-0.146l3,-0c0.133,-0 0.26,0.053 0.354,0.146c0.094,0.094 0.146,0.221 0.146,0.354l-0,2c0,0.133 -0.053,0.26 -0.146,0.354c-0.094,0.094 -0.221,0.146 -0.354,0.146l-3,-0c-0.133,0 -0.26,-0.053 -0.354,-0.146c-0.094,-0.094 -0.146,-0.221 -0.146,-0.354l0,-2Z" style="fill:#f4f4f4;"/><path d="M9.5,14l-4,-0l0,-4.5l4,0l-0,4.5Zm-3.5,-8.9c-0,-0.027 0.011,-0.052 0.029,-0.071c0.019,-0.019 0.044,-0.029 0.071,-0.029l2.8,-0c0.027,-0 0.052,0.011 0.071,0.029c0.019,0.019 0.029,0.044 0.029,0.071l-0,1.8c0,0.027 -0.011,0.052 -0.029,0.071c-0.019,0.019 -0.044,0.029 -0.071,0.029l-2.8,0c-0.027,0 -0.052,-0.011 -0.071,-0.029c-0.019,-0.019 -0.029,-0.044 -0.029,-0.071l0,-1.8Z" style="fill:#272727;"/></svg>