<?xml version="1.0" encoding="UTF-8" standalone="no"?><!DOCTYPE svg PUBLIC "-//W3C//DTD SVG 1.1//EN" "http://www.w3.org/Graphics/SVG/1.1/DTD/svg11.dtd"><svg width="100%" height="100%" viewBox="0 0 15 15" version="1.1" xmlns="http://www.w3.org/2000/svg" xmlns:xlink="http://www.w3.org/1999/xlink" xml:space="preserve" xmlns:serif="http://www.serif.com/" style="fill-rule:evenodd;clip-rule:evenodd;stroke-linejoin:round;stroke-miterlimit:2;"><path d="M2,10l11,0c0.265,0 0.52,-0.105 0.707,-0.293c0.188,-0.188 0.293,-0.442 0.293,-0.707l0,-6c0,-0.265 -0.105,-0.52 -0.293,-0.707c-0.188,-0.188 -0.442,-0.293 -0.707,-0.293l-11,0c-0.265,0 -0.52,0.105 -0.707,0.293c-0.188,0.188 -0.293,0.442 -0.293,0.707l0,6c0,0.265 0.105,0.52 0.293,0.707c0.188,0.188 0.442,0.293 0.707,0.293Zm9.5,-1l-2,0l-6,-6l2,0l6,6Zm-9.5,0l0,-2l2,2l-2,0Zm11,-6l0,2l-2,-2l2,0Zm-3.5,0l3.5,3.5l0,2.5l-6,-6l2.5,0Zm-4,6l-3.5,-3.5l0,-2.5l6,6l-2.5,0Z" style="fill:#f4f4f4;"/><path d="M3,10l0,2.5c0,0.133 0.053,0.26 0.146,0.354c0.094,0.094 0.221,0.146 0.354,0.146c0.133,0 0.26,-0.053 0.354,-0.146c0.094,-0.094 0.146,-0.221 0.146,-0.354l0,-0.5l7,0l0,0.5c0,0.133 0.053,0.26 0.146,0.354c0.094,0.094 0.221,0.146 0.354,0.146c0.133,0 0.26,-0.053 0.354,-0.146c0.094,-0.094 0.146,-0.221 0.146,-0.354l0,-2.5l-1,0l0,1l-7,0l0,-1l-1,0Z" style="fill:#272727;"/><path d="M2,9l0,-2l2,2l-2,0Z" style="fill:#a83c3a;"/><path d="M5.5,9l-3.5,-3.5l0,-2.5l6,6l-2.5,0Z" style="fill:#a83c3a;"/><path d="M11.5,9l-2,0l-6,-6l2,0l6,6Z" style="fill:#a83c3a;"/><path d="M9.5,3l3.5,3.5l0,2.5l-6,-6l2.5,0Z" style="fill:#a83c3a;"/><path d="M13,3l0,2l-2,-2l2,0Z" style="fill:#a83c3a;"/></svg>