<?xml version="1.0" encoding="UTF-8" standalone="no"?><!DOCTYPE svg PUBLIC "-//W3C//DTD SVG 1.1//EN" "http://www.w3.org/Graphics/SVG/1.1/DTD/svg11.dtd"><svg width="100%" height="100%" viewBox="0 0 15 15" version="1.1" xmlns="http://www.w3.org/2000/svg" xmlns:xlink="http://www.w3.org/1999/xlink" xml:space="preserve" xmlns:serif="http://www.serif.com/" style="fill-rule:evenodd;clip-rule:evenodd;stroke-linejoin:round;stroke-miterlimit:2;"><path d="M4.75,1c-0.138,0 -0.25,0.112 -0.25,0.25c0,0.5 -0.5,0.5 -0.5,0.5c-1,0 -1,1 -1,1c0,0.138 0.112,0.25 0.25,0.25c0.138,0 0.25,-0.112 0.25,-0.25c0,-0.5 0.5,-0.5 0.5,-0.5c1,0 1,-1 1,-1c0,-0.138 -0.112,-0.25 -0.25,-0.25Zm2,0c-0.138,0 -0.25,0.112 -0.25,0.25c0,0.5 -0.5,0.5 -0.5,0.5c-1,0 -1,1 -1,1c0,0.138 0.112,0.25 0.25,0.25c0.138,0 0.25,-0.112 0.25,-0.25c0,-0.5 0.5,-0.5 0.5,-0.5c1,0 1,-1 1,-1c0,-0.138 -0.112,-0.25 -0.25,-0.25Zm2,0c-0.138,0 -0.25,0.112 -0.25,0.25c0,0.5 -0.5,0.5 -0.5,0.5c-1,0 -1,1 -1,1c0,0.138 0.112,0.25 0.25,0.25c0.138,0 0.25,-0.112 0.25,-0.25c0,-0.5 0.5,-0.5 0.5,-0.5c1,0 1,-1 1,-1c0,-0.138 -0.112,-0.25 -0.25,-0.25Zm2,0c-0.138,0 -0.25,0.112 -0.25,0.25c0,0.5 -0.5,0.5 -0.5,0.5c-1,0 -1,1 -1,1c0,0.138 0.112,0.25 0.25,0.25c0.138,0 0.25,-0.112 0.25,-0.25c0,-0.5 0.5,-0.5 0.5,-0.5c1,0 1,-1 1,-1c0,-0.138 -0.112,-0.25 -0.25,-0.25Zm2,0c-0.138,0 -0.25,0.112 -0.25,0.25c0,0.5 -0.5,0.5 -0.5,0.5c-1,0 -1,1 -1,1c0,0.138 0.112,0.25 0.25,0.25c0.138,0 0.25,-0.112 0.25,-0.25c0,-0.5 0.5,-0.5 0.5,-0.5c1,0 1,-1 1,-1c0,-0.138 -0.112,-0.25 -0.25,-0.25Z" style="fill:#a83c3a;"/><path d="M3.544,4c0,0 7.042,0.005 7.912,0.01c0.142,-0 0.277,0.062 0.37,0.169c0.093,0.108 0.135,0.25 0.114,0.391c-0.25,1.409 -1.245,2.601 -2.62,3.084l2.633,5.634c0.117,0.25 0.009,0.547 -0.241,0.664c-0.066,0.031 -0.139,0.047 -0.212,0.047c-0.193,0.001 -0.368,-0.109 -0.452,-0.283l-0.335,-0.717l-4.223,0c-0.563,0.748 -1.497,1.119 -2.42,0.959c-1.357,-0.236 -2.266,-1.527 -2.031,-2.884c0.236,-1.357 1.527,-2.266 2.884,-2.031l0.707,-1.413c-1.35,-0.492 -2.322,-1.671 -2.581,-3.058c-0.021,-0.144 0.021,-0.29 0.116,-0.4c0.095,-0.11 0.233,-0.173 0.379,-0.173Zm3.406,8l3.295,-0.007l-1.9,-4.07c-0.577,0.104 -1.168,0.104 -1.745,0l-0.741,1.483c0.864,0.557 1.298,1.587 1.091,2.594Zm-2.45,0.75c0.69,-0.002 1.248,-0.56 1.25,-1.25c0,-0.69 -0.56,-1.25 -1.25,-1.25c-0.69,0 -1.25,0.56 -1.25,1.25c0,0.69 0.56,1.25 1.25,1.25Z" style="fill:#171717;"/><path d="M4.5,12.75c-0.69,0 -1.25,-0.56 -1.25,-1.25c0,-0.69 0.56,-1.25 1.25,-1.25c0.69,0 1.25,0.56 1.25,1.25c-0.002,0.69 -0.56,1.248 -1.25,1.25Z" style="fill:#272727;"/></svg>