<?xml version="1.0" encoding="UTF-8" standalone="no"?><!DOCTYPE svg PUBLIC "-//W3C//DTD SVG 1.1//EN" "http://www.w3.org/Graphics/SVG/1.1/DTD/svg11.dtd"><svg width="100%" height="100%" viewBox="0 0 15 15" version="1.1" xmlns="http://www.w3.org/2000/svg" xmlns:xlink="http://www.w3.org/1999/xlink" xml:space="preserve" xmlns:serif="http://www.serif.com/" style="fill-rule:evenodd;clip-rule:evenodd;stroke-linejoin:round;stroke-miterlimit:2;"><path d="M10.989,8.728c-0.48,1.076 -0.583,2.264 -0.324,3.378l0.04,0.282l-0.018,0.282l-0.074,0.273l-0.13,0.256l-0.18,0.226l-0.22,0.186l-0.254,0.142l-0.28,0.092l-0.042,0.009c-0.481,0.088 -1.131,0.146 -2.007,0.146c-0.886,0 -1.541,-0.06 -2.025,-0.149l-0.043,-0.009l-0.281,-0.093l-0.254,-0.143l-0.22,-0.188l-0.179,-0.228l-0.128,-0.258l-0.073,-0.274l-0.016,-0.283c0,-0 0.039,-0.257 0.04,-0.269c0.272,-1.12 0.168,-2.304 -0.31,-3.376l-0.011,-0.024l-0.012,-0.024c-0.618,-1.183 -0.956,-2.483 -0.987,-3.807l-0,-0.021c-0,-0.133 0.001,-1.259 0.014,-2.064l0,-0.002l0.074,-0.421l0.193,-0.374l0.296,-0.306l0.383,-0.214l0.04,-0.014c0.672,-0.226 1.777,-0.457 3.499,-0.457c1.706,0 2.808,0.229 3.492,0.449l0.031,0.011l0.4,0.215l0.308,0.314l0.198,0.387l0.07,0.434l0.001,2.03l-0,0.021c-0.03,1.328 -0.368,2.632 -0.988,3.819l-0.012,0.024l-0.011,0.024c0,0 -0.164,0.337 0,0Z" style="fill:#c5cfdc;fill-rule:nonzero;"/><path d="M11,4.84c-0.027,1.192 -0.332,2.364 -0.892,3.428l-0.025,0.051c-0.575,1.27 -0.701,2.676 -0.392,4.012c0.031,0.124 0.009,0.254 -0.06,0.363c-0.069,0.108 -0.181,0.186 -0.31,0.215c-0.437,0.079 -1.026,0.129 -1.822,0.129c-0.804,0 -1.398,-0.051 -1.837,-0.132c-0.129,-0.03 -0.241,-0.108 -0.31,-0.217c-0.069,-0.109 -0.09,-0.241 -0.058,-0.365c0.323,-1.329 0.196,-2.734 -0.379,-4.004l-0.025,-0.051c-0.558,-1.061 -0.863,-2.228 -0.892,-3.417l7,-0.011Z" style="fill:#d39f10;"/><path d="M4,4.851c-0,-0.132 0.001,-1.249 0.014,-2.047c0.004,-0.194 0.128,-0.367 0.315,-0.438c0.609,-0.204 1.61,-0.403 3.17,-0.403c1.55,0 2.553,0.199 3.174,0.399c0.195,0.07 0.325,0.249 0.325,0.45l0.001,2.028c0,0 -2.333,0.25 -3.5,0.252c-1.167,0.002 -3.5,-0.241 -3.5,-0.241Z" style="fill:#eeebe6;"/></svg>