<svg xmlns="http://www.w3.org/2000/svg" xml:space="preserve" fill-rule="evenodd" stroke-linejoin="round" stroke-miterlimit="2" clip-rule="evenodd" viewBox="0 0 15 15"><path fill="#171717" d="M11.8 7.5v.7h-.9v-.7zM4 7.5v.7h-.9v-.7zm8.7-1.4c0-.1 0-.2.1-.2.1-.1.1-.1.2-.1h.3c.1 0 .2 0 .2.1.1.1.1.1.1.2v5.7c0 .1 0 .1-.1.1h-.7c-.1 0-.1 0-.1-.1zm-.9 3.4v1c0 .1 0 .1-.1.1H11c-.1 0-.1 0-.1-.1v-1zM4 9.5v1c0 .1 0 .1-.1.1h-.7c-.1 0-.1 0-.1-.1v-1zm-1.7 2.2v.1h-.9V6c0-.1 0-.2.1-.2.1-.1.1-.1.2-.1H2c.1 0 .2 0 .2.1.1.1.1.1.1.2z"/><path fill="#895100" d="M2.8 7.5c-.1 0-.3-.1-.4-.1-.1-.1-.1-.2-.1-.4V3.7c0-.1.1-.3.1-.4.1-.1.2-.1.4-.1h9.4c.1 0 .3.1.4.1.1.1.1.2.1.4V7c0 .1-.1.3-.1.4-.1.1-.2.1-.4.1zM14 9.1c0 .1 0 .2-.1.2-.1.1-.1.1-.2.1H1.3c-.1 0-.2 0-.2-.1-.1-.1-.1-.1-.1-.2v-.7c0-.1 0-.2.1-.2.1-.1.1-.1.2-.1h12.4c.1 0 .2 0 .2.1.1.1.1.1.1.2z"/></svg>