<svg xmlns="http://www.w3.org/2000/svg" xml:space="preserve" fill-rule="evenodd" stroke-linejoin="round" stroke-miterlimit="2" clip-rule="evenodd" viewBox="0 0 15 15"><path fill="#171717" d="M12.7 6.067a.3.3 0 0 1 .3-.3h.267a.3.3 0 0 1 .3.3v5.667a.1.1 0 0 1-.1.1H12.8a.1.1 0 0 1-.1-.1zM2.3 11.734a.1.1 0 0 1-.1.1h-.667a.1.1 0 0 1-.1-.1V6.067a.3.3 0 0 1 .3-.3H2a.3.3 0 0 1 .3.3z"/><path fill="#895100" d="M2.8 7.5a.5.5 0 0 1-.5-.5V3.667a.5.5 0 0 1 .5-.5h9.4a.5.5 0 0 1 .5.5V7a.5.5 0 0 1-.5.5zM14 9.15a.3.3 0 0 1-.3.3H1.3a.3.3 0 0 1-.3-.3v-.7a.3.3 0 0 1 .3-.3h12.4a.3.3 0 0 1 .3.3z"/></svg>