<svg xmlns="http://www.w3.org/2000/svg" xml:space="preserve" fill-rule="evenodd" stroke-linejoin="round" stroke-miterlimit="2" clip-rule="evenodd" viewBox="0 0 15 15"><path fill="#f4f4f4" d="M2.053 7.65s.075-.108.114-.149a.82.82 0 0 1 .566-.234c.071-.003.196-.003.266 0a.82.82 0 0 1 .566.234c.039.041.114.149.114.149h7.64s.075-.108.114-.149a.82.82 0 0 1 .566-.234c.071-.003.266 0 .267 0s.381.039.566.234c.039.041.114.149.114.149s.602-.003.753 0a.83.83 0 0 1 .566.234.82.82 0 0 1 .234.566c.003.143.003.557 0 .7a.83.83 0 0 1-.234.566.83.83 0 0 1-.566.234c-.132.003-.633 0-.633 0s.008 1.447 0 1.783c-.007.312-.28.583-.6.6-.15.008-.517.008-.667 0a.636.636 0 0 1-.6-.6c-.008-.336 0-1.783 0-1.783h-7.4s.008 1.448 0 1.783a.637.637 0 0 1-.6.6 9 9 0 0 1-.667 0 .633.633 0 0 1-.6-.6c-.008-.335 0-1.783 0-1.783s-.502.003-.633 0a.83.83 0 0 1-.566-.234.82.82 0 0 1-.234-.566 27 27 0 0 1 0-.7.83.83 0 0 1 .234-.566.83.83 0 0 1 .566-.234c.152-.003.753 0 .753 0Z"/><path fill="#171717" d="M11.7 8.067c0-.159.141-.3.3-.3h.267c.159 0 .3.141.3.3v3.667a.1.1 0 0 1-.1.1H11.8a.1.1 0 0 1-.1-.1zm-8.4 3.667a.1.1 0 0 1-.1.1h-.667a.1.1 0 0 1-.1-.1V8.067c0-.159.141-.3.3-.3H3c.159 0 .3.141.3.3z"/><path fill="#895100" d="M14 9.15c0 .158-.14.3-.3.3H1.3c-.16 0-.3-.142-.3-.3v-.7c0-.158.14-.3.3-.3h12.4c.16 0 .3.142.3.3z"/></svg>