<svg xmlns="http://www.w3.org/2000/svg" xml:space="preserve" fill-rule="evenodd" stroke-linejoin="round" stroke-miterlimit="2" clip-rule="evenodd" viewBox="0 0 15 15"><path fill="#f4f4f4" d="M11.5 7.76h2.2c.43 0 .79.38.8.8v.7a.83.83 0 0 1-.8.8h-1.2v2.59a.64.64 0 0 1-.6.6h-.8a.64.64 0 0 1-.6-.6v-2.59h-6v2.59a.6.6 0 0 1-.6.6h-.8c-.24 0-.6-.19-.6-.6v-2.59H1.3a.83.83 0 0 1-.8-.8v-.7c.01-.44.38-.8.8-.8h2.2v-.25H2.1a.63.63 0 0 1-.6-.6v-2.3a.64.64 0 0 1 .6-.6h1.4v-.4a.64.64 0 0 1 .6-.6h.8c.31.01.58.28.6.6v.4h4v-.4a.64.64 0 0 1 .6-.6h.8c.31.01.58.28.6.6v.4h1.4c.32.01.59.28.6.6v2.3a.64.64 0 0 1-.6.6h-1.4zm-6 0h4v-.25h-4z"/><path fill="#171717" d="M11 8.26h2.7c.16 0 .3.14.3.3v.7a.3.3 0 0 1-.3.3H12v3.09q0 .1-.1.1h-.8q-.1 0-.1-.1V9.56H4v3.09a.1.1 0 0 1-.1.1h-.8a.1.1 0 0 1-.1-.1V9.56H1.3a.3.3 0 0 1-.3-.3v-.7c0-.16.14-.3.3-.3H4V7.01H2.1a.1.1 0 0 1-.1-.1v-2.3q.01-.09.1-.1H4v-.9q.01-.09.1-.1h.8q.09.01.1.1v.9h5v-.9q.01-.09.1-.1h.8q.09.01.1.1v.9h1.9q.09.01.1.1v2.3a.1.1 0 0 1-.1.1H11zm-6 0h5V7.01H5z"/></svg>