<?xml version="1.0" encoding="UTF-8" standalone="no"?><!DOCTYPE svg PUBLIC "-//W3C//DTD SVG 1.1//EN" "http://www.w3.org/Graphics/SVG/1.1/DTD/svg11.dtd"><svg width="100%" height="100%" viewBox="0 0 15 15" version="1.1" xmlns="http://www.w3.org/2000/svg" xmlns:xlink="http://www.w3.org/1999/xlink" xml:space="preserve" xmlns:serif="http://www.serif.com/" style="fill-rule:evenodd;clip-rule:evenodd;stroke-linejoin:round;stroke-miterlimit:2;"><path d="M2.5,10.05c0,0 -0.97,0 -1.2,-0c-0.43,-0.01 -0.79,-0.38 -0.8,-0.8c-0,-0.14 -0,-0.56 0,-0.7c0.01,-0.44 0.38,-0.8 0.8,-0.8c2.09,-0 10.31,-0 12.4,0c0.43,0 0.79,0.38 0.8,0.8c0,0.14 0,0.56 -0,0.7c-0.01,0.44 -0.38,0.79 -0.8,0.8c-0.23,0 -1.2,0 -1.2,0c0,0 0.01,2.12 -0,2.59c-0.01,0.31 -0.28,0.59 -0.6,0.6c-0.17,0.01 -0.63,0.01 -0.8,0c-0.32,-0.01 -0.59,-0.29 -0.6,-0.6c-0.01,-0.47 0,-2.59 0,-2.59l-6,0c0,0 0,2.14 -0,2.59c-0,0.24 -0.18,0.59 -0.6,0.6c-0.15,0 -0.65,0 -0.8,-0c-0.24,-0 -0.6,-0.19 -0.6,-0.6c-0,-0.45 -0,-2.59 -0,-2.59Z" style="fill:#f4f4f4;"/><path d="M3,9.55l-1.7,-0c-0.16,0 -0.3,-0.14 -0.3,-0.3l-0,-0.7c-0,-0.16 0.14,-0.3 0.3,-0.3l12.4,0c0.16,-0 0.3,0.14 0.3,0.3l0,0.7c0,0.16 -0.14,0.3 -0.3,0.3l-1.7,-0l-0,3.09c-0,0.06 -0.04,0.1 -0.1,0.1l-0.8,0c-0.06,-0 -0.1,-0.04 -0.1,-0.1l0,-3.09l-7,-0l-0,3.09c0,0.05 -0.05,0.1 -0.1,0.1l-0.8,-0c-0.05,-0 -0.1,-0.05 -0.1,-0.1l-0,-3.09Z" style="fill:#171717;"/></svg>