<svg xmlns="http://www.w3.org/2000/svg" xml:space="preserve" fill-rule="evenodd" stroke-linejoin="round" stroke-miterlimit="2" clip-rule="evenodd" viewBox="0 0 15 15"><path fill="#f4f4f4" d="M2.5 10.05H1.3a.84.84 0 0 1-.8-.8v-.7c.01-.44.38-.8.8-.8h12.4c.43 0 .79.38.8.8v.7a.83.83 0 0 1-.8.8h-1.2v2.59a.64.64 0 0 1-.6.6h-.8a.64.64 0 0 1-.6-.6v-2.59h-6v2.59a.6.6 0 0 1-.6.6h-.8c-.24 0-.6-.19-.6-.6z"/><path fill="#171717" d="M3 9.55H1.3a.3.3 0 0 1-.3-.3v-.7c0-.16.14-.3.3-.3h12.4c.16 0 .3.14.3.3v.7a.3.3 0 0 1-.3.3H12v3.09q0 .1-.1.1h-.8q-.1 0-.1-.1V9.55H4v3.09a.1.1 0 0 1-.1.1h-.8a.1.1 0 0 1-.1-.1z"/></svg>