<svg xmlns="http://www.w3.org/2000/svg" xml:space="preserve" fill-rule="evenodd" stroke-linejoin="round" stroke-miterlimit="2" clip-rule="evenodd" viewBox="0 0 15 15"><path fill="#171717" d="M11.7 8.067a.3.3 0 0 1 .3-.3h.267a.3.3 0 0 1 .3.3v3.667a.1.1 0 0 1-.1.1H11.8a.1.1 0 0 1-.1-.1zm-8.4 3.667a.1.1 0 0 1-.1.1h-.667a.1.1 0 0 1-.1-.1V8.067a.3.3 0 0 1 .3-.3H3a.3.3 0 0 1 .3.3z"/><path fill="#895100" d="M14 9.15a.3.3 0 0 1-.3.3H1.3a.3.3 0 0 1-.3-.3v-.7a.3.3 0 0 1 .3-.3h12.4a.3.3 0 0 1 .3.3z"/></svg>