<svg xmlns="http://www.w3.org/2000/svg" xml:space="preserve" fill-rule="evenodd" stroke-linejoin="round" stroke-miterlimit="2" clip-rule="evenodd" viewBox="0 0 15 15"><path fill="#f4f4f4" d="M.933 7.743s-.003-1.371 0-1.677a.82.82 0 0 1 .234-.566.8.8 0 0 1 .409-.219c.1-.02.223-.016.223-.016v-1.6c0-.53.47-1 1-1h9.4c.53 0 1 .47 1 1v1.6s.124-.004.223.016a.8.8 0 0 1 .643.785c.003.306 0 1.677 0 1.677s.188.097.299.263c.087.13.132.286.134.444.003.143.003.557 0 .7a.84.84 0 0 1-.134.444c-.108.161-.299.263-.299.263s.008 1.525 0 1.877c-.007.31-.28.583-.6.6-.15.008-.517.008-.667 0a.636.636 0 0 1-.6-.6c-.008-.336 0-1.783 0-1.783h-9.4s.008 1.448 0 1.783a.637.637 0 0 1-.6.6 9 9 0 0 1-.667 0 .633.633 0 0 1-.6-.6c-.008-.351 0-1.877 0-1.877S.743 9.76.632 9.594a.8.8 0 0 1-.134-.444 27 27 0 0 1 0-.7.84.84 0 0 1 .134-.444c.108-.161.299-.263.299-.263Z"/><path fill="#171717" d="M12.7 6.067c0-.159.141-.3.3-.3h.267c.159 0 .3.141.3.3v5.667a.1.1 0 0 1-.1.1H12.8a.1.1 0 0 1-.1-.1zM2.3 11.734a.1.1 0 0 1-.1.1h-.667a.1.1 0 0 1-.1-.1V6.067c0-.159.141-.3.3-.3H2c.159 0 .3.141.3.3z"/><path fill="#895100" d="M2.8 7.5a.515.515 0 0 1-.5-.5V3.667c0-.265.235-.5.5-.5h9.4c.265 0 .5.235.5.5V7c0 .265-.235.5-.5.5zM14 9.15c0 .159-.141.3-.3.3H1.3a.31.31 0 0 1-.3-.3v-.7c0-.159.141-.3.3-.3h12.4c.159 0 .3.141.3.3z"/></svg>