<?xml version="1.0" encoding="UTF-8" standalone="no"?><!DOCTYPE svg PUBLIC "-//W3C//DTD SVG 1.1//EN" "http://www.w3.org/Graphics/SVG/1.1/DTD/svg11.dtd"><svg width="100%" height="100%" viewBox="0 0 15 15" version="1.1" xmlns="http://www.w3.org/2000/svg" xmlns:xlink="http://www.w3.org/1999/xlink" xml:space="preserve" xmlns:serif="http://www.serif.com/" style="fill-rule:evenodd;clip-rule:evenodd;stroke-linejoin:round;stroke-miterlimit:2;"><path d="M11.8,7.5l-0,0.7l-0.9,0l0,-0.7l0.9,0Zm-7.8,0l0,0.7l-0.9,0l0,-0.7l0.9,0Zm8.7,-1.4c-0,-0.1 0,-0.2 0.1,-0.2c0.1,-0.1 0.1,-0.1 0.2,-0.1c0.1,-0 0.2,-0 0.3,-0c0.1,-0 0.2,0 0.2,0.1c0.1,0.1 0.1,0.1 0.1,0.2c-0,1.2 -0,5.7 -0,5.7c-0,0.1 -0,0.1 -0.1,0.1l-0.7,0c-0.1,-0 -0.1,-0 -0.1,-0.1c0,0 0,-4.5 0,-5.7Zm-0.9,3.4l0,1c-0,0.1 -0,0.1 -0.1,0.1l-0.7,-0c-0.1,-0 -0.1,-0 -0.1,-0.1l-0,-1l0.9,0Zm-7.8,0l0,1c-0,0.1 -0,0.1 -0.1,0.1l-0.7,-0c-0.1,-0 -0.1,-0 -0.1,-0.1l-0,-1l0.9,0Z" style="fill:#171717;"/><path d="M2.3,11.7c0,0 -0,0.1 -0,0.1c-0,0 -0,0 -0.1,0c-0.2,-0 -0.5,-0 -0.7,-0c-0,-0 -0.1,-0 -0.1,-0c-0,-0 -0,-0 -0,-0.1c-0,-0.7 -0,-4.6 -0,-5.7c-0,-0.1 0,-0.2 0.1,-0.2c0.1,-0.1 0.1,-0.1 0.2,-0.1c0.1,0 0.2,0 0.3,0c0.1,-0 0.2,0 0.2,0.1c0.1,0.1 0.1,0.1 0.1,0.2c-0,1.1 -0,5 -0,5.7Z" style="fill:#171717;"/><path d="M2.8,7.5c-0.1,-0 -0.3,-0.1 -0.4,-0.1c-0.1,-0.1 -0.1,-0.2 -0.1,-0.4c-0,-0.8 -0,-2.5 -0,-3.3c-0,-0.1 0.1,-0.3 0.1,-0.4c0.1,-0.1 0.2,-0.1 0.4,-0.1c1.8,0 7.6,0 9.4,0c0.1,0 0.3,0.1 0.4,0.1c0.1,0.1 0.1,0.2 0.1,0.4c0,0.8 0,2.5 0,3.3c0,0.1 -0.1,0.3 -0.1,0.4c-0.1,0.1 -0.2,0.1 -0.4,0.1c-1.8,-0 -7.6,-0 -9.4,-0Z" style="fill:#472a00;"/><path d="M14,9.1c0,0.1 -0,0.2 -0.1,0.2c-0.1,0.1 -0.1,0.1 -0.2,0.1c-1.8,-0 -10.6,-0 -12.4,-0c-0.1,0 -0.2,-0 -0.2,-0.1c-0.1,-0.1 -0.1,-0.1 -0.1,-0.2c-0,-0.2 -0,-0.5 -0,-0.7c-0,-0.1 0,-0.2 0.1,-0.2c0.1,-0.1 0.1,-0.1 0.2,-0.1c1.8,0 10.6,0 12.4,0c0.1,-0 0.2,0 0.2,0.1c0.1,0.1 0.1,0.1 0.1,0.2c0,0.2 0,0.5 0,0.7Z" style="fill:#472a00;"/></svg>