<?xml version="1.0" encoding="UTF-8" standalone="no"?><!DOCTYPE svg PUBLIC "-//W3C//DTD SVG 1.1//EN" "http://www.w3.org/Graphics/SVG/1.1/DTD/svg11.dtd"><svg width="100%" height="100%" viewBox="0 0 15 15" version="1.1" xmlns="http://www.w3.org/2000/svg" xmlns:xlink="http://www.w3.org/1999/xlink" xml:space="preserve" xmlns:serif="http://www.serif.com/" style="fill-rule:evenodd;clip-rule:evenodd;stroke-linejoin:round;stroke-miterlimit:2;"><path d="M9.077,7.275c0.191,0 0.355,0.139 0.39,0.321l0,1.482l0.581,0.581c0.997,0.095 1.785,0.927 1.785,1.95c0,1.083 -0.884,1.967 -1.967,1.967c-1.083,0 -1.976,-0.884 -1.976,-1.967c0,-0.754 0.433,-1.413 1.057,-1.742l0.13,-0.061l-0.312,-0.321l-1.95,1.109c0.182,0.295 0.295,0.641 0.295,1.014c0,1.083 -0.893,1.967 -1.976,1.967c-1.083,0 -1.967,-0.884 -1.967,-1.967c0,-1.083 0.884,-1.967 1.967,-1.967c0.113,0 0.217,0.009 0.321,0.026l0.147,0.035l-0.338,-0.849l-0.182,0c-0.503,0.009 -0.537,-0.702 -0.095,-0.78l0.095,-0.009l1.595,0c0.503,-0.009 0.529,0.702 0.087,0.78l-0.087,0.009l-0.563,0l0.407,1.005l2.158,-1.231l0,-0.563l-0.39,0c-0.503,0.009 -0.529,-0.702 -0.087,-0.78l0.087,-0.009l0.789,0Zm-3.943,3.155c-0.659,0 -1.179,0.52 -1.179,1.179c0,0.659 0.52,1.179 1.179,1.179c0.659,0 1.187,-0.52 1.187,-1.179c0,-0.659 -0.529,-1.179 -1.187,-1.179Zm4.732,0c-0.659,0 -1.187,0.52 -1.187,1.179c0,0.659 0.529,1.179 1.187,1.179c0.659,0 1.179,-0.52 1.179,-1.179c0,-0.659 -0.52,-1.179 -1.179,-1.179Z" style="fill:#00329b;"/><path d="M7.029,1.676c0.294,-0.157 0.647,-0.157 0.941,0c1.18,0.629 4.259,2.272 5.5,2.933c0.326,0.174 0.529,0.513 0.529,0.882c-0,1.621 -0,6.069 -0,7.567c0,0.133 -0.053,0.26 -0.146,0.354c-0.094,0.094 -0.221,0.146 -0.354,0.146c-0.23,-0 -0.503,-0 -0.733,-0c-0.133,0 -0.26,-0.053 -0.354,-0.146c-0.094,-0.094 -0.146,-0.221 -0.146,-0.354c-0,-1.408 -0,-5.392 -0,-6.8c0,-0.133 -0.053,-0.26 -0.146,-0.354c-0.094,-0.094 -0.221,-0.146 -0.354,-0.146c-1.646,0 -6.887,0 -8.533,0c-0.133,-0 -0.26,0.053 -0.354,0.146c-0.094,0.094 -0.146,0.221 -0.146,0.354c-0,1.408 -0,5.392 -0,6.8c0,0.133 -0.053,0.26 -0.146,0.354c-0.094,0.094 -0.221,0.146 -0.354,0.146c-0.23,-0 -0.503,-0 -0.733,-0c-0.133,0 -0.26,-0.053 -0.354,-0.146c-0.094,-0.094 -0.146,-0.221 -0.146,-0.354c-0,-1.498 -0,-5.945 -0,-7.567c-0,-0.369 0.204,-0.709 0.529,-0.882c1.241,-0.662 4.32,-2.304 5.5,-2.933Z" style="fill:#00329b;"/></svg>