<?xml version="1.0" encoding="UTF-8" standalone="no"?><!DOCTYPE svg PUBLIC "-//W3C//DTD SVG 1.1//EN" "http://www.w3.org/Graphics/SVG/1.1/DTD/svg11.dtd"><svg width="100%" height="100%" viewBox="0 0 15 15" version="1.1" xmlns="http://www.w3.org/2000/svg" xmlns:xlink="http://www.w3.org/1999/xlink" xml:space="preserve" xmlns:serif="http://www.serif.com/" style="fill-rule:evenodd;clip-rule:evenodd;stroke-linejoin:round;stroke-miterlimit:2;"><path d="M1.433,2.733l12.133,0c0.243,0 0.433,0.191 0.433,0.433l0,8.667c0,0.243 -0.191,0.433 -0.433,0.433l-12.133,0c-0.243,0 -0.433,-0.191 -0.433,-0.433l0,-8.667c0,-0.243 0.191,-0.433 0.433,-0.433Z" style="fill:#090909;"/><path d="M12.7,4.467c-0.243,0 -0.433,0.191 -0.433,0.433l0,1.733c0,0.243 0.191,0.433 0.433,0.433c0.243,0 0.433,-0.191 0.433,-0.433l0,-1.733c0,-0.243 -0.191,-0.433 -0.433,-0.433Z" style="fill:#7a7a7a;"/><path d="M2.367,3.6c-0.133,-0 -0.26,0.053 -0.354,0.146c-0.094,0.094 -0.146,0.221 -0.146,0.354c-0,1.408 -0,5.392 -0,6.8c-0,0.133 0.053,0.26 0.146,0.354c0.094,0.094 0.221,0.146 0.354,0.146c1.646,-0 6.887,-0 8.533,-0c0.133,0 0.26,-0.053 0.354,-0.146c0.094,-0.094 0.146,-0.221 0.146,-0.354c0,-1.408 0,-5.392 0,-6.8c0,-0.133 -0.053,-0.26 -0.146,-0.354c-0.094,-0.094 -0.221,-0.146 -0.354,-0.146c-1.646,0 -6.887,0 -8.533,0Z" style="fill:#f4f4f4;"/><path d="M7.422,4.25l0.789,0c0.217,0 0.39,0.173 0.39,0.39l0,1.413l0.581,0.581c0.997,0.095 1.785,0.927 1.785,1.95c0,1.083 -0.884,1.967 -1.967,1.967c-1.083,0 -1.976,-0.884 -1.976,-1.967c0,-0.806 0.494,-1.499 1.187,-1.803l-0.312,-0.321l-1.95,1.109c0.182,0.295 0.295,0.641 0.295,1.014c0,1.083 -0.893,1.967 -1.976,1.967c-1.083,0 -1.967,-0.884 -1.967,-1.967c0,-1.083 0.884,-1.967 1.967,-1.967c0.165,0 0.321,0.026 0.468,0.061l-0.338,-0.849l-0.182,0c-0.537,0.009 -0.537,-0.797 0,-0.789l1.595,0c0.529,-0.009 0.529,0.797 0,0.789l-0.563,0l0.407,1.005l2.158,-1.231l0,-0.563l-0.39,0c-0.537,0.009 -0.537,-0.797 0,-0.789Zm1.577,3.155c-0.659,0 -1.187,0.52 -1.187,1.179c0,0.659 0.529,1.179 1.187,1.179c0.659,0 1.179,-0.52 1.179,-1.179c0,-0.659 -0.52,-1.179 -1.179,-1.179Zm-4.732,0c-0.659,0 -1.179,0.52 -1.179,1.179c0,0.659 0.52,1.179 1.179,1.179c0.659,0 1.187,-0.52 1.187,-1.179c0,-0.659 -0.529,-1.179 -1.187,-1.179Z" style="fill:#00329b;"/></svg>