<?xml version="1.0" encoding="UTF-8" standalone="no"?><!DOCTYPE svg PUBLIC "-//W3C//DTD SVG 1.1//EN" "http://www.w3.org/Graphics/SVG/1.1/DTD/svg11.dtd"><svg width="100%" height="100%" viewBox="0 0 15 15" version="1.1" xmlns="http://www.w3.org/2000/svg" xmlns:xlink="http://www.w3.org/1999/xlink" xml:space="preserve" xmlns:serif="http://www.serif.com/" style="fill-rule:evenodd;clip-rule:evenodd;stroke-linejoin:round;stroke-miterlimit:2;"><path d="M7.5,2.733c-0.586,-0.009 -0.586,0.875 0,0.867l1.3,0l0,1.097l-2.429,2.023l-0.845,-2.253l0.24,0c0.586,0.009 0.586,-0.875 0,-0.867l-1.733,0c-0.586,-0.009 -0.586,0.875 0,0.867l0.565,0l0.772,2.058c-0.405,-0.202 -0.855,-0.325 -1.337,-0.325c-1.67,0 -3.033,1.363 -3.033,3.033c0,1.67 1.363,3.033 3.033,3.033c1.67,0 3.033,-1.363 3.033,-3.033c0,-0.581 -0.174,-1.119 -0.459,-1.581l2.444,-2.036l0.401,1.006c-0.903,0.526 -1.52,1.495 -1.52,2.612c0,1.67 1.363,3.033 3.033,3.033c1.67,0 3.033,-1.363 3.033,-3.033c0,-1.67 -1.363,-3.033 -3.033,-3.033c-0.245,0 -0.48,0.038 -0.709,0.093l-0.591,-1.478l0,-1.649c0,-0.239 -0.194,-0.433 -0.433,-0.433l-1.733,0Zm-3.467,4.333c0.513,0 0.977,0.184 1.347,0.479l-1.625,1.354c-0.443,0.37 0.111,1.035 0.555,0.667l1.625,-1.354c0.163,0.305 0.264,0.649 0.264,1.021c0,1.202 -0.965,2.167 -2.167,2.167c-1.202,0 -2.167,-0.965 -2.167,-2.167c0,-1.202 0.965,-2.167 2.167,-2.167Zm6.933,0c1.202,0 2.167,0.965 2.167,2.167c0,1.202 -0.965,2.167 -2.167,2.167c-1.202,0 -2.167,-0.965 -2.167,-2.167c0,-0.76 0.387,-1.423 0.975,-1.81l0.789,1.97c0.213,0.54 1.023,0.217 0.806,-0.322l-0.787,-1.967c0.125,-0.022 0.253,-0.039 0.384,-0.039Z" style="fill:#00329b;fill-rule:nonzero;"/></svg>