<?xml version="1.0" encoding="UTF-8" standalone="no"?><!DOCTYPE svg PUBLIC "-//W3C//DTD SVG 1.1//EN" "http://www.w3.org/Graphics/SVG/1.1/DTD/svg11.dtd"><svg width="100%" height="100%" viewBox="0 0 15 15" version="1.1" xmlns="http://www.w3.org/2000/svg" xmlns:xlink="http://www.w3.org/1999/xlink" xml:space="preserve" xmlns:serif="http://www.serif.com/" style="fill-rule:evenodd;clip-rule:evenodd;stroke-linejoin:round;stroke-miterlimit:2;"><path d="M8.5,6c-0.68,-0.01 -0.68,1.01 0,1l0.5,0l0,0.71l-2.75,1.57l-0.51,-1.28l0.71,0c0.68,0.01 0.68,-1.01 0,-1l-2.02,0c-0.68,-0.01 -0.68,1.01 0,1l0.23,0l0.43,1.08c-0.19,-0.05 -0.39,-0.08 -0.59,-0.08c-1.37,0 -2.5,1.13 -2.5,2.5c0,1.37 1.13,2.5 2.5,2.5c1.37,0 2.5,-1.13 2.5,-2.5c0,-0.47 -0.14,-0.91 -0.37,-1.29l2.47,-1.41l0.4,0.41c-0.88,0.39 -1.5,1.27 -1.5,2.29c0,1.37 1.13,2.5 2.5,2.5c1.37,0 2.5,-1.13 2.5,-2.5c0,-1.3 -1,-2.36 -2.27,-2.48l-0.73,-0.73l0,-1.79c0,-0.28 -0.22,-0.5 -0.5,-0.5l-1,0Zm-4,4c0.83,0 1.5,0.67 1.5,1.5c0,0.83 -0.67,1.5 -1.5,1.5c-0.83,0 -1.5,-0.67 -1.5,-1.5c0,-0.83 0.67,-1.5 1.5,-1.5Zm6,0c0.83,0 1.5,0.67 1.5,1.5c0,0.83 -0.67,1.5 -1.5,1.5c-0.83,0 -1.5,-0.67 -1.5,-1.5c0,-0.83 0.67,-1.5 1.5,-1.5Z" style="fill:#00329b;fill-rule:nonzero;"/><path d="M8,4c0.161,0 0.333,0.079 0.426,0.21c0.354,0.483 0.926,0.79 1.574,0.79l1.5,0c0.28,0 0.5,-0.22 0.5,-0.5l0,-3c0,-0.28 -0.22,-0.5 -0.5,-0.5l-1.5,0c-0.648,0 -1.219,0.307 -1.579,0.786c-0.092,0.129 -0.262,0.214 -0.421,0.214l0,2Zm3,-0.5c0,0.28 -0.22,0.5 -0.5,0.5c-0.28,0 -0.5,-0.22 -0.5,-0.5l0,-1c0,-0.28 0.22,-0.5 0.5,-0.5c0.28,0 0.5,0.22 0.5,0.5l0,1Z" style="fill:#00329b;"/><path d="M8,2c-0.851,0.008 -3.524,0 -4.293,0c-0.133,-0 -0.26,0.053 -0.354,0.146l-0.5,0.5c-0.094,0.094 -0.146,0.221 -0.146,0.354c0,0.133 0.053,0.26 0.146,0.354l0.293,0.293c0.094,0.094 0.221,0.146 0.354,0.146c0.133,-0 0.26,-0.053 0.354,-0.146l0.293,-0.293c0.094,-0.094 0.221,-0.146 0.354,-0.146c0.133,0 0.26,0.053 0.354,0.146l0.293,0.293c0.094,0.094 0.221,0.146 0.354,0.146c0.133,-0 0.26,-0.053 0.354,-0.146l0.293,-0.293c0.094,-0.094 0.221,-0.146 0.354,-0.146c0.133,0 0.26,0.053 0.354,0.146l0.5,0.5c0.094,0.094 0.221,0.146 0.354,0.146l0.293,-0l0,-2Z" style="fill:#7a7a7a;"/></svg>