<?xml version="1.0" encoding="UTF-8" standalone="no"?><!DOCTYPE svg PUBLIC "-//W3C//DTD SVG 1.1//EN" "http://www.w3.org/Graphics/SVG/1.1/DTD/svg11.dtd"><svg width="100%" height="100%" viewBox="0 0 15 15" version="1.1" xmlns="http://www.w3.org/2000/svg" xmlns:xlink="http://www.w3.org/1999/xlink" xml:space="preserve" xmlns:serif="http://www.serif.com/" style="fill-rule:evenodd;clip-rule:evenodd;stroke-linejoin:round;stroke-miterlimit:2;"><path d="M5.056,1c-0.071,0 -0.141,0.003 -0.211,0.008c-0.253,0.025 -0.441,0.245 -0.428,0.498c0.013,0.254 0.222,0.453 0.476,0.453c1.518,0.004 3.698,0.004 5.216,0.004c0.264,0.011 0.488,-0.193 0.501,-0.457c0.013,-0.264 -0.189,-0.49 -0.453,-0.505c-0.071,0.001 -0.141,-0.001 -0.212,-0.001l-4.889,0Z" style="fill:#171717;fill-rule:nonzero;"/><path d="M7.019,2.926c0,-0.481 0.963,-0.481 0.963,0l0,0.481c0,0.481 -0.963,0.481 -0.963,0m0,1.81c0,0.481 0.963,0.481 0.963,0l0,-0.481c0,-0.481 -0.963,-0.481 -0.963,0m2.86,-1.579c0.125,0.462 -0.799,0.713 -0.934,0.25l-0.125,-0.462c-0.125,-0.472 0.809,-0.722 0.934,-0.26m0.587,2.157c0.125,0.462 -0.799,0.713 -0.924,0.25l-0.125,-0.472c-0.125,-0.462 0.799,-0.713 0.924,-0.25m-5.065,-1.213c-0.125,0.462 0.809,0.713 0.934,0.25l0.125,-0.462c0.125,-0.462 -0.799,-0.722 -0.924,-0.25m-0.597,2.147c-0.125,0.462 0.809,0.713 0.934,0.25l0.125,-0.462c0.125,-0.462 -0.809,-0.722 -0.934,-0.26" style="fill:#4166d0;fill-rule:nonzero;"/><path d="M8.463,6.296c-0.655,-0.01 -0.655,0.973 0,0.963l0.481,0l0,0.684l-2.648,1.512l-0.491,-1.233l0.684,0c0.655,0.01 0.655,-0.973 0,-0.963l-1.945,0c-0.655,-0.01 -0.655,0.973 0,0.963l0.221,0l0.414,1.04c-0.183,-0.048 -0.376,-0.077 -0.568,-0.077c-1.319,0 -2.407,1.088 -2.407,2.407c0,1.319 1.088,2.407 2.407,2.407c1.319,0 2.407,-1.088 2.407,-2.407c0,-0.453 -0.135,-0.876 -0.356,-1.242l2.379,-1.358l0.385,0.395c-0.847,0.376 -1.444,1.223 -1.444,2.205c0,1.319 1.088,2.407 2.407,2.407c1.319,0 2.407,-1.088 2.407,-2.407c0,-1.252 -0.963,-2.273 -2.186,-2.388l-0.703,-0.703l0,-1.724c0,-0.27 -0.212,-0.481 -0.481,-0.481l-0.963,0Zm-3.852,3.852c0.799,0 1.444,0.645 1.444,1.444c0,0.799 -0.645,1.444 -1.444,1.444c-0.799,0 -1.444,-0.645 -1.444,-1.444c0,-0.799 0.645,-1.444 1.444,-1.444Zm5.778,0c0.799,0 1.444,0.645 1.444,1.444c0,0.799 -0.645,1.444 -1.444,1.444c-0.799,0 -1.444,-0.645 -1.444,-1.444c0,-0.799 0.645,-1.444 1.444,-1.444Z" style="fill:#00329b;fill-rule:nonzero;"/><circle cx="4.415" cy="7.271" r="0.5" style="fill:#eee;"/><circle cx="4.915" cy="7" r="0.5" style="fill:#eee;"/><circle cx="5.556" cy="7.271" r="0.5" style="fill:#f4f4f4;"/><circle cx="9.907" cy="8.501" r="0.5" style="fill:#eee;"/><circle cx="10.61" cy="9.001" r="0.5" style="fill:#eee;"/><circle cx="9.907" cy="9.172" r="0.5" style="fill:#f4f4f4;"/><circle cx="6.721" cy="10.453" r="0.5" style="fill:#eee;"/><circle cx="6.18" cy="10.148" r="0.5" style="fill:#eee;"/><circle cx="6.721" cy="9.953" r="0.5" style="fill:#f4f4f4;"/></svg>