<?xml version="1.0" encoding="UTF-8" standalone="no"?><!DOCTYPE svg PUBLIC "-//W3C//DTD SVG 1.1//EN" "http://www.w3.org/Graphics/SVG/1.1/DTD/svg11.dtd"><svg width="100%" height="100%" viewBox="0 0 15 15" version="1.1" xmlns="http://www.w3.org/2000/svg" xmlns:xlink="http://www.w3.org/1999/xlink" xml:space="preserve" xmlns:serif="http://www.serif.com/" style="fill-rule:evenodd;clip-rule:evenodd;stroke-linejoin:round;stroke-miterlimit:2;"><path id="circle4604" d="M9.667,1.8c-0.479,0 -0.867,0.388 -0.867,0.867c0,0.479 0.388,0.867 0.867,0.867c0.479,0 0.867,-0.388 0.867,-0.867c0,-0.479 -0.388,-0.867 -0.867,-0.867Zm-1.608,1.728c-0.113,0 -0.221,0.045 -0.301,0.124l-2.289,2.167c-0.196,0.184 -0.178,0.5 0.037,0.662l1.561,1.17l0,2.383c-0.009,0.586 0.875,0.586 0.867,0l0,-2.6c0,-0.136 -0.064,-0.265 -0.173,-0.347c-0,0 -0.387,-0.29 -0.57,-0.428c-0.024,-0.018 -0.038,-0.045 -0.04,-0.074c-0.002,-0.029 0.01,-0.058 0.031,-0.078c0.276,-0.262 1.138,-1.078 1.408,-1.333c0.021,-0.02 0.049,-0.029 0.077,-0.027c0.028,0.002 0.054,0.017 0.072,0.04c0.166,0.221 0.581,0.776 0.581,0.776c0.082,0.109 0.211,0.173 0.347,0.173l1.3,0c0.586,0.009 0.586,-0.875 0,-0.867l-1.083,0l-0.65,-0.867l-0.52,-0.694c-0.078,-0.107 -0.201,-0.173 -0.333,-0.178l-0.322,0Zm-4.459,3.472c-1.436,0 -2.6,1.164 -2.6,2.6c0,1.436 1.164,2.6 2.6,2.6c1.436,0 2.6,-1.164 2.6,-2.6c0,-1.436 -1.164,-2.6 -2.6,-2.6Zm7.8,0c-1.436,0 -2.6,1.164 -2.6,2.6c0,1.436 1.164,2.6 2.6,2.6c1.436,0 2.6,-1.164 2.6,-2.6c0,-1.436 -1.164,-2.6 -2.6,-2.6Zm-7.8,0.867c0.957,0 1.733,0.776 1.733,1.733c0,0.957 -0.776,1.733 -1.733,1.733c-0.957,0 -1.733,-0.776 -1.733,-1.733c0,-0.957 0.776,-1.733 1.733,-1.733Zm7.8,0c0.957,0 1.733,0.776 1.733,1.733c0,0.957 -0.776,1.733 -1.733,1.733c-0.957,0 -1.733,-0.776 -1.733,-1.733c0,-0.957 0.776,-1.733 1.733,-1.733Z" style="fill:#00329b;fill-rule:nonzero;"/></svg>