<?xml version="1.0" encoding="UTF-8" standalone="no"?><!DOCTYPE svg PUBLIC "-//W3C//DTD SVG 1.1//EN" "http://www.w3.org/Graphics/SVG/1.1/DTD/svg11.dtd"><svg width="100%" height="100%" viewBox="0 0 15 15" version="1.1" xmlns="http://www.w3.org/2000/svg" xmlns:xlink="http://www.w3.org/1999/xlink" xml:space="preserve" xmlns:serif="http://www.serif.com/" style="fill-rule:evenodd;clip-rule:evenodd;stroke-linejoin:round;stroke-miterlimit:2;"><path d="M1,3c0,-0.552 0.448,-1 1,-1l11,0c0.552,0 1,0.448 1,1l0,9c-0,0.552 -0.448,1 -1,1l-11,-0c-0.552,-0 -1,-0.448 -1,-1l-0,-9Z" style="fill:#090909;"/><path d="M2.5,3c-0.276,0 -0.5,0.224 -0.5,0.5l-0,8c0,0.276 0.224,0.5 0.5,0.5l10,-0c0.276,-0 0.5,-0.224 0.5,-0.5l0,-8c-0,-0.276 -0.224,-0.5 -0.5,-0.5l-10,0Z" style="fill:#f4f4f4;"/><path d="M8.41,3.75c-0.62,-0.01 -0.62,0.92 0,0.91l0.45,0l0,0.65l-2.49,1.42l-0.47,-1.16l0.65,0c0.61,0.01 0.61,-0.92 0,-0.91l-1.84,0c-0.62,-0.01 -0.62,0.92 0,0.91l0.21,0l0.39,0.98c-0.17,-0.04 -0.35,-0.07 -0.54,-0.07c-1.25,0 -2.27,1.02 -2.27,2.27c0,1.25 1.02,2.27 2.27,2.27c1.25,0 2.28,-1.02 2.28,-2.27c0,-0.43 -0.13,-0.83 -0.34,-1.17l2.25,-1.28l0.36,0.37c-0.8,0.35 -1.37,1.15 -1.37,2.08c0,1.25 1.03,2.27 2.28,2.27c1.25,0 2.27,-1.02 2.27,-2.27c0,-1.18 -0.91,-2.14 -2.06,-2.25l-0.67,-0.67l0,-1.63c0,-0.25 -0.2,-0.45 -0.45,-0.45l-0.91,0Zm-3.64,3.64c0.76,0 1.37,0.6 1.37,1.36c0,0.76 -0.61,1.36 -1.37,1.36c-0.76,0 -1.36,-0.6 -1.36,-1.36c0,-0.76 0.6,-1.36 1.36,-1.36Zm5.46,0c0.76,0 1.36,0.6 1.36,1.36c0,0.76 -0.6,1.36 -1.36,1.36c-0.76,0 -1.37,-0.6 -1.37,-1.36c0,-0.76 0.61,-1.36 1.37,-1.36Z" style="fill:#00329b;fill-rule:nonzero;"/></svg>