<svg xmlns="http://www.w3.org/2000/svg" xml:space="preserve" fill-rule="evenodd" stroke-linejoin="round" stroke-miterlimit="2" clip-rule="evenodd" viewBox="0 0 15 15"><path fill="#00329b" d="M8.5 3.5h1c.28 0 .5.22.5.5v1.79l.73.73C12 6.64 13 7.7 13 9c0 1.37-1.13 2.5-2.5 2.5S8 10.37 8 9c0-1.02.62-1.9 1.5-2.29l-.4-.41-2.47 1.41c.23.38.37.82.37 1.29 0 1.37-1.13 2.5-2.5 2.5S2 10.37 2 9s1.13-2.5 2.5-2.5c.2 0 .4.03.59.08L4.66 5.5h-.23c-.68.01-.68-1.01 0-1h2.02c.68-.01.68 1.01 0 1h-.71l.51 1.28L9 5.21V4.5h-.5c-.68.01-.68-1.01 0-1m2 4C9.67 7.5 9 8.17 9 9s.67 1.5 1.5 1.5S12 9.83 12 9s-.67-1.5-1.5-1.5m-6 0C3.67 7.5 3 8.17 3 9s.67 1.5 1.5 1.5S6 9.83 6 9s-.67-1.5-1.5-1.5"/><path fill="#171717" d="M11.338 13a.1.1 0 0 0 .089-.144l-.355-.711a.1.1 0 0 1 .004-.097.1.1 0 0 1 .085-.047h1.529a.5.5 0 0 1 .447.276l.5 1a.5.5 0 0 1-.447.723H1.808a.5.5 0 0 1-.447-.723l.5-1a.5.5 0 0 1 .447-.276h1.529a.1.1 0 0 1 .089.144l-.355.711a.1.1 0 0 0 .004.097.1.1 0 0 0 .085.047h7.676Zm.09-10.855a.1.1 0 0 0-.004-.097.1.1 0 0 0-.085-.047H3.663a.1.1 0 0 0-.089.144l.355.711a.1.1 0 0 1-.004.097A.1.1 0 0 1 3.84 3H2.311a.5.5 0 0 1-.447-.276l-.5-1a.5.5 0 0 1 .447-.723h11.382a.5.5 0 0 1 .447.723l-.5 1a.5.5 0 0 1-.447.276h-1.529a.1.1 0 0 1-.089-.144l.355-.711Z"/></svg>