<svg xmlns="http://www.w3.org/2000/svg" xml:space="preserve" fill-rule="evenodd" stroke-linejoin="round" stroke-miterlimit="2" clip-rule="evenodd" viewBox="0 0 15 15"><path fill="#00329b" d="M8.5 2.25h1c.28 0 .5.22.5.5v1.79l.73.73C12 5.39 13 6.45 13 7.75c0 1.37-1.13 2.5-2.5 2.5S8 9.12 8 7.75c0-1.02.62-1.9 1.5-2.29l-.4-.41-2.47 1.41c.23.38.37.82.37 1.29 0 1.37-1.13 2.5-2.5 2.5S2 9.12 2 7.75s1.13-2.5 2.5-2.5c.2 0 .4.03.59.08l-.43-1.08h-.23c-.68.01-.68-1.01 0-1h2.02c.68-.01.68 1.01 0 1h-.71l.51 1.28L9 3.96v-.71h-.5c-.68.01-.68-1.01 0-1m-4 4c-.83 0-1.5.67-1.5 1.5s.67 1.5 1.5 1.5S6 8.58 6 7.75s-.67-1.5-1.5-1.5m6 0c-.83 0-1.5.67-1.5 1.5s.67 1.5 1.5 1.5 1.5-.67 1.5-1.5-.67-1.5-1.5-1.5"/><path fill="#f4f4f4" d="M11.338 11.75a.1.1 0 0 0 .089-.144l-.355-.711a.1.1 0 0 1 .004-.097.1.1 0 0 1 .085-.047h1.529a.5.5 0 0 1 .447.276l.5 1a.5.5 0 0 1-.447.723H1.808a.5.5 0 0 1-.447-.723l.5-1a.5.5 0 0 1 .447-.276h1.529a.1.1 0 0 1 .089.144l-.355.711a.1.1 0 0 0 .004.097.1.1 0 0 0 .085.047h7.676Z"/></svg>