<?xml version="1.0" encoding="UTF-8" standalone="no"?><!DOCTYPE svg PUBLIC "-//W3C//DTD SVG 1.1//EN" "http://www.w3.org/Graphics/SVG/1.1/DTD/svg11.dtd"><svg width="100%" height="100%" viewBox="0 0 15 15" version="1.1" xmlns="http://www.w3.org/2000/svg" xmlns:xlink="http://www.w3.org/1999/xlink" xml:space="preserve" xmlns:serif="http://www.serif.com/" style="fill-rule:evenodd;clip-rule:evenodd;stroke-linejoin:round;stroke-miterlimit:2;"><path d="M8.5,2.25l1,0c0.28,0 0.5,0.22 0.5,0.5l0,1.79l0.73,0.73c1.27,0.12 2.27,1.18 2.27,2.48c0,1.37 -1.13,2.5 -2.5,2.5c-1.37,0 -2.5,-1.13 -2.5,-2.5c0,-1.02 0.62,-1.9 1.5,-2.29l-0.4,-0.41l-2.47,1.41c0.23,0.38 0.37,0.82 0.37,1.29c0,1.37 -1.13,2.5 -2.5,2.5c-1.37,0 -2.5,-1.13 -2.5,-2.5c0,-1.37 1.13,-2.5 2.5,-2.5c0.2,0 0.4,0.03 0.59,0.08l-0.43,-1.08l-0.23,0c-0.68,0.01 -0.68,-1.01 0,-1l2.02,0c0.68,-0.01 0.68,1.01 0,1l-0.71,0l0.51,1.28l2.75,-1.57l0,-0.71l-0.5,0c-0.68,0.01 -0.68,-1.01 0,-1Zm-4,4c-0.83,0 -1.5,0.67 -1.5,1.5c0,0.83 0.67,1.5 1.5,1.5c0.83,0 1.5,-0.67 1.5,-1.5c0,-0.83 -0.67,-1.5 -1.5,-1.5Zm6,0c-0.83,0 -1.5,0.67 -1.5,1.5c0,0.83 0.67,1.5 1.5,1.5c0.83,0 1.5,-0.67 1.5,-1.5c0,-0.83 -0.67,-1.5 -1.5,-1.5Z" style="fill:#00329b;"/><path d="M11.338,11.75c0.035,-0 0.067,-0.018 0.085,-0.047c0.018,-0.029 0.02,-0.066 0.004,-0.097l-0.355,-0.711c-0.015,-0.031 -0.014,-0.068 0.004,-0.097c0.018,-0.029 0.05,-0.047 0.085,-0.047l1.529,-0c0.189,0 0.363,0.107 0.447,0.276l0.5,1c0.077,0.155 0.069,0.339 -0.022,0.486c-0.091,0.147 -0.252,0.237 -0.425,0.237l-11.382,-0c-0.173,0 -0.334,-0.09 -0.425,-0.237c-0.091,-0.147 -0.099,-0.331 -0.022,-0.486l0.5,-1c0.085,-0.169 0.258,-0.276 0.447,-0.276l1.529,-0c0.035,-0 0.067,0.018 0.085,0.047c0.018,0.029 0.02,0.066 0.004,0.097l-0.355,0.711c-0.015,0.031 -0.014,0.068 0.004,0.097c0.018,0.029 0.05,0.047 0.085,0.047l7.676,-0Z" style="fill:#00329b;"/></svg>