<?xml version="1.0" encoding="UTF-8" standalone="no"?><!DOCTYPE svg PUBLIC "-//W3C//DTD SVG 1.1//EN" "http://www.w3.org/Graphics/SVG/1.1/DTD/svg11.dtd"><svg width="100%" height="100%" viewBox="0 0 15 15" version="1.1" xmlns="http://www.w3.org/2000/svg" xmlns:xlink="http://www.w3.org/1999/xlink" xml:space="preserve" xmlns:serif="http://www.serif.com/" style="fill-rule:evenodd;clip-rule:evenodd;stroke-linejoin:round;stroke-miterlimit:2;"><path d="M8.5,6c-0.68,-0.01 -0.68,1.01 0,1l0.5,0l0,0.71l-2.75,1.57l-0.51,-1.28l0.71,0c0.68,0.01 0.68,-1.01 0,-1l-2.02,0c-0.68,-0.01 -0.68,1.01 0,1l0.23,0l0.43,1.08c-0.19,-0.05 -0.39,-0.08 -0.59,-0.08c-1.37,0 -2.5,1.13 -2.5,2.5c0,1.37 1.13,2.5 2.5,2.5c1.37,0 2.5,-1.13 2.5,-2.5c0,-0.47 -0.14,-0.91 -0.37,-1.29l2.47,-1.41l0.4,0.41c-0.88,0.39 -1.5,1.27 -1.5,2.29c0,1.37 1.13,2.5 2.5,2.5c1.37,0 2.5,-1.13 2.5,-2.5c0,-1.3 -1,-2.36 -2.27,-2.48l-0.73,-0.73l0,-1.79c0,-0.28 -0.22,-0.5 -0.5,-0.5l-1,0Zm-4,4c0.83,0 1.5,0.67 1.5,1.5c0,0.83 -0.67,1.5 -1.5,1.5c-0.83,0 -1.5,-0.67 -1.5,-1.5c0,-0.83 0.67,-1.5 1.5,-1.5Zm6,0c0.83,0 1.5,0.67 1.5,1.5c0,0.83 -0.67,1.5 -1.5,1.5c-0.83,0 -1.5,-0.67 -1.5,-1.5c0,-0.83 0.67,-1.5 1.5,-1.5Z" style="fill:#00329b;fill-rule:nonzero;"/><path d="M7.032,2.35l0,1.8c0,0 -0.638,0.006 -0.822,0.007c-0.161,-0 -0.309,0.087 -0.387,0.228c-0.393,0.665 -1.116,1.115 -1.94,1.115c-0.586,0 -1.121,-0.227 -1.542,-0.578c-0.131,-0.128 -0.172,-0.323 -0.102,-0.492c0.069,-0.17 0.234,-0.28 0.417,-0.28l0.949,0c0.17,-0 0.326,-0.096 0.402,-0.249l0.225,-0.45c0.063,-0.127 0.063,-0.276 0,-0.403l-0.225,-0.45c-0.076,-0.152 -0.232,-0.249 -0.402,-0.249c-0.244,0 -0.611,0 -0.949,-0.028c-0.172,0 -0.326,-0.104 -0.391,-0.263c-0.065,-0.159 -0.027,-0.341 0.096,-0.461c0.401,-0.371 0.936,-0.598 1.522,-0.598c0.824,0 1.547,0.45 1.935,1.118c0.079,0.143 0.229,0.231 0.393,0.232l0.822,-0Z" style="fill:#5a5a5a;"/><path d="M7.032,4.15l0,-1.8l4.5,0c0.495,0 0.9,0.405 0.9,0.9c0,0.495 -0.405,0.9 -0.9,0.9l-4.5,0Z" style="fill:#a83c3a;"/></svg>