<?xml version="1.0" encoding="UTF-8" standalone="no"?><!DOCTYPE svg PUBLIC "-//W3C//DTD SVG 1.1//EN" "http://www.w3.org/Graphics/SVG/1.1/DTD/svg11.dtd"><svg width="100%" height="100%" viewBox="0 0 15 15" version="1.1" xmlns="http://www.w3.org/2000/svg" xmlns:xlink="http://www.w3.org/1999/xlink" xml:space="preserve" xmlns:serif="http://www.serif.com/" style="fill-rule:evenodd;clip-rule:evenodd;stroke-linejoin:round;stroke-miterlimit:2;"><path d="M1,1.5c-0,-0.1 0.1,-0.3 0.1,-0.4c0.1,-0.1 0.2,-0.1 0.4,-0.1c2.1,0 9.9,0 12,0c0.1,-0 0.3,0.1 0.4,0.1c0.1,0.1 0.1,0.2 0.1,0.4c0,1.5 0,6.5 0,8c0,0.1 -0.1,0.3 -0.1,0.4c-0.1,0.1 -0.2,0.1 -0.4,0.1c-2.1,-0 -9.9,-0 -12,-0c-0.1,0 -0.3,-0.1 -0.4,-0.1c-0.1,-0.1 -0.1,-0.2 -0.1,-0.4c-0,-1.5 -0,-6.5 -0,-8Zm1.5,0.5c-0.3,0 -0.5,0.2 -0.5,0.5c0,0.3 0.2,0.5 0.5,0.5l3,0c0.3,0 0.5,-0.2 0.5,-0.5c0,-0.3 -0.2,-0.5 -0.5,-0.5l-3,0Zm0,2c-0.3,0 -0.5,0.2 -0.5,0.5c0,0.3 0.2,0.5 0.5,0.5l1,0c0.3,0 0.5,-0.2 0.5,-0.5c0,-0.3 -0.2,-0.5 -0.5,-0.5l-1,0Zm3,0c-0.3,0 -0.5,0.2 -0.5,0.5c0,0.3 0.2,0.5 0.5,0.5l4,0c0.3,0 0.5,-0.2 0.5,-0.5c0,-0.3 -0.2,-0.5 -0.5,-0.5l-4,0Zm-3,2c-0.3,0 -0.5,0.2 -0.5,0.5c0,0.3 0.2,0.5 0.5,0.5l5,0c0.3,0 0.5,-0.2 0.5,-0.5c0,-0.3 -0.2,-0.5 -0.5,-0.5l-5,0Z" style="fill:#cc6933;"/><path d="M2.5,6l5,0c0.3,0 0.5,0.2 0.5,0.5c0,0.3 -0.2,0.5 -0.5,0.5l-5,0c-0.3,0 -0.5,-0.2 -0.5,-0.5c0,-0.3 0.2,-0.5 0.5,-0.5Z" style="fill:#171717;"/><path d="M2.5,4l1,0c0.3,0 0.5,0.2 0.5,0.5c0,0.3 -0.2,0.5 -0.5,0.5l-1,0c-0.3,0 -0.5,-0.2 -0.5,-0.5c0,-0.3 0.2,-0.5 0.5,-0.5Z" style="fill:#171717;"/><path d="M5.5,4l4,0c0.3,0 0.5,0.2 0.5,0.5c0,0.3 -0.2,0.5 -0.5,0.5l-4,0c-0.3,0 -0.5,-0.2 -0.5,-0.5c0,-0.3 0.2,-0.5 0.5,-0.5Z" style="fill:#171717;"/><path d="M2.5,2l3,0c0.3,0 0.5,0.2 0.5,0.5c0,0.3 -0.2,0.5 -0.5,0.5l-3,0c-0.3,0 -0.5,-0.2 -0.5,-0.5c0,-0.3 0.2,-0.5 0.5,-0.5Z" style="fill:#171717;"/><path d="M10.5,11l2,-0c0.1,-0 0.3,0.1 0.4,0.1c0.1,0.1 0.1,0.2 0.1,0.4c-0,0.1 -0.1,0.3 -0.1,0.4c-0.1,0.1 -0.2,0.1 -0.4,0.1l-2,0c-0.1,0 -0.3,-0.1 -0.4,-0.1c-0.1,-0.1 -0.1,-0.2 -0.1,-0.4c0,-0.1 0.1,-0.3 0.1,-0.4c0.1,-0.1 0.2,-0.1 0.4,-0.1Zm-4,-0l2,-0c0.1,-0 0.3,0.1 0.4,0.1c0.1,0.1 0.1,0.2 0.1,0.4l0,2c0,0.1 -0.1,0.3 -0.1,0.4c-0.1,0.1 -0.2,0.1 -0.4,0.1l-2,0c-0.1,0 -0.3,-0.1 -0.4,-0.1c-0.1,-0.1 -0.1,-0.2 -0.1,-0.4l0,-2c-0,-0.1 0.1,-0.3 0.1,-0.4c0.1,-0.1 0.2,-0.1 0.4,-0.1Zm-2,1l-2,0c-0.1,0 -0.3,-0.1 -0.4,-0.1c-0.1,-0.1 -0.1,-0.2 -0.1,-0.4c0,-0.1 0.1,-0.3 0.1,-0.4c0.1,-0.1 0.2,-0.1 0.4,-0.1l2,-0c0.1,-0 0.3,0.1 0.4,0.1c0.1,0.1 0.1,0.2 0.1,0.4c-0,0.1 -0.1,0.3 -0.1,0.4c-0.1,0.1 -0.2,0.1 -0.4,0.1Z" style="fill:#5a5a5a;"/><path d="M11,2.5c-0,-0.1 0.1,-0.3 0.1,-0.4c0.1,-0.1 0.2,-0.1 0.4,-0.1c0.3,-0 0.7,-0 1,-0c0.1,-0 0.3,0.1 0.4,0.1c0.1,0.1 0.1,0.2 0.1,0.4c-0,0.8 -0,2.2 -0,3c0,0.1 -0.1,0.3 -0.1,0.4c-0.1,0.1 -0.2,0.1 -0.4,0.1c-0.3,0 -0.7,0 -1,0c-0.1,0 -0.3,-0.1 -0.4,-0.1c-0.1,-0.1 -0.1,-0.2 -0.1,-0.4c0,-0.8 0,-2.2 0,-3Z" style="fill:#588f35;"/><path d="M13,7.5c0,-0.1 -0.1,-0.3 -0.1,-0.4c-0.1,-0.1 -0.2,-0.1 -0.4,-0.1l-1,-0c-0.1,-0 -0.3,0.1 -0.4,0.1c-0.1,0.1 -0.1,0.2 -0.1,0.4l-0,1c-0,0.1 0.1,0.3 0.1,0.4c0.1,0.1 0.2,0.1 0.4,0.1l1,0c0.1,0 0.3,-0.1 0.4,-0.1c0.1,-0.1 0.1,-0.2 0.1,-0.4l0,-1Z" style="fill:#e5c200;"/></svg>