<svg xmlns="http://www.w3.org/2000/svg" xml:space="preserve" fill-rule="evenodd" stroke-linejoin="round" stroke-miterlimit="2" clip-rule="evenodd" viewBox="0 0 15 15"><path fill="#a7a7a7" fill-rule="nonzero" d="M6.231 14c-1.136 0-2.608-.031-3.608-.44C1.628 13.153 1 12.438 1 11.308c0-1.914.255-2.629.495-3.227.176-.44.352-.793.352-1.85 0-2.06.217-3.17 1.139-4.092.355-.355.987-.65 1.749-.824C6.09 1.006 7.898 1 8.347 1c.571 0 2.512-.018 4.515 1.985.352.352.657 1.035.829 1.89.304 1.507.31 3.616.31 4.317 0 1.847-.485 2.993-1.086 3.692-.714.83-1.632 1.116-2.453 1.116z"/><path fill="#5a5a5a" fill-rule="nonzero" d="M6.231 13C4.539 13 2 13 2 11.308c0-3.385.846-2.538.846-5.077 0-1.692.089-2.627.846-3.385C4.538 2 7.745 2 8.346 2c.482 0 2.115 0 3.808 1.692.846.846.846 4.544.846 5.5C13 12.221 11.595 13 10.462 13z"/></svg>