<svg xmlns="http://www.w3.org/2000/svg" xml:space="preserve" fill-rule="evenodd" stroke-linejoin="round" stroke-miterlimit="2" clip-rule="evenodd" viewBox="0 0 15 15"><path fill="#272727" fill-rule="nonzero" d="M6.23 14c-1.14 0-2.6-.03-3.6-.44-1-.4-1.63-1.12-1.63-2.25 0-1.92.25-2.63.5-3.23.17-.44.35-.8.35-1.85 0-2.06.21-3.17 1.14-4.1.35-.35.98-.64 1.74-.81C6.1 1 7.9 1 8.36 1c.57 0 2.5-.02 4.51 1.99.35.35.66 1.03.83 1.89.3 1.5.31 3.61.31 4.31 0 1.85-.48 3-1.09 3.7A3.2 3.2 0 0 1 10.47 14z"/><path fill="#414141" fill-rule="nonzero" d="M6.23 13C4.53 13 2 13 2 11.3c0-3.38.85-2.53.85-5.07 0-1.7.09-2.63.84-3.38C4.54 2 7.75 2 8.35 2c.48 0 2.11 0 3.8 1.7.85.84.85 4.54.85 5.5 0 3.02-1.4 3.8-2.54 3.8z"/></svg>