<svg xmlns="http://www.w3.org/2000/svg" xml:space="preserve" fill-rule="evenodd" stroke-linejoin="round" stroke-miterlimit="2" clip-rule="evenodd" viewBox="0 0 15 15"><path fill="#d39f10" d="M5 12c-1 0-1-1-1-1V3c0-1.1.9-2 2-2h7c1.1 0 2 .9 2 2v8c0 1-1 1-1 1z"/><path fill="#171717" d="M4 7.5c0 .127-.05.255-.15.35l-1 1c-.15.16-.39.2-.59.09L2 8.8v1.14l1.22.61c.17.09.28.26.28.45v1.5c0 .28-.22.5-.5.5s-.5-.22-.5-.5v-1.19l-.95-.48c-.02.02-.03.03-.05.04V12l-.03.16-.5 1.5c-.08.26-.37.4-.63.31a.49.49 0 0 1-.31-.63l.47-1.42v-1.05c-.3-.18-.5-.5-.5-.87V8.25c0-.55.45-1 1-1q.315 0 .57.18l.84.45.74-.73c.19-.2.51-.2.7 0 .1.095.15.222.15.35M1 7c-.55 0-1-.45-1-1s.45-1 1-1 1 .45 1 1-.45 1-1 1m13 5v.5c0 .55 0 1-1 1s-1-.45-1-1V12zm-7 0v.5c0 .55 0 1-1 1s-1-.45-1-1V12zM6 2.5c0-.28.22-.5.5-.5h6c.28 0 .5.22.5.5s-.22.5-.5.5h-6c-.28 0-.5-.22-.5-.5"/><path fill="#f4f4f4" d="M6 9c.55 0 1 .45 1 1s-.45 1-1 1-1-.45-1-1 .45-1 1-1m7 0c.55 0 1 .45 1 1s-.45 1-1 1-1-.45-1-1 .45-1 1-1"/><path fill="#7da8e6" d="M5.5 4h8c.28 0 .5.22.5.5v3c0 .28-.22.5-.5.5h-8c-.28 0-.5-.22-.5-.5v-3c0-.28.22-.5.5-.5"/></svg>