<svg xmlns="http://www.w3.org/2000/svg" xml:space="preserve" fill-rule="evenodd" stroke-linejoin="round" stroke-miterlimit="2" clip-rule="evenodd" viewBox="0 0 15 15"><path fill="#272727" d="M5 8.45V4c0-.55.45-1 1-1h7c.55 0 1 .45 1 1v4.45zM7.5 1h4c.28 0 .5.22.5.5v.9a.1.1 0 0 1-.1.1H7.1a.1.1 0 0 1-.1-.1v-.9c0-.28.22-.5.5-.5"/><path fill="#7da8e6" d="M6 7.91V4.5c0-.28.22-.5.5-.5h6c.28 0 .5.22.5.5v3.41z"/><path fill="#a83c3a" d="M9.261 6.131a.5.5 0 0 1 .479 0l4.937 2.693a.5.5 0 0 1 .251.538l-.348 1.728a.517.517 0 0 1-.719.345q-.798-.436-1.41-.435c-.794 0-1.699.281-2.699.852a.5.5 0 0 1-.5-.004C8.285 11.28 7.38 11 6.551 11q-.623 0-1.424.417a.513.513 0 0 1-.708-.345c-.114-.542-.26-1.278-.347-1.711a.5.5 0 0 1 .251-.537z"/><path fill="#4166d0" d="M12.5 12c.39 0 .73.11 1.12.32.138.059.339.189.44.25.54.3.18 1.25-.5.86-.112-.056-.678-.43-1.06-.43-.969 0-1.939.459-2.503.784a.98.98 0 0 1-.993-.001c-.565-.324-1.534-.784-2.504-.784-.221 0-.231-.02-1.03.44-.69.38-1.04-.57-.49-.88.32-.18.5-.28.67-.36.29-.13.56-.2.85-.2.927 0 1.846.261 2.756.768a.5.5 0 0 0 .488-.001c.911-.506 1.829-.768 2.756-.768Z"/><path fill="#090909" d="M1.5 8.87V10l-.03.16-.5 1.5c-.08.26-.37.4-.63.31a.49.49 0 0 1-.31-.63L.5 9.92V8.87C.2 8.69 0 8.37 0 8V6.25c0-.55.45-1 1-1q.315 0 .57.18l.84.45.74-.73c.19-.2.51-.2.7 0 .2.19.2.51 0 .7l-1 1c-.15.16-.39.2-.59.09L2 6.8v1.14l1.22.61c.17.09.28.26.28.45v1.5c0 .28-.22.5-.5.5s-.5-.22-.5-.5V9.31l-.95-.48c-.02.02-.03.03-.05.04M1 5c-.55 0-1-.45-1-1s.45-1 1-1 1 .45 1 1-.45 1-1 1"/></svg>