<svg xmlns="http://www.w3.org/2000/svg" xml:space="preserve" fill-rule="evenodd" stroke-linejoin="round" stroke-miterlimit="2" clip-rule="evenodd" viewBox="0 0 15 15"><path d="M9.68 13.35c-.26.39-.7.65-1.21.65H6.54c-.8 0-1.44-.65-1.44-1.44V2.45c0-.8.65-1.44 1.44-1.44h1.93c.8 0 1.44.65 1.44 1.44v7.06c1.27.12 2.3.78 1.81 1.37l-2.04 2.48Z"/><path fill="#090909" d="M5.58 12.56c0 .53.43.96.96.96h1.93c.53 0 .96-.43.96-.96V2.45a.96.96 0 0 0-.96-.96H6.54a.96.96 0 0 0-.96.96z"/><path fill="#ce4d4b" d="M9.43 10.63v1.93c0 .53-.43.96-.96.96H6.54a.96.96 0 0 1-.96-.96v-1.93c0 .53.43.96.96.96h1.93c.53 0 .96-.43.96-.96M5.58 7.74V4.85c0 .53.43.96.96.96h1.93c.53 0 .96-.43.96-.96v2.89c0 .53-.43.96-.96.96H6.54a.96.96 0 0 1-.96-.96"/><path fill="#eee" d="M5.58 10.63V7.74c0 .53.43.96.96.96h1.93c.53 0 .96-.43.96-.96v2.89c0 .53-.43.96-.96.96H6.54a.96.96 0 0 1-.96-.96m0-5.78V2.44c0-.53.43-.96.96-.96h1.93c.53 0 .96.43.96.96v2.41c0 .53-.43.96-.96.96H6.54a.96.96 0 0 1-.96-.96"/><path fill="#fff" d="M5.58 2.93c.48 1.3 3.37 1.3 3.85 0-.96.7-2.89.7-3.85 0"/></svg>