<?xml version="1.0" encoding="UTF-8" standalone="no"?><!DOCTYPE svg PUBLIC "-//W3C//DTD SVG 1.1//EN" "http://www.w3.org/Graphics/SVG/1.1/DTD/svg11.dtd"><svg width="100%" height="100%" viewBox="0 0 15 15" version="1.1" xmlns="http://www.w3.org/2000/svg" xmlns:xlink="http://www.w3.org/1999/xlink" xml:space="preserve" xmlns:serif="http://www.serif.com/" style="fill-rule:evenodd;clip-rule:evenodd;stroke-linejoin:round;stroke-miterlimit:2;"><path d="M5.5,3c0,-2.6 3.9,-2.6 3.9,0c0,0.7 -3.9,0.7 -3.9,0Z" style="fill:#f4f4f4;"/><path d="M6,2.8c0.2,-1.7 2.8,-1.7 2.9,-0c-0.1,0 -0.2,0.1 -0.3,0.1c-0.3,0.1 -0.8,0.1 -1.2,0.1c-0.4,0 -0.9,-0 -1.2,-0.1c-0.1,-0 -0.2,-0.1 -0.3,-0.1Z" style="fill:#ce4d4b;"/><path d="M5.5,3.6l0,9.9c0,0.7 3.9,0.7 3.9,0l0,-9.9c0,0.7 -3.9,0.7 -3.9,0Z" style="fill:#f4f4f4;"/><path d="M9,4.5l-0,8.8c-0.1,0 -0.2,0.1 -0.3,0.1c-0.3,0.1 -0.8,0.1 -1.2,0.1c-0.4,0 -0.9,-0 -1.2,-0.1c-0.1,-0 -0.2,-0.1 -0.3,-0.1l-0,-8.8c0.4,0.1 0.9,0.1 1.5,0.1c0.5,0 1.1,-0.1 1.5,-0.1Z" style="fill:#171717;"/></svg>