<?xml version="1.0" encoding="UTF-8" standalone="no"?><!DOCTYPE svg PUBLIC "-//W3C//DTD SVG 1.1//EN" "http://www.w3.org/Graphics/SVG/1.1/DTD/svg11.dtd"><svg width="100%" height="100%" viewBox="0 0 15 15" version="1.1" xmlns="http://www.w3.org/2000/svg" xmlns:xlink="http://www.w3.org/1999/xlink" xml:space="preserve" xmlns:serif="http://www.serif.com/" style="fill-rule:evenodd;clip-rule:evenodd;stroke-linejoin:round;stroke-miterlimit:2;"><path d="M6,4.1c0,-2 3,-2 3,0c0,0.5 -3,0.5 -3,0Z" style="fill:#f4f4f4;"/><path d="M6.5,3.8c0.2,-1 1.8,-1 2,-0c-0,0 -0.1,0 -0.1,0c-0.2,0.1 -0.6,0.1 -0.9,0.1c-0.3,0 -0.6,-0 -0.9,-0.1c-0,-0 -0.1,-0 -0.1,-0Z" style="fill:#ce4d4b;"/><path d="M6,4.6l0,7.5c0,0.5 3,0.5 3,0l0,-7.5c0,0.5 -3,0.5 -3,0Z" style="fill:#f4f4f4;"/><path d="M8.6,5.2l-0,6.7c-0.1,0 -0.1,0 -0.2,0.1c-0.3,0.1 -0.6,0.1 -0.9,0.1c-0.3,0 -0.7,-0 -0.9,-0.1c-0.1,-0 -0.1,-0 -0.2,-0.1l-0,-6.7c0.3,0.1 0.7,0.1 1.1,0.1c0.4,0 0.8,-0 1.1,-0.1Z" style="fill:#171717;"/><path d="M10.5,4.1c0,-2 3,-2 3,0c0,0.5 -3,0.5 -3,0Z" style="fill:#f4f4f4;"/><path d="M11,3.8c0.2,-1 1.8,-1 2,-0c-0,0 -0.1,0 -0.1,0c-0.2,0.1 -0.6,0.1 -0.9,0.1c-0.3,0 -0.6,-0 -0.9,-0.1c-0,-0 -0.1,-0 -0.1,-0Z" style="fill:#ce4d4b;"/><path d="M10.5,4.6l0,7.5c0,0.5 3,0.5 3,0l0,-7.5c0,0.5 -3,0.5 -3,0Z" style="fill:#f4f4f4;"/><path d="M13.1,5.2l-0,6.7c-0.1,0 -0.1,0 -0.2,0.1c-0.3,0.1 -0.6,0.1 -0.9,0.1c-0.3,0 -0.7,-0 -0.9,-0.1c-0.1,-0 -0.1,-0 -0.2,-0.1l0,-6.7c0.3,0.1 0.7,0.1 1.1,0.1c0.4,0 0.8,-0 1.1,-0.1Z" style="fill:#171717;"/><path d="M1.5,4.1c0,-2 3,-2 3,0c0,0.5 -3,0.5 -3,0Z" style="fill:#f4f4f4;"/><path d="M2,3.8c0.2,-1 1.8,-1 2,-0c-0,0 -0.1,0 -0.1,0c-0.2,0.1 -0.6,0.1 -0.9,0.1c-0.3,0 -0.6,-0 -0.9,-0.1c-0,-0 -0.1,-0 -0.1,-0Z" style="fill:#ce4d4b;"/><path d="M1.5,4.6l0,7.5c0,0.5 3,0.5 3,0l0,-7.5c0,0.5 -3,0.5 -3,0Z" style="fill:#f4f4f4;"/><path d="M4.1,5.2l-0,6.7c-0.1,0 -0.1,0 -0.2,0.1c-0.3,0.1 -0.6,0.1 -0.9,0.1c-0.3,0 -0.7,-0 -0.9,-0.1c-0.1,-0 -0.1,-0 -0.2,-0.1l-0,-6.7c0.3,0.1 0.7,0.1 1.1,0.1c0.4,0 0.8,-0 1.1,-0.1Z" style="fill:#171717;"/></svg>