<svg xmlns="http://www.w3.org/2000/svg" xml:space="preserve" fill-rule="evenodd" stroke-linejoin="round" stroke-miterlimit="2" clip-rule="evenodd" viewBox="0 0 15 15"><path d="M9.753 13.826A1.5 1.5 0 0 1 8.5 14.5h-2A1.5 1.5 0 0 1 5 13V2.5A1.5 1.5 0 0 1 6.5 1h2A1.5 1.5 0 0 1 10 2.5v7.332c1.318.126 2.392.807 1.876 1.419a365 365 0 0 0-2.124 2.575Z"/><path fill="#090909" d="M5.5 13a1 1 0 0 0 1 1h2a1 1 0 0 0 1-1V2.5a1 1 0 0 0-1-1h-2a1 1 0 0 0-1 1z"/><path fill="#ce4d4b" d="M9.5 11v2a1 1 0 0 1-1 1h-2a1 1 0 0 1-1-1v-2a1 1 0 0 0 1 1h2a1 1 0 0 0 1-1m-4-3V5a1 1 0 0 0 1 1h2a1 1 0 0 0 1-1v3a1 1 0 0 1-1 1h-2a1 1 0 0 1-1-1"/><path fill="#e4e4e4" d="M5.5 11V8a1 1 0 0 0 1 1h2a1 1 0 0 0 1-1v3a1 1 0 0 1-1 1h-2a1 1 0 0 1-1-1m0-6V2.5a1 1 0 0 1 1-1h2a1 1 0 0 1 1 1V5a1 1 0 0 1-1 1h-2a1 1 0 0 1-1-1"/><path fill="#fff" d="M5.5 3C6 4.347 9 4.347 9.5 3c-1 .722-3 .724-4 0"/></svg>