<svg xmlns="http://www.w3.org/2000/svg" xml:space="preserve" fill-rule="evenodd" stroke-linejoin="round" stroke-miterlimit="2" clip-rule="evenodd" viewBox="0 0 15 15"><path d="M9.677 13.351A1.44 1.44 0 0 1 8.471 14H6.545a1.444 1.444 0 0 1-1.444-1.444V2.445c0-.798.647-1.444 1.444-1.444h1.926c.798 0 1.444.647 1.444 1.444v7.06c1.269.122 2.304.777 1.807 1.367a372 372 0 0 0-2.045 2.479"/><path fill="#090909" d="M5.581 12.556c0 .532.431.963.963.963H8.47a.963.963 0 0 0 .963-.963V2.445a.963.963 0 0 0-.963-.963H6.544a.963.963 0 0 0-.963.963z"/><path fill="#ce4d4b" d="M9.433 10.63v1.926a.963.963 0 0 1-.963.963H6.544a.963.963 0 0 1-.963-.963V10.63c0 .532.431.963.963.963H8.47a.963.963 0 0 0 .963-.963M5.581 7.741V4.852c0 .532.431.963.963.963H8.47a.963.963 0 0 0 .963-.963v2.889a.963.963 0 0 1-.963.963H6.544a.963.963 0 0 1-.963-.963"/><path fill="#e4e4e4" d="M5.581 10.63V7.741c0 .532.431.963.963.963H8.47a.963.963 0 0 0 .963-.963v2.889a.963.963 0 0 1-.963.963H6.544a.963.963 0 0 1-.963-.963m0-5.778V2.445c0-.532.431-.963.963-.963H8.47c.532 0 .963.431.963.963v2.407a.963.963 0 0 1-.963.963H6.544a.963.963 0 0 1-.963-.963"/><path fill="#fff" d="M5.581 2.926c.481 1.297 3.37 1.297 3.852 0-.963.695-2.889.697-3.852 0"/></svg>