<svg xmlns="http://www.w3.org/2000/svg" xml:space="preserve" fill-rule="evenodd" stroke-linejoin="round" stroke-miterlimit="2" clip-rule="evenodd" viewBox="0 0 15 15"><path d="M4.591 11.452a.98.98 0 0 1-.815.439H2.475a.976.976 0 0 1-.976-.976v-6.83c0-.539.437-.976.976-.976h1.301c.539 0 .976.437.976.976v4.769c.857.082 1.556.525 1.22.923-.307.364-1.105 1.337-1.381 1.675"/><path fill="#090909" d="M1.825 10.915c0 .359.291.65.65.65h1.301a.65.65 0 0 0 .65-.65v-6.83a.65.65 0 0 0-.65-.65H2.475a.65.65 0 0 0-.65.65z"/><path fill="#ce4d4b" d="M4.427 9.614v1.301a.65.65 0 0 1-.65.65H2.476a.65.65 0 0 1-.65-.65V9.614c0 .359.291.65.65.65h1.301a.65.65 0 0 0 .65-.65M1.825 7.663V5.712c0 .359.291.65.65.65h1.301a.65.65 0 0 0 .65-.65v1.951a.65.65 0 0 1-.65.65H2.475a.65.65 0 0 1-.65-.65"/><path fill="#e4e4e4" d="M1.825 9.614V7.663c0 .359.291.65.65.65h1.301a.65.65 0 0 0 .65-.65v1.951a.65.65 0 0 1-.65.65H2.475a.65.65 0 0 1-.65-.65m0-3.903V4.085a.65.65 0 0 1 .65-.65h1.301a.65.65 0 0 1 .65.65v1.626a.65.65 0 0 1-.65.65H2.475a.65.65 0 0 1-.65-.65"/><path fill="#fff" d="M1.825 4.41c.325.876 2.277.876 2.602 0-.65.47-1.951.471-2.602 0"/><path d="M8.812 11.452a.98.98 0 0 1-.815.439H6.696a.976.976 0 0 1-.976-.976v-6.83c0-.539.437-.976.976-.976h1.301c.539 0 .976.437.976.976v4.769c.857.082 1.556.525 1.22.923-.307.364-1.105 1.337-1.381 1.675"/><path fill="#090909" d="M6.046 10.915c0 .359.291.65.65.65h1.301a.65.65 0 0 0 .65-.65v-6.83a.65.65 0 0 0-.65-.65H6.696a.65.65 0 0 0-.65.65z"/><path fill="#ce4d4b" d="M8.648 9.614v1.301a.65.65 0 0 1-.65.65H6.697a.65.65 0 0 1-.65-.65V9.614c0 .359.291.65.65.65h1.301a.65.65 0 0 0 .65-.65M6.046 7.663V5.712c0 .359.291.65.65.65h1.301a.65.65 0 0 0 .65-.65v1.951a.65.65 0 0 1-.65.65H6.696a.65.65 0 0 1-.65-.65"/><path fill="#e4e4e4" d="M6.046 9.614V7.663c0 .359.291.65.65.65h1.301a.65.65 0 0 0 .65-.65v1.951a.65.65 0 0 1-.65.65H6.696a.65.65 0 0 1-.65-.65m0-3.903V4.085a.65.65 0 0 1 .65-.65h1.301a.65.65 0 0 1 .65.65v1.626a.65.65 0 0 1-.65.65H6.696a.65.65 0 0 1-.65-.65"/><path fill="#fff" d="M6.046 4.41c.325.876 2.277.876 2.602 0-.65.47-1.951.471-2.602 0"/><path d="M13.033 11.452a.98.98 0 0 1-.815.439h-1.301a.976.976 0 0 1-.976-.976v-6.83c0-.539.437-.976.976-.976h1.301c.539 0 .976.437.976.976v4.769c.857.082 1.556.525 1.22.923-.307.364-1.105 1.337-1.381 1.675"/><path fill="#090909" d="M10.267 10.915c0 .359.291.65.65.65h1.301a.65.65 0 0 0 .65-.65v-6.83a.65.65 0 0 0-.65-.65h-1.301a.65.65 0 0 0-.65.65z"/><path fill="#ce4d4b" d="M12.868 9.614v1.301a.65.65 0 0 1-.65.65h-1.301a.65.65 0 0 1-.65-.65V9.614c0 .359.291.65.65.65h1.301a.65.65 0 0 0 .65-.65m-2.602-1.951V5.712c0 .359.291.65.65.65h1.301a.65.65 0 0 0 .65-.65v1.951a.65.65 0 0 1-.65.65h-1.301a.65.65 0 0 1-.65-.65"/><path fill="#e4e4e4" d="M10.267 9.614V7.663c0 .359.291.65.65.65h1.301a.65.65 0 0 0 .65-.65v1.951a.65.65 0 0 1-.65.65h-1.301a.65.65 0 0 1-.65-.65m0-3.903V4.085a.65.65 0 0 1 .65-.65h1.301a.65.65 0 0 1 .65.65v1.626a.65.65 0 0 1-.65.65h-1.301a.65.65 0 0 1-.65-.65"/><path fill="#fff" d="M10.267 4.41c.325.876 2.277.876 2.602 0-.65.47-1.951.471-2.602 0"/></svg>