<?xml version="1.0" encoding="UTF-8" standalone="no"?><!DOCTYPE svg PUBLIC "-//W3C//DTD SVG 1.1//EN" "http://www.w3.org/Graphics/SVG/1.1/DTD/svg11.dtd"><svg width="100%" height="100%" viewBox="0 0 15 15" version="1.1" xmlns="http://www.w3.org/2000/svg" xmlns:xlink="http://www.w3.org/1999/xlink" xml:space="preserve" xmlns:serif="http://www.serif.com/" style="fill-rule:evenodd;clip-rule:evenodd;stroke-linejoin:round;stroke-miterlimit:2;"><path d="M3.6,1c0.1,-0 7.4,-0 7.4,-0c0.9,0 1.3,0 1.3,0.9l0,10l-8.7,-0l-0,-10.8Z" style="fill:#59a42b;"/><path d="M12.3,11.8l0,1.3c0,0.9 -0.4,0.9 -1.3,0.9l-6.9,0c-0.9,0 -1.3,0 -1.3,-0.9l0,-11.3c0,-0.7 0.3,-0.8 0.9,-0.9l0,10.8l0.1,0c-0.1,0 -0.1,0 -0.1,0.1l0,0.8c0,0.4 0.4,0.4 0.4,0.4l7.7,-0c0,0 0.1,-0 0.1,-0c0,-0 0,-0 0,-0.1l-0,-1.1c0,-0.1 -0,-0.1 -0.1,-0.1l0.5,-0Z" style="fill:#588f35;"/><path d="M11.8,11.9l0,1.1c0,0 -0,0.1 -0,0.1c-0,0 -0,0 -0.1,0l-7.7,0c0,0 -0.4,0 -0.4,-0.4l-0,-0.8c0,-0.1 0,-0.1 0.1,-0.1l8,0c0.1,0 0.1,0 0.1,0.1Z" style="fill:#f6f4d0;"/><path d="M10.1,5.3c0.4,0 0.4,0.9 0,0.9l-5.2,0c-0.4,0 -0.4,-0.9 0,-0.9l5.2,0Zm-1,-1.7c0.4,0 0.4,0.9 0,0.9l-3.2,0c-0.4,0 -0.4,-0.9 0,-0.9l3.2,0Z" style="fill:#e4e4e4;"/></svg>