<svg xmlns="http://www.w3.org/2000/svg" xml:space="preserve" fill-rule="evenodd" stroke-linejoin="round" stroke-miterlimit="2" clip-rule="evenodd" viewBox="0 0 15 15"><path d="M9.77 13.44c-.24.47-.73.79-1.3.79H6.54c-.81 0-1.46-.65-1.46-1.46V2.49c0-.38.21-.73.55-.89L7.06.89a1 1 0 0 1 .89 0l1.43.71a1 1 0 0 1 .55.89v6.85l.85-.1a.5.5 0 0 1 .39.12l.51.44a.5.5 0 0 1 .09.65c-.48.75-1.58 2.43-2 2.99"/><path fill="#5dca19" d="m8.7 13.7-.23.03H6.54l-.23-.03 1.19-1.19zm-3.12-1.27V2.48h3.85v9.95L7.5 10.5z"/><path fill="#fff" d="M5.58 6.43v-2L7.51 2.5l1.93 1.93v2L7.51 4.5zm0 2L7.51 6.5l1.93 1.93v2L7.51 8.5l-1.93 1.93zm.73 5.27a.95.95 0 0 1-.73-.93v-.33l1.93-1.93 1.93 1.93v.33c0 .45-.31.83-.73.93l-1.19-1.19-1.19 1.19ZM9.15 2.03a.5.5 0 0 1 .28.45H5.58q.01-.3.28-.45l1.43-.71a.5.5 0 0 1 .45 0l1.43.71Z"/></svg>