<svg xmlns="http://www.w3.org/2000/svg" xml:space="preserve" fill-rule="evenodd" stroke-linejoin="round" stroke-miterlimit="2" clip-rule="evenodd" viewBox="0 0 15 15"><path d="M5.69 3.69v7.81c0 .61-.5 1.11-1.11 1.11H3.12c-.61 0-1.11-.5-1.11-1.11V3.68c0-.29.16-.55.42-.68l1.08-.54a.7.7 0 0 1 .68 0L5.27 3c.31.15.42.45.42.69m7.31 0v7.81c0 .61-.5 1.11-1.11 1.11h-1.46c-.61 0-1.11-.5-1.11-1.11V3.68c0-.29.16-.55.42-.68l1.08-.54a.7.7 0 0 1 .68 0l1.08.54c.31.15.42.45.42.69"/><path fill="#f2af0d" d="m4.75 12.21-.18.02H3.11l-.18-.02.91-.91zm-2.37-.96V3.69H5.3v7.56L3.84 9.79z"/><path fill="#f20d0d" d="m12.06 12.21-.18.02h-1.46l-.18-.02.91-.91zm-2.37-.96V3.69h2.92v7.56l-1.46-1.46z"/><path fill="#fff" d="M2.38 6.69V5.17l1.46-1.46L5.3 5.17v1.52L3.84 5.23zm0 1.52 1.46-1.46L5.3 8.21v1.52L3.84 8.27 2.38 9.73zm.56 4a.74.74 0 0 1-.56-.71v-.25l1.46-1.46 1.46 1.46v.25c0 .34-.24.63-.56.71l-.91-.91-.91.91ZM5.1 3.34c.13.06.21.2.21.34H2.38q0-.24.21-.34l1.08-.54a.4.4 0 0 1 .34 0zm4.59 3.34V5.16l1.46-1.46 1.46 1.46v1.52l-1.46-1.46zm0 1.52 1.46-1.46 1.46 1.46v1.52l-1.46-1.46-1.46 1.46zm.56 4a.74.74 0 0 1-.56-.71v-.25l1.46-1.46 1.46 1.46v.25c0 .34-.24.63-.56.71l-.91-.91-.91.91Zm2.16-8.87c.13.06.21.2.21.34H9.69q0-.24.21-.34l1.08-.54a.4.4 0 0 1 .34 0z"/></svg>