<?xml version="1.0" encoding="UTF-8" standalone="no"?><!DOCTYPE svg PUBLIC "-//W3C//DTD SVG 1.1//EN" "http://www.w3.org/Graphics/SVG/1.1/DTD/svg11.dtd"><svg width="100%" height="100%" viewBox="0 0 15 15" version="1.1" xmlns="http://www.w3.org/2000/svg" xmlns:xlink="http://www.w3.org/1999/xlink" xml:space="preserve" xmlns:serif="http://www.serif.com/" style="fill-rule:evenodd;clip-rule:evenodd;stroke-linejoin:round;stroke-miterlimit:2;"><path d="M4,4l0,-1c0,-0.55 0.45,-1 1,-1l5,0c0.55,0 1,0.45 1,1l0,1l-1,0l0,-0.9c0,-0.027 -0.011,-0.052 -0.029,-0.071c-0.019,-0.019 -0.044,-0.029 -0.071,-0.029l-4.8,0c-0.027,0 -0.052,0.011 -0.071,0.029c-0.019,0.019 -0.029,0.044 -0.029,0.071l-0,0.9l-1,0Z" style="fill:#5a5a5a;"/><path d="M2,4l11,0c0.55,0 1,0.45 1,1l0,7c0,0.55 -0.45,1 -1,1l-11,0c-0.55,0 -1,-0.45 -1,-1l0,-7c0,-0.55 0.45,-1 1,-1Z" style="fill:#472a00;"/></svg>