<svg xmlns="http://www.w3.org/2000/svg" xml:space="preserve" fill-rule="evenodd" stroke-linejoin="round" stroke-miterlimit="2" clip-rule="evenodd" viewBox="0 0 15 15"><path fill="#5a5a5a" d="M4 4V3c0-.55.45-1 1-1h5c.55 0 1 .45 1 1v1h-1v-.9a.1.1 0 0 0-.1-.1H5.1a.1.1 0 0 0-.1.1V4z"/><path fill="#472a00" d="M2 4h11c.55 0 1 .45 1 1v7c0 .55-.45 1-1 1H2c-.55 0-1-.45-1-1V5c0-.55.45-1 1-1"/><path fill="#d39f10" d="m3.457 8.6 1.979.001q.03 0 .051.024a.06.06 0 0 1 .014.054 1.077 1.077 0 0 1-2.11 0 .07.07 0 0 1 .014-.055.07.07 0 0 1 .051-.024Zm6.102 0 1.977.001q.03 0 .051.024a.06.06 0 0 1 .014.054 1.076 1.076 0 0 1-2.108 0 .07.07 0 0 1 .014-.055.07.07 0 0 1 .051-.024Zm2.04-.335h.019q.02 0 .035.015a.05.05 0 0 1 .015.035v.122a.05.05 0 0 1-.015.035.05.05 0 0 1-.035.015H9.486a.05.05 0 0 1-.035-.015.05.05 0 0 1-.015-.035v-.122q0-.02.015-.035a.05.05 0 0 1 .035-.015h.016a.08.08 0 0 0 .067-.034l.848-1.169H8.548a.15.15 0 0 1-.148-.129l-.001-.008a.2.2 0 0 1-.013-.063.88.88 0 0 0-.648-.655l.008 2.283c.016.766.343 1.445.845 1.881a.08.08 0 0 1 .026.092.08.08 0 0 1-.078.055l-2.053-.001a.08.08 0 0 1-.078-.055.08.08 0 0 1 .025-.091c.5-.436.827-1.115.843-1.881l.008-2.283a.89.89 0 0 0-.65.655.2.2 0 0 1-.012.063.16.16 0 0 1-.159.137H4.582l.848 1.169a.08.08 0 0 0 .068.034c.037 0 .067.03.067.067v.088c0 .037-.03.067-.067.067h-2.1a.067.067 0 0 1-.067-.067v-.089q0-.027.019-.047a.07.07 0 0 1 .047-.019h.042l.873-1.203h-.447a.207.207 0 0 1-.205-.208c0-.115.092-.207.205-.207h2.418a.08.08 0 0 0 .077-.052c.158-.38.502-.662.918-.736v-.65c0-.117.092-.208.207-.208l.02.002.02-.002c.115 0 .208.093.208.208v.65c.416.072.76.355.918.736a.08.08 0 0 0 .077.052h2.418c.113 0 .205.093.205.207a.207.207 0 0 1-.205.208h-.467l.848 1.169a.08.08 0 0 0 .067.034ZM10.46 8.25v-.894a.02.02 0 0 0-.012-.016.02.02 0 0 0-.019.006l-.649.892a.02.02 0 0 0-.001.017.02.02 0 0 0 .015.009l.649.002a.02.02 0 0 0 .012-.005.02.02 0 0 0 .005-.012Zm-5.905.017h.647a.02.02 0 0 0 .015-.009.02.02 0 0 0-.001-.017l-.647-.894q-.007-.009-.019-.006a.02.02 0 0 0-.012.016v.894q.001.015.017.017ZM4.36 8.25v-.894a.02.02 0 0 0-.012-.016.02.02 0 0 0-.019.006l-.647.892a.02.02 0 0 0-.001.017.02.02 0 0 0 .015.009l.647.002a.02.02 0 0 0 .012-.005.02.02 0 0 0 .005-.012Zm6.295.017h.649a.02.02 0 0 0 .015-.009.02.02 0 0 0-.001-.017l-.649-.894q-.007-.009-.019-.006a.02.02 0 0 0-.012.016v.894q.001.015.017.017Zm-5.998-1.91a.208.208 0 1 1-.415-.001.208.208 0 0 1 .415.001m6.1-.012a.207.207 0 1 1-.414 0 .207.207 0 1 1 .414 0m-1.563 4.422a.167.167 0 0 1-.167.167h-3.11a.166.166 0 1 1 0-.332h3.11c.092 0 .167.073.167.165m-3.423.335q0-.034.024-.059a.08.08 0 0 1 .059-.024h3.24q.034 0 .059.024a.08.08 0 0 1 .024.059v.315a.1.1 0 0 1-.024.059.08.08 0 0 1-.059.024h-3.24a.1.1 0 0 1-.059-.024.08.08 0 0 1-.024-.059z"/></svg>