<?xml version="1.0" encoding="UTF-8" standalone="no"?><!DOCTYPE svg PUBLIC "-//W3C//DTD SVG 1.1//EN" "http://www.w3.org/Graphics/SVG/1.1/DTD/svg11.dtd"><svg width="100%" height="100%" viewBox="0 0 15 15" version="1.1" xmlns="http://www.w3.org/2000/svg" xmlns:xlink="http://www.w3.org/1999/xlink" xml:space="preserve" xmlns:serif="http://www.serif.com/" style="fill-rule:evenodd;clip-rule:evenodd;stroke-linejoin:round;stroke-miterlimit:2;"><path d="M4,4l0,-1c0,-0.5 0.5,-1 1,-1l5,0c0.6,0 1,0.5 1,1l0,1l-1,0l0,-0.9c0,-0 -0,-0.1 -0,-0.1c-0,-0 -0,-0 -0.1,-0l-4.8,0c-0,0 -0.1,0 -0.1,0c-0,0 -0,0 -0,0.1l-0,0.9l-1,0Z" style="fill:#5a5a5a;"/><path d="M2,4l11,0c0.6,0 1,0.5 1,1l0,7c0,0.6 -0.4,1 -1,1l-11,0c-0.6,0 -1,-0.4 -1,-1l0,-7c0,-0.5 0.4,-1 1,-1Z" style="fill:#171717;"/><path d="M4,6.9c-0,-0.2 0.1,-0.3 0.2,-0.4c0.1,-0.1 0.3,-0.1 0.5,-0.1c0.9,0.4 1.7,0.1 2.4,-0.9c0.1,-0.1 0.2,-0.2 0.4,-0.2c0.1,-0 0.3,0.1 0.4,0.2c0.8,1 1.8,1 2.4,0.8c0.1,-0.1 0.3,-0 0.4,0.1c0.1,0.1 0.2,0.2 0.2,0.4c-0.2,1.2 -0.8,3.6 -3.1,5c-0.2,0.1 -0.4,0.1 -0.5,0c-1.9,-1.2 -3,-2.8 -3.2,-5Z" style="fill:#7da8e6;"/><path d="M7.7,10.7c-0,0 -0.1,0 -0.1,0c-0,-0 -0.1,-0.1 -0.1,-0.1c0,-0.7 0,-3.1 0,-3.8c0,-0 0,-0.1 0,-0.1c0,-0 0.1,-0 0.1,-0c0.1,0.1 0.2,0.1 0.2,0.2c0.6,0.4 1.2,0.6 1.8,0.6c0,-0 0.1,0 0.1,0c0,0 0,0.1 0,0.1c-0.1,0.5 -0.4,1 -0.6,1.5c-0.4,0.6 -0.8,1.2 -1.4,1.6Z" style="fill:#c5cfdc;"/></svg>