<?xml version="1.0" encoding="UTF-8" standalone="no"?><!DOCTYPE svg PUBLIC "-//W3C//DTD SVG 1.1//EN" "http://www.w3.org/Graphics/SVG/1.1/DTD/svg11.dtd"><svg width="100%" height="100%" viewBox="0 0 15 15" version="1.1" xmlns="http://www.w3.org/2000/svg" xmlns:xlink="http://www.w3.org/1999/xlink" xml:space="preserve" xmlns:serif="http://www.serif.com/" style="fill-rule:evenodd;clip-rule:evenodd;stroke-linejoin:round;stroke-miterlimit:2;"><path d="M4,4l0,-1c0,-0.55 0.45,-1 1,-1l5,0c0.55,0 1,0.45 1,1l0,1l-1,0l0,-0.9c0,-0.027 -0.011,-0.052 -0.029,-0.071c-0.019,-0.019 -0.044,-0.029 -0.071,-0.029l-4.8,0c-0.027,0 -0.052,0.011 -0.071,0.029c-0.019,0.019 -0.029,0.044 -0.029,0.071l-0,0.9l-1,0Z" style="fill:#5a5a5a;"/><path d="M2,4l11,0c0.55,0 1,0.45 1,1l0,7c0,0.55 -0.45,1 -1,1l-11,0c-0.55,0 -1,-0.45 -1,-1l0,-7c0,-0.55 0.45,-1 1,-1Z" style="fill:#472a00;"/><path d="M3.457,8.6l1.979,0.001c0.02,0 0.038,0.009 0.051,0.024c0.013,0.015 0.018,0.035 0.014,0.054c-0.101,0.491 -0.534,0.86 -1.054,0.86c-0.521,0 -0.955,-0.368 -1.056,-0.86c-0.004,-0.019 0.002,-0.04 0.014,-0.055c0.013,-0.015 0.031,-0.024 0.051,-0.024Zm6.102,0l1.977,0.001c0.02,0 0.038,0.009 0.051,0.024c0.013,0.015 0.018,0.035 0.014,0.054c-0.101,0.491 -0.533,0.86 -1.054,0.86c-0.519,0 -0.953,-0.368 -1.054,-0.86c-0.004,-0.019 0.002,-0.04 0.014,-0.055c0.013,-0.015 0.031,-0.024 0.051,-0.024Zm2.04,-0.335l0.019,-0c0.013,-0 0.026,0.005 0.035,0.015c0.009,0.009 0.015,0.022 0.015,0.035l-0,0.122c0,0.013 -0.005,0.026 -0.015,0.035c-0.009,0.009 -0.022,0.015 -0.035,0.015l-2.132,0c-0.013,-0 -0.026,-0.005 -0.035,-0.015c-0.009,-0.009 -0.015,-0.022 -0.015,-0.035l0,-0.122c-0,-0.013 0.005,-0.026 0.015,-0.035c0.009,-0.009 0.022,-0.015 0.035,-0.015l0.016,-0c0.027,-0 0.052,-0.013 0.067,-0.034l0.848,-1.169l-1.869,-0c-0.075,-0 -0.138,-0.055 -0.148,-0.129l-0.001,-0.008c-0.008,-0.02 -0.013,-0.042 -0.013,-0.063c-0.075,-0.322 -0.327,-0.577 -0.648,-0.655l0.008,2.283c0.016,0.766 0.343,1.445 0.845,1.881c0.027,0.022 0.037,0.059 0.026,0.092c-0.012,0.033 -0.043,0.055 -0.078,0.055l-2.053,-0.001c-0.035,-0 -0.066,-0.022 -0.078,-0.055c-0.012,-0.033 -0.002,-0.069 0.025,-0.091c0.5,-0.436 0.827,-1.115 0.843,-1.881l0.008,-2.283c-0.322,0.078 -0.573,0.333 -0.65,0.655c0,0.022 -0.005,0.043 -0.012,0.063c-0.012,0.079 -0.08,0.137 -0.159,0.137l-1.881,0l0.848,1.169c0.016,0.022 0.041,0.034 0.068,0.034c0.037,0 0.067,0.03 0.067,0.067l0,0.088c-0,0.037 -0.03,0.067 -0.067,0.067l-2.1,-0c-0.037,-0 -0.067,-0.03 -0.067,-0.067l0,-0.089c-0,-0.018 0.007,-0.034 0.019,-0.047c0.012,-0.012 0.029,-0.019 0.047,-0.019l0.042,0l0.873,-1.203l-0.447,0c-0.113,0 -0.205,-0.093 -0.205,-0.208c0,-0.115 0.092,-0.207 0.205,-0.207l2.418,-0c0.034,0 0.064,-0.021 0.077,-0.052c0.158,-0.38 0.502,-0.662 0.918,-0.736l0,-0.65c0,-0.117 0.092,-0.208 0.207,-0.208l0.02,0.002l0.02,-0.002c0.115,0 0.208,0.093 0.208,0.208l0,0.65c0.416,0.072 0.76,0.355 0.918,0.736c0.013,0.032 0.043,0.052 0.077,0.052l2.418,0c0.113,0 0.205,0.093 0.205,0.207c0,0.115 -0.092,0.208 -0.205,0.208l-0.467,0l0.848,1.169c0.016,0.022 0.041,0.034 0.067,0.034Zm-1.139,-0.015l0,-0.894c0,-0.007 -0.005,-0.014 -0.012,-0.016c-0.007,-0.002 -0.014,0 -0.019,0.006l-0.649,0.892c-0.004,0.005 -0.004,0.012 -0.001,0.017c0.003,0.006 0.009,0.009 0.015,0.009l0.649,0.002c0.004,0 0.009,-0.002 0.012,-0.005c0.003,-0.003 0.005,-0.007 0.005,-0.012Zm-5.905,0.017l0.647,-0c0.006,0 0.012,-0.004 0.015,-0.009c0.003,-0.006 0.002,-0.012 -0.001,-0.017l-0.647,-0.894c-0.004,-0.006 -0.012,-0.008 -0.019,-0.006c-0.007,0.002 -0.012,0.009 -0.012,0.016l0,0.894c0,0.009 0.007,0.017 0.017,0.017Zm-0.195,-0.017l-0,-0.894c-0,-0.007 -0.005,-0.014 -0.012,-0.016c-0.007,-0.002 -0.014,0 -0.019,0.006l-0.647,0.892c-0.004,0.005 -0.004,0.012 -0.001,0.017c0.003,0.006 0.009,0.009 0.015,0.009l0.647,0.002c0.004,0 0.009,-0.002 0.012,-0.005c0.003,-0.003 0.005,-0.007 0.005,-0.012Zm6.295,0.017l0.649,-0c0.006,-0 0.012,-0.004 0.015,-0.009c0.003,-0.006 0.002,-0.012 -0.001,-0.017l-0.649,-0.894c-0.004,-0.006 -0.012,-0.008 -0.019,-0.006c-0.007,0.002 -0.012,0.009 -0.012,0.016l-0,0.894c0,0.009 0.007,0.017 0.017,0.017Zm-5.998,-1.91c0,0.113 -0.093,0.207 -0.207,0.207c-0.115,0 -0.208,-0.093 -0.208,-0.207c0,-0.115 0.093,-0.208 0.208,-0.208c0.113,0 0.207,0.093 0.207,0.208Zm6.1,-0.012c0,0.115 -0.093,0.207 -0.207,0.207c-0.115,0 -0.207,-0.092 -0.207,-0.207c0,-0.115 0.092,-0.208 0.207,-0.208c0.115,0 0.207,0.093 0.207,0.208Z" style="fill:#d39f10;"/><path d="M9.194,10.767c0,0.092 -0.075,0.167 -0.167,0.167l-3.11,0c-0.092,0 -0.167,-0.075 -0.167,-0.167c0,-0.092 0.075,-0.165 0.167,-0.165l3.11,0c0.092,0 0.167,0.073 0.167,0.165Zm-3.423,0.335c0,-0.022 0.009,-0.043 0.024,-0.059c0.016,-0.016 0.037,-0.024 0.059,-0.024l3.24,-0c0.022,-0 0.043,0.009 0.059,0.024c0.016,0.016 0.024,0.037 0.024,0.059l-0,0.315c-0,0.022 -0.009,0.043 -0.024,0.059c-0.016,0.016 -0.037,0.024 -0.059,0.024l-3.24,0c-0.022,0 -0.043,-0.009 -0.059,-0.024c-0.016,-0.016 -0.024,-0.037 -0.024,-0.059l0,-0.315Z" style="fill:#d39f10;"/></svg>