<?xml version="1.0" encoding="UTF-8" standalone="no"?><!DOCTYPE svg PUBLIC "-//W3C//DTD SVG 1.1//EN" "http://www.w3.org/Graphics/SVG/1.1/DTD/svg11.dtd"><svg width="100%" height="100%" viewBox="0 0 15 15" version="1.1" xmlns="http://www.w3.org/2000/svg" xmlns:xlink="http://www.w3.org/1999/xlink" xml:space="preserve" xmlns:serif="http://www.serif.com/" style="fill-rule:evenodd;clip-rule:evenodd;stroke-linejoin:round;stroke-miterlimit:2;"><path d="M4,4l0,-1c0,-0.55 0.45,-1 1,-1l5,0c0.55,0 1,0.45 1,1l0,1l-1,0l0,-0.9c0,-0.027 -0.011,-0.052 -0.029,-0.071c-0.019,-0.019 -0.044,-0.029 -0.071,-0.029l-4.8,0c-0.027,0 -0.052,0.011 -0.071,0.029c-0.019,0.019 -0.029,0.044 -0.029,0.071l-0,0.9l-1,0Z" style="fill:#5a5a5a;"/><path d="M2,4l11,0c0.55,0 1,0.45 1,1l0,7c0,0.55 -0.45,1 -1,1l-11,0c-0.55,0 -1,-0.45 -1,-1l0,-7c0,-0.55 0.45,-1 1,-1Z" style="fill:#00329b;"/><path d="M6.354,8.354c-0.143,-0.143 -0.186,-0.358 -0.108,-0.545c0.077,-0.187 0.26,-0.309 0.462,-0.309c0.367,-0 0.75,-0 1.043,-0c0.133,-0 0.26,0.053 0.354,0.146c0.094,0.094 0.146,0.221 0.146,0.354c-0,0.725 -0,2.037 -0,2.543c-0,0.133 0.053,0.26 0.146,0.354c0.068,0.068 0.155,0.155 0.25,0.25c0.143,0.143 0.186,0.358 0.108,0.545c-0.077,0.187 -0.26,0.309 -0.462,0.309c-0.502,-0 -1.084,-0 -1.586,-0c-0.202,-0 -0.385,-0.122 -0.462,-0.309c-0.077,-0.187 -0.035,-0.402 0.108,-0.545c0.095,-0.095 0.182,-0.182 0.25,-0.25c0.094,-0.094 0.146,-0.221 0.146,-0.354c0,-0.384 0,-1.202 0,-1.586c0,-0.133 -0.053,-0.26 -0.146,-0.354c-0.068,-0.068 -0.155,-0.155 -0.25,-0.25Z" style="fill:#ebebeb;"/><path d="M7.5,7c-0.55,0 -1,-0.45 -1,-1c0,-0.55 0.45,-1 1,-1c0.55,0 1,0.45 1,1c0,0.55 -0.45,1 -1,1Z" style="fill:#ebebeb;"/></svg>