<?xml version="1.0" encoding="UTF-8" standalone="no"?><!DOCTYPE svg PUBLIC "-//W3C//DTD SVG 1.1//EN" "http://www.w3.org/Graphics/SVG/1.1/DTD/svg11.dtd"><svg width="100%" height="100%" viewBox="0 0 15 15" version="1.1" xmlns="http://www.w3.org/2000/svg" xmlns:xlink="http://www.w3.org/1999/xlink" xml:space="preserve" xmlns:serif="http://www.serif.com/" style="fill-rule:evenodd;clip-rule:evenodd;stroke-linejoin:round;stroke-miterlimit:2;"><path d="M8.8,4.5c-0,0 -1.4,0.1 -1.4,0.1l1.1,-3.2c0,-0.1 0.1,-0.2 0.3,-0.3c0.1,-0.1 0.3,-0.1 0.4,-0l0.3,0.1c0.3,0.1 0.4,0.4 0.3,0.6l-0.9,2.7Z" style="fill:#171717;"/><path d="M4.1,4.2l6.8,-0c0.1,0 0.3,0.1 0.4,0.2c0.1,0.1 0.1,0.3 0.1,0.4l-1.6,8.8c-0,0.2 -0.3,0.4 -0.5,0.4l-3.6,0c-0.2,-0 -0.4,-0.2 -0.5,-0.4l-1.6,-8.8c-0,-0.1 0,-0.3 0.1,-0.4c0.1,-0.1 0.2,-0.2 0.4,-0.2Zm2.3,7.8c-0.4,0 -0.7,0.3 -0.7,0.7c0,0.4 0.3,0.7 0.7,0.7c0.4,0 0.7,-0.3 0.7,-0.7c0,-0.4 -0.3,-0.7 -0.7,-0.7Zm2.2,0c-0.4,0 -0.7,0.3 -0.7,0.7c0,0.4 0.3,0.7 0.7,0.7c0.4,0 0.7,-0.3 0.7,-0.7c0,-0.4 -0.3,-0.7 -0.7,-0.7Zm-1.1,-3.6c-0.4,0 -0.7,0.3 -0.7,0.7c0,0.4 0.3,0.7 0.7,0.7c0.4,0 0.7,-0.3 0.7,-0.7c0,-0.4 -0.3,-0.7 -0.7,-0.7Zm-1.8,1.1c-0.4,0 -0.7,0.3 -0.7,0.7c0,0.4 0.3,0.7 0.7,0.7c0.4,0 0.7,-0.3 0.7,-0.7c0,-0.4 -0.3,-0.7 -0.7,-0.7Zm3.8,-2c-0.4,0 -0.7,0.3 -0.7,0.7c0,0.4 0.3,0.7 0.7,0.7c0.4,0 0.7,-0.3 0.7,-0.7c0,-0.4 -0.3,-0.7 -0.7,-0.7Zm-0.2,2c-0.4,0 -0.7,0.3 -0.7,0.7c0,0.4 0.3,0.7 0.7,0.7c0.4,0 0.7,-0.3 0.7,-0.7c0,-0.4 -0.3,-0.7 -0.7,-0.7Zm-1.8,0.9c-0.4,0 -0.7,0.3 -0.7,0.7c0,0.4 0.3,0.7 0.7,0.7c0.4,0 0.7,-0.3 0.7,-0.7c0,-0.4 -0.3,-0.7 -0.7,-0.7Z" style="fill:#e0db91;"/><path d="M7.5,8.4c0.4,0 0.7,0.3 0.7,0.7c0,0.4 -0.3,0.7 -0.7,0.7c-0.4,0 -0.7,-0.3 -0.7,-0.7c0,-0.4 0.3,-0.7 0.7,-0.7Zm-1.8,1.1c0.4,0 0.7,0.3 0.7,0.7c0,0.4 -0.3,0.7 -0.7,0.7c-0.4,0 -0.7,-0.3 -0.7,-0.7c0,-0.4 0.3,-0.7 0.7,-0.7Zm0.7,2.4c0.4,0 0.7,0.3 0.7,0.7c0,0.4 -0.3,0.7 -0.7,0.7c-0.4,0 -0.7,-0.3 -0.7,-0.7c0,-0.4 0.3,-0.7 0.7,-0.7Zm1.1,-1.6c0.4,0 0.7,0.3 0.7,0.7c0,0.4 -0.3,0.7 -0.7,0.7c-0.4,0 -0.7,-0.3 -0.7,-0.7c0,-0.4 0.3,-0.7 0.7,-0.7Zm1.1,1.6c0.4,0 0.7,0.3 0.7,0.7c0,0.4 -0.3,0.7 -0.7,0.7c-0.4,0 -0.7,-0.3 -0.7,-0.7c0,-0.4 0.3,-0.7 0.7,-0.7Zm0.7,-2.4c0.4,0 0.7,0.3 0.7,0.7c0,0.4 -0.3,0.7 -0.7,0.7c-0.4,0 -0.7,-0.3 -0.7,-0.7c0,-0.4 0.3,-0.7 0.7,-0.7Zm0.2,-2c0.4,0 0.7,0.3 0.7,0.7c0,0.4 -0.3,0.7 -0.7,0.7c-0.4,0 -0.7,-0.3 -0.7,-0.7c0,-0.4 0.3,-0.7 0.7,-0.7Z" style="fill:#321e0d;"/></svg>