<?xml version="1.0" encoding="UTF-8" standalone="no"?><!DOCTYPE svg PUBLIC "-//W3C//DTD SVG 1.1//EN" "http://www.w3.org/Graphics/SVG/1.1/DTD/svg11.dtd"><svg width="100%" height="100%" viewBox="0 0 15 15" version="1.1" xmlns="http://www.w3.org/2000/svg" xmlns:xlink="http://www.w3.org/1999/xlink" xml:space="preserve" xmlns:serif="http://www.serif.com/" style="fill-rule:evenodd;clip-rule:evenodd;stroke-linejoin:round;stroke-miterlimit:2;"><path d="M3.5,2c-0.3,0 -0.5,0.2 -0.5,0.5c0,1.8 0,8.2 0,10c0,0.3 0.2,0.5 0.5,0.5c1.6,0 6.4,0 8,0c0.3,-0 0.5,-0.2 0.5,-0.5c-0,-1.8 -0,-8.2 -0,-10c-0,-0.3 -0.2,-0.5 -0.5,-0.5c-1.6,-0 -6.4,-0 -8,-0Z" style="fill:#414141;fill-rule:nonzero;"/><path d="M8,13l3,0c0,0 0,-1.6 0,-2.5c0,-0.1 -0.1,-0.3 -0.1,-0.4c-0.1,-0.1 -0.2,-0.1 -0.4,-0.1l-2,-0c-0.1,-0 -0.3,0.1 -0.4,0.1c-0.1,0.1 -0.1,0.2 -0.1,0.4c0,0.9 0,2.5 0,2.5Z" style="fill:#171717;"/><path d="M7,11.5c0,0.1 -0.1,0.3 -0.1,0.4c-0.1,0.1 -0.2,0.1 -0.4,0.1l-2,-0c-0.1,0 -0.3,-0.1 -0.4,-0.1c-0.1,-0.1 -0.1,-0.2 -0.1,-0.4l-0,-1c-0,-0.1 0.1,-0.3 0.1,-0.4c0.1,-0.1 0.2,-0.1 0.4,-0.1l2,0c0.1,-0 0.3,0.1 0.4,0.1c0.1,0.1 0.1,0.2 0.1,0.4l0,1Zm0,-3c0,0.1 -0.1,0.3 -0.1,0.4c-0.1,0.1 -0.2,0.1 -0.4,0.1l-2,-0c-0.1,0 -0.3,-0.1 -0.4,-0.1c-0.1,-0.1 -0.1,-0.2 -0.1,-0.4l-0,-1c-0,-0.1 0.1,-0.3 0.1,-0.4c0.1,-0.1 0.2,-0.1 0.4,-0.1l2,0c0.1,-0 0.3,0.1 0.4,0.1c0.1,0.1 0.1,0.2 0.1,0.4l0,1Zm4,0c0,0.1 -0.1,0.3 -0.1,0.4c-0.1,0.1 -0.2,0.1 -0.4,0.1l-2,-0c-0.1,0 -0.3,-0.1 -0.4,-0.1c-0.1,-0.1 -0.1,-0.2 -0.1,-0.4l-0,-1c-0,-0.1 0.1,-0.3 0.1,-0.4c0.1,-0.1 0.2,-0.1 0.4,-0.1l2,0c0.1,-0 0.3,0.1 0.4,0.1c0.1,0.1 0.1,0.2 0.1,0.4l0,1Zm0,-3c0,0.1 -0.1,0.3 -0.1,0.4c-0.1,0.1 -0.2,0.1 -0.4,0.1l-2,-0c-0.1,0 -0.3,-0.1 -0.4,-0.1c-0.1,-0.1 -0.1,-0.2 -0.1,-0.4l-0,-1c-0,-0.1 0.1,-0.3 0.1,-0.4c0.1,-0.1 0.2,-0.1 0.4,-0.1l2,0c0.1,-0 0.3,0.1 0.4,0.1c0.1,0.1 0.1,0.2 0.1,0.4l0,1Zm-4,0c0,0.1 -0.1,0.3 -0.1,0.4c-0.1,0.1 -0.2,0.1 -0.4,0.1l-2,-0c-0.1,0 -0.3,-0.1 -0.4,-0.1c-0.1,-0.1 -0.1,-0.2 -0.1,-0.4l-0,-1c-0,-0.1 0.1,-0.3 0.1,-0.4c0.1,-0.1 0.2,-0.1 0.4,-0.1l2,0c0.1,-0 0.3,0.1 0.4,0.1c0.1,0.1 0.1,0.2 0.1,0.4l0,1Z" style="fill:#171717;"/></svg>