<svg xmlns="http://www.w3.org/2000/svg" xml:space="preserve" fill-rule="evenodd" stroke-linejoin="round" stroke-miterlimit="2" clip-rule="evenodd" viewBox="0 0 15 15"><path fill="#171717" d="M13.44 13.412a.5.5 0 0 1-.47-.67l1.54-4.3c.04-.1.13-.17.24-.17.14 0 .25.11.25.25v4.39c0 .28-.22.5-.5.5zm-11.88 0H.5c-.28 0-.5-.22-.5-.5v-4.39c0-.14.11-.25.25-.25.11 0 .2.07.24.17l1.54 4.3a.5.5 0 0 1-.47.67M12 12v1c0 .55-2 .55-2 0v-1zm-7 0v1c0 .55-2 .55-2 0v-1zM4 2.5c0-.28.22-.5.5-.5h6c.28 0 .5.22.5.5s-.22.5-.5.5h-6c-.28 0-.5-.22-.5-.5"/><path fill="#d39f10" d="M3 12c-1 0-1-1-1-1V3c0-1.1.9-2 2-2h7c1.1 0 2 .9 2 2v8c0 1-1 1-1 1zm1-3c-.55 0-1 .45-1 1s.45 1 1 1 1-.45 1-1-.45-1-1-1m0-6.5c0 .28.22.5.5.5h6c.28 0 .5-.22.5-.5s-.22-.5-.5-.5h-6c-.28 0-.5.22-.5.5M11 9c-.55 0-1 .45-1 1s.45 1 1 1 1-.45 1-1-.45-1-1-1M3.5 4c-.28 0-.5.22-.5.5v3c0 .28.22.5.5.5h8c.28 0 .5-.22.5-.5v-3c0-.28-.22-.5-.5-.5z"/><path fill="#f4f4f4" d="M4 9c.55 0 1 .45 1 1s-.45 1-1 1-1-.45-1-1 .45-1 1-1m7 0c.55 0 1 .45 1 1s-.45 1-1 1-1-.45-1-1 .45-1 1-1"/><path fill="#7da8e6" d="M3.5 4h8c.28 0 .5.22.5.5v3c0 .28-.22.5-.5.5h-8c-.28 0-.5-.22-.5-.5v-3c0-.28.22-.5.5-.5"/></svg>