<svg xmlns="http://www.w3.org/2000/svg" xml:space="preserve" fill-rule="evenodd" stroke-linejoin="round" stroke-miterlimit="2" clip-rule="evenodd" viewBox="0 0 15 15"><path fill="#e5c200" d="M3 12.294c-1 0-1-1-1-1v-8c0-1.1.9-2 2-2h7c1.1 0 2 .9 2 2v8c0 1-1 1-1 1z"/><path fill="#171717" d="M3 12.544c-1.25 0-1.25-1.25-1.25-1.25v-8A2.257 2.257 0 0 1 4 1.044h7a2.257 2.257 0 0 1 2.25 2.25v8c0 1.25-1.25 1.25-1.25 1.25v1c0 .55-2 .55-2 0v-1H5v1c0 .55-2 .55-2 0zm0-.5h9s.75 0 .75-.75v-8c0-.963-.788-1.75-1.75-1.75H4c-.963 0-1.75.788-1.75 1.75v8s0 .75.75.75m1-9.25c0-.28.22-.5.5-.5h6c.28 0 .5.22.5.5s-.22.5-.5.5h-6c-.28 0-.5-.22-.5-.5"/><path fill="#eee" d="m3.287 9.328 1.419.355c.079.02.134.091.134.172v.305s0 .887-.874.887c-.9 0-.9-.887-.9-.887v-.659c0-.109.114-.199.22-.172Zm8.425 0a.184.184 0 0 1 .22.172v.659s0 .887-.9.887c-.874 0-.874-.887-.874-.887v-.305c0-.081.055-.152.134-.172z"/><path fill="#7da8e6" d="M3.5 4.294h8c.28 0 .5.22.5.5v3c0 .28-.22.5-.5.5h-8c-.28 0-.5-.22-.5-.5v-3c0-.28.22-.5.5-.5"/></svg>