<svg xmlns="http://www.w3.org/2000/svg" xml:space="preserve" fill-rule="evenodd" stroke-linejoin="round" stroke-miterlimit="2" clip-rule="evenodd" viewBox="0 0 14 14"><path fill="#7a7a7a" d="M7 1c1.097 0 2 .903 2 2s-.903 2-2 2-2-.903-2-2 .903-2 2-2m0 4.5c1.223-.003 2.43.377 3.646 1.019a.967.967 0 0 1 .216 1.587c-.65.53-1.184 1.134-1.283 1.949a.5.5 0 0 1-.497.445c-.971 0-3.224 0-4.192-.015a.485.485 0 0 1-.481-.425c-.114-.819-.594-1.416-1.267-1.946a.99.99 0 0 1 .215-1.626C4.564 5.88 5.79 5.503 7 5.501Z"/><path fill="#d39f10" d="M5.5 11a.5.5 0 1 0 0 1h3a.5.5 0 1 0 0-1z"/><path fill="#5a5a5a" d="M3.5 12.5a.5.5 0 0 0 0 1h7a.5.5 0 0 0 0-1z"/></svg>