<?xml version="1.0" encoding="UTF-8" standalone="no"?><!DOCTYPE svg PUBLIC "-//W3C//DTD SVG 1.1//EN" "http://www.w3.org/Graphics/SVG/1.1/DTD/svg11.dtd"><svg width="100%" height="100%" viewBox="0 0 15 15" version="1.1" xmlns="http://www.w3.org/2000/svg" xmlns:xlink="http://www.w3.org/1999/xlink" xml:space="preserve" xmlns:serif="http://www.serif.com/" style="fill-rule:evenodd;clip-rule:evenodd;stroke-linejoin:round;stroke-miterlimit:2;"><path d="M11.833,1l-8.667,0c-0.596,0 -1.083,0.488 -1.083,1.083l0,10.833c0,0.596 0.487,1.083 1.083,1.083l8.667,0c0.596,0 1.083,-0.488 1.083,-1.083l0,-10.833c0,-0.596 -0.487,-1.083 -1.083,-1.083Z" style="fill:#272727;fill-rule:nonzero;"/><path d="M4,2c-0.552,-0 -1,0.448 -1,1c-0,0.322 -0,0.678 -0,1c0,0.552 0.448,1 1,1c1.732,-0 5.268,-0 7,-0c0.552,0 1,-0.448 1,-1c0,-0.322 0,-0.678 0,-1c-0,-0.552 -0.448,-1 -1,-1c-1.732,0 -5.268,0 -7,0Z" style="fill:#588f35;"/><path d="M4,9c-0.133,0 -0.26,-0.053 -0.354,-0.146c-0.094,-0.094 -0.146,-0.221 -0.146,-0.354c0,-0.133 0.053,-0.26 0.146,-0.354c0.094,-0.094 0.221,-0.146 0.354,-0.146l1,-0c0.133,-0 0.26,0.053 0.354,0.146c0.094,0.094 0.146,0.221 0.146,0.354c-0,0.133 -0.053,0.26 -0.146,0.354c-0.094,0.094 -0.221,0.146 -0.354,0.146l-1,0Zm3,2c-0.133,0 -0.26,-0.053 -0.354,-0.146c-0.094,-0.094 -0.146,-0.221 -0.146,-0.354c0,-0.133 0.053,-0.26 0.146,-0.354c0.094,-0.094 0.221,-0.146 0.354,-0.146l1,-0c0.133,-0 0.26,0.053 0.354,0.146c0.094,0.094 0.146,0.221 0.146,0.354c-0,0.133 -0.053,0.26 -0.146,0.354c-0.094,0.094 -0.221,0.146 -0.354,0.146l-1,0Zm3,0c-0.133,0 -0.26,-0.053 -0.354,-0.146c-0.094,-0.094 -0.146,-0.221 -0.146,-0.354c0,-0.133 0.053,-0.26 0.146,-0.354c0.094,-0.094 0.221,-0.146 0.354,-0.146l1,-0c0.133,-0 0.26,0.053 0.354,0.146c0.094,0.094 0.146,0.221 0.146,0.354c-0,0.133 -0.053,0.26 -0.146,0.354c-0.094,0.094 -0.221,0.146 -0.354,0.146l-1,0Zm0,2c-0.133,0 -0.26,-0.053 -0.354,-0.146c-0.094,-0.094 -0.146,-0.221 -0.146,-0.354c0,-0.133 0.053,-0.26 0.146,-0.354c0.094,-0.094 0.221,-0.146 0.354,-0.146l1,-0c0.133,-0 0.26,0.053 0.354,0.146c0.094,0.094 0.146,0.221 0.146,0.354c-0,0.133 -0.053,0.26 -0.146,0.354c-0.094,0.094 -0.221,0.146 -0.354,0.146l-1,0Zm-3,0c-0.133,0 -0.26,-0.053 -0.354,-0.146c-0.094,-0.094 -0.146,-0.221 -0.146,-0.354c0,-0.133 0.053,-0.26 0.146,-0.354c0.094,-0.094 0.221,-0.146 0.354,-0.146l1,-0c0.133,-0 0.26,0.053 0.354,0.146c0.094,0.094 0.146,0.221 0.146,0.354c-0,0.133 -0.053,0.26 -0.146,0.354c-0.094,0.094 -0.221,0.146 -0.354,0.146l-1,0Zm-3,0c-0.133,0 -0.26,-0.053 -0.354,-0.146c-0.094,-0.094 -0.146,-0.221 -0.146,-0.354c0,-0.133 0.053,-0.26 0.146,-0.354c0.094,-0.094 0.221,-0.146 0.354,-0.146l1,-0c0.133,-0 0.26,0.053 0.354,0.146c0.094,0.094 0.146,0.221 0.146,0.354c-0,0.133 -0.053,0.26 -0.146,0.354c-0.094,0.094 -0.221,0.146 -0.354,0.146l-1,0Zm0,-2c-0.133,0 -0.26,-0.053 -0.354,-0.146c-0.094,-0.094 -0.146,-0.221 -0.146,-0.354c0,-0.133 0.053,-0.26 0.146,-0.354c0.094,-0.094 0.221,-0.146 0.354,-0.146l1,-0c0.133,-0 0.26,0.053 0.354,0.146c0.094,0.094 0.146,0.221 0.146,0.354c-0,0.133 -0.053,0.26 -0.146,0.354c-0.094,0.094 -0.221,0.146 -0.354,0.146l-1,0Zm3,-2c-0.133,0 -0.26,-0.053 -0.354,-0.146c-0.094,-0.094 -0.146,-0.221 -0.146,-0.354c0,-0.133 0.053,-0.26 0.146,-0.354c0.094,-0.094 0.221,-0.146 0.354,-0.146l1,-0c0.133,-0 0.26,0.053 0.354,0.146c0.094,0.094 0.146,0.221 0.146,0.354c-0,0.133 -0.053,0.26 -0.146,0.354c-0.094,0.094 -0.221,0.146 -0.354,0.146l-1,0Zm3,-0c-0.133,0 -0.26,-0.053 -0.354,-0.146c-0.094,-0.094 -0.146,-0.221 -0.146,-0.354c0,-0.133 0.053,-0.26 0.146,-0.354c0.094,-0.094 0.221,-0.146 0.354,-0.146l1,-0c0.133,-0 0.26,0.053 0.354,0.146c0.094,0.094 0.146,0.221 0.146,0.354c-0,0.133 -0.053,0.26 -0.146,0.354c-0.094,0.094 -0.221,0.146 -0.354,0.146l-1,0Z" style="fill:#7a7a7a;"/><path d="M10,7c-0.133,0 -0.26,-0.053 -0.354,-0.146c-0.094,-0.094 -0.146,-0.221 -0.146,-0.354c0,-0 0,-0 0,-0c0,-0.133 0.053,-0.26 0.146,-0.354c0.094,-0.094 0.221,-0.146 0.354,-0.146c0.305,-0 0.695,-0 1,-0c0.133,-0 0.26,0.053 0.354,0.146c0.094,0.094 0.146,0.221 0.146,0.354c-0,0 -0,0 -0,0c-0,0.133 -0.053,0.26 -0.146,0.354c-0.094,0.094 -0.221,0.146 -0.354,0.146c-0.305,0 -0.695,0 -1,0Z" style="fill:#cc6933;"/></svg>