<?xml version="1.0" encoding="UTF-8" standalone="no"?><!DOCTYPE svg PUBLIC "-//W3C//DTD SVG 1.1//EN" "http://www.w3.org/Graphics/SVG/1.1/DTD/svg11.dtd"><svg width="100%" height="100%" viewBox="0 0 15 15" version="1.1" xmlns="http://www.w3.org/2000/svg" xmlns:xlink="http://www.w3.org/1999/xlink" xml:space="preserve" xmlns:serif="http://www.serif.com/" style="fill-rule:evenodd;clip-rule:evenodd;stroke-linejoin:round;stroke-miterlimit:2;"><path d="M6,2c-0.6,0 -0.8,0.5 -1,1c0,0 -0.2,0.4 -0.4,0.7c-0.1,0.2 -0.3,0.3 -0.4,0.3c-0.6,0 -1.7,0 -1.7,0l0,8l10,0c0.8,0 1.5,-0.7 1.5,-1.5l0,-5c0,-0.8 -0.7,-1.5 -1.5,-1.5l-1.7,-0c-0.2,-0 -0.4,-0.1 -0.4,-0.3c-0.1,-0.3 -0.4,-0.7 -0.4,-0.7c-0.2,-0.5 -0.4,-1 -1,-1l-3,0Z" style="fill:#171717;fill-rule:nonzero;"/><path d="M4,5l0,6c-0,0.3 -0.1,0.5 -0.3,0.7c-0.2,0.2 -0.4,0.3 -0.7,0.3l-0.5,0c-0.8,0 -1.5,-0.7 -1.5,-1.5l0,-5c0,-0.8 0.7,-1.5 1.5,-1.5l0.5,0c0.3,-0 0.5,0.1 0.7,0.3c0.2,0.2 0.3,0.4 0.3,0.7Zm3.5,0c1.7,0 3,1.3 3,3c0,1.7 -1.3,3 -3,3c-1.7,0 -3,-1.3 -3,-3c0,-1.7 1.3,-3 3,-3Z" style="fill:#272727;"/><path d="M2.5,5c0.3,0 0.5,0.2 0.5,0.5c0,0.3 -0.2,0.5 -0.5,0.5c-0.3,0 -0.5,-0.2 -0.5,-0.5c0,-0.3 0.2,-0.5 0.5,-0.5Z" style="fill:#a83c3a;"/><path d="M7.5,5.5c1.4,0 2.5,1.1 2.5,2.5c0,1.4 -1.1,2.5 -2.5,2.5c-1.4,0 -2.5,-1.1 -2.5,-2.5c0,-1.4 1.1,-2.5 2.5,-2.5Z" style="fill:#090909;"/><path d="M8.5,6c0.3,0 0.5,0.2 0.5,0.5c0,0.3 -0.2,0.5 -0.5,0.5c-0.3,0 -0.5,-0.2 -0.5,-0.5c0,-0.3 0.2,-0.5 0.5,-0.5Z" style="fill:#dadada;"/><path d="M6,3.5c0,-0.1 0.1,-0.3 0.1,-0.4c0.1,-0.1 0.2,-0.1 0.4,-0.1c0.6,-0 1.4,-0 2,-0c0.1,-0 0.3,0.1 0.4,0.1c0.1,0.1 0.1,0.2 0.1,0.4c-0,0.1 -0.1,0.3 -0.1,0.4c-0.1,0.1 -0.2,0.1 -0.4,0.1c-0.6,0 -1.4,0 -2,0c-0.1,0 -0.3,-0.1 -0.4,-0.1c-0.1,-0.1 -0.1,-0.2 -0.1,-0.4Z" style="fill:#eee;"/></svg>