<svg xmlns="http://www.w3.org/2000/svg" xml:space="preserve" fill-rule="evenodd" stroke-linejoin="round" stroke-miterlimit="2" clip-rule="evenodd" viewBox="0 0 15 15"><path fill="#472a00" d="M11.351 13.627A.5.5 0 0 0 12 13.15v-.892a.5.5 0 0 0-.351-.477l-8-2.498A.5.5 0 0 0 3 9.76v.892c0 .219.142.412.351.477z"/><path fill="#db8900" d="M5.201 9.118a.5.5 0 0 1-.215-.134c-.491-.543-2.127-2.592-.206-4.374 1.522-1.408 1.904-2.617 1.581-3.333a.095.095 0 0 1 .119-.14c.948.472 3.688 2.192 1.519 5.483-.433.635-1.468 1.391-1.028 2.891a.098.098 0 0 1-.124.12c-.395-.121-1.317-.41-1.647-.513Zm2.673.463a.1.1 0 0 1-.125-.066c-.123-.359-.374-1.072.801-2.374.62-.683.893-1.666.985-2.162a.1.1 0 0 1 .15-.071c.433.31 1.769 1.529-.002 3.99a.5.5 0 0 1-.257.189c-.349.118-1.257.402-1.552.495Z"/><path fill="#472a00" d="M8.567 10.166a.1.1 0 0 1 0-.191l2.785-.864a.5.5 0 0 1 .648.478v.89a.5.5 0 0 1-.356.479l-.128.038a.5.5 0 0 1-.293-.001zm-2.133 2.578a.1.1 0 0 1 0 .191l-2.785.864a.5.5 0 0 1-.648-.478v-.888a.5.5 0 0 1 .358-.479l.136-.04a.5.5 0 0 1 .292.002l2.648.829Z"/></svg>