<?xml version="1.0" encoding="UTF-8" standalone="no"?><!DOCTYPE svg PUBLIC "-//W3C//DTD SVG 1.1//EN" "http://www.w3.org/Graphics/SVG/1.1/DTD/svg11.dtd"><svg width="100%" height="100%" viewBox="0 0 15 15" version="1.1" xmlns="http://www.w3.org/2000/svg" xmlns:xlink="http://www.w3.org/1999/xlink" xml:space="preserve" xmlns:serif="http://www.serif.com/" style="fill-rule:evenodd;clip-rule:evenodd;stroke-linejoin:round;stroke-miterlimit:2;"><path d="M11.338,13c0.035,-0 0.067,-0.018 0.085,-0.047c0.018,-0.029 0.02,-0.066 0.004,-0.097l-0.355,-0.711c-0.015,-0.031 -0.014,-0.068 0.004,-0.097c0.018,-0.029 0.05,-0.047 0.085,-0.047l1.529,-0c0.189,0 0.363,0.107 0.447,0.276l0.5,1c0.077,0.155 0.069,0.339 -0.022,0.486c-0.091,0.147 -0.252,0.237 -0.425,0.237l-11.382,-0c-0.173,0 -0.334,-0.09 -0.425,-0.237c-0.091,-0.147 -0.099,-0.331 -0.022,-0.486l0.5,-1c0.085,-0.169 0.258,-0.276 0.447,-0.276l1.529,-0c0.035,-0 0.067,0.018 0.085,0.047c0.018,0.029 0.02,0.066 0.004,0.097l-0.355,0.711c-0.015,0.031 -0.014,0.068 0.004,0.097c0.018,0.029 0.05,0.047 0.085,0.047l7.676,-0Z" style="fill:#00329b;"/><path d="M2.468,8.435l2.322,0.002l0,2.237c0,0.155 -0.232,0.31 -0.387,0.31l-1.548,0c-0.212,0 -0.387,-0.175 -0.387,-0.387l0,-2.161Zm7.741,0.007l2.322,0.002l0,2.152c0,0.212 -0.175,0.387 -0.387,0.387l-1.626,0c-0.155,0 -0.31,-0.232 -0.31,-0.387l0,-2.154Z" style="fill:#171717;"/><path d="M11.531,10.218c0.265,0 0.52,-0.105 0.708,-0.293c0.188,-0.188 0.293,-0.442 0.293,-0.707c-0,-0.851 -0,-1.935 -0,-1.935c0,-0.108 -0.045,-0.211 -0.124,-0.284l-0.96,-0.892l-0.852,-1.703c-0.149,-0.242 -0.413,-0.389 -0.697,-0.387l-4.8,-0c-0.284,-0.002 -0.548,0.145 -0.697,0.387l-0.852,1.703l-0.96,0.892c-0.079,0.073 -0.124,0.176 -0.124,0.284l0,1.928c0,0.552 0.447,0.999 0.999,1c1.927,0.002 6.135,0.006 8.064,0.007Z" style="fill:#ce4d4b;"/><path d="M5.565,8.352c0,0.155 -0.232,0.31 -0.387,0.31l-1.626,0c-0.155,0 -0.31,-0.232 -0.31,-0.387l0,-0.852c0.077,-0.232 0.232,-0.387 0.464,-0.31l1.548,0.31c0.155,0 0.31,0.232 0.31,0.387l0,0.542Zm6.193,-0.077c0,0.155 -0.155,0.387 -0.31,0.387l-1.626,0c-0.155,0 -0.387,-0.155 -0.387,-0.31l0,-0.542c0,-0.155 0.155,-0.387 0.31,-0.387l1.548,-0.31c0.232,-0.077 0.387,0.077 0.464,0.31l0,0.852Z" style="fill:#f4f4f4;"/><path d="M5.15,4.846c0.017,-0.034 0.052,-0.055 0.089,-0.055c0.51,-0 4.011,-0 4.521,-0c0.038,-0 0.073,0.021 0.089,0.055c0.109,0.217 0.509,1.017 0.674,1.348c0.015,0.031 0.014,0.068 -0.004,0.097c-0.018,0.029 -0.05,0.047 -0.085,0.047c-0.871,0 -4.998,0 -5.869,0c-0.035,0 -0.067,-0.018 -0.085,-0.047c-0.018,-0.029 -0.02,-0.066 -0.004,-0.097c0.165,-0.331 0.565,-1.131 0.674,-1.348Z" style="fill:#7da8e6;"/><path d="M11.428,2.145c0.015,-0.031 0.014,-0.068 -0.004,-0.097c-0.018,-0.029 -0.05,-0.047 -0.085,-0.047l-7.676,0c-0.035,0 -0.067,0.018 -0.085,0.047c-0.018,0.029 -0.02,0.066 -0.004,0.097l0.355,0.711c0.015,0.031 0.014,0.068 -0.004,0.097c-0.018,0.029 -0.05,0.047 -0.085,0.047l-1.529,0c-0.189,-0 -0.363,-0.107 -0.447,-0.276l-0.5,-1c-0.077,-0.155 -0.069,-0.339 0.022,-0.486c0.091,-0.147 0.252,-0.237 0.425,-0.237l11.382,0c0.173,-0 0.334,0.09 0.425,0.237c0.091,0.147 0.099,0.331 0.022,0.486l-0.5,1c-0.085,0.169 -0.258,0.276 -0.447,0.276l-1.529,0c-0.035,0 -0.067,-0.018 -0.085,-0.047c-0.018,-0.029 -0.02,-0.066 -0.004,-0.097l0.355,-0.711Z" style="fill:#00329b;"/></svg>