<?xml version="1.0" encoding="UTF-8" standalone="no"?><!DOCTYPE svg PUBLIC "-//W3C//DTD SVG 1.1//EN" "http://www.w3.org/Graphics/SVG/1.1/DTD/svg11.dtd"><svg width="100%" height="100%" viewBox="0 0 15 15" version="1.1" xmlns="http://www.w3.org/2000/svg" xmlns:xlink="http://www.w3.org/1999/xlink" xml:space="preserve" xmlns:serif="http://www.serif.com/" style="fill-rule:evenodd;clip-rule:evenodd;stroke-linejoin:round;stroke-miterlimit:2;"><path d="M11.3382,12c0.0347,-0 0.0668,-0.0179 0.0851,-0.0474c0.0182,-0.0295 0.0199,-0.0663 0.0044,-0.0973l-0.3553,-0.7106c-0.0155,-0.031 -0.0138,-0.0678 0.0044,-0.0973c0.0182,-0.0295 0.0504,-0.0474 0.0851,-0.0474l1.5292,-0c0.1894,0 0.3625,0.107 0.4472,0.2764l0.5,1c0.0775,0.155 0.0692,0.3391 -0.0219,0.4865c-0.0911,0.1474 -0.252,0.2371 -0.4253,0.2371l-11.382,-0c-0.1733,0 -0.3342,-0.0897 -0.4253,-0.2371c-0.0911,-0.1474 -0.0994,-0.3315 -0.0219,-0.4865l0.5,-1c0.0847,-0.1694 0.2578,-0.2764 0.4472,-0.2764l1.5292,-0c0.0347,-0 0.0668,0.0179 0.0851,0.0474c0.0182,0.0295 0.0199,0.0663 0.0044,0.0973l-0.3553,0.7106c-0.0155,0.031 -0.0138,0.0678 0.0044,0.0973c0.0182,0.0295 0.0504,0.0474 0.0851,0.0474l7.6764,-0Z" style="fill:#00329b;"/><path d="M2.4445,8.4242l2.3333,0.0021l0,1.2423c0,0.1556 -0.2333,0.3111 -0.3889,0.3111l-1.5556,0c-0.2133,0 -0.3889,-0.1756 -0.3889,-0.3889l0,-1.1667Zm7.7778,0.007l2.3333,0.0021l0,1.1576c0,0.2133 -0.1756,0.3889 -0.3889,0.3889l-1.6333,0c-0.1556,0 -0.3111,-0.2333 -0.3111,-0.3889l0,-1.1597Z" style="fill:#171717;"/><path d="M11.5382,9.2102c0.2654,0.0002 0.52,-0.105 0.7077,-0.2926c0.1877,-0.1876 0.2932,-0.4421 0.2932,-0.7074c-0,-0.8522 -0,-1.9394 -0,-1.9394c0.0001,-0.1079 -0.0449,-0.2111 -0.124,-0.2845l-0.9613,-0.8931l-0.8528,-1.7055c-0.1488,-0.2419 -0.4137,-0.3891 -0.6977,-0.3876l-4.8065,-0c-0.284,-0.0015 -0.549,0.1457 -0.6977,0.3876l-0.8528,1.7055l-0.9613,0.8931c-0.0791,0.0734 -0.1241,0.1766 -0.124,0.2845l0,1.9321c0,0.5519 0.4472,0.9995 0.9991,1c1.9293,0.0017 6.1475,0.0055 8.0783,0.0073Z" style="fill:#ce4d4b;"/><path d="M5.5556,7.3353c0,0.1556 -0.2333,0.3111 -0.3889,0.3111l-1.6333,0c-0.1556,0 -0.3111,-0.2333 -0.3111,-0.3889l0,-0.8556c0.0778,-0.2333 0.2333,-0.3889 0.4667,-0.3111l1.5556,0.3111c0.1556,0 0.3111,0.2333 0.3111,0.3889l0,0.5444Zm6.2222,-0.0778c0,0.1556 -0.1556,0.3889 -0.3111,0.3889l-1.6333,0c-0.1556,0 -0.3889,-0.1556 -0.3889,-0.3111l0,-0.5444c0,-0.1556 0.1556,-0.3889 0.3111,-0.3889l1.5556,-0.3111c0.2333,-0.0778 0.3889,0.0778 0.4667,0.3111l0,0.8556Z" style="fill:#f4f4f4;"/><path d="M5.139,3.8128c0.0169,-0.0339 0.0516,-0.0553 0.0894,-0.0553c0.5111,-0 4.032,-0 4.5431,-0c0.0379,0 0.0725,0.0214 0.0894,0.0553c0.1091,0.2181 0.5117,1.0234 0.6778,1.3556c0.0155,0.031 0.0138,0.0678 -0.0044,0.0973c-0.0182,0.0295 -0.0504,0.0474 -0.0851,0.0474c-0.8741,-0 -5.0245,-0 -5.8986,-0c-0.0347,0 -0.0668,-0.0179 -0.0851,-0.0474c-0.0182,-0.0295 -0.0199,-0.0663 -0.0044,-0.0973c0.1661,-0.3322 0.5687,-1.1374 0.6778,-1.3556Z" style="fill:#7da8e6;"/></svg>