<?xml version="1.0" encoding="UTF-8" standalone="no"?><!DOCTYPE svg PUBLIC "-//W3C//DTD SVG 1.1//EN" "http://www.w3.org/Graphics/SVG/1.1/DTD/svg11.dtd"><svg width="100%" height="100%" viewBox="0 0 15 15" version="1.1" xmlns="http://www.w3.org/2000/svg" xmlns:xlink="http://www.w3.org/1999/xlink" xml:space="preserve" xmlns:serif="http://www.serif.com/" style="fill-rule:evenodd;clip-rule:evenodd;stroke-linejoin:round;stroke-miterlimit:2;"><path d="M1.005,9.73l2.998,0.003l0,2.887c0,0.2 -0.3,0.4 -0.5,0.4l-1.999,0c-0.274,0 -0.5,-0.226 -0.5,-0.5l0,-2.79Zm9.993,0.009l2.998,0.003l0,2.778c0,0.274 -0.226,0.5 -0.5,0.5l-2.099,0c-0.2,0 -0.4,-0.3 -0.4,-0.5l0,-2.781Z" style="fill:#171717;"/><path d="M12.871,6.979l0.965,0.896c0.102,0.095 0.16,0.228 0.16,0.367l0,2.789c-0,0.265 -0.105,0.52 -0.293,0.707c-0.188,0.188 -0.442,0.293 -0.708,0.293l-10.991,-0.01c-0.552,-0 -0.999,-0.448 -0.999,-1l0,-2.779c-0,-0.139 0.058,-0.272 0.16,-0.367l1.239,-1.151l1.099,-2.198c0.192,-0.312 0.533,-0.502 0.899,-0.5l5.955,0c0,0 -0.04,0.06 -0.043,0.095c-0.008,0.091 -0.026,0.347 -0.005,0.45c0.108,0.541 0.332,0.958 0.641,1.267l0.005,0.004c0.16,0.158 0.341,0.291 0.543,0.395l0.019,0.095c0,0 0.137,0.253 0.234,0.35c0.097,0.097 0.223,0.181 0.35,0.234c0.127,0.053 0.303,0.068 0.413,0.082c0.081,0.01 0.187,0.003 0.246,0c0.037,-0.002 0.111,-0.021 0.111,-0.021Z" style="fill:#ce4d4b;"/><path d="M5.002,9.622c0,0.2 -0.3,0.4 -0.5,0.4l-2.099,0c-0.2,0 -0.4,-0.3 -0.4,-0.5l0,-1.099c0.1,-0.3 0.3,-0.5 0.6,-0.4l1.999,0.4c0.2,0 0.4,0.3 0.4,0.5l0,0.7Zm7.994,-0.1c0,0.2 -0.2,0.5 -0.4,0.5l-2.099,0c-0.2,0 -0.5,-0.2 -0.5,-0.4l0,-0.7c0,-0.2 0.2,-0.5 0.4,-0.5l1.999,-0.4c0.3,-0.1 0.5,0.1 0.6,0.4l0,1.099Z" style="fill:#f4f4f4;"/><path d="M10.851,5.732l0.573,1.147c0.016,0.031 0.014,0.068 -0.004,0.097c-0.018,0.029 -0.05,0.047 -0.085,0.047l-7.671,-0c-0.035,-0 -0.067,-0.018 -0.085,-0.047c-0.018,-0.029 -0.02,-0.066 -0.004,-0.097l0.899,-1.799c0.017,-0.034 0.052,-0.055 0.089,-0.055l5.873,-0c0.103,0.276 0.244,0.511 0.415,0.707Z" style="fill:#7da8e6;"/><path d="M12.44,5.491c-0.322,-0.038 -0.581,-0.16 -0.782,-0.359c-0.183,-0.183 -0.304,-0.436 -0.368,-0.756c-0.005,-0.025 0.001,-0.051 0.016,-0.071c0.015,-0.02 0.038,-0.034 0.063,-0.036l0.551,-0.06c0.044,-0.004 0.085,0.024 0.097,0.067c0.033,0.118 0.082,0.221 0.151,0.312c0.081,0.107 0.174,0.186 0.272,0.234l0,-1.172c-0.365,-0.104 -0.631,-0.262 -0.8,-0.474c-0.171,-0.211 -0.254,-0.469 -0.254,-0.769c0,-0.306 0.096,-0.563 0.289,-0.769c0.191,-0.206 0.448,-0.329 0.767,-0.359l0,-0.198c0,-0.021 0.008,-0.041 0.023,-0.056c0.015,-0.015 0.035,-0.023 0.056,-0.023l0.246,-0c0.021,-0 0.041,0.008 0.056,0.023c0.015,0.015 0.023,0.035 0.023,0.056l-0,0.198c0.294,0.036 0.531,0.138 0.704,0.303c0.153,0.146 0.259,0.337 0.315,0.572c0.006,0.025 0.001,0.051 -0.014,0.072c-0.015,0.021 -0.037,0.035 -0.063,0.038l-0.528,0.069c-0.044,0.005 -0.086,-0.022 -0.098,-0.065c-0.052,-0.179 -0.156,-0.303 -0.316,-0.373l0,1.093c0.445,0.122 0.75,0.278 0.911,0.471c0.161,0.194 0.242,0.441 0.242,0.741c0,0.336 -0.101,0.621 -0.304,0.853l-0.003,-0c-0.204,0.232 -0.486,0.372 -0.848,0.425l0,0.443c-0,0.021 -0.008,0.041 -0.023,0.056c-0.015,0.015 -0.035,0.023 -0.056,0.023l-0.246,0c-0.021,0 -0.041,-0.008 -0.056,-0.023c-0.015,-0.015 -0.023,-0.035 -0.023,-0.056l-0,-0.43Zm0.403,-1.722l0,1.09c0.141,-0.025 0.252,-0.092 0.34,-0.194c0.088,-0.104 0.131,-0.224 0.131,-0.364c0,-0.125 -0.035,-0.232 -0.108,-0.323c-0.073,-0.089 -0.194,-0.158 -0.362,-0.209Zm-0.664,-1.694c-0.065,0.089 -0.098,0.188 -0.098,0.295c0,0.099 0.03,0.191 0.088,0.275c0.06,0.084 0.151,0.153 0.269,0.206l0,-0.968c-0.108,0.038 -0.196,0.102 -0.262,0.191l0.003,0Z" style="fill:#588f35;"/></svg>