<?xml version="1.0" encoding="UTF-8" standalone="no"?><!DOCTYPE svg PUBLIC "-//W3C//DTD SVG 1.1//EN" "http://www.w3.org/Graphics/SVG/1.1/DTD/svg11.dtd"><svg width="100%" height="100%" viewBox="0 0 15 15" version="1.1" xmlns="http://www.w3.org/2000/svg" xmlns:xlink="http://www.w3.org/1999/xlink" xml:space="preserve" xmlns:serif="http://www.serif.com/" style="fill-rule:evenodd;clip-rule:evenodd;stroke-linejoin:round;stroke-miterlimit:2;"><path d="M1,11l3,0.003l0,1.597c0,0.2 -0.3,0.4 -0.5,0.4l-2,0c-0.274,0 -0.5,-0.226 -0.5,-0.5l0,-1.5Zm10,0.009l3,0.003l0,1.488c0,0.274 -0.226,0.5 -0.5,0.5l-2.1,0c-0.2,0 -0.4,-0.3 -0.4,-0.5l0,-1.491Z" style="fill:#171717;"/><path d="M4.4,4l6.038,0c0.04,0 0.076,0.024 0.091,0.06c0.016,0.036 0.008,0.079 -0.019,0.108c-0.317,0.354 -0.51,0.822 -0.51,1.332l-0,0.5l0.029,0.294l0.085,0.28l0.138,0.258l0.187,0.228l0.228,0.187l0.258,0.138l0.28,0.085l0.294,0.029c0,0 1.645,0 1.922,0c0.025,-0 0.05,0.01 0.068,0.027c0.088,0.082 0.35,0.325 0.35,0.325c0.102,0.095 0.16,0.228 0.16,0.367l0,2.792c0,0.265 -0.105,0.52 -0.293,0.707c-0.188,0.188 -0.442,0.293 -0.708,0.293l-11,-0.01c-0.552,-0 -0.999,-0.448 -0.999,-1l0,-2.782c-0,-0.139 0.058,-0.272 0.16,-0.367l1.24,-1.152l1.1,-2.2c0.192,-0.312 0.534,-0.502 0.9,-0.5Z" style="fill:#ce4d4b;"/><path d="M5,9.6c0,0.2 -0.3,0.4 -0.5,0.4l-2.1,0c-0.2,0 -0.4,-0.3 -0.4,-0.5l0,-1.1c0.1,-0.3 0.3,-0.5 0.6,-0.4l2,0.4c0.2,0 0.4,0.3 0.4,0.5l0,0.7Zm8,-0.1c0,0.2 -0.2,0.5 -0.4,0.5l-2.1,0c-0.2,0 -0.5,-0.2 -0.5,-0.4l0,-0.7c0,-0.2 0.2,-0.5 0.4,-0.5l2,-0.4c0.3,-0.1 0.5,0.1 0.6,0.4l0,1.1Z" style="fill:#f4f4f4;"/><path d="M10.39,7l-6.728,0c-0.035,-0 -0.067,-0.018 -0.085,-0.047c-0.018,-0.029 -0.02,-0.066 -0.004,-0.097l0.9,-1.8c0.017,-0.034 0.052,-0.055 0.089,-0.055l5.502,0c-0.042,0.16 -0.064,0.328 -0.064,0.5l-0,0.5l0.029,0.294l0.085,0.28l0.138,0.258l0.138,0.168Z" style="fill:#7da8e6;"/><path d="M12.5,4c-0.55,0 -1,-0.45 -1,-1c0,-0.55 0.45,-1 1,-1c0.55,0 1,0.45 1,1c0,0.55 -0.45,1 -1,1Zm1.5,2c0,0.133 -0.053,0.26 -0.146,0.354c-0.094,0.094 -0.221,0.146 -0.354,0.146l-2,0c-0.133,0 -0.26,-0.053 -0.354,-0.146c-0.094,-0.094 -0.146,-0.221 -0.146,-0.354l0,-0.5c0,-0.55 0.45,-1 1,-1l1,0c0.55,0 1,0.45 1,1l0,0.5Z" style="fill:#090909;"/></svg>