<?xml version="1.0" encoding="UTF-8" standalone="no"?><!DOCTYPE svg PUBLIC "-//W3C//DTD SVG 1.1//EN" "http://www.w3.org/Graphics/SVG/1.1/DTD/svg11.dtd"><svg width="100%" height="100%" viewBox="0 0 15 15" version="1.1" xmlns="http://www.w3.org/2000/svg" xmlns:xlink="http://www.w3.org/1999/xlink" xml:space="preserve" xmlns:serif="http://www.serif.com/" style="fill-rule:evenodd;clip-rule:evenodd;stroke-linejoin:round;stroke-miterlimit:2;"><path d="M1,10l3,0.0027l0,1.5973c0,0.2 -0.3,0.4 -0.5,0.4l-2,0c-0.2743,0 -0.5,-0.2257 -0.5,-0.5l0,-1.5Zm10,0.009l3,0.0027l0,1.4883c0,0.2743 -0.2257,0.5 -0.5,0.5l-2.1,0c-0.2,0 -0.4,-0.3 -0.4,-0.5l0,-1.491Z" style="fill:#171717;"/><path d="M12.9991,11.0108c0.2654,0.0002 0.52,-0.105 0.7077,-0.2926c0.1877,-0.1876 0.2932,-0.4421 0.2932,-0.7074c-0,-1.1237 -0,-2.7918 -0,-2.7918c0.0001,-0.1392 -0.0579,-0.2723 -0.16,-0.367l-1.24,-1.152l-1.1,-2.2c-0.1919,-0.312 -0.5337,-0.5019 -0.9,-0.5l-6.2,-0c-0.3663,-0.0019 -0.7081,0.188 -0.9,0.5l-1.1,2.2l-1.24,1.152c-0.1021,0.0947 -0.1601,0.2278 -0.16,0.367l0,2.7819c-0,0.5519 0.4472,0.9995 0.9991,1c2.4206,0.0022 8.5776,0.0077 11,0.0099Z" style="fill:#ce4d4b;"/><path d="M5,8.6c0,0.2 -0.3,0.4 -0.5,0.4l-2.1,0c-0.2,0 -0.4,-0.3 -0.4,-0.5l0,-1.1c0.1,-0.3 0.3,-0.5 0.6,-0.4l2,0.4c0.2,0 0.4,0.3 0.4,0.5l0,0.7Zm8,-0.1c0,0.2 -0.2,0.5 -0.4,0.5l-2.1,0c-0.2,0 -0.5,-0.2 -0.5,-0.4l0,-0.7c0,-0.2 0.2,-0.5 0.4,-0.5l2,-0.4c0.3,-0.1 0.5,0.1 0.6,0.4l0,1.1Z" style="fill:#f4f4f4;"/><path d="M4.4724,4.0553c0.0169,-0.0339 0.0516,-0.0553 0.0894,-0.0553c0.594,0 5.2823,0 5.8764,0c0.0379,-0 0.0725,0.0214 0.0894,0.0553c0.1317,0.2634 0.6976,1.3951 0.9,1.8c0.0155,0.031 0.0138,0.0678 -0.0044,0.0973c-0.0182,0.0295 -0.0504,0.0474 -0.0851,0.0474c-1.0288,0 -6.6476,0 -7.6764,0c-0.0347,-0 -0.0668,-0.0179 -0.0851,-0.0474c-0.0182,-0.0295 -0.0199,-0.0663 -0.0044,-0.0973c0.2024,-0.4049 0.7683,-1.5366 0.9,-1.8Z" style="fill:#7da8e6;"/></svg>