<?xml version="1.0" encoding="UTF-8" standalone="no"?><!DOCTYPE svg PUBLIC "-//W3C//DTD SVG 1.1//EN" "http://www.w3.org/Graphics/SVG/1.1/DTD/svg11.dtd"><svg width="100%" height="100%" viewBox="0 0 15 15" version="1.1" xmlns="http://www.w3.org/2000/svg" xmlns:xlink="http://www.w3.org/1999/xlink" xml:space="preserve" xmlns:serif="http://www.serif.com/" style="fill-rule:evenodd;clip-rule:evenodd;stroke-linejoin:round;stroke-miterlimit:2;"><path d="M2.611,5.152c-0.371,0.156 -0.611,0.519 -0.611,0.921c-0,1.659 -0,5.958 -0,7.426c-0,0.133 -0.053,0.26 -0.146,0.354c-0.094,0.094 -0.221,0.146 -0.354,0.146c-0.305,0 -0.695,0 -1,0c-0.133,0 -0.26,-0.053 -0.354,-0.146c-0.094,-0.094 -0.146,-0.221 -0.146,-0.354c0,-1.645 0,-6.888 0,-8.748c-0,-0.401 0.24,-0.764 0.61,-0.921c1.488,-0.631 5.273,-2.236 6.5,-2.756c0.249,-0.106 0.531,-0.106 0.781,-0c1.227,0.52 5.012,2.125 6.5,2.756c0.37,0.157 0.61,0.519 0.61,0.921c-0,1.86 -0,7.103 -0,8.748c-0,0.133 -0.053,0.26 -0.146,0.354c-0.094,0.094 -0.221,0.146 -0.354,0.146c-0.305,0 -0.695,0 -1,0c-0.133,0 -0.26,-0.053 -0.354,-0.146c-0.094,-0.094 -0.146,-0.221 -0.146,-0.354c0,-1.468 0,-5.768 0,-7.426c0,-0.402 -0.241,-0.765 -0.611,-0.921c-1.139,-0.481 -3.557,-1.5 -4.5,-1.898c-0.249,-0.105 -0.529,-0.105 -0.777,-0c-0.943,0.398 -3.361,1.418 -4.5,1.898Z" style="fill:#171717;"/><path d="M2.468,11.439l2.322,0.002l0,2.237c0,0.155 -0.232,0.31 -0.387,0.31l-1.548,0c-0.212,0 -0.387,-0.175 -0.387,-0.387l0,-2.161Zm7.741,0.007l2.322,0.002l0,2.152c0,0.212 -0.175,0.387 -0.387,0.387l-1.626,0c-0.155,0 -0.31,-0.232 -0.31,-0.387l0,-2.154Z" style="fill:#171717;"/><path d="M11.531,13.221c0.265,0 0.52,-0.105 0.708,-0.293c0.188,-0.188 0.293,-0.442 0.293,-0.707c-0,-0.851 -0,-1.935 -0,-1.935c0,-0.108 -0.045,-0.211 -0.124,-0.284l-0.96,-0.892l-0.852,-1.703c-0.149,-0.242 -0.413,-0.389 -0.697,-0.387l-4.8,-0c-0.284,-0.002 -0.548,0.145 -0.697,0.387l-0.852,1.703l-0.96,0.892c-0.079,0.073 -0.124,0.176 -0.124,0.284l0,1.928c0,0.552 0.447,0.999 0.999,1c1.927,0.002 6.135,0.006 8.064,0.007Z" style="fill:#ce4d4b;"/><path d="M5.565,11.355c0,0.155 -0.232,0.31 -0.387,0.31l-1.626,0c-0.155,0 -0.31,-0.232 -0.31,-0.387l0,-0.852c0.077,-0.232 0.232,-0.387 0.464,-0.31l1.548,0.31c0.155,0 0.31,0.232 0.31,0.387l0,0.542Zm6.193,-0.077c0,0.155 -0.155,0.387 -0.31,0.387l-1.626,0c-0.155,0 -0.387,-0.155 -0.387,-0.31l0,-0.542c0,-0.155 0.155,-0.387 0.31,-0.387l1.548,-0.31c0.232,-0.077 0.387,0.077 0.464,0.31l0,0.852Z" style="fill:#f4f4f4;"/><path d="M5.15,7.85c0.017,-0.034 0.052,-0.055 0.089,-0.055c0.51,-0 4.011,-0 4.521,-0c0.038,-0 0.073,0.021 0.089,0.055c0.109,0.217 0.509,1.017 0.674,1.348c0.015,0.031 0.014,0.068 -0.004,0.097c-0.018,0.029 -0.05,0.047 -0.085,0.047c-0.871,0 -4.998,0 -5.869,0c-0.035,0 -0.067,-0.018 -0.085,-0.047c-0.018,-0.029 -0.02,-0.066 -0.004,-0.097c0.165,-0.331 0.565,-1.131 0.674,-1.348Z" style="fill:#7da8e6;"/></svg>