<svg xmlns="http://www.w3.org/2000/svg" xml:space="preserve" fill-rule="evenodd" stroke-linecap="round" stroke-linejoin="round" stroke-miterlimit="1.5" clip-rule="evenodd" viewBox="0 0 15 15"><path fill="#a7a7a7" stroke="#414141" stroke-width=".3" d="M4.327 2.124a.9.9 0 0 0-.488-.333l-1.15-.308a.89.89 0 0 0-1.005 1.309.9.9 0 0 0 .542.416l.649.174a1.5 1.5 0 0 0 .033.612l.004.014-.84-.225a1.49 1.49 0 0 1-1.053-1.822c.094-.35.352-.706.693-.904A1.5 1.5 0 0 1 2.841.908l1.15.308a1.49 1.49 0 0 1 1.061 1.083c.059.241.057.495-.008.739l-.003.011a1.49 1.49 0 0 1-1.477 1.092l-.081-.301a.9.9 0 0 1-.027-.306.89.89 0 0 0 1.04-.805.9.9 0 0 0-.17-.605Z"/><path fill="#a7a7a7" stroke="#414141" stroke-width=".3" d="m3.217 5.144-.308-1.15a1.47 1.47 0 0 1 .149-1.129c.197-.342.522-.591.904-.693q.174-.047.366-.047a.9.9 0 0 1 .17.605.89.89 0 0 0-1.013 1.111l.308 1.15.015.05a1.5 1.5 0 0 0-.095.871 1.5 1.5 0 0 1-.495-.766Zm2.328-.326a1 1 0 0 0-.028-.29l-.308-1.15a.9.9 0 0 0-.167-.329l.003-.011c.065-.244.067-.498.008-.739l.038.021c.342.197.591.522.693.904l.308 1.15.024.105a1.5 1.5 0 0 1-.172 1.025 1.48 1.48 0 0 1-1.421.738.9.9 0 0 1-.242-.611l.002-.059a.895.895 0 0 0 1.263-.752Z"/><path fill="#a7a7a7" stroke="#414141" stroke-width=".3" d="M6.899 6.597a.9.9 0 0 0-.252-.758l-.588-.588c.087-.247.107-.514.057-.774q.057.046.11.099l.842.842a1.48 1.48 0 0 1 .33 1.601 1.49 1.49 0 0 1-1.524.932l-.037-.064a.9.9 0 0 1-.111-.572q.14.047.289.048a.9.9 0 0 0 .631-.262.9.9 0 0 0 .253-.505ZM3.712 5.91a1.48 1.48 0 0 1 .409-1.333 1.55 1.55 0 0 1 1.052-.436q.124 0 .246.02l.098.366a.9.9 0 0 1 .028.29.892.892 0 0 0-1.263.753l-.002.059c0 .228.087.446.242.611l.019.02.671.671a1.5 1.5 0 0 0-.072.744 1.5 1.5 0 0 1-.178-.152l-.842-.842a1.5 1.5 0 0 1-.409-.772Z"/><path fill="#a7a7a7" stroke="#414141" stroke-width=".3" d="M5.14 7.675a1.5 1.5 0 0 1 .072-.744c.119-.327.35-.603.654-.778.248-.143.57-.216.883-.191a.9.9 0 0 1 .15.635l-.058-.018a.89.89 0 0 0-1.004 1.308l.537.93a1.5 1.5 0 0 0-.185.718v.024a1.5 1.5 0 0 1-.273-.343l-.595-1.031a1.5 1.5 0 0 1-.181-.511ZM8.06 8.73l.007-.026a.9.9 0 0 0-.058-.618l-.032-.06-.581-1.006a1.5 1.5 0 0 0 .087-.782c.167.121.309.278.414.46l.595 1.031a1.486 1.486 0 0 1-.546 2.034 1.5 1.5 0 0 1-1.077.162.9.9 0 0 1-.05-.644.892.892 0 0 0 1.239-.549Z"/><path fill="#a7a7a7" stroke="#414141" stroke-width=".3" d="M6.189 9.56v-.024a1.5 1.5 0 0 1 .436-1.052 1.55 1.55 0 0 1 1.052-.436q.17 0 .333.038a.9.9 0 0 1 .058.618l-.007.026a.9.9 0 0 0-1.014.176.893.893 0 0 0-.001 1.263l.842.842a1 1 0 0 0 .074.066q.007.162.049.322.064.236.196.435a1.5 1.5 0 0 1-.74-.403l-.842-.842a1.5 1.5 0 0 1-.436-1.029m2.961.187-.612-.612a1.5 1.5 0 0 0 .156-.686l.036.035.842.842q.107.107.189.232c.146.221.231.478.245.746l.002.075a1.49 1.49 0 0 1-1.005 1.407.9.9 0 0 1-.409-.518.89.89 0 0 0 .559-1.52Z"/><path fill="#a7a7a7" stroke="#414141" stroke-width=".3" d="M8.593 11.268a.9.9 0 0 0 .409.518l.903.521c-.007.253.051.506.171.733a1.5 1.5 0 0 1-.341-.144l-1.031-.595a1.48 1.48 0 0 1-.693-.903 1.5 1.5 0 0 1 .149-1.129c.171-.296.484-.559.838-.674l.152.152a.9.9 0 0 1 .224.376.89.89 0 0 0-.788 1.121zm2.436-.364a1 1 0 0 0-.103-.069l-.92-.531a1.5 1.5 0 0 0-.245-.746q.226.048.432.166l1.031.595a1.48 1.48 0 0 1 .743 1.258 1.49 1.49 0 0 1-1.103 1.469l-.021.005a.88.88 0 0 1-.33-.551.89.89 0 0 0 .829-1.124.9.9 0 0 0-.313-.473Z"/><path fill="#a7a7a7" stroke="#414141" stroke-width=".3" d="M10.076 13.04a1.48 1.48 0 0 1-.121-1.079c.094-.35.352-.706.693-.904q.181-.104.38-.154a.9.9 0 0 1 .33.551.892.892 0 0 0-.198 1.755l1.15.308a.89.89 0 0 0 1.005-1.309.9.9 0 0 0-.542-.416l-.806-.216a1.5 1.5 0 0 0-.171-.663l1.132.303a1.49 1.49 0 0 1 .36 2.726 1.5 1.5 0 0 1-1.129.149l-1.15-.308a1.5 1.5 0 0 1-.904-.693z"/></svg>