<?xml version="1.0" encoding="UTF-8" standalone="no"?><!DOCTYPE svg PUBLIC "-//W3C//DTD SVG 1.1//EN" "http://www.w3.org/Graphics/SVG/1.1/DTD/svg11.dtd"><svg width="100%" height="100%" viewBox="0 0 15 15" version="1.1" xmlns="http://www.w3.org/2000/svg" xmlns:xlink="http://www.w3.org/1999/xlink" xml:space="preserve" xmlns:serif="http://www.serif.com/" style="fill-rule:evenodd;clip-rule:evenodd;stroke-linejoin:round;stroke-miterlimit:2;"><path d="M4.1,2c-0.1,0 -0.2,0 -0.2,0.1c-0.4,0.2 -2,1 -2.6,1.3c-0.2,0.1 -0.3,0.3 -0.3,0.4c-0,0.6 -0,1.7 -0,2.5c-0,0.2 0.1,0.3 0.2,0.4c0.1,0.1 0.3,0.1 0.5,0.1c0.5,-0.2 1.2,-0.4 1.7,-0.6c0.2,-0.1 0.3,-0 0.5,0.1c0.1,0.1 0.2,0.2 0.2,0.4c-0,1.4 -0,4.6 -0,5.8c0,0.3 0.2,0.5 0.5,0.5c1.3,0 4.7,0 6,0c0.3,-0 0.5,-0.2 0.5,-0.5l-0,-5.8c-0,-0.2 0.1,-0.3 0.2,-0.4c0.1,-0.1 0.3,-0.1 0.5,-0.1c0.5,0.2 1.2,0.4 1.7,0.6c0.2,0.1 0.3,0 0.5,-0.1c0.1,-0.1 0.2,-0.2 0.2,-0.4c0,-0.8 0,-1.9 0,-2.5c0,-0.2 -0.1,-0.4 -0.3,-0.4c-0.6,-0.3 -2.2,-1.1 -2.6,-1.3c-0.1,-0 -0.1,-0.1 -0.2,-0.1c-0.3,0 -0.9,0 -1.2,0c-0.1,-0 -0.3,0.1 -0.4,0.1c-0.2,0.2 -0.7,0.7 -1.1,1.1c-0.4,0.4 -1,0.4 -1.4,-0c-0.4,-0.4 -0.9,-0.9 -1.1,-1.1c-0.1,-0.1 -0.2,-0.1 -0.4,-0.1c-0.3,-0 -0.9,-0 -1.2,-0Z" style="fill:#4166d0;fill-rule:nonzero;"/></svg>