<?xml version="1.0" encoding="UTF-8" standalone="no"?><!DOCTYPE svg PUBLIC "-//W3C//DTD SVG 1.1//EN" "http://www.w3.org/Graphics/SVG/1.1/DTD/svg11.dtd"><svg width="100%" height="100%" viewBox="0 0 15 15" version="1.1" xmlns="http://www.w3.org/2000/svg" xmlns:xlink="http://www.w3.org/1999/xlink" xml:space="preserve" xmlns:serif="http://www.serif.com/" style="fill-rule:evenodd;clip-rule:evenodd;stroke-linecap:round;stroke-linejoin:round;stroke-miterlimit:1.5;"><path d="M1.8,1.9l5.3,-0l0.4,0.7l5.7,0.3l0.1,10.3l-9.8,0.4l-1.6,-0.9l-0.4,-1.6l0.3,-9.1Z" style="fill:#ce4d4b;"/><path d="M3.5,11.5l3,0c0.6,-0 1,-0.4 1,-1c-0,-0.6 -0.4,-0.9 -1,-1l-3.1,0c-1.3,0 -1.9,0.7 -1.9,2c0.1,1.2 0.8,1.8 2,2l9,0c0.6,-0.1 0.9,-0.4 1,-1l-0,-9c-0.1,-0.6 -0.4,-0.9 -1,-1l-5,0c-0.2,-0.5 -0.5,-0.9 -1,-1l-4,-0c-0.6,0 -0.9,0.4 -1,1l0,9" style="fill:#a83c3a;fill-opacity:0;stroke:#a83c3a;stroke-width:1px;"/><path d="M7.5,2.5l-0,8" style="fill:none;stroke:#a83c3a;stroke-width:1px;"/></svg>