<?xml version="1.0" encoding="UTF-8" standalone="no"?><!DOCTYPE svg PUBLIC "-//W3C//DTD SVG 1.1//EN" "http://www.w3.org/Graphics/SVG/1.1/DTD/svg11.dtd"><svg width="100%" height="100%" viewBox="0 0 15 15" version="1.1" xmlns="http://www.w3.org/2000/svg" xmlns:xlink="http://www.w3.org/1999/xlink" xml:space="preserve" xmlns:serif="http://www.serif.com/" style="fill-rule:evenodd;clip-rule:evenodd;stroke-linejoin:round;stroke-miterlimit:2;"><path d="M13.019,1.197c0.375,0.189 0.615,0.454 0.778,0.737l-5.647,6.532l-5.363,3.575l0,-2.681l6.256,-7.15l3.975,-1.013Z" style="fill:#190f00;"/><path d="M13.066,1.316c0.447,-0.447 -6.256,-0.894 -9.385,2.234c-1.788,1.788 -2.681,4.469 -2.681,5.81c0,1.788 0.894,4.469 2.681,4.469c6.256,0 8.491,-4.916 9.385,-6.703c0.894,-1.788 1.341,-5.363 0.447,-5.363c-0.447,0 -2.681,1.341 -3.575,2.234c-0.894,0.894 -0.894,2.681 -1.788,3.575c-0.894,0.894 -2.234,0.894 -3.128,1.788c-0.659,0.659 -1.561,1.561 -1.989,1.989c-0.032,0.032 -0.081,0.039 -0.12,0.017c-0.039,-0.022 -0.059,-0.068 -0.048,-0.111c0.164,-0.66 0.585,-2.11 1.264,-2.789c0.894,-0.894 1.788,-0.894 2.681,-1.788c0.894,-0.894 1.341,-2.681 2.234,-3.575c0.894,-0.894 3.575,-1.341 4.022,-1.788Z" style="fill:#472a00;fill-rule:nonzero;"/></svg>