<?xml version="1.0" encoding="UTF-8" standalone="no"?><!DOCTYPE svg PUBLIC "-//W3C//DTD SVG 1.1//EN" "http://www.w3.org/Graphics/SVG/1.1/DTD/svg11.dtd"><svg width="100%" height="100%" viewBox="0 0 15 15" version="1.1" xmlns="http://www.w3.org/2000/svg" xmlns:xlink="http://www.w3.org/1999/xlink" xml:space="preserve" xmlns:serif="http://www.serif.com/" style="fill-rule:evenodd;clip-rule:evenodd;stroke-linejoin:round;stroke-miterlimit:2;"><path d="M4.467,12.44l0,-2.773c-1.387,0 -2.513,-1.083 -2.591,-2.444l-0.009,-0.156l0,-0.867c-0.477,0 -0.867,-0.39 -0.867,-0.867c0,-0.442 0.338,-0.815 0.763,-0.858l0.104,-0.009l0,-0.867c0,-0.477 0.39,-0.867 0.867,-0.867c0.442,0 0.815,0.338 0.858,0.763l0.009,0.104l0,3.467c0,0.442 0.338,0.815 0.763,0.858l0.104,0.009l0,-6.067c0,-0.477 0.39,-0.867 0.867,-0.867c0.442,0 0.815,0.338 0.858,0.763l0.009,0.104l0,1.733c0.477,0 0.867,0.39 0.867,0.867c0,0.442 -0.338,0.815 -0.763,0.858l-0.104,0.009l0,4.333c0.442,0 0.815,-0.338 0.858,-0.763l0.009,-0.104l0,-2.6c0,-0.477 0.39,-0.867 0.867,-0.867c0.442,0 0.815,0.338 0.858,0.763l0.009,0.104l0,0.867c0.477,0 0.867,0.39 0.867,0.867c0,0.442 -0.338,0.815 -0.763,0.858l-0.104,0.009c0,1.439 -1.161,2.6 -2.6,2.6l0,0.893l-1.733,0.147Z" style="fill:#ce4d4b;"/><path d="M2.742,12.795l-0.009,-0.095l0,-0.433l-0.433,0c-0.243,0 -0.433,-0.191 -0.433,-0.433c0,-0.217 0.156,-0.39 0.355,-0.425l0.078,-0.009l0.433,0l0,-0.433c0,-0.243 0.191,-0.433 0.433,-0.433c0.217,0 0.39,0.156 0.425,0.355l0.009,0.078l0,1.612l-0.858,0.217Z" style="fill:#e5c200;"/><path d="M10.533,12.44l0,-1.04l-0.433,0c-0.243,0 -0.433,-0.191 -0.433,-0.433c0,-0.217 0.156,-0.39 0.355,-0.425l0.078,-0.009l0.433,0l0,-2.6c0,-0.477 0.39,-0.867 0.867,-0.867c0.442,0 0.815,0.338 0.858,0.763l0.009,0.104l0.433,0c0.243,0 0.433,0.191 0.433,0.433c0,0.217 -0.156,0.39 -0.355,0.425l-0.078,0.009l-0.433,0l0,0.867l1.3,0c0.243,0 0.433,0.191 0.433,0.433c0,0.217 -0.156,0.39 -0.355,0.425l-0.078,0.009l-1.3,0l0,0.867l0.433,0c0.243,0 0.433,0.191 0.433,0.433c0,0.217 -0.156,0.39 -0.355,0.425l-0.078,0.009l-0.433,0l0,0.529l-1.733,-0.355Z" style="fill:#c5cfdc;"/><path d="M1.939,14c-0.041,0 -0.078,-0.025 -0.093,-0.063c-0.08,-0.341 -0.152,-1.937 5.655,-1.937c5.807,0 5.734,1.596 5.653,1.937c-0.015,0.037 -0.051,0.062 -0.091,0.062c-0.912,0.001 -10.211,0.001 -11.123,0.001Z" style="fill:#bd5c27;"/><path d="M8.063,2.421c0.563,-1.127 1.907,-1.612 3.051,-1.127l0.139,0.061c0,0 0.62,0.313 0.891,0.449c0.029,0.014 0.049,0.042 0.054,0.073c0.005,0.032 -0.005,0.064 -0.028,0.087c-0.161,0.161 -0.466,0.466 -0.466,0.466c-0.035,0.035 -0.052,0.078 -0.052,0.121c0,0.104 0.087,0.182 0.182,0.182c0.225,0 0.451,-0.043 0.667,-0.121l0.156,-0.069c0,0 0.747,-0.376 1.127,-0.567c0.036,-0.018 0.08,-0.013 0.11,0.014c0.031,0.026 0.042,0.069 0.029,0.107c-0.109,0.326 -0.299,0.898 -0.346,1.039c-0.007,0.021 -0.007,0.043 0,0.063c0.047,0.14 0.238,0.713 0.346,1.039c0.013,0.038 0.001,0.081 -0.029,0.107c-0.031,0.026 -0.074,0.032 -0.11,0.014c-0.38,-0.191 -1.127,-0.567 -1.127,-0.567c-0.26,-0.121 -0.537,-0.191 -0.823,-0.191c-0.043,0 -0.095,0.017 -0.13,0.052c-0.052,0.061 -0.061,0.139 -0.035,0.208l0.035,0.043c0,0 0.304,0.304 0.465,0.465c0.023,0.023 0.033,0.055 0.028,0.087c-0.005,0.032 -0.025,0.059 -0.054,0.073c-0.159,0.079 -0.413,0.207 -0.413,0.207c-1.106,0.556 -2.938,-0.427 -3.945,-1.072c-0.153,-0.089 -0.246,-0.255 -0.24,-0.432c0.005,-0.177 0.108,-0.337 0.266,-0.416c0.071,-0.056 0.123,-0.082 0.123,-0.082l0.061,-0.156l0.069,-0.156Z" style="fill:#4166d0;"/></svg>