<svg xmlns="http://www.w3.org/2000/svg" xml:space="preserve" fill-rule="evenodd" stroke-linejoin="round" stroke-miterlimit="2" clip-rule="evenodd" viewBox="0 0 15 15"><path fill="#ce4d4b" d="M4.467 12.44V9.667a2.594 2.594 0 0 1-2.591-2.444l-.009-.156V6.2A.87.87 0 0 1 1 5.333c0-.442.338-.815.763-.858l.104-.009v-.867a.87.87 0 0 1 .867-.867c.442 0 .815.338.858.763l.009.104v3.467c0 .442.338.815.763.858l.104.009V1.866a.87.87 0 0 1 .867-.867c.442 0 .815.338.858.763l.009.104v1.733a.87.87 0 0 1 .867.867.863.863 0 0 1-.763.858l-.104.009v4.333a.863.863 0 0 0 .858-.763l.009-.104v-2.6a.87.87 0 0 1 .867-.867c.442 0 .815.338.858.763l.009.104v.867a.87.87 0 0 1 .867.867.863.863 0 0 1-.763.858l-.104.009c0 1.439-1.161 2.6-2.6 2.6v.893l-1.733.147Z"/><path fill="#e5c200" d="m2.742 12.795-.009-.095v-.433H2.3a.43.43 0 0 1-.433-.433.43.43 0 0 1 .355-.425L2.3 11.4h.433v-.433c0-.243.191-.433.433-.433a.43.43 0 0 1 .425.355l.009.078v1.612z"/><path fill="#c5cfdc" d="M10.533 12.44V11.4H10.1a.43.43 0 0 1-.433-.433.43.43 0 0 1 .355-.425l.078-.009h.433v-2.6a.87.87 0 0 1 .867-.867c.442 0 .815.338.858.763l.009.104h.433c.243 0 .433.191.433.433a.43.43 0 0 1-.355.425L12.7 8.8h-.433v.867h1.3c.243 0 .433.191.433.433a.43.43 0 0 1-.355.425l-.078.009h-1.3v.867h.433c.243 0 .433.191.433.433a.43.43 0 0 1-.355.425l-.078.009h-.433v.529l-1.733-.355Z"/><path fill="#bd5c27" d="M1.939 14a.1.1 0 0 1-.093-.063C1.766 13.596 1.694 12 7.501 12s5.734 1.596 5.653 1.937a.1.1 0 0 1-.091.062z"/><path fill="#4166d0" d="M8.063 2.421a2.38 2.38 0 0 1 3.051-1.127l.139.061.891.449a.1.1 0 0 1 .026.16l-.466.466a.17.17 0 0 0-.052.121c0 .104.087.182.182.182.225 0 .451-.043.667-.121l.156-.069 1.127-.567a.1.1 0 0 1 .11.014.1.1 0 0 1 .029.107l-.346 1.039a.1.1 0 0 0 0 .063l.346 1.039a.1.1 0 0 1-.029.107.1.1 0 0 1-.11.014l-1.127-.567a1.95 1.95 0 0 0-.823-.191.2.2 0 0 0-.13.052.2.2 0 0 0-.035.208l.035.043.465.465a.1.1 0 0 1-.026.16l-.413.207c-1.106.556-2.938-.427-3.945-1.072a.482.482 0 0 1 .026-.848c.071-.056.123-.082.123-.082l.061-.156.069-.156Z"/></svg>