<?xml version="1.0" encoding="UTF-8" standalone="no"?><!DOCTYPE svg PUBLIC "-//W3C//DTD SVG 1.1//EN" "http://www.w3.org/Graphics/SVG/1.1/DTD/svg11.dtd"><svg width="100%" height="100%" viewBox="0 0 15 15" version="1.1" xmlns="http://www.w3.org/2000/svg" xmlns:xlink="http://www.w3.org/1999/xlink" xml:space="preserve" xmlns:serif="http://www.serif.com/" style="fill-rule:evenodd;clip-rule:evenodd;stroke-linejoin:round;stroke-miterlimit:2;"><path d="M4.5,12.4l0,-2.8c-1.4,0 -2.5,-1.1 -2.6,-2.4l-0,-0.2l0,-0.9c-0.5,0 -0.9,-0.4 -0.9,-0.9c0,-0.4 0.3,-0.8 0.8,-0.9l0.1,-0l0,-0.9c0,-0.5 0.4,-0.9 0.9,-0.9c0.4,0 0.8,0.3 0.9,0.8l0,0.1l0,3.5c0,0.4 0.3,0.8 0.8,0.9l0.1,0l0,-6.1c0,-0.5 0.4,-0.9 0.9,-0.9c0.4,0 0.8,0.3 0.9,0.8l0,0.1l0,1.7c0.5,0 0.9,0.4 0.9,0.9c0,0.4 -0.3,0.8 -0.8,0.9l-0.1,0l0,4.3c0.4,0 0.8,-0.3 0.9,-0.8l0,-0.1l0,-2.6c0,-0.5 0.4,-0.9 0.9,-0.9c0.4,0 0.8,0.3 0.9,0.8l0,0.1l0,0.9c0.5,0 0.9,0.4 0.9,0.9c0,0.4 -0.3,0.8 -0.8,0.9l-0.1,0c0,1.4 -1.2,2.6 -2.6,2.6l0,0.9l-1.7,0.1Z" style="fill:#ce4d4b;"/><path d="M2.7,12.8l-0,-0.1l0,-0.4l-0.4,0c-0.2,0 -0.4,-0.2 -0.4,-0.4c0,-0.2 0.2,-0.4 0.4,-0.4l0.1,-0l0.4,0l0,-0.4c0,-0.2 0.2,-0.4 0.4,-0.4c0.2,0 0.4,0.2 0.4,0.4l0,0.1l0,1.6l-0.9,0.2Z" style="fill:#e5c200;"/><path d="M10.5,12.4l0,-1l-0.4,0c-0.2,0 -0.4,-0.2 -0.4,-0.4c0,-0.2 0.2,-0.4 0.4,-0.4l0.1,-0l0.4,0l0,-2.6c0,-0.5 0.4,-0.9 0.9,-0.9c0.4,0 0.8,0.3 0.9,0.8l0,0.1l0.4,0c0.2,0 0.4,0.2 0.4,0.4c0,0.2 -0.2,0.4 -0.4,0.4l-0.1,0l-0.4,0l0,0.9l1.3,0c0.2,0 0.4,0.2 0.4,0.4c0,0.2 -0.2,0.4 -0.4,0.4l-0.1,0l-1.3,0l0,0.9l0.4,0c0.2,0 0.4,0.2 0.4,0.4c0,0.2 -0.2,0.4 -0.4,0.4l-0.1,0l-0.4,0l0,0.5l-1.7,-0.4Z" style="fill:#c5cfdc;"/><path d="M1.9,14c-0,0 -0.1,-0 -0.1,-0.1c-0.1,-0.3 -0.2,-1.9 5.7,-1.9c5.8,0 5.7,1.6 5.7,1.9c-0,0 -0.1,0.1 -0.1,0.1c-0.9,0 -10.2,0 -11.1,0Z" style="fill:#bd5c27;"/><path d="M8.1,2.4c0.6,-1.1 1.9,-1.6 3.1,-1.1l0.1,0.1c0,0 0.6,0.3 0.9,0.4c0,0 0,0 0.1,0.1c0,0 -0,0.1 -0,0.1c-0.2,0.2 -0.5,0.5 -0.5,0.5c-0,0 -0.1,0.1 -0.1,0.1c0,0.1 0.1,0.2 0.2,0.2c0.2,0 0.5,-0 0.7,-0.1l0.2,-0.1c0,0 0.7,-0.4 1.1,-0.6c0,-0 0.1,-0 0.1,0c0,0 0,0.1 0,0.1c-0.1,0.3 -0.3,0.9 -0.3,1c-0,0 -0,0 0,0.1c0,0.1 0.2,0.7 0.3,1c0,0 0,0.1 -0,0.1c-0,0 -0.1,0 -0.1,0c-0.4,-0.2 -1.1,-0.6 -1.1,-0.6c-0.3,-0.1 -0.5,-0.2 -0.8,-0.2c-0,0 -0.1,0 -0.1,0.1c-0.1,0.1 -0.1,0.1 -0,0.2l0,0c0,0 0.3,0.3 0.5,0.5c0,0 0,0.1 0,0.1c-0,0 -0,0.1 -0.1,0.1c-0.2,0.1 -0.4,0.2 -0.4,0.2c-1.1,0.6 -2.9,-0.4 -3.9,-1.1c-0.2,-0.1 -0.2,-0.3 -0.2,-0.4c0,-0.2 0.1,-0.3 0.3,-0.4c0.1,-0.1 0.1,-0.1 0.1,-0.1l0.1,-0.2l0.1,-0.2Z" style="fill:#4166d0;"/></svg>