<svg xmlns="http://www.w3.org/2000/svg" xml:space="preserve" fill-rule="evenodd" stroke-linejoin="round" stroke-miterlimit="2" clip-rule="evenodd" viewBox="0 0 15 15"><path fill="#272727" d="M13 1a1 1 0 0 0-1-1H3a1 1 0 0 0-1 1v13a1 1 0 0 0 1 1h9a1 1 0 0 0 1-1z"/><path fill="#eee" d="M11.533 10.5c0 1.333-2 1.333-2 0s2-1.333 2 0m0 3c0 1.333-2 1.333-2 0s2-1.333 2 0m0-6c0 1.333-2 1.333-2 0s2-1.333 2 0m0-3c0 1.333-2 1.333-2 0s2-1.333 2 0m0-3c0 1.333-2 1.333-2 0s2-1.333 2 0m-6 9c0 1.333-2 1.333-2 0s2-1.333 2 0m0 3c0 1.333-2 1.333-2 0s2-1.333 2 0m0-6c0 1.333-2 1.333-2 0s2-1.333 2 0m0-3c0 1.333-2 1.333-2 0s2-1.333 2 0m0-3c0 1.333-2 1.333-2 0s2-1.333 2 0"/></svg>