<svg xmlns="http://www.w3.org/2000/svg" xml:space="preserve" fill-rule="evenodd" stroke-linejoin="round" stroke-miterlimit="2" clip-rule="evenodd" viewBox="0 0 15 15"><path fill="#272727" d="M13 1a1 1 0 0 0-1-1H3a1 1 0 0 0-1 1v13a1 1 0 0 0 1 1h9a1 1 0 0 0 1-1z"/><path fill="#eee" d="M3.5 0h8v1a.5.5 0 0 1-.5.5H4a.5.5 0 0 1-.5-.5zm0 7a.5.5 0 0 1 .5-.5h7a.5.5 0 0 1 .5.5v1a.5.5 0 0 1-.5.5H4a.5.5 0 0 1-.5-.5zm0 7a.5.5 0 0 1 .5-.5h7a.5.5 0 0 1 .5.5v1h-8zm0-10.5A.5.5 0 0 1 4 3h7a.5.5 0 0 1 .5.5v1a.5.5 0 0 1-.5.5H4a.5.5 0 0 1-.5-.5zm0 7A.5.5 0 0 1 4 10h7a.5.5 0 0 1 .5.5v1a.5.5 0 0 1-.5.5H4a.5.5 0 0 1-.5-.5z"/></svg>