<svg xmlns="http://www.w3.org/2000/svg" xml:space="preserve" fill-rule="evenodd" stroke-linejoin="round" stroke-miterlimit="2" clip-rule="evenodd" viewBox="0 0 15 15"><path fill="#272727" d="M13 1a1 1 0 0 0-1-1H3a1 1 0 0 0-1 1v13a1 1 0 0 0 1 1h9a1 1 0 0 0 1-1z"/><path fill="#a7a7a7" d="M3.5 1c0-.25.25-.5.5-.5h2.5c.25 0 .5.25.5.5v1c0 .25-.25.5-.5.5H4c-.25 0-.5-.25-.5-.5zM10 4c0-.25.25-.5.5-.5h.5c.25 0 .5.25.5.5v1c0 .25-.25.5-.5.5h-.5c-.25 0-.5-.25-.5-.5zM3.5 7c0-.25.25-.5.5-.5h2.5c.25 0 .5.25.5.5v1c0 .25-.25.5-.5.5H4c-.25 0-.5-.25-.5-.5zM8 7c0-.25.25-.5.5-.5H11c.25 0 .5.25.5.5v1c0 .25-.25.5-.5.5H8.5c-.25 0-.5-.25-.5-.5zm-4.5 3c0-.25.25-.5.5-.5h.5c.25 0 .5.25.5.5v1c0 .25-.25.5-.5.5H4c-.25 0-.5-.25-.5-.5zM8 13c0-.25.25-.5.5-.5H11c.25 0 .5.25.5.5v1c0 .25-.25.5-.5.5H8.5c-.25 0-.5-.25-.5-.5z"/><path fill="#7a7a7a" d="M8 1c0-.25.25-.5.5-.5H11c.25 0 .5.25.5.5v1c0 .25-.25.5-.5.5H8.5c-.25 0-.5-.25-.5-.5zM3.5 4c0-.25.25-.5.5-.5h4.5c.25 0 .5.25.5.5v1c0 .25-.25.5-.5.5H4c-.25 0-.5-.25-.5-.5zM6 10c0-.25.25-.5.5-.5H11c.25 0 .5.25.5.5v1c0 .25-.25.5-.5.5H6.5c-.25 0-.5-.25-.5-.5zm-2.5 3c0-.25.25-.5.5-.5h2.5c.25 0 .5.25.5.5v1c0 .25-.25.5-.5.5H4c-.25 0-.5-.25-.5-.5z"/></svg>