<svg xmlns="http://www.w3.org/2000/svg" xml:space="preserve" fill-rule="evenodd" stroke-linejoin="round" stroke-miterlimit="2" clip-rule="evenodd" viewBox="0 0 15 15"><path fill="#171717" d="M12.5 5.5h1a.5.5 0 0 1 .5.5v3a.5.5 0 0 1-.5.5h-1A.5.5 0 0 1 12 9V6a.5.5 0 0 1 .5-.5m-11 4A.5.5 0 0 1 1 9V6a.5.5 0 0 1 .5-.5h1A.5.5 0 0 1 3 6v3a.5.5 0 0 1-.5.5z"/><path fill="#5dca19" d="M13 7.999a.5.5 0 1 1 0 1 .5.5 0 0 1 0-1M2 7.001a.5.5 0 1 1 0-1 .5.5 0 0 1 0 1"/><path fill="#ce4d4b" d="M13 5.999a.5.5 0 1 1 0 1 .5.5 0 0 1 0-1M2 9.001a.5.5 0 1 1 0-1 .5.5 0 0 1 0 1"/></svg>