<svg xmlns="http://www.w3.org/2000/svg" xml:space="preserve" fill-rule="evenodd" stroke-linejoin="round" stroke-miterlimit="2" clip-rule="evenodd" viewBox="0 0 15 15"><path fill="#272727" d="M13 14V1a1 1 0 0 0-1-1H3a1 1 0 0 0-1 1v13a1 1 0 0 0 1 1h9a1 1 0 0 0 1-1"/><path fill="#eee" d="M10.5 5.4V3.6q.001-.042.029-.071A.1.1 0 0 1 10.6 3.5h.8q.042.001.071.029a.1.1 0 0 1 .029.071v1.8a.1.1 0 0 1-.1.1h-.8a.1.1 0 0 1-.1-.1m0 6V9.6q.001-.042.029-.071A.1.1 0 0 1 10.6 9.5h.8q.042.001.071.029a.1.1 0 0 1 .029.071v1.8a.1.1 0 0 1-.1.1h-.8a.1.1 0 0 1-.1-.1m0-9V0h1v2.4a.1.1 0 0 1-.1.1h-.8a.1.1 0 0 1-.1-.1m0 12.6v-2.4q.001-.042.029-.071a.1.1 0 0 1 .071-.029h.8q.042.001.071.029a.1.1 0 0 1 .029.071V15zm-7-9.6V3.6q.001-.042.029-.071A.1.1 0 0 1 3.6 3.5h.8q.042.001.071.029A.1.1 0 0 1 4.5 3.6v1.8a.1.1 0 0 1-.1.1h-.8a.1.1 0 0 1-.1-.1m0 6V9.6q.001-.042.029-.071A.1.1 0 0 1 3.6 9.5h.8q.042.001.071.029A.1.1 0 0 1 4.5 9.6v1.8a.1.1 0 0 1-.1.1h-.8a.1.1 0 0 1-.1-.1m0-9V0h1v2.4a.1.1 0 0 1-.1.1h-.8a.1.1 0 0 1-.1-.1m0 12.6v-2.4q.001-.042.029-.071A.1.1 0 0 1 3.6 12.5h.8q.042.001.071.029a.1.1 0 0 1 .029.071V15z"/></svg>