<svg xmlns="http://www.w3.org/2000/svg" xml:space="preserve" fill-rule="evenodd" stroke-linejoin="round" stroke-miterlimit="2" clip-rule="evenodd" viewBox="0 0 15 15"><path fill="#272727" d="M13 1a1 1 0 0 0-1-1H3a1 1 0 0 0-1 1v13a1 1 0 0 0 1 1h9a1 1 0 0 0 1-1z"/><path fill="#eee" d="M3.6 0h7.8q.042.001.071.029A.1.1 0 0 1 11.5.1v.8a.1.1 0 0 1-.1.1H3.6a.1.1 0 0 1-.1-.1V.1q.001-.041.029-.071A.1.1 0 0 1 3.6 0m0 2h7.8q.042.001.071.029a.1.1 0 0 1 .029.071v.8a.1.1 0 0 1-.1.1H3.6a.1.1 0 0 1-.1-.1v-.8q.001-.042.029-.071A.1.1 0 0 1 3.6 2m0 12h7.8q.042.001.071.029a.1.1 0 0 1 .029.071v.8a.1.1 0 0 1-.1.1H3.6a.1.1 0 0 1-.1-.1v-.8q.001-.042.029-.071A.1.1 0 0 1 3.6 14m0-2h7.8q.042.001.071.029a.1.1 0 0 1 .029.071v.8a.1.1 0 0 1-.1.1H3.6a.1.1 0 0 1-.1-.1v-.8q.001-.042.029-.071A.1.1 0 0 1 3.6 12m0-4h7.8q.042.001.071.029a.1.1 0 0 1 .029.071v.8a.1.1 0 0 1-.1.1H3.6a.1.1 0 0 1-.1-.1v-.8q.001-.042.029-.071A.1.1 0 0 1 3.6 8m0-2h7.8q.042.001.071.029a.1.1 0 0 1 .029.071v.8a.1.1 0 0 1-.1.1H3.6a.1.1 0 0 1-.1-.1v-.8q.001-.042.029-.071A.1.1 0 0 1 3.6 6"/></svg>