<svg xmlns="http://www.w3.org/2000/svg" xml:space="preserve" fill-rule="evenodd" stroke-linejoin="round" stroke-miterlimit="2" clip-rule="evenodd" viewBox="0 0 15 15"><path fill="#272727" d="M13 14V1a1 1 0 0 0-1-1H3a1 1 0 0 0-1 1v13a1 1 0 0 0 1 1h9a1 1 0 0 0 1-1"/><path fill="#eee" d="M5.4 8H3.6a.1.1 0 0 1-.1-.1v-.8q.001-.042.029-.071A.1.1 0 0 1 3.6 7h1.8q.042.001.071.029A.1.1 0 0 1 5.5 7.1v.8a.1.1 0 0 1-.1.1m3 0H6.6a.1.1 0 0 1-.1-.1v-.8q.001-.042.029-.071A.1.1 0 0 1 6.6 7h1.8q.042.001.071.029A.1.1 0 0 1 8.5 7.1v.8a.1.1 0 0 1-.1.1m3 0H9.6a.1.1 0 0 1-.1-.1v-.8q.001-.042.029-.071A.1.1 0 0 1 9.6 7h1.8q.042.001.071.029a.1.1 0 0 1 .029.071v.8a.1.1 0 0 1-.1.1M2 7h.4q.042.001.071.029A.1.1 0 0 1 2.5 7.1v.8a.1.1 0 0 1-.1.1H2zm11 1h-.4a.1.1 0 0 1-.1-.1v-.8q.001-.042.029-.071A.1.1 0 0 1 12.6 7h.4z"/></svg>