<svg xmlns="http://www.w3.org/2000/svg" xml:space="preserve" fill-rule="evenodd" stroke-linejoin="round" stroke-miterlimit="2" clip-rule="evenodd" viewBox="0 0 15 15"><path fill="#7a7a7a" d="M3.45 3.057a.48.48 0 0 1 .528.475C4 5.129 4 9.87 4 11.467a.5.5 0 0 1-.552.498C2.354 11.755.001 10.951.001 7.5s2.353-4.256 3.45-4.443Zm7.55.475a.5.5 0 0 1 .552-.498c1.094.21 3.447 1.014 3.447 4.465s-2.353 4.256-3.45 4.443a.48.48 0 0 1-.528-.475c-.022-1.597-.022-6.338-.022-7.935Z"/><path fill="#a7a7a7" d="M3.5 11.466c-.981-.197-3-.92-3-3.966 0-3.031 1.994-3.759 2.978-3.94.022 1.615.022 6.316.022 7.907Zm8-7.933c.981.197 3 .92 3 3.966 0 3.031-1.994 3.759-2.978 3.94-.022-1.615-.022-6.316-.022-7.907Z"/></svg>