<svg xmlns="http://www.w3.org/2000/svg" xml:space="preserve" fill-rule="evenodd" stroke-linejoin="round" stroke-miterlimit="2" clip-rule="evenodd" viewBox="0 0 15 15"><path fill="#7a7a7a" d="M8.9 11a.1.1 0 0 0 .1-.1V6a2 2 0 0 0-2-2H2a2 2 0 0 0-2 2v4.9a.1.1 0 0 0 .1.1h.8a.1.1 0 0 0 .1-.1V9h7v1.9q.001.042.029.071A.1.1 0 0 0 8.1 11zM1 6a1 1 0 0 1 1-1h5a1 1 0 0 1 1 1v2H1z"/><path fill="#e4e4e4" d="M3 4v1h3V4z"/><path fill="#a83c3a" d="M2.99 4 3 5H2V4zm4 0L7 5H6V4zm-2 0L5 5H4V4z"/><path fill="#a7a7a7" d="M14.9 13a.1.1 0 0 0 .1-.1V8a2 2 0 0 0-2-2H8a2 2 0 0 0-2 2v4.9a.1.1 0 0 0 .1.1h.8a.1.1 0 0 0 .1-.1V11h7v1.9q.001.042.029.071A.1.1 0 0 0 14.1 13zM7 8a1 1 0 0 1 1-1h5a1 1 0 0 1 1 1v2H7z"/><path fill="#f4f4f4" d="M9 6v1h3V6z"/><path fill="#ce4d4b" d="M8.99 6 9 7H8V6zm4 0L13 7h-1V6zm-2 0L11 7h-1V6z"/></svg>