<svg xmlns="http://www.w3.org/2000/svg" xml:space="preserve" fill-rule="evenodd" stroke-linejoin="round" stroke-miterlimit="2" clip-rule="evenodd" viewBox="0 0 15 15"><path fill="#272727" d="M1 0a1 1 0 0 0-1 1v13a1 1 0 0 0 1 1h13a1 1 0 0 0 1-1V1a1 1 0 0 0-1-1z"/><path fill="#ce4d4b" d="M15 6v8a.997.997 0 0 1-1 1h-2V9H8.1a.1.1 0 0 1-.1-.1V6.1q.001-.042.029-.071A.1.1 0 0 1 8.1 6z"/><path fill="#eee" d="M8.1 9h4.8q.041.001.071.029A.1.1 0 0 1 13 9.1v1.3a.1.1 0 0 1-.1.1h-.8a.1.1 0 0 1-.1-.1V10H7.1a.1.1 0 0 1-.1-.1V5.1a.1.1 0 0 1 .1-.1H15v1H8.1a.1.1 0 0 0-.1.1v2.8q.001.042.029.071A.1.1 0 0 0 8.1 9M7 15v-.9q.001-.042.029-.071A.1.1 0 0 1 7.1 14h.8q.042.001.071.029A.1.1 0 0 1 8 14.1v.9zm1-3.9v1.8a.1.1 0 0 1-.1.1h-.8a.1.1 0 0 1-.1-.1v-1.8q.001-.042.029-.071A.1.1 0 0 1 7.1 11h.8q.042.001.071.029A.1.1 0 0 1 8 11.1m0-9v1.8a.1.1 0 0 1-.1.1h-.8a.1.1 0 0 1-.1-.1V2.1q.001-.042.029-.071A.1.1 0 0 1 7.1 2h.8q.042.001.071.029A.1.1 0 0 1 8 2.1M8 0v1a.1.1 0 0 1-.1.1h-.8A.1.1 0 0 1 7 1V0zm4 13.4v-1.8q.001-.042.029-.071a.1.1 0 0 1 .071-.029h.8q.042.001.071.029A.1.1 0 0 1 13 11.6v1.8a.1.1 0 0 1-.1.1h-.8a.1.1 0 0 1-.1-.1m1 1.6h-1v-.4q.001-.042.029-.071a.1.1 0 0 1 .071-.029h.8q.042.001.071.029A.1.1 0 0 1 13 14.6z"/></svg>