<svg xmlns="http://www.w3.org/2000/svg" xml:space="preserve" fill-rule="evenodd" stroke-linejoin="round" stroke-miterlimit="2" clip-rule="evenodd" viewBox="0 0 15 15"><path fill="#f4f4f4" stroke="#f4f4f4" d="M1.861 7.859c-.109-.176-.224-.354-.311-.521C-.837 2.742 5.18-.323 7.502 4.274c2.321-4.596 8.339-1.532 5.952 3.064-.087.167-.203.346-.311.521l-.874 1.25a43 43 0 0 1-4.451 4.673.464.464 0 0 1-.622 0 42.6 42.6 0 0 1-4.46-4.673z"/><path fill="#a83c3a" d="M1.861 7.859c-.109-.176-.224-.354-.311-.521C-.837 2.742 5.18-.323 7.502 4.274c2.321-4.596 8.339-1.532 5.952 3.064-.087.167-.203.346-.311.521h-1.808L9.52 5.137a.626.626 0 0 0-1.101.115l-1.648 4.12-1.33-1.33a.63.63 0 0 0-.442-.183zm10.407 1.25a43 43 0 0 1-4.451 4.673.464.464 0 0 1-.622 0 42.6 42.6 0 0 1-4.46-4.673H4.74l1.817 1.817a.625.625 0 0 0 1.021-.21l1.559-3.897 1.341 2.011a.62.62 0 0 0 .52.278h1.268Z"/><path fill="#f4f4f4" d="m13.143 7.859-.874 1.25h-1.268a.62.62 0 0 1-.52-.278L9.14 6.82l-1.559 3.897a.62.62 0 0 1-.579.393.63.63 0 0 1-.442-.183L4.743 9.11H2.738l-.875-1.25h3.139c.166 0 .324.066.442.183l1.33 1.33 1.648-4.12a.624.624 0 0 1 1.101-.115l1.815 2.722h1.808Z"/></svg>