<svg xmlns="http://www.w3.org/2000/svg" xml:space="preserve" fill-rule="evenodd" stroke-linejoin="round" stroke-miterlimit="2" clip-rule="evenodd" viewBox="0 0 15 15"><path fill="#a7a7a7" d="M4.5 0h6v.93c0 .5.25.97.67 1.25l1.22.81a2.5 2.5 0 0 1 1.11 2.08v4.86a2.5 2.5 0 0 1-1.11 2.08l-1.22.81a1.5 1.5 0 0 0-.67 1.25V15h-6v-.93c0-.5-.25-.97-.67-1.25l-1.22-.81A2.5 2.5 0 0 1 1.5 9.93V5.07c0-.84.42-1.62 1.11-2.08l1.22-.81c.42-.28.67-.75.67-1.25z"/><path fill="#414141" d="M10 15H5v-.93a2 2 0 0 0-.9-1.66l-1.21-.82a2 2 0 0 1-.9-1.66V5.07a2 2 0 0 1 .9-1.66l1.22-.82A2 2 0 0 0 5 .93V0h5v.93a2 2 0 0 0 .9 1.66l1.21.82a2 2 0 0 1 .9 1.66v4.86a2 2 0 0 1-.9 1.66l-1.22.82a2 2 0 0 0-.89 1.66z"/><path fill="#f4f4f4" d="M7.75 15h-.5v-1h.5zm0-14h-.5V0h.5zm0 11.25h-.5v-2h.5zm0-3.75h-.5v-2h.5zm0-3.75h-.5v-2h.5zm3 6.75h-.5v-2h.5zm0-3h-.5v-2h.5zm0-3h-.5v-2h.5zm-6.5 6v-2h.5v2zm0-3v-2h.5v2zm0-3v-2h.5v2z"/></svg>