<svg xmlns="http://www.w3.org/2000/svg" xml:space="preserve" fill-rule="evenodd" stroke-linejoin="round" stroke-miterlimit="2" clip-rule="evenodd" viewBox="0 0 15 15"><path fill="#4166d0" d="M13.535 13.845A1 1 0 0 1 13 14H2a1 1 0 0 1-1-1V2a1 1 0 0 1 1-1h11c.197 0 .38.057.535.155l-1.851.617a1 1 0 0 0-.684.949v9.558a1 1 0 0 0 .684.949z"/><path fill="#eee" d="M8 3.25a1.25 1.25 0 1 1-2.5 0 1.25 1.25 0 0 1 2.5 0M5.224 4.974a1 1 0 0 1 .631-.224h.777a1 1 0 0 1 .648.239L10.465 7.7a.1.1 0 0 1 .035.076v.544a.1.1 0 0 1-.1.1h-.368a.1.1 0 0 1-.058-.019L7.658 6.752c-.061-.043-.158.007-.158.081v1.561a.1.1 0 0 0 .012.048l.986 1.804.004.008.97 2.221a.1.1 0 0 1-.024.114l-.419.385a.1.1 0 0 1-.068.026h-.396a.1.1 0 0 1-.092-.06l-.969-2.219-.012-.021c-.128-.169-1.907-2.504-1.987-2.724a.1.1 0 0 1-.006-.034V6.186c0-.074-.094-.124-.155-.083l-1.323.882a.1.1 0 0 0-.033.037l-.71 1.344a.1.1 0 0 1-.088.053H2.6a.1.1 0 0 1-.1-.1v-.335a.1.1 0 0 1 .012-.048l.728-1.34a.1.1 0 0 1 .025-.03zm.657 4.503a.1.1 0 0 1 .02.098l-1.109 3.356a.1.1 0 0 1-.095.069h-.409a.1.1 0 0 1-.068-.026l-.422-.388a.1.1 0 0 1-.026-.108l1.33-3.65c.024-.066.122-.085.169-.032l.61.682Z"/><path fill="#f4f4f4" d="M14 2v11a1 1 0 0 1-.465.845l-1.851-.617a1 1 0 0 1-.684-.949V2.721a1 1 0 0 1 .684-.949l1.851-.617A1 1 0 0 1 14 2"/><circle cx="12" cy="8" r=".5" fill="#e4e4e4"/></svg>