<?xml version="1.0" encoding="UTF-8" standalone="no"?><!DOCTYPE svg PUBLIC "-//W3C//DTD SVG 1.1//EN" "http://www.w3.org/Graphics/SVG/1.1/DTD/svg11.dtd"><svg width="100%" height="100%" viewBox="0 0 15 15" version="1.1" xmlns="http://www.w3.org/2000/svg" xmlns:xlink="http://www.w3.org/1999/xlink" xml:space="preserve" xmlns:serif="http://www.serif.com/" style="fill-rule:evenodd;clip-rule:evenodd;stroke-linejoin:round;stroke-miterlimit:2;"><path d="M7.5,0.5c3.88,0 7,3.13 7,7c0,3.88 -3.12,7 -7,7c-3.87,0 -7,-3.12 -7,-7c0,-3.87 3.13,-7 7,-7Z" style="fill:#414141;"/><path d="M7.5,0c4.13,0 7.5,3.38 7.5,7.5c0,4.13 -3.36,7.5 -7.5,7.5c-4.14,0 -7.5,-3.37 -7.5,-7.5c0,-4.12 3.38,-7.5 7.5,-7.5Zm0,0.5c-3.87,0 -7,3.13 -7,7c0,3.88 3.13,7 7,7c3.88,0 7,-3.12 7,-7c0,-3.87 -3.12,-7 -7,-7Zm1.344,0.649c3.078,0.656 5.156,3.381 5.156,6.351c0,2.971 -2.079,5.696 -5.159,6.359c-0.053,0.011 -0.107,-0.017 -0.128,-0.068c-0.105,-0.223 -0.449,-0.792 -1.213,-0.792c-0.797,-0 -1.118,0.559 -1.214,0.786c-0.019,0.054 -0.075,0.085 -0.131,0.074c-3.068,-0.666 -5.155,-3.391 -5.155,-6.36c0,-2.97 2.087,-5.694 5.156,-6.349c0.055,-0.012 0.11,0.019 0.129,0.073c0.098,0.225 0.418,0.776 1.215,0.776c0.797,0 1.117,-0.552 1.213,-0.777c0.019,-0.053 0.075,-0.085 0.131,-0.073Zm-4.464,10.141l-1.19,0c-0.4,0 -0.4,0.8 0,0.8l2.19,0c0.4,-0.2 -0.8,-0.8 -1,-0.8Zm7.41,0l-1.19,0c-0.2,0 -1.4,0.6 -1,0.8l2.19,0c0.4,0 0.4,-0.8 0,-0.8Zm-8.24,-6.9l-1.2,0c-0.4,0 -0.4,0.8 0,0.8l0.8,0c0.2,0 0.8,-0.8 0.4,-0.8Zm-1.23,2.3l-0.8,0c-0.4,0 -0.4,0.8 0,0.8l0.8,0c0.4,0 0.4,-0.8 0,-0.8Zm10.82,2.3l-0.8,0c-0.2,0 -0.8,0.8 -0.4,0.8l1.2,0c0.4,0 0.4,-0.8 0,-0.8Zm-5.645,-5.99c-2.483,0 -4.498,2.015 -4.498,4.498c0,2.483 2.015,4.498 4.498,4.498c2.483,0 4.498,-2.015 4.498,-4.498c0,-2.483 -2.015,-4.498 -4.498,-4.498Zm5.945,3.69l-0.8,0c-0.4,0 -0.4,0.8 0,0.8l0.8,0c0.4,0 0.4,-0.8 0,-0.8Zm-6.92,-4.61l-2.2,0c-0.4,0 -0.4,0.8 0,0.8l1.2,0c0.2,0 1.4,-0.6 1,-0.8Zm-3.92,6.91l-0.79,0c-0.4,0 -0.4,0.8 0,0.8l1.19,0c0.4,0 -0.2,-0.8 -0.4,-0.8Zm8.05,-6.91l-2.2,0c-0.4,0.2 0.8,0.8 1,0.8l1.2,0c0.4,0 0.4,-0.8 0,-0.8Zm1.96,2.31l-1.2,0c-0.4,0 0.2,0.8 0.4,0.8l0.8,0c0.4,0 0.4,-0.8 0,-0.8Z" style="fill:#171717;"/><path d="M5.678,7.935l-0.229,0c-0.161,0 -0.292,-0.13 -0.292,-0.297l0,-0.89c0,-0.167 0.13,-0.297 0.292,-0.297l0.229,0l0,1.484Zm3.645,-1.484l0.229,0c0.161,0 0.292,0.13 0.292,0.297l0,0.89c0,0.167 -0.13,0.297 -0.292,0.297l-0.229,0l0,-1.484Zm-3.286,3.494l2.926,0c0.203,0 0.37,0.167 0.37,0.375c0,0.203 -0.167,0.37 -0.37,0.37l-2.926,0c-0.203,0 -0.37,-0.167 -0.37,-0.37c0,-0.208 0.167,-0.375 0.37,-0.375Zm2.906,-5.134l0.094,0c0.125,0 0.224,0.135 0.224,0.302c0,0.161 -0.099,0.297 -0.224,0.297l-0.094,0l0,-0.599Zm-2.9,0.599l-0.078,0c-0.125,0 -0.219,-0.135 -0.219,-0.297c0,-0.167 0.094,-0.302 0.219,-0.302l0.078,0l0,0.599Zm1.094,-1.656c0.008,-0.196 0.166,-0.354 0.364,-0.354c0.198,0 0.356,0.158 0.364,0.354l-0.729,0Z" style="fill:#a7a7a7;"/><path d="M8.942,5.41l-0.155,0c-0.064,0 -0.115,0.052 -0.115,0.115c0,0.2 0,0.61 0,0.811c-0,0.031 0.012,0.06 0.034,0.082c0.022,0.022 0.051,0.034 0.082,0.034c0.187,0 0.535,0 0.535,0l0,1.484l-0.535,-0c-0.031,-0 -0.06,0.012 -0.082,0.034c-0.022,0.022 -0.034,0.051 -0.034,0.082c-0,0.427 -0,1.895 -0,1.895l-2.343,0l0,-1.895c0,-0.031 -0.012,-0.06 -0.034,-0.082c-0.022,-0.022 -0.051,-0.034 -0.082,-0.034c-0.187,0 -0.535,0 -0.535,0l0,-1.484l0.535,-0c0.031,0 0.06,-0.012 0.082,-0.034c0.022,-0.022 0.034,-0.051 0.034,-0.082c-0,-0.271 -0,-0.926 -0,-0.926l-0.286,0l0,-0.599c0.198,-0.672 0.484,-0.833 1.094,-1.057l0.729,0c0.614,0.12 0.87,0.505 1.078,1.057l0,0.599Z" style="fill:#ce4d4b;"/></svg>