<?xml version="1.0" encoding="UTF-8" standalone="no"?><!DOCTYPE svg PUBLIC "-//W3C//DTD SVG 1.1//EN" "http://www.w3.org/Graphics/SVG/1.1/DTD/svg11.dtd"><svg width="100%" height="100%" viewBox="0 0 15 15" version="1.1" xmlns="http://www.w3.org/2000/svg" xmlns:xlink="http://www.w3.org/1999/xlink" xml:space="preserve" xmlns:serif="http://www.serif.com/" style="fill-rule:evenodd;clip-rule:evenodd;stroke-linejoin:round;stroke-miterlimit:2;"><path d="M7.5,1.433c3.363,0 6.067,2.713 6.067,6.067c0,3.363 -2.704,6.067 -6.067,6.067c-3.354,0 -6.067,-2.704 -6.067,-6.067c0,-3.354 2.713,-6.067 6.067,-6.067Z" style="fill:#414141;"/><path d="M7.5,1c3.579,0 6.5,2.929 6.5,6.5c0,3.579 -2.912,6.5 -6.5,6.5c-3.588,0 -6.5,-2.921 -6.5,-6.5c0,-3.571 2.929,-6.5 6.5,-6.5Zm0,0.433c-3.354,0 -6.067,2.713 -6.067,6.067c0,3.363 2.713,6.067 6.067,6.067c3.363,0 6.067,-2.704 6.067,-6.067c0,-3.354 -2.704,-6.067 -6.067,-6.067Zm1.165,0.563c2.668,0.569 4.468,2.93 4.468,5.504c0,2.575 -1.802,4.937 -4.471,5.511c-0.046,0.01 -0.093,-0.015 -0.111,-0.059c-0.091,-0.193 -0.389,-0.686 -1.051,-0.686c-0.691,-0 -0.969,0.484 -1.052,0.682c-0.017,0.047 -0.065,0.074 -0.114,0.064c-2.659,-0.577 -4.468,-2.939 -4.468,-5.512c-0,-2.574 1.809,-4.935 4.469,-5.502c0.048,-0.01 0.096,0.017 0.112,0.063c0.085,0.195 0.363,0.673 1.053,0.673c0.69,0 0.968,-0.478 1.052,-0.674c0.017,-0.046 0.065,-0.073 0.113,-0.064Zm-3.869,8.789l-1.031,0c-0.347,0 -0.347,0.693 0,0.693l1.898,0c0.347,-0.173 -0.693,-0.693 -0.867,-0.693Zm6.422,0l-1.031,0c-0.173,0 -1.213,0.52 -0.867,0.693l1.898,0c0.347,0 0.347,-0.693 0,-0.693Zm-7.141,-5.98l-1.04,0c-0.347,0 -0.347,0.693 0,0.693l0.693,0c0.173,0 0.693,-0.693 0.347,-0.693Zm-1.066,1.993l-0.693,0c-0.347,0 -0.347,0.693 0,0.693l0.693,0c0.347,0 0.347,-0.693 0,-0.693Zm9.377,1.993l-0.693,0c-0.173,0 -0.693,0.693 -0.347,0.693l1.04,0c0.347,0 0.347,-0.693 0,-0.693Zm-4.892,-5.191c-2.152,-0 -3.898,1.747 -3.898,3.898c0,2.152 1.747,3.898 3.898,3.898c2.152,0 3.898,-1.747 3.898,-3.898c0,-2.152 -1.747,-3.898 -3.898,-3.898Zm5.152,3.198l-0.693,0c-0.347,0 -0.347,0.693 0,0.693l0.693,0c0.347,0 0.347,-0.693 0,-0.693Zm-5.997,-3.995l-1.907,0c-0.347,0 -0.347,0.693 0,0.693l1.04,0c0.173,0 1.213,-0.52 0.867,-0.693Zm-3.397,5.989l-0.685,0c-0.347,0 -0.347,0.693 0,0.693l1.031,0c0.347,0 -0.173,-0.693 -0.347,-0.693Zm6.977,-5.989l-1.907,0c-0.347,0.173 0.693,0.693 0.867,0.693l1.04,0c0.347,0 0.347,-0.693 0,-0.693Zm1.699,2.002l-1.04,0c-0.347,0 0.173,0.693 0.347,0.693l0.693,0c0.347,0 0.347,-0.693 0,-0.693Z" style="fill:#171717;"/><path d="M5.921,7.877l-0.199,0c-0.14,0 -0.253,-0.113 -0.253,-0.257l0,-0.772c0,-0.144 0.113,-0.257 0.253,-0.257l0.199,0l0,1.286Zm3.159,-1.286l0.199,0c0.14,0 0.253,0.113 0.253,0.257l0,0.772c0,0.144 -0.113,0.257 -0.253,0.257l-0.199,0l0,-1.286Zm-2.848,3.028l2.536,0c0.176,0 0.32,0.144 0.32,0.325c0,0.176 -0.144,0.32 -0.32,0.32l-2.536,0c-0.176,0 -0.32,-0.144 -0.32,-0.32c0,-0.181 0.144,-0.325 0.32,-0.325Z" style="fill:#a7a7a7;"/><path d="M8.75,5.689l-0.135,0c-0.055,0 -0.1,0.045 -0.1,0.1c0,0.174 0,0.529 0,0.703c-0,0.027 0.011,0.052 0.029,0.071c0.019,0.019 0.044,0.029 0.071,0.029c0.162,0 0.464,0 0.464,0l0,1.286l-0.464,0c-0.027,-0 -0.052,0.011 -0.071,0.029c-0.019,0.019 -0.029,0.044 -0.029,0.071c-0,0.37 -0,1.642 -0,1.642l-2.031,0l0,-1.642c0,-0.027 -0.011,-0.052 -0.029,-0.071c-0.019,-0.019 -0.044,-0.029 -0.071,-0.029c-0.162,0 -0.464,0 -0.464,0l0,-1.286l0.464,-0c0.027,0 0.052,-0.011 0.071,-0.029c0.019,-0.019 0.029,-0.044 0.029,-0.071c-0,-0.235 -0,-0.803 -0,-0.803l-0.248,0l0,-0.519c0.171,-0.582 0.42,-0.722 0.948,-0.916l0.632,0c0.533,0.104 0.754,0.438 0.934,0.916l0,0.519Z" style="fill:#ce4d4b;"/><path d="M8.75,5.17l0.081,0c0.108,0 0.194,0.117 0.194,0.262c0,0.14 -0.086,0.257 -0.194,0.257l-0.081,0l0,-0.519Zm-2.514,0.519l-0.068,0c-0.108,0 -0.19,-0.117 -0.19,-0.257c0,-0.144 0.081,-0.262 0.19,-0.262l0.068,0l0,0.519Zm0.948,-1.435c0.007,-0.17 0.144,-0.307 0.316,-0.307c0.171,0 0.309,0.137 0.316,0.307l-0.632,0Z" style="fill:#a7a7a7;"/></svg>