<?xml version="1.0" encoding="UTF-8" standalone="no"?><!DOCTYPE svg PUBLIC "-//W3C//DTD SVG 1.1//EN" "http://www.w3.org/Graphics/SVG/1.1/DTD/svg11.dtd"><svg width="100%" height="100%" viewBox="0 0 15 15" version="1.1" xmlns="http://www.w3.org/2000/svg" xmlns:xlink="http://www.w3.org/1999/xlink" xml:space="preserve" xmlns:serif="http://www.serif.com/" style="fill-rule:evenodd;clip-rule:evenodd;stroke-linejoin:round;stroke-miterlimit:2;"><path d="M4.25,9.088l-0.409,0c-0.288,0 -0.52,-0.232 -0.52,-0.529l0,-1.588c0,-0.297 0.232,-0.529 0.52,-0.529l0.409,0l0,2.646Zm6.5,-2.646l0.409,0c0.288,0 0.52,0.232 0.52,0.529l0,1.588c0,0.297 -0.232,0.529 -0.52,0.529l-0.409,0l0,-2.646Zm-5.859,6.231l5.219,0c0.362,0 0.659,0.297 0.659,0.669c0,0.362 -0.297,0.659 -0.659,0.659l-5.219,0c-0.362,0 -0.659,-0.297 -0.659,-0.659c0,-0.371 0.297,-0.669 0.659,-0.669Zm5.181,-9.156l0.167,0c0.223,0 0.399,0.241 0.399,0.539c0,0.288 -0.176,0.529 -0.399,0.529l-0.167,0l0,-1.068Zm-5.172,1.068l-0.139,0c-0.223,0 -0.39,-0.241 -0.39,-0.529c0,-0.297 0.167,-0.539 0.39,-0.539l0.139,0l0,1.068Zm1.95,-2.953c0.014,-0.349 0.297,-0.631 0.65,-0.631c0.353,0 0.635,0.282 0.65,0.631l-1.299,-0Z" style="fill:#414141;"/><path d="M10.072,4.584l-0.383,0c-0.055,0 -0.1,0.045 -0.1,0.1c0,0.323 0,1.334 0,1.657c-0,0.027 0.011,0.052 0.029,0.071c0.019,0.019 0.044,0.029 0.071,0.029c0.282,-0 1.061,-0 1.061,-0l0,2.646l-1.061,0c-0.055,0 -0.1,0.045 -0.1,0.1c0,0.58 0,3.484 0,3.484l-4.179,0l0,-3.484c-0,-0.055 -0.045,-0.1 -0.1,-0.1c-0.282,-0 -1.061,-0 -1.061,-0l0,-2.646l1.061,-0c0.027,-0 0.052,-0.011 0.071,-0.029c0.019,-0.019 0.029,-0.044 0.029,-0.071c0,-0.323 0,-1.334 0,-1.657c0,-0.027 -0.011,-0.052 -0.029,-0.071c-0.019,-0.019 -0.044,-0.029 -0.071,-0.029c-0.149,0 -0.411,0 -0.411,0l0,-1.068c0.353,-1.198 0.864,-1.486 1.95,-1.885l1.299,0c1.096,0.214 1.551,0.901 1.922,1.885l0,1.068Z" style="fill:#ce4d4b;"/></svg>