<svg xmlns="http://www.w3.org/2000/svg" xml:space="preserve" fill-rule="evenodd" stroke-linejoin="round" stroke-miterlimit="2" clip-rule="evenodd" viewBox="0 0 15 15"><path fill="#4166d0" d="M13.536 12.055a.464.464 0 0 1 0 .928.93.93 0 0 0-.557.306 2 2 0 0 1-.929.557 1.75 1.75 0 0 1-1.634-.344l-.362-.325-.01-.01a.715.715 0 0 0-1.011.01c-.139.111-.251.241-.39.344-.676.537-1.64.51-2.284-.065l-.362-.325a.7.7 0 0 0-.929 0c-.176.139-.334.306-.511.436a1.764 1.764 0 0 1-2.164-.056l-.334-.241a.87.87 0 0 0-.594-.288.464.464 0 0 1 0-.928h.056c.22-.013.44.039.631.149q.388.24.734.539a.78.78 0 0 0 .743.232.9.9 0 0 0 .279-.149c.139-.111.269-.241.409-.362a1.765 1.765 0 0 1 2.266 0c.149.121.288.26.436.381a.7.7 0 0 0 .929 0c.149-.121.288-.26.436-.381a1.765 1.765 0 0 1 2.275 0c.139.121.269.251.409.362a.7.7 0 0 0 .929 0l.436-.381a1.65 1.65 0 0 1 1.105-.39Zm0-2.5a.464.464 0 0 1 0 .928.93.93 0 0 0-.557.306 2 2 0 0 1-.929.557 1.75 1.75 0 0 1-1.634-.344l-.362-.325-.01-.01a.715.715 0 0 0-1.011.01c-.139.111-.251.241-.39.344-.676.537-1.64.51-2.284-.065l-.362-.325a.7.7 0 0 0-.929 0c-.176.139-.334.306-.511.436a1.764 1.764 0 0 1-2.164-.056l-.334-.241a.87.87 0 0 0-.594-.288.464.464 0 0 1 0-.928h.056c.22-.013.44.039.631.149q.388.24.734.539a.78.78 0 0 0 .743.232.9.9 0 0 0 .279-.149c.139-.111.269-.241.409-.362a1.765 1.765 0 0 1 2.266 0c.149.121.288.26.436.381a.7.7 0 0 0 .929 0c.149-.121.288-.26.436-.381a1.765 1.765 0 0 1 2.275 0c.139.121.269.251.409.362a.7.7 0 0 0 .929 0l.436-.381a1.65 1.65 0 0 1 1.105-.39Zm0-2.5a.464.464 0 0 1 0 .928.93.93 0 0 0-.557.306 2 2 0 0 1-.929.557 1.75 1.75 0 0 1-1.634-.344l-.362-.325-.01-.01a.715.715 0 0 0-1.011.01c-.139.111-.251.241-.39.344-.676.537-1.64.51-2.284-.065l-.362-.325a.7.7 0 0 0-.929 0c-.176.139-.334.306-.511.436a1.764 1.764 0 0 1-2.164-.056l-.334-.241a.87.87 0 0 0-.594-.288.464.464 0 0 1 0-.928h.056c.22-.013.44.039.631.149q.388.24.734.539a.78.78 0 0 0 .743.232.9.9 0 0 0 .279-.149c.139-.111.269-.241.409-.362a1.765 1.765 0 0 1 2.266 0c.149.121.288.26.436.381a.7.7 0 0 0 .929 0c.149-.121.288-.26.436-.381a1.765 1.765 0 0 1 2.275 0c.139.121.269.251.409.362a.7.7 0 0 0 .929 0l.436-.381a1.65 1.65 0 0 1 1.105-.39Z"/><path fill="#f4f4f4" d="M6.35 2.346h2.3s-.006-.29 0-.4c.02-.364.222-.698.525-.85a.99.99 0 0 1 .995.09c.439.321 1.973 1.475 2.4 1.8.235.179.38.469.38.76a.98.98 0 0 1-.38.76c-.427.325-1.961 1.479-2.4 1.8a.99.99 0 0 1-.995.09c-.305-.153-.505-.493-.525-.85-.006-.11 0-.4 0-.4h-2.3s.006.29 0 .4c-.02.364-.222.698-.525.85a.99.99 0 0 1-.995-.09 289 289 0 0 1-2.4-1.8.97.97 0 0 1-.38-.76c0-.289.145-.581.38-.76.427-.325 1.961-1.479 2.4-1.8a.99.99 0 0 1 .995-.09c.305.153.505.493.525.85.006.11 0 .4 0 .4"/><path fill="#172a61" d="M9.06 4.646H5.94a.09.09 0 0 0-.09.09v.81a.449.449 0 0 1-.72.36l-2.4-1.8a.45.45 0 0 1 0-.72l2.4-1.8a.448.448 0 0 1 .72.36v.81c0 .048.042.09.09.09h3.12c.048 0 .09-.042.09-.09v-.81a.449.449 0 0 1 .72-.36l2.4 1.8a.45.45 0 0 1 0 .72l-2.4 1.8a.448.448 0 0 1-.72-.36v-.81a.09.09 0 0 0-.09-.09"/></svg>