<?xml version="1.0" encoding="UTF-8" standalone="no"?><!DOCTYPE svg PUBLIC "-//W3C//DTD SVG 1.1//EN" "http://www.w3.org/Graphics/SVG/1.1/DTD/svg11.dtd"><svg width="100%" height="100%" viewBox="0 0 15 15" version="1.1" xmlns="http://www.w3.org/2000/svg" xmlns:xlink="http://www.w3.org/1999/xlink" xml:space="preserve" xmlns:serif="http://www.serif.com/" style="fill-rule:evenodd;clip-rule:evenodd;stroke-linejoin:round;stroke-miterlimit:2;"><path d="M1,2.75c0,-0.411 0.339,-0.75 0.75,-0.75l1.114,0c0.09,0 0.18,0.016 0.263,0.048l3.386,1.27c0.292,0.109 0.487,0.39 0.487,0.702l0,5.96c-0,0.312 -0.195,0.593 -0.487,0.702l-3.513,1.318l0,0.25c0,0.411 -0.339,0.75 -0.75,0.75l-0.5,0c-0.411,0 -0.75,-0.339 -0.75,-0.75l0,-9.5Zm3,5.736l0,-4.87c0,-0.104 -0.065,-0.197 -0.162,-0.234l-0.5,-0.187c-0.028,-0.011 -0.058,-0.016 -0.088,-0.016c-0.137,0 -0.25,0.113 -0.25,0.25l0,5.224c0,0.17 0.167,0.291 0.33,0.237l0.5,-0.166c0.102,-0.034 0.17,-0.131 0.17,-0.238Zm1,-4.307l0,3.808c-0,0 -0,0.001 -0,0.001c0,0.137 0.113,0.25 0.25,0.25c0.027,0 0.054,-0.004 0.08,-0.013l0.5,-0.167c0.102,-0.034 0.17,-0.131 0.17,-0.238l0,-3.454c0,-0.104 -0.065,-0.197 -0.162,-0.234l-0.5,-0.187c-0.028,-0.011 -0.058,-0.016 -0.088,-0.016c-0.137,0 -0.25,0.113 -0.25,0.25Zm9,-1.429c0,-0.411 -0.339,-0.75 -0.75,-0.75l-1.114,0c-0.09,0 -0.179,0.016 -0.263,0.048l-3.386,1.27c-0.292,0.109 -0.487,0.39 -0.487,0.702l0,5.96c0,0.312 0.195,0.593 0.487,0.702l3.513,1.318l0,0.25c0,0.414 0.336,0.75 0.75,0.75l0.5,0c0.411,0 0.75,-0.339 0.75,-0.75l0,-9.5Zm-2.83,5.974c-0.102,-0.034 -0.17,-0.131 -0.17,-0.238l-0,-4.87c0,-0.104 0.065,-0.197 0.162,-0.234l0.5,-0.187c0.028,-0.011 0.058,-0.016 0.088,-0.016c0.137,0 0.25,0.113 0.25,0.25c0,0 0,5.224 0,5.224c0,0.137 -0.113,0.25 -0.25,0.25c-0.027,0 -0.054,-0.004 -0.08,-0.013l-0.5,-0.166Zm-1.17,-4.545l0,3.807c0,0 0,0.001 0,0.001c0,0.137 -0.113,0.25 -0.25,0.25c-0.027,0 -0.054,-0.004 -0.08,-0.013l-0.5,-0.167c-0.101,-0.034 -0.17,-0.13 -0.17,-0.237l0,-3.454c0,-0.104 0.065,-0.197 0.162,-0.234l0.5,-0.187c0.028,-0.011 0.058,-0.016 0.088,-0.016c0.137,0 0.25,0.113 0.25,0.25Z" style="fill:#090909;fill-rule:nonzero;"/></svg>