<?xml version="1.0" encoding="UTF-8" standalone="no"?><!DOCTYPE svg PUBLIC "-//W3C//DTD SVG 1.1//EN" "http://www.w3.org/Graphics/SVG/1.1/DTD/svg11.dtd"><svg width="100%" height="100%" viewBox="0 0 15 15" version="1.1" xmlns="http://www.w3.org/2000/svg" xmlns:xlink="http://www.w3.org/1999/xlink" xml:space="preserve" xmlns:serif="http://www.serif.com/" style="fill-rule:evenodd;clip-rule:evenodd;stroke-linejoin:round;stroke-miterlimit:2;"><path d="M10.967,2.733l-1.733,0c-0.433,0 -0.433,0.867 0,0.867l1.733,0c0.433,0 0.433,0.867 0,0.867l-1.733,0c-0.433,0 -0.433,0.867 0,0.867l1.733,0c0.433,0 0.433,0.867 0,0.867l-1.733,0c-0.433,0 -0.433,0.867 0,0.867l1.733,0c0.433,0 0.433,0.867 0,0.867l-1.733,0c-0.433,0 -0.433,0.867 0,0.867l1.733,0c0.433,0 0.433,0.867 0,0.867l-1.733,0c-0.433,0 -0.433,0.867 0,0.867l1.733,0c0.433,0 0.433,0.867 0,0.867l-1.733,0c-0.433,0 -0.433,0.867 0,0.867l1.733,0c0.433,0 0.433,0.867 0,0.867l-1.733,0c-0.433,0 -0.433,0.867 0,0.867l3.467,0c0.433,0 0.433,-0.867 0.433,-0.867l0,-11.267c0,-0 0,-0.867 -0.433,-0.867l-3.467,0c-0.433,0 -0.433,0.867 0,0.867l1.733,0c0.433,0 0.433,0.867 0,0.867Z" style="fill:#ce4d4b;fill-rule:nonzero;"/><path d="M6.113,9.814c0.953,-0.581 1.82,0.312 1.82,1.153c0,0.529 -0.217,0.988 -0.676,1.196c-0.113,0.572 0.026,0.728 0.165,0.997c0.139,0.277 -0.208,0.624 -0.503,0.355c-0.251,-0.234 -0.381,-0.815 -0.373,-1.222c-0.641,-0.035 -1.213,-0.581 -1.213,-1.326l-0.217,-3.467l-0.433,0l-0.217,3.467c0,0.667 -0.529,1.3 -1.3,1.3c-0.763,0 -1.3,-0.563 -1.3,-1.3c0,-0.823 0.867,-1.733 1.881,-1.153c0.069,0.069 0.719,-8.814 1.153,-8.814c0.433,0 1.213,8.814 1.213,8.814Zm-2.947,0.503c-0.433,0 -0.65,0.217 -0.65,0.65c0,0.433 0.217,0.65 0.65,0.65c0.433,0 0.65,-0.433 0.65,-0.65c0,-0.433 -0.217,-0.65 -0.65,-0.65Zm3.467,0c-0.433,0 -0.65,0.217 -0.65,0.65c0,0.217 0.217,0.65 0.65,0.65c0.433,0 0.65,-0.217 0.65,-0.65c0,-0.433 -0.217,-0.65 -0.65,-0.65Z" style="fill:#c5cfdc;fill-rule:nonzero;"/></svg>