<?xml version="1.0" encoding="UTF-8" standalone="no"?><!DOCTYPE svg PUBLIC "-//W3C//DTD SVG 1.1//EN" "http://www.w3.org/Graphics/SVG/1.1/DTD/svg11.dtd"><svg width="100%" height="100%" viewBox="0 0 15 15" version="1.1" xmlns="http://www.w3.org/2000/svg" xmlns:xlink="http://www.w3.org/1999/xlink" xml:space="preserve" xmlns:serif="http://www.serif.com/" style="fill-rule:evenodd;clip-rule:evenodd;stroke-linejoin:round;stroke-miterlimit:2;"><path d="M7.5,5.25l-4.199,-3.965c0.187,-0.182 0.437,-0.285 0.699,-0.285l7,-0c0.261,-0 0.512,0.102 0.699,0.285l-4.199,3.965Zm0,0l4.436,4.189l-0.025,0.061c-0.049,0.108 -0.118,0.207 -0.203,0.293c0,0 -2.841,2.841 -3.854,3.854c-0.195,0.195 -0.512,0.195 -0.707,-0c-1.013,-1.013 -3.854,-3.854 -3.854,-3.854c-0.086,-0.086 -0.154,-0.185 -0.203,-0.293l-0.025,-0.061l4.436,-4.189Z" style="fill:#00329b;"/><path d="M7.5,5.25l4.199,-3.965l0.008,0.008c0.188,0.188 0.293,0.442 0.293,0.707l-0,7.086c-0,0.122 -0.022,0.241 -0.064,0.353l-4.436,-4.189Zm0,0l-4.436,4.189c-0.042,-0.112 -0.064,-0.231 -0.064,-0.353l-0,-7.086c-0,-0.265 0.105,-0.52 0.293,-0.707l0.008,-0.008l4.199,3.965Z" style="fill:#ebebeb;"/></svg>