<?xml version="1.0" encoding="UTF-8" standalone="no"?><!DOCTYPE svg PUBLIC "-//W3C//DTD SVG 1.1//EN" "http://www.w3.org/Graphics/SVG/1.1/DTD/svg11.dtd"><svg width="100%" height="100%" viewBox="0 0 15 15" version="1.1" xmlns="http://www.w3.org/2000/svg" xmlns:xlink="http://www.w3.org/1999/xlink" xml:space="preserve" xmlns:serif="http://www.serif.com/" style="fill-rule:evenodd;clip-rule:evenodd;stroke-linejoin:round;stroke-miterlimit:2;"><path d="M3,4.5l9,0l0,6l-9,0l0,-6Zm4.5,1c-0.28,0 -0.5,0.22 -0.5,0.5l0,1c0,0.28 0.22,0.5 0.5,0.5l3,0c0.27,0 0.5,-0.22 0.5,-0.5l0,-1c0,-0.28 -0.23,-0.5 -0.5,-0.5l-3,0Zm-3,0c-0.27,0 -0.5,0.22 -0.5,0.5l0,3c0,0.28 0.23,0.5 0.5,0.5l1,0c0.28,0 0.5,-0.22 0.5,-0.5l0,-3c0,-0.28 -0.22,-0.5 -0.5,-0.5l-1,0Zm3,3c-0.28,0 -0.5,0.22 -0.5,0.5c0,0.28 0.22,0.5 0.5,0.5l3,0c0.27,0 0.5,-0.22 0.5,-0.5c0,-0.28 -0.23,-0.5 -0.5,-0.5l-3,0Z" style="fill:#00329b;"/><path d="M12.99,4.5l-0,9.9c0,0.055 -0.045,0.1 -0.1,0.1l-1.29,0c-0.055,-0 -0.1,-0.045 -0.1,-0.1c0,0 0,-2.29 0,-2.8c-0,-0.027 -0.011,-0.052 -0.029,-0.071c-0.019,-0.019 -0.044,-0.029 -0.071,-0.029c-0.85,-0 -6.85,-0 -7.7,-0c-0.027,-0 -0.052,0.011 -0.071,0.029c-0.019,0.019 -0.029,0.044 -0.029,0.071c0,0.51 0,2.8 0,2.8c0,0.055 -0.045,0.1 -0.1,0.1l-1.39,0c-0.055,-0 -0.1,-0.045 -0.1,-0.1l0,-9.9l-1.47,0c-0.28,0 -0.5,-0.22 -0.5,-0.5c-0,-0.12 0.04,-0.24 0.13,-0.33l2.532,-2.836c0.19,-0.213 0.461,-0.334 0.746,-0.334l8.104,0c0.285,-0 0.556,0.122 0.746,0.334l2.532,2.836c0.19,0.2 0.17,0.52 -0.04,0.7c-0.09,0.08 -0.21,0.13 -0.33,0.13l-1.47,0Zm-9.89,0c-0.027,-0 -0.052,0.011 -0.071,0.029c-0.019,0.019 -0.029,0.044 -0.029,0.071l-0,5.8c-0,0.027 0.011,0.052 0.029,0.071c0.019,0.019 0.044,0.029 0.071,0.029l8.8,-0c0.027,0 0.052,-0.011 0.071,-0.029c0.019,-0.019 0.029,-0.044 0.029,-0.071l0,-5.8c0,-0.027 -0.011,-0.052 -0.029,-0.071c-0.019,-0.019 -0.044,-0.029 -0.071,-0.029l-8.8,0Z" style="fill:#171717;"/><path d="M7.5,8.5l3,0c0.27,0 0.5,0.22 0.5,0.5c0,0.28 -0.23,0.5 -0.5,0.5l-3,0c-0.28,0 -0.5,-0.22 -0.5,-0.5c0,-0.28 0.22,-0.5 0.5,-0.5Zm-3,-3l1,0c0.28,0 0.5,0.22 0.5,0.5l0,3c0,0.28 -0.22,0.5 -0.5,0.5l-1,0c-0.27,0 -0.5,-0.22 -0.5,-0.5l0,-3c0,-0.28 0.23,-0.5 0.5,-0.5Zm3,0l3,0c0.27,0 0.5,0.22 0.5,0.5l0,1c0,0.28 -0.23,0.5 -0.5,0.5l-3,0c-0.28,0 -0.5,-0.22 -0.5,-0.5l0,-1c0,-0.28 0.22,-0.5 0.5,-0.5Z" style="fill:#f4f4f4;"/></svg>