<?xml version="1.0" encoding="UTF-8" standalone="no"?><!DOCTYPE svg PUBLIC "-//W3C//DTD SVG 1.1//EN" "http://www.w3.org/Graphics/SVG/1.1/DTD/svg11.dtd"><svg width="100%" height="100%" viewBox="0 0 15 15" version="1.1" xmlns="http://www.w3.org/2000/svg" xmlns:xlink="http://www.w3.org/1999/xlink" xml:space="preserve" xmlns:serif="http://www.serif.com/" style="fill-rule:evenodd;clip-rule:evenodd;stroke-linejoin:round;stroke-miterlimit:2;"><path d="M2,1c-0.552,0 -1,0.448 -1,1l0,11c0,0.552 0.448,1 1,1l11,-0c0.552,-0 1,-0.448 1,-1l-0,-11c-0,-0.552 -0.448,-1 -1,-1l-11,0Z" style="fill:#00329b;"/><path d="M6.026,7.312c-0.184,-0.184 -0.239,-0.46 -0.139,-0.701c0.1,-0.24 0.334,-0.397 0.594,-0.397l1.341,-0c0.17,-0 0.334,0.068 0.455,0.188c0.121,0.121 0.188,0.284 0.188,0.455l-0,3.269c-0,0.171 0.068,0.334 0.188,0.455l0.321,0.321c0.184,0.184 0.239,0.46 0.139,0.701c-0.099,0.24 -0.334,0.397 -0.594,0.397l-2.039,-0c-0.26,-0 -0.494,-0.157 -0.594,-0.397c-0.099,-0.24 -0.044,-0.517 0.139,-0.701l0.321,-0.321c0.121,-0.121 0.188,-0.284 0.188,-0.455l0,-2.039c0,-0.171 -0.068,-0.334 -0.188,-0.455l-0.321,-0.321Zm1.474,-1.74c-0.707,0 -1.286,-0.579 -1.286,-1.286c0,-0.707 0.579,-1.286 1.286,-1.286c0.707,0 1.286,0.579 1.286,1.286c0,0.707 -0.579,1.286 -1.286,1.286Z" style="fill:#ebebeb;"/></svg>