<svg xmlns="http://www.w3.org/2000/svg" xml:space="preserve" fill-rule="evenodd" stroke-linejoin="round" stroke-miterlimit="2" clip-rule="evenodd" viewBox="0 0 15 15"><path fill="#272727" d="M4 4V.727C4 .325 4.285 0 4.636 0h5.727c.351 0 .636.326.636.727V4h3.273c.402 0 .727.285.727.636v5.727c0 .351-.326.636-.727.636h-3.273v3.273c0 .402-.285.727-.636.727H4.636c-.351 0-.636-.326-.636-.727v-3.273H.727c-.402 0-.727-.285-.727-.636V4.636C0 4.285.326 4 .727 4z"/><path fill="#eee" d="M2.209 7.818H1.064a.06.06 0 0 1-.045-.019A.06.06 0 0 1 1 7.754v-.509q0-.026.019-.045a.06.06 0 0 1 .045-.019h1.145q.026 0 .045.019a.06.06 0 0 1 .019.045v.509a.06.06 0 0 1-.019.045.06.06 0 0 1-.045.019m2 0H3.064a.06.06 0 0 1-.045-.019A.06.06 0 0 1 3 7.754v-.509q0-.026.019-.045a.06.06 0 0 1 .045-.019h1.145q.026 0 .045.019a.06.06 0 0 1 .019.045v.509a.06.06 0 0 1-.019.045.06.06 0 0 1-.045.019m2 0H5.064a.06.06 0 0 1-.045-.019A.06.06 0 0 1 5 7.754v-.509q0-.026.019-.045a.06.06 0 0 1 .045-.019h1.145q.026 0 .045.019a.06.06 0 0 1 .019.045v.509a.06.06 0 0 1-.019.045.06.06 0 0 1-.045.019m3.727 0H8.791a.06.06 0 0 1-.045-.019.06.06 0 0 1-.019-.045v-.509q0-.026.019-.045a.06.06 0 0 1 .045-.019h1.145q.026 0 .045.019a.06.06 0 0 1 .019.045v.509a.06.06 0 0 1-.019.045.06.06 0 0 1-.045.019m2 0h-1.145a.06.06 0 0 1-.045-.019.06.06 0 0 1-.019-.045v-.509q0-.026.019-.045a.06.06 0 0 1 .045-.019h1.145q.026 0 .045.019a.06.06 0 0 1 .019.045v.509a.06.06 0 0 1-.019.045.06.06 0 0 1-.045.019m2 0h-1.145a.06.06 0 0 1-.045-.019.06.06 0 0 1-.019-.045v-.509q0-.026.019-.045a.06.06 0 0 1 .045-.019h1.145q.026 0 .045.019a.06.06 0 0 1 .019.045v.509a.06.06 0 0 1-.019.045.06.06 0 0 1-.045.019M0 7.182h.255q.026 0 .045.019a.06.06 0 0 1 .019.045v.509A.06.06 0 0 1 .3 7.8a.06.06 0 0 1-.045.019H0zm15 .636h-.255a.06.06 0 0 1-.045-.019.06.06 0 0 1-.019-.045v-.509q0-.026.019-.045a.06.06 0 0 1 .045-.019H15zm-7.182 4.973v1.145a.06.06 0 0 1-.019.045.06.06 0 0 1-.045.019h-.509a.06.06 0 0 1-.045-.019.06.06 0 0 1-.019-.045v-1.145q0-.026.019-.045a.06.06 0 0 1 .045-.019h.509q.026 0 .045.019a.06.06 0 0 1 .019.045m0-2v1.145a.06.06 0 0 1-.019.045.06.06 0 0 1-.045.019h-.509a.06.06 0 0 1-.045-.019.06.06 0 0 1-.019-.045v-1.145q0-.026.019-.045a.06.06 0 0 1 .045-.019h.509q.026 0 .045.019a.06.06 0 0 1 .019.045m0-2v1.145a.06.06 0 0 1-.019.045.06.06 0 0 1-.045.019h-.509a.06.06 0 0 1-.045-.019.06.06 0 0 1-.019-.045V8.791q0-.026.019-.045a.06.06 0 0 1 .045-.019h.509q.026 0 .045.019a.06.06 0 0 1 .019.045m0-3.727v1.145a.06.06 0 0 1-.019.045.06.06 0 0 1-.045.019h-.509a.06.06 0 0 1-.045-.019.06.06 0 0 1-.019-.045V5.064q0-.026.019-.045A.06.06 0 0 1 7.245 5h.509q.026 0 .045.019a.06.06 0 0 1 .019.045m0-2v1.145a.06.06 0 0 1-.019.045.06.06 0 0 1-.045.019h-.509a.06.06 0 0 1-.045-.019.06.06 0 0 1-.019-.045V3.064q0-.026.019-.045A.06.06 0 0 1 7.245 3h.509q.026 0 .045.019a.06.06 0 0 1 .019.045m0-2v1.145a.06.06 0 0 1-.019.045.06.06 0 0 1-.045.019h-.509a.06.06 0 0 1-.045-.019.06.06 0 0 1-.019-.045V1.064q0-.026.019-.045A.06.06 0 0 1 7.245 1h.509q.026 0 .045.019a.06.06 0 0 1 .019.045M7.182 15v-.255q0-.026.019-.045a.06.06 0 0 1 .045-.019h.509q.026 0 .045.019a.06.06 0 0 1 .019.045V15zm.636-15v.255A.06.06 0 0 1 7.799.3a.06.06 0 0 1-.045.019h-.509A.06.06 0 0 1 7.2.3a.06.06 0 0 1-.019-.045V0z"/></svg>