<?xml version="1.0" encoding="UTF-8" standalone="no"?><!DOCTYPE svg PUBLIC "-//W3C//DTD SVG 1.1//EN" "http://www.w3.org/Graphics/SVG/1.1/DTD/svg11.dtd"><svg width="100%" height="100%" viewBox="0 0 15 15" version="1.1" xmlns="http://www.w3.org/2000/svg" xmlns:xlink="http://www.w3.org/1999/xlink" xml:space="preserve" xmlns:serif="http://www.serif.com/" style="fill-rule:evenodd;clip-rule:evenodd;stroke-linejoin:round;stroke-miterlimit:2;"><path d="M9.1,10.4c-0,0 -0.1,0.1 -0.1,0.1c-0,0 0,0.1 0.1,0.1c0.4,0.2 1.3,0.4 1.6,0.5c0,0 0.1,0.1 0.1,0.1c-0.1,0.6 -0.7,1 -1.3,1l-3.9,0c-0.6,0 -1.2,-0.5 -1.3,-1.1c0,0 -0.1,-0.5 -0.1,-0.8c-0,-0 0,-0.1 0.1,-0.1c0.3,-0.1 1.2,-0.4 1.7,-0.6c0,-0 0.1,-0.1 0.1,-0.1c-0,-0 -0,-0.1 -0.1,-0.1c-0.6,-0.2 -1.7,-0.6 -2,-0.7c-0,-0 -0.1,-0 -0.1,-0.1c-0,-0.2 -0.1,-0.8 -0.2,-1c-0,-0 0,-0.1 0.1,-0.1c0.3,-0.1 1.3,-0.4 1.7,-0.6c0,-0 0.1,-0.1 0.1,-0.1c0,-0 -0,-0.1 -0.1,-0.1c-0.6,-0.2 -1.8,-0.6 -2.1,-0.7c-0,-0 -0.1,-0 -0.1,-0.1c-0,-0.2 -0.1,-0.7 -0.2,-0.9c-0,-0 0,-0.1 0.1,-0.1c0.3,-0.1 1.3,-0.4 1.8,-0.6c0,-0 0.1,-0.1 0.1,-0.1c-0,-0 -0,-0.1 -0.1,-0.1c-0.5,-0.2 -1.6,-0.5 -1.9,-0.6c-0.1,-0 -0.1,-0.1 -0.1,-0.1c0.1,-0.4 0.5,-0.8 1,-0.9c0.1,-0 0.2,-0 0.2,-0l6.4,0c0.7,0 1.3,0.6 1.3,1.3c0,0.1 -0,0.3 -0.1,0.5c-0,0 -0,0.1 -0.1,0.1c-0.3,0.1 -1.4,0.5 -1.9,0.6c-0,0 -0.1,0.1 -0.1,0.1c-0,0 0,0.1 0.1,0.1c0.5,0.2 1.4,0.5 1.6,0.5c0,0 0.1,0.1 0.1,0.1c-0,0.2 -0.2,0.9 -0.2,1.1c-0,0 -0,0.1 -0.1,0.1c-0.3,0.1 -1.4,0.4 -1.9,0.6c-0,0 -0.1,0.1 -0.1,0.1c-0,0 0,0.1 0.1,0.1c0.5,0.2 1.3,0.4 1.6,0.5c0,0 0.1,0.1 0.1,0.1c-0,0.2 -0.2,0.9 -0.2,1.1c-0,0 -0,0.1 -0.1,0.1c-0.3,0.1 -1.3,0.4 -1.8,0.6Z" style="fill:#895100;"/><path d="M7.1,1.4c-0,-0.1 0,-0.2 0.1,-0.3c0.1,-0.1 0.2,-0.1 0.3,-0.1c0,0 0,0 0,0c0.1,0 0.2,0 0.3,0.1c0.1,0.1 0.1,0.2 0.1,0.3c0,0.1 0,0.3 0,0.5c0,0.1 -0,0.2 -0.1,0.3c-0.1,0.1 -0.2,0.1 -0.3,0.1c-0,-0 -0,-0 -0,-0c-0.1,-0 -0.2,-0 -0.3,-0.1c-0.1,-0.1 -0.1,-0.2 -0.1,-0.3c-0,-0.1 -0,-0.3 -0,-0.5Zm0,11.7c-0,-0.1 0,-0.2 0.1,-0.3c0.1,-0.1 0.2,-0.1 0.3,-0.1c0,0 0,0 0,0c0.1,0 0.2,0 0.3,0.1c0.1,0.1 0.1,0.2 0.1,0.3c0,0.1 0,0.3 0,0.5c0,0.1 -0,0.2 -0.1,0.3c-0.1,0.1 -0.2,0.1 -0.3,0.1c-0,-0 -0,-0 -0,-0c-0.1,-0 -0.2,-0 -0.3,-0.1c-0.1,-0.1 -0.1,-0.2 -0.1,-0.3c-0,-0.1 -0,-0.3 -0,-0.5Z" style="fill:#272727;"/></svg>