<svg xmlns="http://www.w3.org/2000/svg" xml:space="preserve" fill-rule="evenodd" stroke-linejoin="round" stroke-miterlimit="2" clip-rule="evenodd" viewBox="0 0 15 15"><path fill="#272727" fill-rule="nonzero" d="M1 10.5a.5.5 0 0 1 .5-.5h6a.5.5 0 0 1 .5.5v3a.5.5 0 0 1-.5.5h-6a.5.5 0 0 1-.5-.5zm8 1a.5.5 0 0 1 .5-.5h4a.5.5 0 0 1 .5.5v2a.5.5 0 0 1-.5.5h-4a.5.5 0 0 1-.5-.5z"/><path fill="#db8900" fill-rule="nonzero" d="M6.5 6a.5.5 0 0 1-.5-.5v-1a.5.5 0 0 1 .5-.5h3.4a.1.1 0 0 0 .1-.1V3a.5.5 0 0 1 .8-.4l2.667 2a.5.5 0 0 1 0 .8l-2.667 2A.5.5 0 0 1 10 7v-.9a.1.1 0 0 0-.1-.1z"/></svg>