<svg xmlns="http://www.w3.org/2000/svg" xml:space="preserve" fill-rule="evenodd" stroke-linejoin="round" stroke-miterlimit="2" clip-rule="evenodd" viewBox="0 0 15 15"><path fill="#272727" fill-rule="nonzero" d="M1 4.862a.5.5 0 0 1 .748-.434l6 3.429A.5.5 0 0 1 8 8.291v5.21a.5.5 0 0 1-.5.5h-6a.5.5 0 0 1-.5-.5zM9 11.5a.5.5 0 0 1 .5-.5h4a.5.5 0 0 1 .5.5v2a.5.5 0 0 1-.5.5h-4a.5.5 0 0 1-.5-.5z"/><path fill="#db8900" fill-rule="nonzero" d="M7.646 2.888a.5.5 0 0 1 0-.708l.707-.707a.5.5 0 0 1 .708 0l2.404 2.404a.1.1 0 0 0 .071.029.1.1 0 0 0 .071-.029l.636-.636a.5.5 0 0 1 .849.283l.471 3.3a.5.5 0 0 1-.565.565l-3.3-.471a.501.501 0 0 1-.283-.849l.636-.636a.1.1 0 0 0 .029-.071.1.1 0 0 0-.029-.071z"/></svg>