<svg xmlns="http://www.w3.org/2000/svg" xml:space="preserve" fill-rule="evenodd" stroke-linejoin="round" stroke-miterlimit="2" clip-rule="evenodd" viewBox="0 0 15 15"><path fill="#272727" fill-rule="nonzero" d="M1 1.5a.5.5 0 0 1 .5-.5h6a.5.5 0 0 1 .5.5v12a.5.5 0 0 1-.5.5h-6a.5.5 0 0 1-.5-.5z"/><path fill="#db8900" fill-rule="nonzero" d="M10.5 1.5A.5.5 0 0 1 11 1h1a.5.5 0 0 1 .5.5v3.4q.001.042.029.071A.1.1 0 0 0 12.6 5h.9a.5.5 0 0 1 .4.8l-2 2.667a.5.5 0 0 1-.8 0L9.1 5.8a.5.5 0 0 1 .4-.8h.9a.1.1 0 0 0 .1-.1z"/><path fill="#272727" fill-rule="nonzero" d="M9 11.5a.5.5 0 0 1 .5-.5h4a.5.5 0 0 1 .5.5v2a.5.5 0 0 1-.5.5h-4a.5.5 0 0 1-.5-.5z"/></svg>