<svg xmlns="http://www.w3.org/2000/svg" xml:space="preserve" fill-rule="evenodd" stroke-linejoin="round" stroke-miterlimit="2" clip-rule="evenodd" viewBox="0 0 15 15"><path fill="#272727" fill-rule="nonzero" d="M1 6.5a.5.5 0 0 1 .5-.5h6a.5.5 0 0 1 .5.5v7a.5.5 0 0 1-.5.5h-6a.5.5 0 0 1-.5-.5zm8 5a.5.5 0 0 1 .5-.5h4a.5.5 0 0 1 .5.5v2a.5.5 0 0 1-.5.5h-4a.5.5 0 0 1-.5-.5z"/><path fill="#db8900" fill-rule="nonzero" d="M10.958 6.53a.3.3 0 0 1-.3-.326 3.4 3.4 0 0 1 .352-1.063c.132-.251.39-.51.75-.79q.36-.27.57-.47a1.6 1.6 0 0 0 .31-.39q.1-.2.1-.47 0-.41-.29-.62-.29-.22-.81-.22-.47 0-.9.14a6 6 0 0 0-.422.155.5.5 0 0 1-.639-.246l-.052-.106a.5.5 0 0 1 .258-.679q.282-.114.584-.205.58-.17 1.28-.17 1.07 0 1.65.52.6.52.6 1.35 0 .46-.15.79a2 2 0 0 1-.42.6 7 7 0 0 1-.68.59q-.33.26-.51.44c-.241.256-.294.622-.298.877a.29.29 0 0 1-.288.281c-.209.012-.485.012-.696.012Zm-.348 1.58q0-.45.23-.63a.95.95 0 0 1 .59-.19q.33 0 .57.19.25.18.25.63 0 .44-.25.63a.86.86 0 0 1-.57.19.95.95 0 0 1-.59-.19q-.23-.19-.23-.63"/></svg>