<svg xmlns="http://www.w3.org/2000/svg" xml:space="preserve" fill-rule="evenodd" stroke-linejoin="round" stroke-miterlimit="2" clip-rule="evenodd" viewBox="0 0 50 50"><path fill="#d39f10" d="M.748 27.1a.402.402 0 0 0-.394.473 6.47 6.47 0 0 0 6.336 5.158 6.456 6.456 0 0 0 6.321-5.158.397.397 0 0 0-.389-.467c-2.006-.004-9.869-.004-11.874-.004Z"/><path fill="#472a00" d="M35.17 40.1c0 .55-.45 1-1 1H15.51c-.55 0-1-.45-1-1s.45-.99 1-.99h18.66c.55 0 1 .44 1 .99m-20.54 2.01a.5.5 0 0 1 .5-.5h19.44a.5.5 0 0 1 .5.5V44a.5.5 0 0 1-.5.5H15.13a.5.5 0 0 1-.5-.5z"/><path fill="#d39f10" d="M37.358 27.1a.402.402 0 0 0-.394.473c.609 2.947 3.21 5.158 6.326 5.158a6.45 6.45 0 0 0 6.321-5.158.397.397 0 0 0-.389-.467c-2.005-.004-9.86-.004-11.865-.004Z"/><path fill="#d39f10" d="M49.595 25.09a.5.5 0 0 1-.405-.206L44.1 17.87h2.8c.68 0 1.23-.56 1.23-1.25 0-.68-.55-1.24-1.23-1.24H32.39a.5.5 0 0 1-.464-.314 7.33 7.33 0 0 0-5.506-4.416v-3.9c0-.69-.56-1.25-1.25-1.25l-.12.01-.12-.01c-.69 0-1.24.55-1.24 1.25v3.9a7.35 7.35 0 0 0-5.508 4.415.5.5 0 0 1-.462.312c-2.215.003-14.51.003-14.51.003-.68 0-1.23.55-1.23 1.24s.55 1.25 1.23 1.25h2.68L.65 25.09H.397a.397.397 0 0 0-.397.397v.533a.4.4 0 0 0 .4.4H13a.4.4 0 0 0 .4-.4v-.53a.4.4 0 0 0-.4-.4h-.005a.5.5 0 0 1-.405-.206L7.5 17.87h11.284a.97.97 0 0 0 .956-.82c.04-.12.07-.25.07-.38a5.32 5.32 0 0 1 3.9-3.93l-.05 13.7c-.098 4.595-2.059 8.672-5.059 11.288a.494.494 0 0 0 .313.877c2.903.006 9.413.006 12.318.006a.5.5 0 0 0 .316-.887c-3.01-2.611-4.971-6.689-5.069-11.284l-.05-13.7c1.93.47 3.44 2 3.89 3.93 0 .13.03.26.08.38l.007.049a.9.9 0 0 0 .891.771h11.212l-5.09 7.014a.5.5 0 0 1-.405.206h-.095a.3.3 0 0 0-.3.3v.73a.3.3 0 0 0 .3.3h12.79a.3.3 0 0 0 .3-.3v-.73a.3.3 0 0 0-.3-.3h-.115Zm-5.665.01a.1.1 0 0 1-.1-.1v-5.362a.1.1 0 0 1 .181-.059l3.894 5.362a.1.1 0 0 1-.081.159zm-36.6 0a.1.1 0 0 1-.1-.1v-5.362a.1.1 0 0 1 .181-.059l3.884 5.361a.1.1 0 0 1-.081.159H7.33Zm35.43-.1a.1.1 0 0 1-.1.1l-3.894-.009a.1.1 0 0 1-.081-.159l3.894-5.353a.1.1 0 0 1 .181.059zm-36.6 0a.1.1 0 0 1-.1.1l-3.884-.009a.1.1 0 0 1-.081-.159l3.884-5.352a.1.1 0 0 1 .181.059z"/><path fill="#d39f10" d="M7.94 13.64c0 .68-.56 1.24-1.24 1.24-.69 0-1.25-.56-1.25-1.24 0-.69.56-1.25 1.25-1.25.68 0 1.24.56 1.24 1.25m36.6-.07c0 .69-.56 1.24-1.24 1.24-.69 0-1.24-.55-1.24-1.24s.55-1.25 1.24-1.25 1.24.56 1.24 1.25"/></svg>