<?xml version="1.0" encoding="UTF-8" standalone="no"?><!DOCTYPE svg PUBLIC "-//W3C//DTD SVG 1.1//EN" "http://www.w3.org/Graphics/SVG/1.1/DTD/svg11.dtd"><svg width="100%" height="100%" viewBox="0 0 50 50" version="1.1" xmlns="http://www.w3.org/2000/svg" xmlns:xlink="http://www.w3.org/1999/xlink" xml:space="preserve" xmlns:serif="http://www.serif.com/" style="fill-rule:evenodd;clip-rule:evenodd;stroke-linejoin:round;stroke-miterlimit:2;"><path d="M0.748,27.1c-0.119,-0 -0.232,0.053 -0.308,0.144c-0.076,0.091 -0.108,0.212 -0.086,0.329c0.609,2.947 3.211,5.158 6.336,5.158c3.116,0 5.717,-2.211 6.321,-5.158c0.021,-0.116 -0.01,-0.235 -0.085,-0.325c-0.075,-0.09 -0.187,-0.142 -0.304,-0.142c-2.006,-0.004 -9.869,-0.004 -11.874,-0.004Z" style="fill:#d39f10;"/><path d="M35.17,40.1c0,0.55 -0.45,1 -1,1l-18.66,0c-0.55,0 -1,-0.45 -1,-1c0,-0.55 0.45,-0.99 1,-0.99l18.66,0c0.55,0 1,0.44 1,0.99Z" style="fill:#472a00;"/><path d="M14.63,42.11c0,-0.133 0.053,-0.26 0.146,-0.354c0.094,-0.094 0.221,-0.146 0.354,-0.146l19.44,-0c0.133,-0 0.26,0.053 0.354,0.146c0.094,0.094 0.146,0.221 0.146,0.354l-0,1.89c-0,0.133 -0.053,0.26 -0.146,0.354c-0.094,0.094 -0.221,0.146 -0.354,0.146l-19.44,0c-0.133,0 -0.26,-0.053 -0.354,-0.146c-0.094,-0.094 -0.146,-0.221 -0.146,-0.354l0,-1.89Z" style="fill:#472a00;"/><path d="M37.358,27.1c-0.119,-0 -0.232,0.053 -0.308,0.144c-0.076,0.091 -0.108,0.212 -0.086,0.329c0.609,2.947 3.21,5.158 6.326,5.158c3.125,0 5.718,-2.211 6.321,-5.158c0.021,-0.116 -0.01,-0.235 -0.085,-0.325c-0.075,-0.09 -0.187,-0.142 -0.304,-0.142c-2.005,-0.004 -9.86,-0.004 -11.865,-0.004Z" style="fill:#d39f10;"/><path d="M49.595,25.09c-0.16,0 -0.311,-0.077 -0.405,-0.206l-5.09,-7.014l2.8,0c0.68,0 1.23,-0.56 1.23,-1.25c0,-0.68 -0.55,-1.24 -1.23,-1.24l-14.51,0c-0.204,-0 -0.388,-0.125 -0.464,-0.314c-0.943,-2.283 -3.01,-3.985 -5.506,-4.416l0,-3.9c0,-0.69 -0.56,-1.25 -1.25,-1.25l-0.12,0.01l-0.12,-0.01c-0.69,0 -1.24,0.55 -1.24,1.25l0,3.9c-2.496,0.44 -4.563,2.133 -5.508,4.415c-0.076,0.189 -0.258,0.312 -0.462,0.312c-2.215,0.003 -14.51,0.003 -14.51,0.003c-0.68,0 -1.23,0.55 -1.23,1.24c0,0.69 0.55,1.25 1.23,1.25l2.68,0l-5.24,7.22l-0.253,0c-0.105,-0 -0.206,0.042 -0.281,0.116c-0.074,0.074 -0.116,0.175 -0.116,0.281l-0,0.533c0,0.221 0.179,0.4 0.4,0.4l12.6,0c0.221,-0 0.4,-0.179 0.4,-0.4l-0,-0.53c-0,-0.221 -0.179,-0.4 -0.4,-0.4l-0.005,0c-0.16,0 -0.311,-0.077 -0.405,-0.206l-5.09,-7.014l11.284,0c0.477,-0 0.883,-0.348 0.956,-0.82c0.04,-0.12 0.07,-0.25 0.07,-0.38c0.46,-1.93 1.97,-3.46 3.9,-3.93l-0.05,13.7c-0.098,4.595 -2.059,8.672 -5.059,11.288c-0.162,0.132 -0.223,0.352 -0.152,0.549c0.07,0.197 0.257,0.328 0.465,0.328c2.903,0.006 9.413,0.006 12.318,0.006c0.211,-0 0.399,-0.133 0.47,-0.332c0.071,-0.199 0.009,-0.421 -0.154,-0.555c-3.01,-2.611 -4.971,-6.689 -5.069,-11.284l-0.05,-13.7c1.93,0.47 3.44,2 3.89,3.93c0,0.13 0.03,0.26 0.08,0.38l0.007,0.049c0.064,0.443 0.443,0.771 0.891,0.771l11.212,0l-5.09,7.014c-0.094,0.13 -0.245,0.206 -0.405,0.206l-0.095,0c-0.08,0 -0.156,0.032 -0.212,0.088c-0.056,0.056 -0.088,0.133 -0.088,0.212l-0,0.73c-0,0.08 0.032,0.156 0.088,0.212c0.056,0.056 0.133,0.088 0.212,0.088l12.79,-0c0.08,-0 0.156,-0.032 0.212,-0.088c0.056,-0.056 0.088,-0.133 0.088,-0.212l0,-0.73c0,-0.08 -0.032,-0.156 -0.088,-0.212c-0.056,-0.056 -0.133,-0.088 -0.212,-0.088l-0.115,0Zm-5.665,0.01c-0.055,-0 -0.1,-0.045 -0.1,-0.1l0,-5.362c0,-0.043 0.028,-0.082 0.069,-0.095c0.041,-0.013 0.086,0.001 0.112,0.036l3.894,5.362c0.022,0.03 0.025,0.071 0.008,0.104c-0.017,0.033 -0.051,0.055 -0.089,0.055l-3.894,0Zm-36.6,-0c-0.055,0 -0.1,-0.045 -0.1,-0.1l-0,-5.362c0,-0.043 0.028,-0.082 0.069,-0.095c0.041,-0.013 0.086,0.001 0.112,0.036l3.884,5.361c0.022,0.03 0.025,0.071 0.008,0.104c-0.017,0.033 -0.052,0.055 -0.089,0.055l-3.884,0Zm35.43,-0.1c0,0.027 -0.011,0.052 -0.029,0.071c-0.019,0.019 -0.044,0.029 -0.071,0.029l-3.894,-0.009c-0.038,-0 -0.072,-0.021 -0.089,-0.055c-0.017,-0.033 -0.014,-0.074 0.008,-0.104l3.894,-5.353c0.025,-0.035 0.071,-0.05 0.112,-0.036c0.041,0.013 0.069,0.052 0.069,0.095l-0,5.362Zm-36.6,-0c0,0.027 -0.011,0.052 -0.029,0.071c-0.019,0.019 -0.044,0.029 -0.071,0.029l-3.884,-0.009c-0.038,-0 -0.072,-0.021 -0.089,-0.055c-0.017,-0.033 -0.014,-0.074 0.008,-0.104l3.884,-5.352c0.025,-0.035 0.071,-0.05 0.112,-0.036c0.041,0.013 0.069,0.052 0.069,0.095l0,5.362Z" style="fill:#d39f10;"/><path d="M7.94,13.64c0,0.68 -0.56,1.24 -1.24,1.24c-0.69,0 -1.25,-0.56 -1.25,-1.24c0,-0.69 0.56,-1.25 1.25,-1.25c0.68,0 1.24,0.56 1.24,1.25Z" style="fill:#d39f10;"/><path d="M44.54,13.57c0,0.69 -0.56,1.24 -1.24,1.24c-0.69,0 -1.24,-0.55 -1.24,-1.24c0,-0.69 0.55,-1.25 1.24,-1.25c0.69,0 1.24,0.56 1.24,1.25Z" style="fill:#d39f10;"/></svg>