<?xml version="1.0" encoding="UTF-8" standalone="no"?><!DOCTYPE svg PUBLIC "-//W3C//DTD SVG 1.1//EN" "http://www.w3.org/Graphics/SVG/1.1/DTD/svg11.dtd"><svg width="100%" height="100%" viewBox="0 0 15 15" version="1.1" xmlns="http://www.w3.org/2000/svg" xmlns:xlink="http://www.w3.org/1999/xlink" xml:space="preserve" xmlns:serif="http://www.serif.com/" style="fill-rule:evenodd;clip-rule:evenodd;stroke-linejoin:round;stroke-miterlimit:2;"><path d="M7.3,3.1c0,-0 0.1,0 0.1,0c0,0 0,0.1 0,0.1c-1.1,2.1 -1.2,4.8 -0.1,8.1c0,0.2 0,0.3 -0.1,0.4c-0.1,0.1 -0.2,0.2 -0.4,0.2c-0.4,0 -1,0 -1.8,0c-0.1,0 -0.3,-0.1 -0.4,-0.1c-0.1,-0.1 -0.1,-0.2 -0.1,-0.4c0.1,-4.9 1,-7.7 2.8,-8.4Zm-3,0c0,-0 0.1,0 0.1,0c0,0 0,0.1 0,0.1c-1.1,2.1 -1.2,4.8 -0.1,8.1c0,0.2 0,0.3 -0.1,0.4c-0.1,0.1 -0.2,0.2 -0.4,0.2c-0.4,0 -1,0 -1.8,0c-0.1,0 -0.3,-0.1 -0.4,-0.1c-0.1,-0.1 -0.1,-0.2 -0.1,-0.4c0.1,-4.9 1,-7.7 2.8,-8.4Zm6,0c0,-0 0.1,0 0.1,0c0,0 0,0.1 0,0.1c-1.1,2.1 -1.2,4.8 -0.1,8.1c0,0.2 0,0.3 -0.1,0.4c-0.1,0.1 -0.2,0.2 -0.4,0.2c-0.4,0 -1,0 -1.8,0c-0.1,0 -0.3,-0.1 -0.4,-0.1c-0.1,-0.1 -0.1,-0.2 -0.1,-0.4c0.1,-4.9 1,-7.7 2.8,-8.4Zm3,0c0,-0 0.1,0 0.1,0c0,0 0,0.1 0,0.1c-1.1,2.1 -1.2,4.8 -0.1,8.1c0,0.2 0,0.3 -0.1,0.4c-0.1,0.1 -0.2,0.2 -0.4,0.2c-0.4,0 -1,0 -1.8,0c-0.1,0 -0.3,-0.1 -0.4,-0.1c-0.1,-0.1 -0.1,-0.2 -0.1,-0.4c0.1,-4.9 1,-7.7 2.8,-8.4Z" style="fill:#59a42b;fill-rule:nonzero;"/></svg>