<?xml version="1.0" encoding="UTF-8" standalone="no"?><!DOCTYPE svg PUBLIC "-//W3C//DTD SVG 1.1//EN" "http://www.w3.org/Graphics/SVG/1.1/DTD/svg11.dtd"><svg width="100%" height="100%" viewBox="0 0 15 15" version="1.1" xmlns="http://www.w3.org/2000/svg" xmlns:xlink="http://www.w3.org/1999/xlink" xml:space="preserve" xmlns:serif="http://www.serif.com/" style="fill-rule:evenodd;clip-rule:evenodd;stroke-linejoin:round;stroke-miterlimit:2;"><path d="M1,4c-0,-1.097 0.903,-2 2,-2c1.097,-0 2,0.903 2,2l0,8c0,0.549 -0.451,1 -1,1l-2,0c-0.549,0 -1,-0.451 -1,-1l0,-8Z" style="fill:#272727;"/><path d="M4,4c0,0.549 -0.451,1 -1,1c-0.549,0 -1,-0.451 -1,-1c0,-0.549 0.451,-1 1,-1c0.549,0 1,0.451 1,1Z" style="fill:#5a5a5a;"/><path d="M7,3l1.5,3l4.5,0l-1.5,-3l-4.5,0Z" style="fill:#f4f4f4;"/><path d="M8.5,6l-2,-0c-0.276,-0 -0.5,-0.224 -0.5,-0.5c0,-0.555 0,-1.445 0,-2c-0,-0.133 0.053,-0.26 0.146,-0.354c0.094,-0.094 0.221,-0.146 0.354,-0.146c0.25,0 0.5,0 0.5,0l1.5,3Zm1.5,0l-1.5,-3l1.5,0l1.5,3l-1.5,0Zm4,-1c-0,0.552 -0.448,1 -1,1c-0,-0 -0,-0 -0,-0l-1.5,-3l1.5,0c0.552,-0 1,0.448 1,1c0,0.322 0,0.678 0,1Z" style="fill:#ce4d4b;"/></svg>