<svg xmlns="http://www.w3.org/2000/svg" xml:space="preserve" fill-rule="evenodd" stroke-linejoin="round" stroke-miterlimit="2" clip-rule="evenodd" viewBox="0 0 15 15"><path fill="#472a00" fill-rule="nonzero" d="M5.538 13.851c.145-.349.368-.637.65-.858.582-.456 6.181-2.225 7.684-2.607l.068-.018c1.399-.458.97-3.604.486-5.41S12.74.213 11.3.516l-.068.018c-1.492.42-7.128 2.054-7.86 1.95a2.1 2.1 0 0 1-.992-.418 1.05 1.05 0 0 0-.896-.174 1.1 1.1 0 0 0-.718.565L.7 2.599a.9.9 0 0 0-.062.617c.067.251.25.471.497.581.333.159.92.499 1.042.953.008.029.016.058.016.099.008.07-.008.085-.015.097-.074.072-.36.2-1.01.209C.61 5.16.125 5.59.11 6.112q.006.138.041.269c.114.425.519.7 1.001.684.829-.036 1.548.445 1.747 1.188.197.734-.183 1.519-.919 1.903-.418.216-.639.668-.525 1.093a.7.7 0 0 0 .106.241c.284.442.91.574 1.395.299.557-.315.88-.35.979-.325.012.007.034.012.062.077.008.029.025.055.036.094.124.464-.218 1.042-.426 1.346a.92.92 0 0 0-.14.752.9.9 0 0 0 .363.503l.128.09c.255.18.588.225.895.133.316-.095.57-.308.689-.599l-.003-.01Z"/><path fill="#957b32" d="M13.422 5.227c.668 2.492.497 3.283.268 3.552-.958-.292-1.331-1.838-1.732-3.18-.274-1.448-.738-2.753-.08-3.581.332.118.876.718 1.543 3.21Z"/></svg>