<svg xmlns="http://www.w3.org/2000/svg" xml:space="preserve" fill-rule="evenodd" stroke-linejoin="round" stroke-miterlimit="2" clip-rule="evenodd" viewBox="0 0 15 15"><path fill="#414141" d="M7.5 1.433A6.057 6.057 0 0 1 13.567 7.5 6.05 6.05 0 0 1 7.5 13.567 6.057 6.057 0 0 1 1.433 7.5 6.063 6.063 0 0 1 7.5 1.433"/><path fill="#171717" d="M7.5 1C11.079 1 14 3.929 14 7.5c0 3.579-2.912 6.5-6.5 6.5A6.51 6.51 0 0 1 1 7.5C1 3.929 3.929 1 7.5 1m0 .433A6.063 6.063 0 0 0 1.433 7.5 6.057 6.057 0 0 0 7.5 13.567 6.05 6.05 0 0 0 13.567 7.5 6.057 6.057 0 0 0 7.5 1.433m1.083.546a5.65 5.65 0 0 1 4.55 5.521c0 2.6-1.837 4.983-4.55 5.529 0 0-.26-.763-1.083-.763-.867 0-1.083.763-1.083.763A5.67 5.67 0 0 1 1.867 7.5c0-2.6 1.846-4.983 4.55-5.521 0 0 .217.754 1.083.754.867 0 1.083-.754 1.083-.754M6.85 8.8H3.6c-.433 0-.433.867 0 .867h3.25c.433 0 .433-.867 0-.867m0-5.2H4.467c-.433 0-.433.867 0 .867H6.85c.433 0 .433-.867 0-.867m4.55 1.733H8.15c-.433 0-.433.867 0 .867h3.25c.433 0 .433-.867 0-.867m-4.55 5.2H4.467c-.433 0-.433.867 0 .867H6.85c.433 0 .433-.867 0-.867m3.683 0H8.15c-.433 0-.433.867 0 .867h2.383c.433 0 .433-.867 0-.867M6.85 7.066H3.167c-.433 0-.433.867 0 .867H6.85c.433 0 .433-.867 0-.867m4.55 1.733H8.15c-.433 0-.433.867 0 .867h3.25c.433 0 .433-.867 0-.867M6.85 5.332H3.6c-.433 0-.433.867 0 .867h3.25c.433 0 .433-.867 0-.867m4.983 1.733H8.15c-.433 0-.433.867 0 .867h3.683c.433 0 .433-.867 0-.867m-1.3-3.467H8.15c-.433 0-.433.867 0 .867h2.383c.433 0 .433-.867 0-.867"/></svg>