<svg xmlns="http://www.w3.org/2000/svg" xml:space="preserve" fill-rule="evenodd" stroke-linecap="round" stroke-linejoin="round" stroke-miterlimit="1.5" clip-rule="evenodd" viewBox="0 0 15 15"><path fill="#090909" d="m9.209 13.824 2.765-2.303a.1.1 0 0 0 .029-.115.1.1 0 0 0-.101-.062l-1.777.145a.5.5 0 0 0-.229.077l-.51.327v1.506a.62.62 0 0 1-.176.424Z"/><path fill="#090909" d="M9.209 13.824a.63.63 0 0 1-.424.176c-.467.008-2.102.008-2.569 0a.63.63 0 0 1-.424-.176.62.62 0 0 1-.176-.424c-.008-1.808 0-10.617 0-10.617a1 1 0 0 1 .684-.949l1.769-.59a1.002 1.002 0 0 1 1.316.948v11.206a.62.62 0 0 1-.176.424Z"/><path fill="#f4f4f4" d="M6.115 13.4a.1.1 0 0 0 .1.1h2.569a.1.1 0 0 0 .1-.1V2.194a.5.5 0 0 0-.658-.475l-1.769.59a.5.5 0 0 0-.342.474z"/><path fill="#ce4d4b" d="M7 4.128v3.715l-.885.303V4.423zM8 7.5V3.795l.885-.295v3.697z"/><path fill="#e4e4e4" d="M7 7.843V4.128l1-.333V7.5z"/><path fill="none" stroke="#090909" stroke-width=".5" d="M7.75 11.5v-2l-.5.5"/></svg>