<svg xmlns="http://www.w3.org/2000/svg" xml:space="preserve" fill-rule="evenodd" stroke-linejoin="round" stroke-miterlimit="2" clip-rule="evenodd" viewBox="0 0 15 15"><circle cx="7.5" cy="7.5" r="7" fill="#00329b"/><path fill="#f4f4f4" d="M7.5 0C11.639 0 15 3.361 15 7.5S11.639 15 7.5 15A7.504 7.504 0 0 1 0 7.5C0 3.361 3.361 0 7.5 0m0 .5c-3.863 0-7 3.137-7 7s3.137 7 7 7 7-3.137 7-7-3.137-7-7-7"/><path fill="#f4f4f4" d="M11.846 8.935a.103.103 0 0 1-.142 0L10.1 7.304a.1.1 0 0 1-.029-.071l.006-.735c.001-.08.113-.127.17-.071l.913.893c.058.058.173.008.171-.074-.091-1.737-1.515-3.183-2.945-3.524a.297.297 0 0 1-.236-.339c.01-.082.025-.17.038-.253a.31.31 0 0 1 .369-.243c2.452.627 3.506 2.574 3.631 4.374.004.078.113.121.169.066l.939-.912c.057-.056.169-.009.17.071l.004.775q0 .042-.029.071zm-7.859 1.718a.103.103 0 0 1 .072-.123l2.216-.564a.1.1 0 0 1 .076.011l.632.375c.069.041.053.161-.024.182l-1.231.339c-.079.021-.094.145-.022.185 1.546.796 3.512.294 4.528-.77a.296.296 0 0 1 .412-.033c.066.05.135.107.199.16a.31.31 0 0 1 .024.441c-1.776 1.802-3.99 1.733-5.607.935-.069-.036-.161.037-.142.113l.316 1.271c.019.078-.077.151-.147.111l-.672-.387a.1.1 0 0 1-.047-.061l-.581-2.186Zm2.45-7.643a.103.103 0 0 1 .07.124l-.625 2.2a.1.1 0 0 1-.047.06l-.641.358c-.07.039-.166-.035-.145-.113l.325-1.235c.022-.079-.078-.155-.148-.112-1.465.937-2.018 2.89-1.608 4.302a.297.297 0 0 1-.178.373c-.076.032-.16.063-.239.092a.31.31 0 0 1-.394-.201c-.667-2.441.504-4.32 2.007-5.319.066-.042.049-.158-.026-.18L3.53 2.994c-.077-.022-.092-.143-.022-.183l.672-.387a.1.1 0 0 1 .076-.01zm1.062 3.483a1.007 1.007 0 1 1 0 2.014 1.007 1.007 0 0 1 0-2.014"/></svg>