<svg xmlns="http://www.w3.org/2000/svg" xml:space="preserve" fill-rule="evenodd" stroke-linejoin="round" stroke-miterlimit="2" clip-rule="evenodd" viewBox="0 0 15 15"><circle cx="7.5" cy="7.5" r="7" fill="#00329b"/><path fill="#f4f4f4" d="M7.5 0C11.639 0 15 3.361 15 7.5S11.639 15 7.5 15A7.504 7.504 0 0 1 0 7.5C0 3.361 3.361 0 7.5 0m0 .5c-3.863 0-7 3.137-7 7s3.137 7 7 7 7-3.137 7-7-3.137-7-7-7"/><path fill="#f4f4f4" d="M3.098 8.887 1.502 7.284a.1.1 0 0 1-.029-.071l.004-.775c0-.08.112-.127.17-.071l.939.912c.056.055.165.012.169-.066.125-1.799 1.179-3.746 3.631-4.374a.31.31 0 0 1 .369.243c.014.082.028.171.038.253a.296.296 0 0 1-.236.339c-1.43.342-2.854 1.787-2.945 3.524-.002.082.113.132.171.074l.913-.893c.057-.056.169-.009.17.071l.006.735a.1.1 0 0 1-.029.071L3.239 8.887a.103.103 0 0 1-.142 0Zm7.859 1.718-.581 2.186a.1.1 0 0 1-.047.061l-.672.387c-.069.04-.166-.033-.147-.111l.316-1.271c.019-.076-.073-.148-.142-.113-1.618.798-3.831.867-5.607-.935a.31.31 0 0 1 .024-.441c.064-.053.134-.111.199-.16a.296.296 0 0 1 .412.033c1.015 1.064 2.981 1.566 4.528.77.072-.039.057-.164-.022-.185l-1.231-.339c-.077-.021-.093-.141-.024-.182l.632-.375a.1.1 0 0 1 .076-.011l2.216.564a.103.103 0 0 1 .072.123Zm-2.45-7.643 2.182-.595a.1.1 0 0 1 .076.01l.672.387c.069.04.055.16-.022.183l-1.258.365c-.075.022-.092.137-.026.18 1.502.998 2.673 2.877 2.007 5.319a.31.31 0 0 1-.394.201c-.078-.029-.163-.06-.239-.092a.295.295 0 0 1-.178-.373c.41-1.412-.143-3.365-1.608-4.302-.07-.043-.17.033-.148.112l.325 1.235c.02.078-.075.152-.145.113l-.641-.358a.1.1 0 0 1-.047-.06l-.625-2.2a.103.103 0 0 1 .07-.124ZM7.501 6.494a1.007 1.007 0 1 1 0 2.014 1.007 1.007 0 0 1 0-2.014"/></svg>