<?xml version="1.0" encoding="UTF-8" standalone="no"?><!DOCTYPE svg PUBLIC "-//W3C//DTD SVG 1.1//EN" "http://www.w3.org/Graphics/SVG/1.1/DTD/svg11.dtd"><svg width="100%" height="100%" viewBox="0 0 15 15" version="1.1" xmlns="http://www.w3.org/2000/svg" xmlns:xlink="http://www.w3.org/1999/xlink" xml:space="preserve" xmlns:serif="http://www.serif.com/" style="fill-rule:evenodd;clip-rule:evenodd;stroke-linejoin:round;stroke-miterlimit:2;"><path d="M11.814,0.113c0,-0.062 0.051,-0.113 0.113,-0.113c0.055,0 0.108,0 0.108,0c0.668,0 1.109,0.027 1.323,0.082c0.307,0.078 0.577,0.227 0.81,0.449c0.175,0.163 0.313,0.393 0.414,0.691c0.101,0.297 0.152,0.644 0.152,1.04l0,0.487c0,0.03 -0.012,0.059 -0.033,0.08c-0.021,0.021 -0.05,0.033 -0.08,0.033c-0.105,-0 -0.259,-0 -0.361,-0c-0.057,-0 -0.106,-0.044 -0.112,-0.101c-0.02,-0.209 -0.072,-0.681 -0.158,-0.823c-0.111,-0.185 -0.275,-0.325 -0.493,-0.423c-0.284,-0.124 -0.598,-0.187 -0.944,-0.187l-0.05,0c-0.03,-0 -0.059,0.012 -0.08,0.033c-0.021,0.021 -0.033,0.05 -0.033,0.08c0,0.731 0,4.754 0,4.754c0,0.47 -0.062,0.836 -0.187,1.099c-0.124,0.262 -0.338,0.472 -0.641,0.629c-0.303,0.157 -0.633,0.236 -0.991,0.236c-0.424,0 -0.759,-0.119 -1.005,-0.358c-0.247,-0.239 -0.37,-0.553 -0.37,-0.941c0,-0.408 0.148,-0.751 0.443,-1.029c0.295,-0.278 0.682,-0.417 1.16,-0.417c0.26,0 0.546,0.066 0.857,0.197c0.035,0.015 0.075,0.011 0.106,-0.01c0.032,-0.021 0.051,-0.056 0.051,-0.094c0,-0.866 0,-4.687 0,-5.395Z" style="fill:#090909;fill-rule:nonzero;"/><path d="M2.862,6.929c0,-0.049 0.032,-0.093 0.079,-0.108c0.542,-0.169 3.693,-1.151 4.414,-1.375c0.034,-0.011 0.072,-0.004 0.101,0.017c0.029,0.021 0.046,0.055 0.046,0.091c-0,0.979 -0,6.305 -0,6.305c0,0.482 -0.061,0.845 -0.184,1.09c-0.122,0.245 -0.33,0.447 -0.624,0.606c-0.293,0.159 -0.625,0.239 -0.994,0.239c-0.424,0 -0.762,-0.121 -1.014,-0.364c-0.253,-0.243 -0.379,-0.557 -0.379,-0.941c0,-0.389 0.15,-0.724 0.449,-1.005c0.299,-0.282 0.686,-0.423 1.16,-0.423c0.155,0 0.292,0.014 0.411,0.041c0.094,0.022 0.236,0.07 0.425,0.146c0.035,0.014 0.074,0.01 0.105,-0.011c0.031,-0.021 0.05,-0.056 0.05,-0.093c0,-0.684 0,-3.243 0,-3.898c-0,-0.036 -0.017,-0.07 -0.046,-0.091c-0.029,-0.021 -0.066,-0.028 -0.101,-0.017c-0.592,0.184 -2.795,0.869 -3.242,1.008c-0.047,0.015 -0.079,0.058 -0.079,0.108c-0,0.643 -0,4.79 -0,4.79c0,0.47 -0.062,0.836 -0.187,1.099c-0.124,0.262 -0.338,0.471 -0.641,0.627c-0.303,0.155 -0.633,0.233 -0.991,0.233c-0.424,0 -0.759,-0.119 -1.005,-0.358c-0.247,-0.239 -0.37,-0.551 -0.37,-0.936c0,-0.408 0.148,-0.751 0.443,-1.029c0.295,-0.278 0.682,-0.417 1.16,-0.417c0.26,0 0.546,0.066 0.857,0.197c0.035,0.015 0.075,0.011 0.106,-0.01c0.032,-0.021 0.051,-0.056 0.051,-0.094c0,-0.879 0,-4.803 0,-5.425Z" style="fill:#090909;fill-rule:nonzero;"/></svg>