<svg xmlns="http://www.w3.org/2000/svg" xml:space="preserve" fill-rule="evenodd" clip-rule="evenodd" viewBox="0 0 15 15"><path fill="#f4f4f4" d="M12.5 1.5a1 1 0 0 0-1-1h-8a1 1 0 0 0-1 1v12a1 1 0 0 0 1 1h8a1 1 0 0 0 1-1z"/><path fill="#089d00" d="M11.5 1a.5.5 0 0 1 .5.5v12a.5.5 0 0 1-.5.5h-8a.5.5 0 0 1-.5-.5v-12a.5.5 0 0 1 .5-.5z"/><path fill="#f4f4f4" d="M4.67 7.717c-.008-.064.054-.056.068-.047.004-.077.099-.131.194-.131.075 0 .146.036.175.089.104-.032.361.051.433.041.07-.009.102-.028.135-.063.048.01-.007-.029-.088-.049.107-.02.213-.042.247-.108-.044-.001-.094.005-.118-.037a.46.46 0 0 0 .252-.155c-.052.004-.062-.01-.077-.02a.7.7 0 0 0 .255-.164.1.1 0 0 1-.093-.023.54.54 0 0 0 .249-.206.6.6 0 0 1-.358-.083.55.55 0 0 0 .213-.146c-.056-.014-.066-.019-.085-.035a.5.5 0 0 0 .2-.167c-.019-.003-.038-.004-.054-.012a.6.6 0 0 0 .13-.154q-.058.002-.079-.021a.64.64 0 0 0 .319-.424c.012-.333.306-.533.58-.333-.016-.015-.019-.122-.074-.19-.065.042-.175.124-.427.06-.019.164-.107.582-.384.762a.2.2 0 0 1-.036-.038c-.074.206-.186.559-.404.522.106-.26.15-.519.209-.779-.173.527-.431.987-.771 1.194-.111-.148-.075-.751.012-1.036-.227.45-.55.874-.926.74.33-.132.511-.582.814-1.142-.262.372-.752.808-1.091.844-.009-.358.059-.616.48-1.122-.342.175-.739.386-.903.074.126.025.232-.013.911-.385-.23.065-.674.146-.922.047.061-.198.446-.424.701-.532-.715.04-.659-.201-.661-.261.119.034.404.081.665.05-.191-.001-.577-.16-.727-.34.075-.084.363-.156.448-.161-.261-.104-.294-.365-.263-.39.21.16.44.249.685.281-.259-.076-.574-.322-.643-.463.114-.075.492-.078.568-.05-.241-.146-.218-.347-.177-.396.092.119.351.266.633.416-.391-.291-.484-.469-.512-.623.241-.044.472.04.67.127-.152-.13-.286-.27-.328-.465.748.019 1.777.593 1.966 1.308.048.179-.04.533-.366.519-.069.257.133.304.44.347a.4.4 0 0 1 .102-.302c-.101-.065-.049-.181-.03-.197.08.141.301-.073.436-.244-.044-.007-.074-.067-.056-.117.465-.216.316-.584.03-.605l-.003-.003q-.01.01-.022.01c-.034-.008-.039-.03-.026-.056-.19.034-.222.058-.324.068-.145.005-.284-.033-.247-.169.135.145.339-.011.468-.029l.002-.001c-.074-.108-.237-.083-.324-.001-.137-.236.04-.355.221-.346l-.021-.002c.006-.11.063-.155.152-.168-.075-.192-.129-.392-.264-.604.136.099.182.032.242.138.034-.038.13-.07.181.036-.007-.069.014-.124.088-.123-.023-.078.037-.107.098-.062-.008-.103.046-.082.056-.125.004.037.066.037.068.107.076-.036.148.004.101.083.08.004.098.051.084.105.04-.068.104-.109.185-.044.054-.072.192-.088.256-.127-.145.212-.209.363-.281.663.051-.016.079-.051.117-.109.075.07.074.17-.024.211.082.054.168.036.188-.013.041.036.084.146-.017.162.014.047-.004.068-.032.08.046.033.089.127.08.316-.045.433-.075.57.015.645a.09.09 0 0 1-.086.016c-.04.346-.076.411.142.456-.017.032-.033.069-.114.074.095.073.071.21.078.28.333.009.486-.118.429-.326-.361.047-.451-.365-.336-.607.396-.824 1.216-1.154 1.918-1.198-.014.156-.086.285-.203.416.204-.121.346-.107.503-.125-.042.279-.163.416-.268.535a1.5 1.5 0 0 0 .353-.317c.126.146-.011.322-.115.425.104-.028.364-.031.489.027.014.035-.203.342-.454.459.051.004.343-.096.51-.237.02.051.191.215-.347.388.195.016.41.106.524.186.004.017-.076.187-.522.267.203.029.36.021.53-.031-.01.156-.162.298-.628.252.236.08.453.193.676.503-.262.148-.683.088-1.112-.088l.004.01c.293.119.731.494 1.055.392-.042.118-.195.339-.914-.003.402.545.368.938.361 1.078-.181-.031-.565-.235-.888-.69.172.289.363.752.643.854-.054.015-.144.075-.225.075-.179.002-.392-.288-.585-.6.044.303-.023.809-.114.916-.196-.121-.432-.525-.528-1.217.012.236.01.473.115.709-.229.027-.331-.295-.367-.541a.5.5 0 0 1-.103.066c-.204-.142-.298-.425-.323-.689-.049.039-.195.082-.378.005a.7.7 0 0 0-.101.161c.077-.035.104-.064.254-.075.336.002.292.659.605.785-.026.018-.061.012-.093.012a.27.27 0 0 0 .142.124c-.012.016-.049.027-.075.024.031.059.064.098.187.171-.02.005-.037.01-.068.013.063.11.205.152.286.172-.101.066-.272.081-.436.056l.002.003c.155.182.234.22.315.264a.14.14 0 0 1-.059.051.4.4 0 0 0 .216.12.1.1 0 0 1-.045.048c.077.108.139.146.197.162l-.02.048c.075.069.139.065.204.071.001.031-.035.048-.075.062.045.03.096.081.149.067.161-.058.297-.075.449-.086.01-.063.187-.149.279-.008a.06.06 0 0 1 .064.037l-.001.004.004-.001c.115.044.119.217.029.278-.027-.04-.052-.084-.088-.104l-.001.001c-.018.009-.07.023-.096-.028-.06.04-.121.027-.181-.009-.135.008-.195.028-.223.053.068.025.133.036.208.098.127-.097.425.038.283.201.015.014.033.027 0 .069h-.006l.001.002c-.015.12-.156.199-.211.166.013-.035.027-.061.026-.162-.043-.008-.077-.033-.088-.098-.065-.043-.291-.099-.437-.149.072.052.135.089.224.176.083-.013.235.099.128.245.008.016.02.028-.005.052.004.014.002.028-.021.04H9.89l.001.002c.008.076-.187.164-.283.086a.5.5 0 0 0 .11-.078c-.03-.009-.05-.029-.047-.07-.049-.034-.105-.049-.08-.182-.032-.003-.008-.024-.02-.03l-.223-.201c-.074.055-.131.048-.19.038a.08.08 0 0 1-.065.038c0 .026.001.052-.014.064.021.037.029.077.115.103-.057.056-.269.075-.329-.074a.12.12 0 0 1 .004-.08c-.125-.038-.093-.321.208-.222.094-.017.077-.064.026-.112a8 8 0 0 1-.7-.764c-.072.111-.223.195-.338.151.07-.078.094-.103.088-.29-.061.109-.091.113-.125.128.005-.249-.139-.504-.285-.712.019.311.069.643.283.89-.113.015-.171-.001-.238-.047.035.186.16.5.423.304.105.142-.038.404-.346.271.055.183.2.264.356.276.157.013.298-.086.231-.249.326.021.311.433.079.532.453.227.097.582-.155.578-.147.009-.396-.017-.649-.366.008.048.144.352-.178.802-.324-.371-.197-.714-.166-.821-.102.148-.262.353-.543.392-.355.063-.788-.263-.358-.556a.27.27 0 0 1-.149-.238c.009-.295.31-.288.331-.277-.1.216.057.274.207.237.15-.036.288-.13.322-.288-.199.152-.513.025-.381-.237.211.158.482-.172.461-.428-.018.054-.147.144-.246.117.192-.29.232-.576.25-.861-.22.221-.327.463-.255.757-.048-.009-.087-.023-.11-.052.011.126.042.168.069.215a.38.38 0 0 1-.319-.147c-.097.051-.452.468-.711.744-.02.133.071.071.166.081.089.005.16.071.16.154.006.06-.026.107-.076.134q.011.058-.038.061l-.006-.001.002.002c.02.13-.222.149-.257.092.055-.025.06-.091.078-.111l-.003-.001v-.028c-.067.002-.102-.102-.051-.145l.002-.017a.6.6 0 0 1-.212.008 1.7 1.7 0 0 1-.264.24l-.005-.001q.026.024.021.089c-.004.072-.033.086-.075.104a.1.1 0 0 0-.008.036h.001c.015.037.071.085.126.111-.025.083-.328.064-.326-.065-.041-.012-.047-.042-.04-.077-.033-.022-.056-.059-.058-.117s.027-.131.143-.131l.026.001c.031-.092.089-.122.124-.141a.03.03 0 0 0-.003-.019.8.8 0 0 1-.257.081l-.002-.002c0 .059-.049.112-.115.134.028.024-.009.118.074.186-.047.019-.306-.053-.3-.183l-.002-.001c-.022-.014-.031-.034-.008-.059l.001-.015a.1.1 0 0 1-.013-.051c.008-.089.087-.167.164-.171a.1.1 0 0 1 .042.004c.024.003.045.009.071.01.062-.039.099-.092.208-.1-.042-.016-.117-.026-.186-.038a.26.26 0 0 1-.144.055.2.2 0 0 1-.083-.013c-.001.035-.101.033-.104.16-.07-.006-.167-.151-.058-.281Zm3.168.317c.119.25.293.333.409.354.118.022.268-.038.242-.196-.312.086-.581-.092-.651-.158m-.62.04a.68.68 0 0 1-.653.149c-.054.174.085.241.234.206s.317-.181.419-.354Zm-.813-1.066c.031.014.086.001.149-.02-.051.017-.111.034-.149.02m1.497-4.734c-.108.01-.235-.009-.36-.024.189.026.293.037.36.024m.59 4.574a.27.27 0 0 0 .201.044l.004-.013-.005.011a.3.3 0 0 1-.2-.043ZM7.255 2.569l.008.03h.003zm-2.634 8.524v-.066h.118v-.796h-.118v-.067h.439q.139 0 .221.071t.081.19-.081.19a.33.33 0 0 1-.221.071h-.195v.34h.144v.066h-.388Zm.244-.472h.164q.093 0 .141-.05t.048-.145-.048-.145-.141-.05h-.164v.389Zm1.066.49a.5.5 0 0 1-.174-.031.4.4 0 0 1-.139-.091.5.5 0 0 1-.104-.158.6.6 0 0 1-.034-.201.6.6 0 0 1 .034-.201.5.5 0 0 1 .104-.159.4.4 0 0 1 .139-.091.5.5 0 0 1 .174-.031q.202 0 .326.132a.5.5 0 0 1 .124.349.6.6 0 0 1-.034.201.44.44 0 0 1-.243.25.5.5 0 0 1-.173.03Zm0-.067q.153 0 .23-.104a.5.5 0 0 0 .078-.31q0-.206-.078-.31-.077-.105-.23-.105t-.231.105a.5.5 0 0 0-.078.31q0 .205.078.31.078.104.231.104m.592.048v-.066h.118v-.796h-.125v-.067h.27l.326.661.326-.661h.254v.067h-.124v.796h.119v.066h-.363v-.066h.118v-.717l-.318.647h-.088l-.318-.647v.717h.118v.066zm1.295 0v-.066h.125v-.796h-.125v-.067h.238l.556.732v-.666h-.124v-.067h.326v.067h-.125v.88h-.075l-.594-.782v.698h.125v.066h-.326Zm1.366-.066h.118v.066H8.94v-.066h.118v-.796H8.94v-.067h.362v.067h-.118zm.258.066v-.066h.118v-.796h-.118v-.067h.362v.067h-.118v.351l.4-.351h-.101v-.067h.308v.067h-.104l-.398.35.446.446h.106v.066h-.216l-.44-.441v.375h.118v.066zm-5.636 1.926v-.066h.118v-.796h-.118v-.067h.439q.139 0 .221.071t.081.19-.081.19a.33.33 0 0 1-.221.071H4.05v.34h.144v.066h-.388Zm.244-.472h.164q.093 0 .141-.05t.048-.145-.048-.145-.141-.05H4.05zm1.153.012a.2.2 0 0 1 .075.04q.032.028.057.079l.135.275h.113v.066h-.219l-.145-.295a.3.3 0 0 0-.076-.111.16.16 0 0 0-.096-.025h-.139v.366h.131v.066h-.375v-.066h.118v-.796h-.118v-.067h.471q.135 0 .209.065a.23.23 0 0 1 .074.183.2.2 0 0 1-.054.151.27.27 0 0 1-.16.068Zm-.295-.037h.183q.094 0 .139-.044.045-.045.045-.138t-.045-.137-.139-.044h-.183zm.702.498v-.045l.578-.807h-.48v.139h-.076v-.215h.734v.045l-.578.807h.525v-.13h.076v.206zm1.069 0v-.066h.119v-.334l-.287-.462h-.087v-.067h.345v.067h-.108l.232.375.232-.375h-.104v-.067h.27v.067h-.088l-.279.45v.346h.119v.066zm1.21-.461a.2.2 0 0 1 .075.04q.032.028.057.079l.135.275h.113v.066H8.05l-.145-.295a.3.3 0 0 0-.076-.111.16.16 0 0 0-.096-.025h-.139v.366h.131v.066H7.35v-.066h.118v-.796H7.35v-.067h.471q.135 0 .209.065a.23.23 0 0 1 .074.183.2.2 0 0 1-.054.151.27.27 0 0 1-.16.068Zm-.295-.037h.183q.094 0 .139-.044.045-.045.045-.138t-.045-.137-.139-.044h-.183zm1.167.516a.5.5 0 0 1-.174-.031.4.4 0 0 1-.139-.091.5.5 0 0 1-.104-.158.6.6 0 0 1-.034-.201.6.6 0 0 1 .034-.201.5.5 0 0 1 .104-.159.4.4 0 0 1 .139-.091.5.5 0 0 1 .174-.031q.202 0 .326.132a.5.5 0 0 1 .124.349.6.6 0 0 1-.034.201.44.44 0 0 1-.243.25.5.5 0 0 1-.173.03Zm0-.067q.152 0 .23-.104a.5.5 0 0 0 .078-.31q0-.206-.078-.31t-.23-.105-.231.105a.5.5 0 0 0-.078.31q0 .205.078.31.078.104.231.104m.592.048v-.066h.118v-.796h-.118v-.067h.369q.24 0 .374.122.134.123.134.341t-.134.342a.53.53 0 0 1-.374.123h-.369Zm.244-.066h.116q.181 0 .277-.103t.097-.296-.096-.295-.278-.102h-.116zm.948.066v-.066h.119v-.334l-.287-.462h-.087v-.067h.345v.067h-.108l.232.375.232-.375h-.104v-.067h.27v.067h-.088l-.279.45v.346h.119v.066z"/><path fill="#f4f4f4" stroke="#089d00" stroke-width=".03" d="M5.73 4.868c-.109-.116-.093-.189-.09-.229-.12-.081-.089-.114-.109-.147.042.066.083.11.125.116.079.065.159.087.238.13-.486-.238-.352-.531-.346-.615a.3.3 0 0 1-.173-.038c.014-.118.083-.214.23-.279q-.027.01-.055.017c-.017-.003-.059-.101-.007-.164.03-.017.112-.023.195.006a.36.36 0 0 1 .245-.2c.033.03.088.121.049.278a.3.3 0 0 1 .151.099c-.014.05-.027.064-.041.077.212.002.233-.266-.004-.294.038-.252-.322-.402-.478-.092-.288-.069-.366.132-.257.29-.035.023-.32.212-.049.482-.001.133.037.263.238.376.058.153.094.153.136.187Zm3.573-1.407.038-.065c.259-.036.416.119.315.304.209.161.094.37-.032.411.151-.1.068-.131.042-.129a.1.1 0 0 0 .031-.018c-.008-.088-.047-.171-.198-.271a.19.19 0 0 0 .057-.194.33.33 0 0 0-.221.017zm-.359.453c.012-.036.023-.095.096-.15q-.034.023-.077.056a.28.28 0 0 1-.169-.159c.058-.067.195-.057.214-.053a.28.28 0 0 1 .049-.274c.124.01.189.068.239.119l.037-.06a.23.23 0 0 0-.261-.144c-.102.01-.219.09-.172.277-.309.112-.177.377.042.388Z"/><path fill="#eee" d="M8.272 4.388a1 1 0 0 1-.058.246c.42-.057 1.041-.154.957-.568a.4.4 0 0 1-.229.06.4.4 0 0 1 .003-.204.4.4 0 0 1-.236.135c.38.152-.161.421-.386.33h-.05Z"/><path fill="#089d00" d="M5.915 4.998c.017.021.034-.043.032-.063a.374.374 0 0 0 .445.154c-.001.016 0 .031-.007.055l.007-.002c.007 0 .01-.015.014-.028q-.006-.006-.008-.015l.002-.005c.089.144.311.077.339.089-.003.008.002.029.006.047l.004.005a.06.06 0 0 0 .002-.035l-.007-.013.007.003c.076.051.18.047.267-.017l.054.07-.015-.008c-.154.066-.233.04-.309.01l-.007-.005a.43.43 0 0 1-.343-.065c.006.042.039.075.082.104l-.166.652.08-.612a.8.8 0 0 1-.18.286.9.9 0 0 0 .079.399c.086-.058.275-.253.304-.627q.003-.034-.02-.044c-.034-.017-.054-.031-.074-.044a1 1 0 0 0 .162.049c-.027.306-.2.656-.382.759l.005-.086c-.044-.067-.08-.174-.089-.392a.6.6 0 0 1-.196.118l.013-.067c.157-.072.291-.208.354-.503a.6.6 0 0 1-.19 0l-.156.483.074-.5a1 1 0 0 1-.147-.112c-.015.067-.116.312.009.551-.07-.093-.129-.24-.021-.562l-.022-.02v-.009Zm0 0-.08.164c-.127.222-.297.27-.466.323l.052-.087c.219-.019.376-.213.458-.393a.5.5 0 0 1-.169-.066l-.259.404.171-.408c.035-.064-.056-.114-.056-.184.011.047.072.102.102.149.016.024.034.034.058.005l.019-.027c.046.046.108.071.199.057l-.03.063Zm3.819-.59a.32.32 0 0 1-.149.158c-.013.2-.12.329-.38.341-.068.101-.194.219-.411.152q.006-.01.004-.019l.079.024c.084.017.076-.023.007-.03-.001.005-.088-.015-.085-.025l.002-.011c.201.078.32-.068.36-.154.334.003.353-.195.354-.321.218-.073.18-.261.109-.403.117-.04.252-.253.038-.419.081-.141.001-.353-.323-.309a.245.245 0 0 0-.246-.153c.153-.035-.01-.056-.07-.034l-.003-.01c.062-.03.057-.04.06-.048.036-.073.276-.246.451-.269-.109.028-.387.149-.457.308a.4.4 0 0 1 .131.013l.333-.308-.274.335c.037.022.07.033.122.111.153-.021.444.058.347.351.143.104.157.327-.032.454.04.076.067.174.032.266Zm0 0c.229.028.567.014.673-.164.229-.008.67 0 .782-.222l.088-.009c-.027.113-.292.235-.525.267l-.273.009c-.133.144-.294.152-.448.184l1.159.487-1.193-.419a.62.62 0 0 1 .235.441l-.085-.063c.007-.151-.168-.37-.417-.488q.005-.01.006-.021ZM6.499 7.005c-.085.092-.227.253-.369.388-.143.135-.273.269-.223.39-.099-.088-.011-.175.123-.317.145-.154.309-.332.41-.451a.3.3 0 0 0 .06-.01Zm0 0a.3.3 0 0 1-.086.006.66.66 0 0 0 .166-.282l.022-.021a.3.3 0 0 0 .045.247c-.049.019-.099.04-.147.05m-2.311-.721-.027.03c-.034-.565.609-1.14.777-1.303-.216.228-.781.793-.75 1.273m0 0c.388-.469.776-.95 1.164-1.425.027-.01.054-.027.081-.043a.4.4 0 0 0-.074.149l-1.156 1.33c.386-.029 1.019-.85 1.114-1.072a.4.4 0 0 1 .02-.133c-.015.095-.009.17-.005.245-.342.544-.913 1.045-1.242 1.066zm.488-1.914-.017.005c-.325.02-.874.071-.94-.126.145.162.759.046.894.072a.3.3 0 0 0 .063.049m0 0 .002-.001c.037.024.082.043.126.063.068.021.085-.004.017-.026a.6.6 0 0 1-.178-.085c.08-.139.269-.206.294-.216-.105.061-.225.115-.257.208a9 9 0 0 0 .547-.089c.016.025.031.05.062.086l-.005.006-.032-.034-.568.039c.157.097.325.106.493.123-.049.019-.097.033-.149.058-.233-.03-.271-.083-.37-.125zm2.42 3.136h-.001zm0 0c.095-.016.229-.09.276-.356l-.014-.131c-.004.124-.058.282-.201.348.172-.155.152-.392.212-.516-.003.168-.001.337.071.528-.045.056-.132.128-.219.125.1-.037.178-.147.173-.245-.133.266-.278.245-.299.247Zm1.04 1.011c-.106-.071-.205-.112-.372-.411l.008-.061c.057.169.162.33.363.472Zm0 0 .027.019zM5.213 3.609c-.316.001-.404.08-.42.096.148.036.253.07.57.117a.2.2 0 0 0-.062.054c-.123-.045-.349-.107-.51-.164.025.097.192.242.331.279.039.009.082.027.097-.018a.14.14 0 0 1 .051-.054.24.24 0 0 0-.061.12c-.372-.109-.433-.318-.445-.339.184-.115.308-.1.449-.093Zm0 0 .095.002a1 1 0 0 1-.095-.002m1.544.937c.012.117.053.26.092.392-.027-.038-.107-.267-.092-.392m1.248-.084c-.101.361.346.326.032-.044.305.168.105.418.09.474-.048-.194-.237-.242-.122-.43m-.267-1.195a.42.42 0 0 1-.346.232c.12-.056.23-.12.277-.238l.002-.002c.02-.058.036-.134.02-.265.013-.006.022-.016.022-.039-.029.024-.058.024-.087.025l-.021-.019c.082.012.136-.033.133-.078a.38.38 0 0 1 .001.384Zm-1.035-.414c.309.065.589-.247.852-.035.004.014.001.03-.024.029-.226-.167-.548.14-.828.006m.724 1.309c.06-.627.693-.889.295-1.508.549.377-.086.8-.295 1.508m.437-1.492c.479.28.068.844-.111.996.071-.143.503-.535.111-.996m.161-.155c.359.17.074.737.165 1.024a.27.27 0 0 1-.124-.146c-.023.132-.094.351-.085.453-.007.07.166.272.033.412.046-.386-.346-.166-.109-.72.112-.226.336-.435.132-.841.116.025.037-.102-.012-.183Zm-.069-.112c.045.003.153.071.253-.001.069.084-.06.155-.195.092-.035-.02.077-.03-.058-.091m-.8.031c.099.04.157.102.205.17a.4.4 0 0 0-.085-.011c-.038-.098-.079-.119-.12-.159m.352.095c-.062.012-.268-.045-.203-.164a.2.2 0 0 1 .073.015c-.047.065.022.127.06.117l.014.01c-.022-.019-.036-.051-.028-.093.029.021.177.042.18.055a.1.1 0 0 1-.095.06Zm.084-.213c.417.1.378-.074.452-.099.074.106-.129.244-.452.099m-.509.074a.14.14 0 0 0-.059-.004c.037-.268.368-.098.547.003-.225-.097-.508-.22-.488.002Zm.032.009c.006-.193.263-.031.474.023.23.057.272.016.364.034-.027.027-.053.044-.173.036-.067.086-.224.112-.298.059.082.015.185-.037.168-.079-.156-.046-.378-.158-.38-.088l-.003.046-.059-.034c-.016-.014.074-.06-.022-.042-.015.003-.026.033-.03.06zm-.133.13c.05.031.048.007.05-.013.002-.023.034-.025-.01-.06.105.01.176.068.203.162l-.014.005c-.117-.11-.187-.039-.228-.094Zm-.185.171c-.009-.041.143-.194.412-.025.315-.025.393.125.376.152-.027-.1-.222-.166-.499-.094-.088-.111-.226-.064-.289-.034Zm.421.213c-.048-.002.101-.16.346-.009.088.031.13-.009.113-.074-.006-.048-.035-.074-.053-.111.123.083.138.185.055.227-.13.058-.221-.148-.461-.032Zm-.126-1.137c.017-.011.019.053.018.158.014.076.061.062.105.05-.005-.052.031-.046.056-.156.017.075-.075.121-.037.16.02.018.069.033.104.008.068-.036-.05-.097-.046-.142.057.085.103.096.064.149.085.001.153-.108.116-.144-.018-.019-.095-.126.056-.167.119.031.087.125.069.182a.112.112 0 0 0 .085.142c-.03-.077.036-.112.053-.151s.028-.066-.004-.127c.093.113-.063.187-.041.248.001.019.053.054.107.012.053-.059-.079-.172 0-.233-.051.092.052.159.013.244.152.019.085-.131.19-.296-.092.151.002.353-.192.305-.099.029-.242.017-.24-.164q-.022.01-.033.003c.091-.036.056-.148-.012-.156-.013.009-.137.035-.027.174-.008.021-.004.099-.131.139-.029 0-.087.02-.152-.017-.191.028-.08-.16-.12-.222Zm.783.426.002.011c-.233.014-.471-.027-.7-.031v-.01c.232.005.415.042.698.03m-.36.036c.123.018.245.042.379.027v.009c-.112.01-.246-.009-.38-.028zm-.329-.179a.5.5 0 0 1 .179.002c.034.008.034.061 0 .072a2 2 0 0 1-.178-.002c-.037-.028-.018-.061-.001-.072m.008.006c-.037.011-.02.059-.001.059.043.002.085.007.128.001.024-.01.032-.049.005-.064a.4.4 0 0 0-.132.004m.254.062c-.013-.012-.031-.039.004-.071q.081-.004.164.006c.051.019.047.06.004.077a1 1 0 0 1-.173-.012Zm.003-.009c.096.011.177.018.157-.049-.027 0-.213-.037-.157.049m.256.021c-.012-.013-.027-.041.011-.071.136.006.113.008.163.018.049.023.041.063-.003.077-.118.002-.138-.015-.171-.025Zm.004-.009c.095.018.175.034.16-.035-.027-.002-.208-.056-.16.035m-.449.774c.159-.058.249.044.321.054.113.15-.004.28-.08.36.05-.077.124-.389-.241-.413Zm-.421 1.038c.131.059.29.089.565-.262a.4.4 0 0 0 .17-.094c-.176.38-.678.613-.734.356Zm.433-.393c.124.049.229-.009.335-.074-.062.122-.324.26-.335.074m.721-.553c.014.327-.125.445-.267.653-.136.2-.174.418-.227.473.085-.516.447-.714.459-1.071.019.001.021-.049.035-.055m-.604 1.065.004.087c-.129.045-.028.334-.079.397-.02-.246-.133-.335.075-.484m.389.055c-.099.14.098.231-.008.464.055-.306-.182-.281-.032-.502.052.045.231.092.248.169-.06-.076-.153-.082-.207-.131Zm.409-.011q-.027.025-.071.01l-.004.017c.098.104.091.295.106.44-.028-.015-.075-.352-.145-.388.008-.032.017-.062.011-.114.037.034.069.029.103.035m-1.312.263c.049-.108.095-.208.147-.253-.102-.005-.11-.024-.125-.031.249.046.421-.086.567-.278l-.065.154c-.173.127-.227.106-.313.16s-.144.159-.211.249Zm.527-.124c.157-.059.153-.325.303-.398.003.073-.009.142.032.226-.082.069-.162.245-.335.172m.405-.574c-.144.349.142.352.166.465-.296-.089-.317-.283-.166-.465m.262-.203c.023.029.039.061.077.081.019.113-.157.469.108.496-.216.097-.333-.18-.185-.577m.031 1.404c.03.052.002.17.003.209-.058-.007-.089-.049-.12-.084q.009-.001.013-.007c.007-.032.074-.047.104-.118m-.519.146c.169.038.289.004.382-.067l.024.038a.56.56 0 0 1-.412.037l.006-.007ZM7.53 4.99a.2.2 0 0 0 .047.026c-.124.102-.304.074-.485-.011q.002-.007-.001-.015c.209.102.356.073.439 0m-.449-.001c.044.063-.068.083-.068.176l-.044-.05c-.002-.061.089-.051.112-.126m-.122.107-.086-.117c-.09-.105.208-.126.175-.323.019.013.038.031.057.04-.011.159-.166.155-.168.263q-.029-.011-.035-.045l-.017.013c-.038.041.018.065.074.169m.081-.214c.087.011.172 0 .254-.07.014.012.025.025.044.036-.104.057-.244.065-.298.034m.302-.031c.08.044.274.071.403-.014q.019.015.041.028c-.109.067-.31.067-.454-.007zm.448.014c.095.019.19.025.287-.043a.1.1 0 0 1 .024.041.45.45 0 0 1-.318.01zm-.669-.16a.4.4 0 0 0 .405-.048.2.2 0 0 0 .046.037c-.112.088-.401.077-.451.011m.456-.009a.38.38 0 0 0 .369-.044l.021.051c-.055.032-.262.083-.398-.001zm-.837-.172c.016-.05.166-.042.244-.079.124-.059.064-.189.14-.282-.037.106-.064.188-.018.253.046.066.157.092.176.19-.082-.128-.182-.131-.211-.205-.019.074-.18.107-.25.157-.022-.017-.006-.037-.015-.047q-.015-.017-.046.022zm.754-.253h.015c.017.161.205.177.238.336-.04-.11-.147-.142-.204-.201-.033.123-.199.16-.241.23-.011-.057.229-.138.192-.365m.491-.004c.019.054.035.076.05.111-.054.159-.268.214-.28.272-.037-.074.231-.116.229-.383Zm-.733 1.241c.03-.01.044-.026.059-.041.025.031.061.038.096.046-.067-.002-.076.026-.043.076.014.02.037.317.043.496a.8.8 0 0 0 .063.346c-.146-.111-.065-.779-.218-.924Zm.244.012c.082-.007.163-.011.26-.064l.035.037c-.07.136-.109.458-.153.747.013-.184.017-.348.006-.394a.6.6 0 0 1-.016-.184c.044-.144-.077-.109-.132-.143Zm-.345-.112c.038-.023.056-.05.078-.078a.1.1 0 0 0 .043.038c-.056.016-.075.09-.106.09-.005-.016-.005-.034-.014-.05Zm.124-.039c.083.028.168.024.273-.042l.035.029c-.1.064-.265.048-.309.012Zm.355-.001c.059.009.117.021.194-.017l.033.034c-.025.023-.151.019-.227-.017m.244-.142c.019.01.053.041.086.059a1 1 0 0 0-.074.106c-.11-.085-.033-.175-.013-.164Zm-.8.024c.035-.016.068-.027.121-.111a.1.1 0 0 0 .027.026.3.3 0 0 1-.111.132zm.153-.082a.54.54 0 0 0 .586-.042l.027.05c-.273.124-.488.073-.62.005zm.635-.001c.078-.013.051-.1.123-.127.118.16.32.118.403-.003l.013.09c-.078.044-.182.122-.354.05a.3.3 0 0 0-.017.111c-.076-.022-.136-.058-.168-.12Zm.549-.046c.057.012.162.05.11-.012 0 0-.009-.012 0-.011.134.01.195-.058.261-.115.009.019.014.06.007.077-.022.006-.052.047-.118.08a.8.8 0 0 0 .277.527c-.036-.032-.224-.113-.3-.518a.2.2 0 0 1-.046.007c.01.057.02.113.033.144.004.159.017.332.026.498l-.121-.641a.4.4 0 0 1-.129-.029q-.003-.006 0-.007m.417-.048q.045.014.097.013l.037.477-.135-.49Zm.253-.034.018-.011a.6.6 0 0 0 .187.224l.229 1.384-.331-1.388c-.002.239-.075.398-.195.505l-.013-.091c.126-.153.201-.337.105-.623m.35.318a.6.6 0 0 0 .12.046c.139.418.192 1.241.009 1.539l-.016-.113c-.32-.22-.4-.831-.464-1.173l.01-.017c.062.313.134.915.447 1.159.056-.16.178-.622-.04-1.391-.016-.016-.042-.033-.066-.049Zm-.196-.445c.028-.003.043-.001.087-.011l.305.409zm.327.494c.044.014.1.025.157.036.002.012.446 1.038.756 1.117-.397.071-.596-.554-.855-.923a5 5 0 0 0-.059-.23Zm-.052-.617c.157.169.299.184.439.226l-.168-.021.796 1.143-.9-1.174a.8.8 0 0 1 .054.468l-.074-.086c.024-.137.019-.291-.161-.542a.04.04 0 0 0 .014-.014m.076-.221q.023-.009.04-.022l.448.321-.491-.273q.005-.01.003-.025Zm-.918 1.299c.117-.057.132-.143.161-.225.047.042.074.078.161.124a.3.3 0 0 0 .039-.036c.008.239.008.486.118.712-.213-.066-.218-.385-.255-.713-.09.185-.153.197-.22.236l-.006-.097ZM6.256 7.996c0 .063-.058.121-.199.115.158-.156-.162-.166-.086-.229.212-.12.3.065.284.114Zm-.151.137c.046.009.075-.043.085-.016.02.052-.084.061-.085.016m-1.072-.54h.002a.08.08 0 0 1 .054.046c.06 0 .32.073.442.054-.043.019-.144.112-.263.128-.189-.012-.219-.045-.1-.098.008-.022-.093.029-.108.036a.2.2 0 0 1-.146.076c-.071.005-.149-.075-.126-.115.01-.016.028-.017.032-.016.192.005.182-.113.215-.111Zm-.214.599c.032.025.107.029.117.029a.24.24 0 0 1-.135-.008.04.04 0 0 0 .018-.022Zm.892-.486c-.083.07-.151.276-.597.362q-.01.001-.013.008c0 .057-.069.114-.136.121-.066.007-.163-.029-.165-.086-.001-.047.096-.065.18-.064.021-.01.043-.016.053-.048.403.034.515-.223.677-.294Zm.071.007c-.016.112.05.051.067.098-.081.017-.09.107-.155.108-.074.154-.25.189-.26.309.047.068-.021.179-.102.193-.069.012-.175-.015-.175-.081.036.025.171-.02.138-.165.056-.003.083.007.102.02.016-.095.368-.385.385-.482m-1.038 0c.01.057.039.082.087.117-.038-.012-.076-.022-.118-.055.038.01.009-.071.031-.062m.842-.154c.074.015.172.022.305.015-.193.061-.28.04-.305-.015m.244-.109a.6.6 0 0 0 .22-.046c-.066.066-.157.083-.25.085.015-.011.031-.029.03-.039m.132-.191a.7.7 0 0 0 .247-.039c-.066.066-.22.098-.297.091a.4.4 0 0 0 .049-.052Zm.18-.184a.7.7 0 0 0 .241-.048.54.54 0 0 1-.317.114c.017-.013.062-.052.076-.066m.247-.204c.006.044.011.096.013.14-.027.011-.053.016-.08.024a.25.25 0 0 0 .067-.163Zm2.573 1.212c.072-.061.133-.108.107-.026-.017-.005-.064.014-.107.026m-.061-.066c.128-.042.036-.078.032-.12-.005-.033.07-.064.124-.057.27.109.312-.063.312-.063.03.1-.106.208-.237.151-.029.101-.147.088-.231.088Zm.713-.084c.056.04.111.075.174.134.102.016.221.095.125.238q.019.031-.001.054c-.003.016-.007.031-.019.036-.014-.02-.163.042-.165-.008.065-.017.06-.065.001-.079.126-.069.088-.174.038-.209-.009-.021-.013-.054-.056.001.015-.047-.028-.104-.097-.167m.005-.155c.112.034.276.118.323.112.051-.006.001-.042-.292-.155.148.025.242.083.345.136.068-.077.408-.025.283.189.006.063-.196.068-.244-.011.189-.013.092-.208-.04-.09-.132-.077-.272-.123-.375-.181m.09-.164c.081-.032.255-.027.302-.065.077-.126.22-.093.266-.011.033 0 .057.006.06.029-.03.06-.011.206-.095.17.015-.011.008-.021 0-.032-.036.032-.036-.005-.037-.02-.054.057-.081.047-.121.039q.015-.006.013-.028c.158-.055.021-.221-.107-.066-.043.012-.215-.023-.281-.017Zm-1.264-.798a.3.3 0 0 0 .245.08.3.3 0 0 1-.114.028c.128.102.268.102.412.069-.005.018-.03.034-.054.05a.37.37 0 0 1-.289-.052c.118.185.364.196.465.165a.1.1 0 0 0 .036.007c-.003.02-.024.033-.039.049-.097-.001-.2.008-.343-.085.15.183.342.292.503.238q.014.01.033.012c-.003.012-.005.023-.019.044a.57.57 0 0 1-.355-.118c.104.118.278.297.514.189q.016.006.045 0c.015.025-.11.139-.365.011.099.107.089.127.114.178-.167-.238-.73-.794-.795-.847zm-1.769-.254c.039.069.113-.044.149-.075-.047.15-.14.301.063.442-.104.009-.133.05-.037.142-.188-.083-.295-.221-.175-.51Zm.157-.082c.166.023.324-.17.38-.368.053-.191-.025-.463-.028-.563.036.215.083.349.096.647-.197.175-.34.404-.298.723-.108-.028-.215-.144-.15-.44Zm-.655.305a.6.6 0 0 0 .463-.156c-.068.149-.222.218-.451.198.083-.013.085-.026-.012-.042m-.023-.17c.242.033.42-.044.547-.209.129.015.242-.05.352-.128-.098.097-.211.192-.374.184a.64.64 0 0 1-.57.203c.014-.012.028-.024.046-.049Zm.115-.201c.193.014.327-.078.45-.19a.62.62 0 0 0 .374-.147c-.066.059-.163.195-.394.2-.234.175-.371.21-.471.191.012-.013.019-.013.041-.054m.077-.166c.177-.034.331-.084.39-.204.229-.018.332-.153.446-.278q-.205.305-.465.354c-.226.186-.332.183-.412.188zm1.902.247c.048.1-.012.311-.093.385a.5.5 0 0 0-.003-.106.6.6 0 0 0 .095-.279Zm.118.052c.08.084.134.143.301.175.04.072.032.122.021.171l-.212-.214c-.036.314-.294.42-.38.388.278-.047.356-.317.269-.52Zm.137.065c.114.045.312.11.512.033q.045.017.09.024c-.068.064-.258.079-.433.058.241-.028-.125-.053-.168-.115Zm-.397-.362a.5.5 0 0 0 .28.083c.078.134.307.171.436.165a.1.1 0 0 0 .036.049c-.108 0-.245-.031-.457-.151-.057-.018-.258-.102-.296-.146Zm-.043-.2a.54.54 0 0 0 .271.104c.1.095.217.145.371.162l.032.05c-.048.004-.283-.09-.369-.161a.6.6 0 0 1-.306-.156Zm.018-.161a.45.45 0 0 0 .292.118c.066.062.127.126.265.159a.1.1 0 0 0 .025.042c-.104-.002-.247-.131-.265-.152-.14-.018-.298-.081-.317-.166Zm-.26-.378.01.009c-.138.27.001.889-.297 1.201l-.006-.12c.226-.134.169-.816.293-1.09m-.498.666c.016.123.01.238.14.436a.6.6 0 0 1-.087.187c.022-.204-.153.153-.309.27.335-.368.254-.451.256-.894Zm.271.487a7 7 0 0 0-.045.652l-.018-.584.063-.067Zm.149-.424c.015.229.053.564.25.814-.118-.042-.259-.087-.305-.554.027-.061.038-.169.055-.26m-.312 1.014a.7.7 0 0 0 .116.222c.161-.298.141-.499.115-.64.034.043.08.174.123.2q-.006.005-.012.002c-.031-.028-.033.015-.038.053-.003.119-.145.481-.182.524l-.006-.113c-.08-.09-.101-.184-.116-.248m.687.23c-.173.08-.322-.113-.394-.232l.032-.163c.001-.005.013-.009.019-.002.029.18.155.389.342.398Zm-.425-.17c.014.087.028.173.229.262a.38.38 0 0 1-.248-.213zm-.193.228.053.082.04-.08c-.008.217-.023.478-.03.72-.022-.242-.052-.494-.063-.721Zm.155-.135c.015.019.027.041.046.056.136.59.03.863-.146 1.059l-.002-.098c-.144-.241-.126-.435-.142-.584.027.166.026.36.149.557.047-.047.257-.364.079-.958zm-.158 1.06c.015.022.028.043.058.063.039-.036.047-.054.064-.078-.033.158-.048.311-.071.467-.016-.154-.028-.322-.051-.452m.314.026c-.036-.035-.062-.076-.09-.115.058.151.083.467-.175.807l-.001-.1c-.091-.093-.201-.273-.149-.683.003.202-.031.438.15.657.111-.163.206-.357.139-.719.016-.031.033-.063.041-.108.013.005.025.009.03.035-.029.084.016.149.054.225Zm-.978-1.037c.112.292.451.127.611-.058l.016.041c-.171.225-.592.315-.626.018Zm.587.109c-.024.085-.056.154-.063.279-.018.01-.103.129-.145.144a.4.4 0 0 0 .074-.081c.053-.088-.001-.065-.043.001-.058.056-.245.183-.42.17.256-.02.442-.225.597-.513m-.064.289q-.005.051-.006.092c-.243.225-.454.296-.677.248.185.004.398.022.683-.341Zm-.789.13c-.033-.02-.083-.071-.056-.17.039-.062-.017-.046-.056.009-.058.064-.049.257.128.35-.354-.162-.147-.481.045-.477q-.142.11-.061.288m1.145-.504a.4.4 0 0 0 .139.129c-.016.291.341.484.583.402-.139.091-.597.069-.722-.531m.053.366c.108.171.272.28.535.285a.59.59 0 0 1-.535-.25zm.73-.182c.222.138.161.354-.078.443.184-.109.274-.249.078-.443m-.26.504c.211.035.568-.114.377-.446.194.202-.023.564-.377.446m-.172.486c.038.015.068.004.099.014.276.086.618-.061.516-.361.181.158-.152.613-.615.347m.485-.435c.209.186-.006.444-.285.356.296.036.406-.185.285-.356m-2.032-.001c-.029.135-.094.274.199.361a.3.3 0 0 1-.142-.019c-.157-.065-.103.052-.053.085-.132-.048-.29-.258-.004-.427m.837-.236q.01.132.032.214a1 1 0 0 1-.317.353c.134-.116.237-.233.282-.356-.233.327-.395.377-.562.385a.69.69 0 0 0 .565-.596m.035.226a.15.15 0 0 0 .031.072c-.294.509-.686.494-.821.452.254.024.166-.018.083-.031.301.009.568-.175.707-.493m2.661-3.189a.4.4 0 0 0 .089-.008c.178.261.638.735.584 1.379l-.056-.098c-.426-.088-.723-.569-.874-.765.25.296.533.681.863.742.027-.481-.377-.953-.606-1.25m.093-.009c.03-.005.06-.009.093-.024l-.014-.059c.303.136.763.496 1.047.393-.274.275-.717-.099-1.111-.287zm.052-.184c.158.094.784.302 1.042.148l.09.03c-.17.096-.522.156-1.109-.088q-.009-.047-.024-.09Zm.201-.465c.382.045.752.08.881-.108-.013.236-.319.278-.627.249a2.3 2.3 0 0 0-.347-.092.4.4 0 0 0 .093-.049m-.672-.165c.211.019.433.034.649.05l-.632.015c-.005-.022-.008-.042-.017-.065m.305-.229.145.049.962.005c-.304.015-.579.035-.85.055l.084.069a1.7 1.7 0 0 0-.34-.178Zm-.203.02c.13-.04.413-.172.49-.397l.058-.032c-.092-.026-.258-.018-.51.031.091-.022.167-.059.465-.061l.548-.245-.483.27c-.04.11-.055.212-.371.416l-.211.055q.009-.018.015-.036Zm-.002-.185c.149-.054.298-.121.447-.187a6 6 0 0 1-.433.236c-.004-.016-.006-.034-.015-.049Zm.407.028c.018-.01.196-.016.268-.023.036-.018.496-.095.62-.319.104.204-.326.317-.368.338a3.5 3.5 0 0 0-.52.004m.71-.576.095-.037c.01.017-.059.134-.181.256-.16.159-.253.228-.558.277l.016-.022c.235-.057.559-.263.627-.473Zm-1.011.224c.26-.187.764-.4.753-.684.068.088.031.241-.132.395q-.244.067-.649.328zm-.174.109c.055-.043.216-.21.199-.426l-.266.261q-.02-.02-.047-.041l.313-.228.072-.066a.62.62 0 0 1-.28.571l.01-.072Zm.272-.337c.101-.049.472-.335.456-.632l.096-.07c-.019.098-.048.301-.271.534-.08.078-.171.155-.3.228zm-.11-.167.552-.452-.44.453a1 1 0 0 0-.112-.001m-.324-.257c.014.058.045.153-.024.34.1-.046.189-.06.278-.079-.153.041-.306.083-.451.245l-.013.004-.006-.01c.184-.182.184-.332.161-.443zm.021.148c.123-.087.565-.352.581-.66l.083-.058c-.013.185-.121.321-.205.419-.144.144-.303.25-.46.336zm-.357-.04c.185-.104.236-.103.286-.137.146-.098.458-.34.606-.436l-.554.462a2 2 0 0 0-.338.111m.921-.617c-.252.055-.995.293-1.142.772-.044.044-.089.088-.128.172-.097.075-.094.163-.086.253-.031.01-.138.065-.155.166-.018.093.03.239.217.225l.052.011c-.936.137-.159-1.38 1.241-1.599ZM5.837 6.583c.273-.16.277-.554.298-.911l.017-.015c.003.279.052.342.087.404-.075.229-.205.57-.401.523Zm-.013-1.405c-.038.277.028.456.166.566a.3.3 0 0 0 .078-.034c-.097.343-.355 1.016-.793 1.285l.042-.117c-.134-.473.078-1.122.18-1.419-.161.541-.236 1.08-.142 1.336l-.021.063c.221-.122.479-.584.641-1.101a.6.6 0 0 1-.165-.271l-.442 1.267.417-1.522.038-.054Zm-.367.281a3 3 0 0 1-.166.487c-.111.197-.417.853-.873.775.502-.158.661-.664.942-1.232a1 1 0 0 0 .097-.03m.063-.691c-.103.116-.185.387-.107.629l-.009.011c-.11-.366.065-.584.116-.64m-1.834.628c.471.114 1.003-.386 1.209-.463l.03.002c-.122.104-.245.228-.367.349-.612.334-.775.248-.872.112m1.59-.963c-.264.105-.382.256-.398.432.111.026.338.035.629-.145a.5.5 0 0 1-.127-.094l-.48.219c.155-.093.315-.188.448-.288l.054-.023c.055.088.12.119.184.155-.062.052-.376.331-.788.208l.065-.033c.03-.305.333-.404.412-.433Zm-.463.363c-.009.037-.02.076-.018.104a2.4 2.4 0 0 1-.439.108c-.009.002-.052.017-.068-.011a.1.1 0 0 0-.062-.012c-.004-.009-.024-.005-.027-.014.398-.062.58-.148.614-.176Zm-.446-.264c-.072.043-.522.255-.535.424l-.04.018c.053.028.243.018.402-.002.002.009.02.008.024.013-.096.008-.256.059-.469.001.075-.199.513-.408.618-.454m-.51.419c.712-.237 1.058-.428 1.438-.543v.012c-.03.017-.28.07-.378.197zm.891-.81.007.005c-.038.029-.077.054-.115.096-.509.001-.829-.181-.92-.287.126-.091.285-.123.453-.14-.144.038-.313.061-.39.143h-.036c.236.237.867.343 1.003.182Zm-.935-.175c.374.025.739.069 1.127.064.07-.009.107-.005.152-.004q-.194.013-.263.069c-.347-.049-.677-.086-1.016-.129m.035-.485c.07.064.342.275.838.222.019.043.038.059.057.077a2 2 0 0 0-.398-.023c-.218-.059-.417-.13-.497-.277Zm1.011.092q.011.007.025.011a.8.8 0 0 0-.193.094c-.25-.07-.605-.235-.733-.444.155-.062.417-.033.57 0-.169-.001-.371-.032-.472.028l-.076-.024c.03.089.562.505.879.336Zm-.776-.3c.33.078.648.15 1.079.282l-.032-.038.007-.003c.015.022.034.035.051.051a.6.6 0 0 0-.233.001 17 17 0 0 0-.873-.293Zm.999.113c-.369-.154-.835-.337-.844-.572.13.266.675.478.794.428a.3.3 0 0 0 .049.144Zm.316.146c-.016.016-.03.036-.051.046q-.016.008-.03 0c-.192-.111-.231-.303-.226-.342.148-.023.355-.019.639.139-.062-.012-.273-.151-.609-.125-.006.104.082.304.277.283Zm-.251-.265c.161.07.299.14.487.211l-.014.033c-.044-.019-.088-.018-.132-.02zm-.769-.713.091.048c-.012.185.354.545.761.573-.067.006-.141.005-.194.025a2 2 0 0 1-.429-.32c-.023.003-.04-.048-.078-.032-.104-.12-.145-.214-.151-.294m.594.143c-.162-.044-.334-.108-.456-.073.323.188.983.609 1.143.65-.017-.025-.017-.05-.018-.074q.011.045.034.089c-.12-.042-.239-.091-.362-.108-.27-.187-.47-.338-.838-.577.237-.008.36.046.496.093Zm.188.012c-.148-.116-.313-.247-.35-.432.173.018.51.123.772.292-.244-.125-.473-.219-.661-.216-.015.153.141.254.24.356Zm-.228-.351c.304.193.549.428.918.575-.009.012-.166-.061-.207-.054-.043.008-.017.08-.037.101-.006-.045.002-.09-.054-.132-.197-.16-.378-.318-.628-.484zm.785.887c-.035-.051-.09-.209-.054-.314.475.092.554.427.562.494-.07-.243-.328-.464-.506-.435.109.09.241.274.324.352-.039.002-.079.004-.104.013-.067-.007-.097.005-.132.015-.037-.038-.05-.067-.072-.099.048.061.117.052.19.033-.073-.119-.146-.205-.219-.306-.036.024-.002.152.011.247m.191-.454c.807.481.868 1.272.298 1.142.685-.074-.118-.987-.298-1.142m.037.567c.066-.025.244-.022.252.224l-.059.039c.001-.067.013-.22-.194-.263Zm.194.268.061-.04c.294.1.15.386-.055.34.244-.022.192-.302-.007-.3Z"/><path fill="#f4f4f4" stroke="#089d00" stroke-linejoin="round" stroke-width=".03" d="m5.984 3.472-.152.4a.3.3 0 0 1-.121-.079c.001-.138.138-.311.273-.321Z"/><path fill="#f4f4f4" stroke="#089d00" stroke-linejoin="round" stroke-width=".03" d="m6.105 4.25-.273-.379c.043-.001.092 0 .152-.013.08.068.17.243.121.391Z"/><path fill="#f4f4f4" stroke="#089d00" stroke-linejoin="round" stroke-width=".03" d="M6.028 3.746c.082.021.139.069.149.098l-.193.016a1 1 0 0 0 .044-.115Zm-.478.076c-.036-.047-.036-.142.001-.162l.161.133c-.043.009-.12.013-.162.029Z"/><path fill="#f4f4f4" stroke="#089d00" stroke-linejoin="round" stroke-width=".03" d="m5.381 4.082.45-.208c.009-.005-.064-.068-.12-.08-.12-.014-.32.121-.33.289Zm.374 0c-.232.597.768.689 1.035.707l-.032-.15c-.484-.019-.935-.115-.868-.442-.087-.049-.106-.071-.134-.116Z"/><path fill="#f4f4f4" stroke="#089d00" stroke-linejoin="round" stroke-width=".03" d="M5.755 4.081c-.054.024-.13.034-.205.044-.193.724 1.057.781 1.296.808a.5.5 0 0 1-.058-.146c-.634-.037-1.221-.25-1.034-.706Zm3.305-.743c.07.13.145.283.198.428.03-.04.06-.08.12-.125-.033-.136-.109-.281-.318-.302Z"/><path fill="#f4f4f4" stroke="#089d00" stroke-linejoin="round" stroke-width=".03" d="M9.061 3.337a3 3 0 0 1 .198.428l-.17-.022c-.101-.099-.125-.295-.028-.406Z"/><path fill="#f4f4f4" stroke="#089d00" stroke-linejoin="round" stroke-width=".03" d="M8.799 3.66c.044-.045.138-.06.214-.048a.7.7 0 0 0 .076.132zm.753-.157-.174.139.113.053c.091-.07.066-.193.061-.192Z"/><path fill="#f4f4f4" stroke="#089d00" stroke-linejoin="round" stroke-width=".03" d="M9.378 3.64a.5.5 0 0 0-.119.124l.434.199c.002-.067-.067-.233-.315-.323Zm-.12.123-.313.363c.2-.008.28-.088.35-.187z"/><path fill="#f4f4f4" stroke="#089d00" stroke-linejoin="round" stroke-width=".03" d="M9.552 3.503a.32.32 0 0 0-.217.017c.021.039.034.087.044.122zm-.294.26.436.199c-.08.059-.332.004-.4-.023l-.037-.177Z"/><path fill="#f4f4f4" stroke="#089d00" stroke-linejoin="round" stroke-width=".03" d="m9.259 3.764-.171-.022c-.19.071-.156.362-.142.383z"/><path fill="#f4f4f4" stroke="#089d00" stroke-linejoin="round" stroke-width=".03" d="m9.086 3.743-.288-.083c.014.062.099.133.163.156.014-.011.077-.063.124-.073Zm.215.197a.4.4 0 0 1-.129.125c.102.419-.569.524-.957.573a.5.5 0 0 1-.043.151c.07-.004 1.446-.028 1.128-.848Z"/><path fill="#f4f4f4" stroke="#089d00" stroke-linejoin="round" stroke-width=".03" d="M9.308 3.945c.185.61-.421.784-1.135.842l-.051.121c.97-.061 1.477-.342 1.345-.929a1 1 0 0 1-.158-.034Z"/><path fill="#eee" d="M7.084 2.389c-.019-.305.471.043.697.056-.158.016-.677-.294-.674-.05l-.024-.005Z"/><path fill="#f4f4f4" stroke="#089d00" stroke-linejoin="round" stroke-width=".03" d="m5.984 3.472-.151.4c.042-.001.078.002.151-.012.068-.126.082-.304 0-.388Zm.122.779-.273-.379a.8.8 0 0 0-.077.208c.034.083.195.169.351.171Z"/><path fill="#f4f4f4" stroke="#089d00" stroke-linejoin="round" stroke-width=".03" d="M6.061 3.958c.096-.031.114-.083.115-.114l-.192.015q.042.046.077.098Zm-.319-.287c-.039-.023-.164-.031-.19-.011l.16.133a1 1 0 0 1 .03-.122Zm-.362.41.45-.208c.01-.004-.054.16-.075.208-.053.025-.277.073-.375.001Z"/></svg>