<?xml version="1.0" encoding="UTF-8" standalone="no"?><!DOCTYPE svg PUBLIC "-//W3C//DTD SVG 1.1//EN" "http://www.w3.org/Graphics/SVG/1.1/DTD/svg11.dtd"><svg width="100%" height="100%" viewBox="0 0 15 15" version="1.1" xmlns="http://www.w3.org/2000/svg" xmlns:xlink="http://www.w3.org/1999/xlink" xml:space="preserve" xmlns:serif="http://www.serif.com/" style="fill-rule:evenodd;clip-rule:evenodd;stroke-linejoin:round;stroke-miterlimit:2;"><path d="M1,2c0,-0.552 0.448,-1 1,-1l11,0c0.552,0 1,0.448 1,1l-0,11c-0,0.552 -0.448,1 -1,1l-11,-0c-0.552,-0 -1,-0.448 -1,-1l0,-11Z" style="fill:#f4f4f4;"/><path d="M2,2.5c0,-0.276 0.224,-0.5 0.5,-0.5l10,-0c0.276,0 0.5,0.224 0.5,0.5l0,10c-0,0.276 -0.224,0.5 -0.5,0.5l-10,0c-0.276,-0 -0.5,-0.224 -0.5,-0.5l0,-10Z" style="fill:#00329b;"/><path d="M6.5,13l2,0l-0,-5.4c0,-0.027 0.011,-0.052 0.029,-0.071c0.019,-0.019 0.044,-0.029 0.071,-0.029c0.369,-0 1.673,-0 2.4,-0c0.133,0 0.26,-0.053 0.354,-0.146c0.094,-0.094 0.146,-0.221 0.146,-0.354l-0,-2c0,-0.133 -0.053,-0.26 -0.146,-0.354c-0.094,-0.094 -0.221,-0.146 -0.354,-0.146l-7,0c-0.276,0 -0.5,0.224 -0.5,0.5l0,2c-0,0.133 0.053,0.26 0.146,0.354c0.094,0.094 0.221,0.146 0.354,0.146l2.4,0c0.027,-0 0.052,0.011 0.071,0.029c0.019,0.019 0.029,0.044 0.029,0.071c-0,0.745 -0,5.4 -0,5.4Z" style="fill:#f4f4f4;"/><path d="M4,5.1c-0,-0.027 0.011,-0.052 0.029,-0.071c0.019,-0.019 0.044,-0.029 0.071,-0.029c0.79,0 6.01,0 6.8,0c0.027,-0 0.052,0.011 0.071,0.029c0.019,0.019 0.029,0.044 0.029,0.071c0,0.341 0,1.459 0,1.8c0,0.027 -0.011,0.052 -0.029,0.071c-0.019,0.019 -0.044,0.029 -0.071,0.029c-0.79,-0 -6.01,-0 -6.8,-0c-0.027,0 -0.052,-0.011 -0.071,-0.029c-0.019,-0.019 -0.029,-0.044 -0.029,-0.071c-0,-0.341 -0,-1.459 -0,-1.8Z" style="fill:#ce4d4b;"/></svg>