<?xml version="1.0" encoding="UTF-8" standalone="no"?><!DOCTYPE svg PUBLIC "-//W3C//DTD SVG 1.1//EN" "http://www.w3.org/Graphics/SVG/1.1/DTD/svg11.dtd"><svg width="100%" height="100%" viewBox="0 0 15 15" version="1.1" xmlns="http://www.w3.org/2000/svg" xmlns:xlink="http://www.w3.org/1999/xlink" xml:space="preserve" xmlns:serif="http://www.serif.com/" style="fill-rule:evenodd;clip-rule:evenodd;stroke-linejoin:round;stroke-miterlimit:2;"><path d="M7,9l0,-6l1,0l-0,6l3.5,0c0.276,0 0.5,0.224 0.5,0.5c0,0.276 -0.224,0.5 -0.5,0.5l-3.5,-0l-0,3.5c-0,0.276 -0.224,0.5 -0.5,0.5c-0.276,0 -0.5,-0.224 -0.5,-0.5l0,-3.5l-3.5,-0c-0.276,-0 -0.5,-0.224 -0.5,-0.5c0,-0.276 0.224,-0.5 0.5,-0.5l3.5,0Zm-5.5,5c-0.276,-0 -0.5,-0.224 -0.5,-0.5l-0,-6c0,-0.276 0.224,-0.5 0.5,-0.5c0.133,0 0.26,0.053 0.354,0.146c0.094,0.094 0.146,0.221 0.146,0.354l0,3.4c-0,0.027 0.011,0.052 0.029,0.071c0.019,0.019 0.044,0.029 0.071,0.029l2.4,0c0.133,-0 0.26,0.053 0.354,0.146c0.094,0.094 0.146,0.221 0.146,0.354l-0,2c0,0.133 -0.053,0.26 -0.146,0.354c-0.094,0.094 -0.221,0.146 -0.354,0.146c-0.133,-0 -0.26,-0.053 -0.354,-0.146c-0.094,-0.094 -0.146,-0.221 -0.146,-0.354l-0,-1.4c0,-0.027 -0.011,-0.052 -0.029,-0.071c-0.019,-0.019 -0.044,-0.029 -0.071,-0.029l-1.8,0c-0.027,-0 -0.052,0.011 -0.071,0.029c-0.019,0.019 -0.029,0.044 -0.029,0.071l-0,1.4c0,0.133 -0.053,0.26 -0.146,0.354c-0.094,0.094 -0.221,0.146 -0.354,0.146Zm12,0c-0.133,-0 -0.26,-0.053 -0.354,-0.146c-0.094,-0.094 -0.146,-0.221 -0.146,-0.354l-0,-1.4c0,-0.027 -0.011,-0.052 -0.029,-0.071c-0.019,-0.019 -0.044,-0.029 -0.071,-0.029l-1.8,-0c-0.027,-0 -0.052,0.011 -0.071,0.029c-0.019,0.019 -0.029,0.044 -0.029,0.071l-0,1.4c0,0.133 -0.053,0.26 -0.146,0.354c-0.094,0.094 -0.221,0.146 -0.354,0.146c-0.133,0 -0.26,-0.053 -0.354,-0.146c-0.094,-0.094 -0.146,-0.221 -0.146,-0.354l-0,-2c-0,-0.133 0.053,-0.26 0.146,-0.354c0.094,-0.094 0.221,-0.146 0.354,-0.146l2.4,-0c0.027,0 0.052,-0.011 0.071,-0.029c0.019,-0.019 0.029,-0.044 0.029,-0.071l0,-3.4c-0,-0.133 0.053,-0.26 0.146,-0.354c0.094,-0.094 0.221,-0.146 0.354,-0.146c0.276,0 0.5,0.224 0.5,0.5l-0,6c-0,0.276 -0.224,0.5 -0.5,0.5Z" style="fill:#895100;"/><path d="M1.084,3.961c-0.051,0.024 -0.084,0.075 -0.084,0.132c-0,0.001 -0,0.001 -0,0.002c-0,0.24 0.095,0.47 0.265,0.64c0.17,0.17 0.4,0.265 0.64,0.265c2.382,-0 8.808,-0 11.19,-0c0.24,-0 0.47,-0.095 0.64,-0.265c0.17,-0.17 0.265,-0.4 0.265,-0.64c0,-0.011 0,-0.022 0,-0.031c0,-0.039 -0.023,-0.074 -0.058,-0.091c-0.571,-0.264 -5.188,-2.394 -6.232,-2.876c-0.133,-0.061 -0.286,-0.061 -0.419,0c-1.03,0.475 -5.533,2.554 -6.206,2.864Z" style="fill:#e7e299;"/></svg>