<svg xmlns="http://www.w3.org/2000/svg" xml:space="preserve" fill-rule="evenodd" stroke-linejoin="round" stroke-miterlimit="2" clip-rule="evenodd" viewBox="0 0 15 15"><path fill="#eee" d="M11 13.4q.001.042.029.071a.1.1 0 0 0 .071.029h1.05a.1.1 0 0 0 .1-.1V2a.5.5 0 0 0-.5-.5h-8.5a.5.5 0 0 0-.5.5v11.4a.1.1 0 0 0 .1.1H3.9a.1.1 0 0 0 .1-.1V2.85q.001-.042.029-.071A.1.1 0 0 1 4.1 2.75h6.8q.042.001.071.029A.1.1 0 0 1 11 2.85z"/><path d="M10.5 3.25h-6V13.4l-.046.23-.13.195-.195.13-.23.046h-1.05l-.234-.047-.191-.128-.128-.191-.047-.234v-11.4a.997.997 0 0 1 1-1h8.5a.997.997 0 0 1 1 1v11.4l-.047.234-.128.191-.191.128-.234.047h-1.05l-.23-.046-.195-.13-.13-.195-.046-.23V3.25ZM11 13.4q.001.042.029.071a.1.1 0 0 0 .071.029h1.05a.1.1 0 0 0 .1-.1V2a.5.5 0 0 0-.5-.5h-8.5a.5.5 0 0 0-.5.5v11.4a.1.1 0 0 0 .1.1H3.9a.1.1 0 0 0 .1-.1V2.85q.001-.042.029-.071A.1.1 0 0 1 4.1 2.75h6.8q.042.001.071.029A.1.1 0 0 1 11 2.85z"/></svg>