<?xml version="1.0" encoding="UTF-8" standalone="no"?><!DOCTYPE svg PUBLIC "-//W3C//DTD SVG 1.1//EN" "http://www.w3.org/Graphics/SVG/1.1/DTD/svg11.dtd"><svg width="100%" height="100%" viewBox="0 0 63 63" version="1.1" xmlns="http://www.w3.org/2000/svg" xmlns:xlink="http://www.w3.org/1999/xlink" xml:space="preserve" xmlns:serif="http://www.serif.com/" style="fill-rule:evenodd;clip-rule:evenodd;stroke-linejoin:round;stroke-miterlimit:2;"><path d="M4.167,8.333c0,-2.301 1.865,-4.167 4.167,-4.167c10.09,0 35.744,0 45.833,0c2.301,0 4.167,1.865 4.167,4.167c-0,10.09 -0,35.744 -0,45.833c-0,2.301 -1.865,4.167 -4.167,4.167c-10.09,-0 -35.744,-0 -45.833,-0c-2.301,-0 -4.167,-1.865 -4.167,-4.167l0,-45.833Z" style="fill:#f4f4f4;"/><path d="M8.333,10.417c0,-1.151 0.933,-2.083 2.083,-2.083c7.634,-0 34.032,-0 41.667,-0c1.151,0 2.083,0.933 2.083,2.083c0,7.634 0,34.032 0,41.667c-0,1.151 -0.933,2.083 -2.083,2.083c-7.634,0 -34.032,0 -41.667,0c-1.151,-0 -2.083,-0.933 -2.083,-2.083l0,-41.667Z" style="fill:#00329b;"/><path d="M21.991,45.833c-1.151,0 -2.083,-0.933 -2.083,-2.083c-0,-5.369 -0,-19.631 -0,-25c0,-1.151 0.933,-2.083 2.083,-2.083c2.822,0 7.512,0 7.512,0c3.636,0 6.006,0.146 7.111,0.438c1.697,0.438 3.118,1.389 4.262,2.855c1.145,1.466 1.717,3.359 1.717,5.68c0,1.791 -0.33,3.296 -0.99,4.516c-0.66,1.22 -1.498,2.179 -2.515,2.875c-1.017,0.696 -2.05,1.157 -3.101,1.383c-1.428,0.279 -3.495,0.418 -6.202,0.418l-3.482,0c-0.111,-0 -0.217,0.044 -0.295,0.122c-0.078,0.078 -0.122,0.184 -0.122,0.295c0,1.375 0,5.83 0,8.502c-0,1.151 -0.933,2.083 -2.083,2.083c-0.587,-0 -1.226,-0 -1.813,-0Zm4.313,-24.233c-0.111,-0 -0.217,0.044 -0.295,0.122c-0.078,0.078 -0.122,0.184 -0.122,0.295c0,1.415 0,6.028 0,7.443c-0,0.111 0.044,0.217 0.122,0.295c0.078,0.078 0.184,0.122 0.295,0.122c0.882,-0 2.856,-0 2.856,-0c2.357,0 3.932,-0.153 4.727,-0.458c0.795,-0.305 1.417,-0.783 1.869,-1.432c0.451,-0.65 0.677,-1.406 0.677,-2.268c0,-1.061 -0.316,-1.936 -0.949,-2.626c-0.633,-0.69 -1.434,-1.121 -2.404,-1.293c-0.714,-0.133 -2.148,-0.199 -4.303,-0.199l-2.472,0Z" style="fill:#f4f4f4;fill-rule:nonzero;"/></svg>