<svg xmlns="http://www.w3.org/2000/svg" xml:space="preserve" fill-rule="evenodd" stroke-linejoin="round" stroke-miterlimit="2" clip-rule="evenodd" viewBox="0 0 15 15"><path fill="#a7a7a7" d="M10.5 0v.93c0 .5.25.97.67 1.25l1.22.81a2.5 2.5 0 0 1 1.11 2.08v4.86a2.5 2.5 0 0 1-1.11 2.08l-1.22.81a1.5 1.5 0 0 0-.67 1.25V15H10V0z"/><path fill="#414141" fill-rule="nonzero" d="M10 0H7.5v15H10v-.93a2 2 0 0 1 .9-1.66l1.21-.82a2 2 0 0 0 .9-1.66V5.07a2 2 0 0 0-.9-1.66l-1.22-.82A2 2 0 0 1 10 .93z"/><path fill="#f4f4f4" d="M7.75 15H7.5v-1h.25zm0-14H7.5V0h.25zm0 11.25H7.5v-2h.25zm0-3.75H7.5v-2h.25zm0-3.75H7.5v-2h.25z"/></svg>