<?xml version="1.0" encoding="UTF-8" standalone="no"?><!DOCTYPE svg PUBLIC "-//W3C//DTD SVG 1.1//EN" "http://www.w3.org/Graphics/SVG/1.1/DTD/svg11.dtd"><svg width="100%" height="100%" viewBox="0 0 15 15" version="1.1" xmlns="http://www.w3.org/2000/svg" xmlns:xlink="http://www.w3.org/1999/xlink" xml:space="preserve" xmlns:serif="http://www.serif.com/" style="fill-rule:evenodd;clip-rule:evenodd;stroke-linejoin:round;stroke-miterlimit:2;"><path d="M9.5,9l1,-0.5l2,1.5l-0.577,1l-2.423,-2Z" style="fill:#00329b;"/><path d="M11.5,6c0.5,0 0.5,0.5 0.5,0.5l0,0.5c0.5,0 1,0 1.5,0.5l1.5,1.5c0,0 0,1 -1,1l-1.5,0l-2,-1.5l0.5,-2c0.15,-0.46 0.5,-0.5 0.5,-0.5Zm-5,1c0.68,-0.01 0.68,1.01 0,1c0,0 -0.15,0.01 -0.28,0.07c-0.13,0.07 -0.22,0.1 -0.22,0.43l0,0.5l3.5,0l1.5,1c0.37,0.24 1,0.61 1,1.5l0,2.5c0,0 0.5,0 0.5,0.5c0,0.5 -0.5,0.5 -0.5,0.5l-0.5,0c0,0 -0.5,0 -0.84,-1.01c0,0 -0.521,-1.571 -0.637,-1.921c-0.014,-0.041 -0.052,-0.069 -0.095,-0.069c-0.402,0 -2.361,0 -2.828,0c-0.027,-0 -0.052,0.011 -0.071,0.029c-0.019,0.019 -0.029,0.044 -0.029,0.071c0,0.466 0,2.4 0,2.4c0,0 0,0.5 -0.5,0.5c-0.5,0 -0.5,-0.5 -0.5,-0.5l0,-1.8c-0.31,0.16 -0.65,0.3 -1,0.3l0,1.5c0,0 0,0.5 -0.5,0.5c-0.5,0 -0.5,-0.5 -0.5,-0.5l0,-2c0,-0.5 0.5,-0.5 0.5,-0.5c0.5,0 0.5,-0.5 0.5,-1.5l0,-2c0,-0.67 0.41,-1.14 0.78,-1.32c0.37,-0.19 0.72,-0.18 0.72,-0.18Z" style="fill:#d39f10;"/><path d="M8.1,3c-0.027,-0 -0.052,0.011 -0.071,0.029c-0.019,0.019 -0.029,0.044 -0.029,0.071c0,0.466 0,2.4 0,2.4c0,0.28 -0.22,0.5 -0.5,0.5c-0.28,0 -0.5,-0.22 -0.5,-0.5l-0,-2.4c0,-0.027 -0.011,-0.052 -0.029,-0.071c-0.019,-0.019 -0.044,-0.029 -0.071,-0.029c-0.192,-0 -0.608,-0 -0.8,-0c-0.027,-0 -0.052,0.011 -0.071,0.029c-0.019,0.019 -0.029,0.044 -0.029,0.071c0,0.466 0,2.4 0,2.4c0,0.28 -0.22,0.5 -0.5,0.5c-0.28,0 -0.5,-0.22 -0.5,-0.5l0,-2.4c0,-0.027 -0.011,-0.052 -0.029,-0.071c-0.019,-0.019 -0.044,-0.029 -0.071,-0.029c-0.192,-0 -0.608,-0 -0.8,-0c-0.027,-0 -0.052,0.011 -0.071,0.029c-0.019,0.019 -0.029,0.044 -0.029,0.071c0,0.466 0,2.4 0,2.4c0,0.28 -0.22,0.5 -0.5,0.5c-0.28,0 -0.5,-0.22 -0.5,-0.5l0,-2.4c0,-0.027 -0.011,-0.052 -0.029,-0.071c-0.019,-0.019 -0.044,-0.029 -0.071,-0.029c-0.192,-0 -0.608,-0 -0.8,-0c-0.027,-0 -0.052,0.011 -0.071,0.029c-0.019,0.019 -0.029,0.044 -0.029,0.071c0,0.466 0,2.4 0,2.4c0,0.28 -0.22,0.5 -0.5,0.5c-0.28,0 -0.5,-0.22 -0.5,-0.5l0,-2.86c0,-0.4 0.25,-0.77 0.62,-0.92c1.18,-0.48 2.47,-0.72 3.88,-0.72c1.41,0 2.7,0.24 3.88,0.72c0.37,0.15 0.62,0.52 0.62,0.92l0,2.86c0,0.28 -0.22,0.5 -0.5,0.5c-0.28,0 -0.5,-0.22 -0.5,-0.5l0,-2.4c0,-0.027 -0.011,-0.052 -0.029,-0.071c-0.019,-0.019 -0.044,-0.029 -0.071,-0.029c-0.192,-0 -0.608,-0 -0.8,-0Z" style="fill:#ce4d4b;"/></svg>