<svg xmlns="http://www.w3.org/2000/svg" xml:space="preserve" fill-rule="evenodd" stroke-linejoin="round" stroke-miterlimit="2" clip-rule="evenodd" viewBox="0 0 15 15"><path fill="#f4f4f4" d="M5.506 5.5V2a1 1 0 0 1 1-1h1.989a1 1 0 0 1 1 1v3.5h3.483a.997.997 0 0 1 1 1v2a.997.997 0 0 1-1 1H9.495V13a1 1 0 0 1-1 1H6.506a1 1 0 0 1-1-1V9.5H2.023a.997.997 0 0 1-1-1v-2a.997.997 0 0 1 1-1z"/><path fill="#089d00" d="M6.006 2a.5.5 0 0 1 .5-.5h1.989a.5.5 0 0 1 .5.5v3.9q.001.042.029.071A.1.1 0 0 0 9.095 6h3.883a.5.5 0 0 1 .5.5v2a.5.5 0 0 1-.5.5H9.095a.1.1 0 0 0-.1.1V13a.5.5 0 0 1-.5.5H6.506a.5.5 0 0 1-.5-.5V9.1a.1.1 0 0 0-.1-.1H2.023a.5.5 0 0 1-.5-.5v-2a.5.5 0 0 1 .5-.5h3.883a.1.1 0 0 0 .1-.1z"/></svg>