<svg xmlns="http://www.w3.org/2000/svg" xml:space="preserve" fill-rule="evenodd" stroke-linejoin="round" stroke-miterlimit="2" clip-rule="evenodd" viewBox="0 0 12 12"><path fill="#272727" fill-rule="nonzero" d="M1.5 1.5C.677 1.5 0 2.177 0 3v6c0 .823.677 1.5 1.5 1.5h9c.823 0 1.5-.677 1.5-1.5V3c0-.823-.677-1.5-1.5-1.5z"/><path fill="#e4e4e4" d="M2 6a.5.5 0 0 1 .5-.5h7a.5.5 0 0 1 0 1h-7A.5.5 0 0 1 2 6m2-2a.5.5 0 1 1 1 0 .5.5 0 0 1-1 0m2 0a.5.5 0 0 1 .5-.5h1a.5.5 0 1 1 0 1h-1A.5.5 0 0 1 6 4M4 8a.5.5 0 0 1 .5-.5h3a.5.5 0 1 1 0 1h-3A.5.5 0 0 1 4 8"/><path fill="#d39f10" d="M10.5 2.5c.274 0 .5.226.5.5s-.226.5-.5.5A.503.503 0 0 1 10 3c0-.274.226-.5.5-.5m0 6c.274 0 .5.226.5.5s-.226.5-.5.5A.503.503 0 0 1 10 9c0-.274.226-.5.5-.5m-9 0c.274 0 .5.226.5.5s-.226.5-.5.5A.503.503 0 0 1 1 9c0-.274.226-.5.5-.5m0-6c.274 0 .5.226.5.5s-.226.5-.5.5A.503.503 0 0 1 1 3c0-.274.226-.5.5-.5"/></svg>