<svg xmlns="http://www.w3.org/2000/svg" xml:space="preserve" fill-rule="evenodd" stroke-linejoin="round" stroke-miterlimit="2" clip-rule="evenodd" viewBox="0 0 15 15"><path fill="#ce4d4b" d="M7.5 1C4.962 1 3.44 3.03 3.44 5.06v8.559c0 .508 2.03.508 2.03 0v-2.438a.1.1 0 0 1 .1-.1h3.86a.1.1 0 0 1 .1.1v2.438c0 .508 2.03.508 2.03 0V5.06C11.56 3.03 10.037 1 7.5 1"/><path fill="#272727" d="M9.167 4.25a.5.5 0 0 0 .5-.5v-.447a.5.5 0 0 0-.5-.5H5.834a.5.5 0 0 0-.5.5v.447a.5.5 0 0 0 .5.5z"/><path fill="#a83c3a" d="M10.604 5.5a.5.5 0 0 0-.5-.5H4.896a.5.5 0 0 0-.5.5v4a.5.5 0 0 0 .5.5h5.208a.5.5 0 0 0 .5-.5z"/><path fill="#ce4d4b" d="M9.26 8.448a.27.27 0 0 1-.271.271H6.01a.27.27 0 0 1-.271-.271V6.552a.27.27 0 0 1 .271-.271h2.979a.27.27 0 0 1 .271.271z"/><path fill="#f4f4f4" d="M8.948 7.004c.017-.011.042.003.042.023v1.394a.03.03 0 0 1-.027.027H6.038a.03.03 0 0 1-.027-.027V7.027c0-.02.025-.034.042-.023l1.3.844c.09.058.205.058.295 0zm-2.925-.328a.03.03 0 0 1-.012-.023v-.075c0-.014.013-.027.027-.027h2.925c.014 0 .027.013.027.027v.075a.03.03 0 0 1-.012.023l-1.404.911a.14.14 0 0 1-.147 0z"/></svg>