<svg xmlns="http://www.w3.org/2000/svg" xml:space="preserve" fill-rule="evenodd" stroke-linejoin="round" stroke-miterlimit="2" clip-rule="evenodd" viewBox="0 0 15 15"><path fill="#ce4d4b" d="M14 11a.997.997 0 0 1-1 1H2a.997.997 0 0 1-1-1V4a.997.997 0 0 1 1-1h11a.997.997 0 0 1 1 1z"/><path fill="#f4f4f4" d="M12.846 5.67c.061-.04.154.011.154.084V10.9c0 .053-.047.1-.1.1H2.1a.103.103 0 0 1-.1-.1V5.754c0-.073.093-.124.154-.084l4.801 3.116a1 1 0 0 0 1.089 0zm-10.8-1.21A.1.1 0 0 1 2 4.376V4.1c0-.053.047-.1.1-.1h10.8c.053 0 .1.047.1.1v.276a.1.1 0 0 1-.046.084L7.772 7.823a.5.5 0 0 1-.544 0z"/></svg>