<?xml version="1.0" encoding="UTF-8" standalone="no"?><!DOCTYPE svg PUBLIC "-//W3C//DTD SVG 1.1//EN" "http://www.w3.org/Graphics/SVG/1.1/DTD/svg11.dtd"><svg width="100%" height="100%" viewBox="0 0 15 15" version="1.1" xmlns="http://www.w3.org/2000/svg" xmlns:xlink="http://www.w3.org/1999/xlink" xml:space="preserve" xmlns:serif="http://www.serif.com/" style="fill-rule:evenodd;clip-rule:evenodd;stroke-linejoin:round;stroke-miterlimit:2;"><path d="M11.481,2.076c0.011,-0.045 0.051,-0.076 0.097,-0.076l2.778,-0c0.033,-0 0.064,0.016 0.082,0.043c0.019,0.027 0.023,0.061 0.011,0.092l-1.399,3.73c-0.012,0.031 -0.007,0.065 0.011,0.092c0.019,0.027 0.049,0.043 0.082,0.043l1.683,0c0.036,-0 0.069,0.019 0.086,0.05c0.018,0.031 0.018,0.069 0,0.1l-3.609,6.315c-0.024,0.043 -0.076,0.061 -0.122,0.044c-0.046,-0.017 -0.073,-0.065 -0.063,-0.113l0.855,-4.276c0.006,-0.029 -0.002,-0.06 -0.021,-0.083c-0.019,-0.023 -0.047,-0.037 -0.077,-0.037l-1.75,0c-0.031,-0 -0.06,-0.014 -0.079,-0.038c-0.019,-0.024 -0.026,-0.056 -0.018,-0.086l1.45,-5.8Z" style="fill:#e5c200;"/><path d="M5.4,3.5c0.027,-0 0.052,-0.011 0.071,-0.029c0.019,-0.019 0.029,-0.044 0.029,-0.071l0,-1.4c0,-0.55 0.45,-1 1,-1c0.55,0 1,0.45 1,1l0,1.4c-0,0.027 0.011,0.052 0.029,0.071c0.019,0.019 0.044,0.029 0.071,0.029l2.27,-0c0.031,-0 0.06,0.014 0.079,0.039c0.019,0.025 0.025,0.057 0.017,0.087l-0.347,1.3c-0.012,0.044 -0.051,0.074 -0.097,0.074l-1.923,-0c-0.027,-0 -0.052,0.011 -0.071,0.029c-0.019,0.019 -0.029,0.044 -0.029,0.071l0,8.8c0,0.027 -0.011,0.052 -0.029,0.071c-0.019,0.019 -0.044,0.029 -0.071,0.029l-1.8,0c-0.027,0 -0.052,-0.011 -0.071,-0.029c-0.019,-0.019 -0.029,-0.044 -0.029,-0.071l0,-8.8c0,-0.055 -0.045,-0.1 -0.1,-0.1l-5.3,-0c-0.027,-0 -0.052,-0.011 -0.071,-0.029c-0.019,-0.019 -0.029,-0.044 -0.029,-0.071l-0,-1.3c-0,-0.027 0.011,-0.052 0.029,-0.071c0.019,-0.019 0.044,-0.029 0.071,-0.029l5.3,0Z" style="fill:#895100;"/><path d="M1,2.1c-0,-0.027 0.011,-0.052 0.029,-0.071c0.019,-0.019 0.044,-0.029 0.071,-0.029l1.8,0c0.027,-0 0.052,0.011 0.071,0.029c0.019,0.019 0.029,0.044 0.029,0.071l0,0.8c0,0.027 -0.011,0.052 -0.029,0.071c-0.019,0.019 -0.044,0.029 -0.071,0.029l-1.8,-0c-0.027,0 -0.052,-0.011 -0.071,-0.029c-0.019,-0.019 -0.029,-0.044 -0.029,-0.071l-0,-0.8Z" style="fill:#272727;"/></svg>