<?xml version="1.0" encoding="UTF-8" standalone="no"?><!DOCTYPE svg PUBLIC "-//W3C//DTD SVG 1.1//EN" "http://www.w3.org/Graphics/SVG/1.1/DTD/svg11.dtd"><svg width="100%" height="100%" viewBox="0 0 15 15" version="1.1" xmlns="http://www.w3.org/2000/svg" xmlns:xlink="http://www.w3.org/1999/xlink" xml:space="preserve" xmlns:serif="http://www.serif.com/" style="fill-rule:evenodd;clip-rule:evenodd;stroke-linejoin:round;stroke-miterlimit:2;"><path d="M11.481,2.076c0.011,-0.045 0.051,-0.076 0.097,-0.076l2.778,-0c0.033,-0 0.064,0.016 0.082,0.043c0.019,0.027 0.023,0.061 0.011,0.092l-1.399,3.73c-0.012,0.031 -0.007,0.065 0.011,0.092c0.019,0.027 0.049,0.043 0.082,0.043l1.683,0c0.036,-0 0.069,0.019 0.086,0.05c0.018,0.031 0.018,0.069 0,0.1l-3.609,6.315c-0.024,0.043 -0.076,0.061 -0.122,0.044c-0.046,-0.017 -0.073,-0.065 -0.063,-0.113l0.855,-4.276c0.006,-0.029 -0.002,-0.06 -0.021,-0.083c-0.019,-0.023 -0.047,-0.037 -0.077,-0.037l-1.75,0c-0.031,-0 -0.06,-0.014 -0.079,-0.038c-0.019,-0.024 -0.026,-0.056 -0.018,-0.086l1.45,-5.8Z" style="fill:#e5c200;"/><path d="M1,3.5c0,-0.5 1,-0.5 1,0l0,1.25c1,0 0.75,-1 1,-1c0.25,0 0,1 1,1c1,0 0.75,-1 1,-1c0.25,0 0,1 1,1c1,0 0.75,-1 1,-1c0.25,0 0,1 1,1l0,-1.25c0,-0.5 1,-0.5 1,0l0,1.5c0,0 0,1 -1,1c-1,0 -1,-1 -1,-1c0,0 0,1 -1,1c-1,0 -1,-1 -1,-1c0,0 0,1 -1,1c-1,0 -1,-1 -1,-1c0,0 0,1 -1,1c-1,0 -1,-1 -1,-1l0,-1.5Zm0,8l0,-1.5c0,0 0,-1 1,-1c1,0 1,1 1,1c0,0 0,-1 1,-1c1,0 1,1 1,1c0,0 0,-1 1,-1c1,0 1,1 1,1c0,0 0,-1 1,-1c1,0 1,1 1,1l0,1.5c0,0.5 -1,0.5 -1,0l0,-1.25c-1,0 -0.75,1 -1,1c-0.25,0 0,-1 -1,-1c-1,0 -0.75,1 -1,1c-0.25,0 0,-1 -1,-1c-1,0 -0.75,1 -1,1c-0.25,0 0,-1 -1,-1l0,1.25c0,0.5 -1,0.5 -1,0Zm0,-4.5l8,0l0,1l-8,0l0,-1Z" style="fill:#171717;"/><path d="M8.5,0c0.75,0 1.5,0.75 1.5,1.5c0,0.75 -0.75,1.5 -1.5,1.5c-0.75,0 -1.5,-0.75 -1.5,-1.5c0,-0.75 0.75,-1.5 1.5,-1.5Zm0,1c-0.25,0 -0.5,0.25 -0.5,0.5c0,0.25 0.25,0.5 0.5,0.5c0.25,0 0.5,-0.25 0.5,-0.5c0,-0.25 -0.25,-0.5 -0.5,-0.5Zm-7,-1c0.75,0 1.5,0.75 1.5,1.5c0,0.75 -0.75,1.5 -1.5,1.5c-0.75,0 -1.5,-0.75 -1.5,-1.5c0,-0.75 0.75,-1.5 1.5,-1.5Zm0,1c-0.25,0 -0.5,0.25 -0.5,0.5c0,0.25 0.25,0.5 0.5,0.5c0.25,0 0.5,-0.25 0.5,-0.5c0,-0.25 -0.25,-0.5 -0.5,-0.5Zm7,11c0.75,0 1.5,0.75 1.5,1.5c0,0.75 -0.75,1.5 -1.5,1.5c-0.75,0 -1.5,-0.75 -1.5,-1.5c0,-0.75 0.75,-1.5 1.5,-1.5Zm0,1c-0.25,0 -0.5,0.25 -0.5,0.5c0,0.25 0.25,0.5 0.5,0.5c0.25,0 0.5,-0.25 0.5,-0.5c0,-0.25 -0.25,-0.5 -0.5,-0.5Zm-7,-1c0.75,0 1.5,0.75 1.5,1.5c0,0.75 -0.75,1.5 -1.5,1.5c-0.75,0 -1.5,-0.75 -1.5,-1.5c0,-0.75 0.75,-1.5 1.5,-1.5Zm0,1c-0.25,0 -0.5,0.25 -0.5,0.5c0,0.25 0.25,0.5 0.5,0.5c0.25,0 0.5,-0.25 0.5,-0.5c0,-0.25 -0.25,-0.5 -0.5,-0.5Z" style="fill:#171717;"/></svg>