<svg xmlns="http://www.w3.org/2000/svg" xml:space="preserve" fill-rule="evenodd" stroke-linejoin="round" stroke-miterlimit="2" clip-rule="evenodd" viewBox="0 0 15 15"><path fill="#e5c200" d="M11.481 2.076A.1.1 0 0 1 11.578 2h2.778c.033 0 .064.016.082.043a.1.1 0 0 1 .011.092l-1.399 3.73a.1.1 0 0 0 .093.135h1.683c.036 0 .069.019.086.05a.1.1 0 0 1 0 .1l-3.609 6.315a.1.1 0 0 1-.122.044.1.1 0 0 1-.063-.113l.855-4.276a.1.1 0 0 0-.021-.083.1.1 0 0 0-.077-.037h-1.75a.1.1 0 0 1-.079-.038.1.1 0 0 1-.018-.086l1.45-5.8Z"/><path fill="#414141" d="M5.4 3.5a.1.1 0 0 0 .1-.1V2c0-.55.45-1 1-1s1 .45 1 1v1.4q.001.042.029.071A.1.1 0 0 0 7.6 3.5h2.27c.031 0 .06.014.079.039a.1.1 0 0 1 .017.087l-.347 1.3A.1.1 0 0 1 9.522 5H7.599a.1.1 0 0 0-.1.1v8.8a.1.1 0 0 1-.1.1h-1.8a.1.1 0 0 1-.1-.1V5.1a.1.1 0 0 0-.1-.1h-5.3a.1.1 0 0 1-.1-.1V3.6Q0 3.558.028 3.529A.1.1 0 0 1 .099 3.5z"/><path fill="#272727" d="M1 2.1q.001-.042.029-.071A.1.1 0 0 1 1.1 2h1.8q.042.001.071.029A.1.1 0 0 1 3 2.1v.8a.1.1 0 0 1-.1.1H1.1a.1.1 0 0 1-.1-.1z"/></svg>