<?xml version="1.0" encoding="UTF-8" standalone="no"?><!DOCTYPE svg PUBLIC "-//W3C//DTD SVG 1.1//EN" "http://www.w3.org/Graphics/SVG/1.1/DTD/svg11.dtd"><svg width="100%" height="100%" viewBox="0 0 15 15" version="1.1" xmlns="http://www.w3.org/2000/svg" xmlns:xlink="http://www.w3.org/1999/xlink" xml:space="preserve" xmlns:serif="http://www.serif.com/" style="fill-rule:evenodd;clip-rule:evenodd;stroke-linejoin:round;stroke-miterlimit:2;"><path d="M10.67,11.91l0.205,1.34c0,0 -2.882,-1.921 -3.32,-2.213c-0.034,-0.022 -0.077,-0.022 -0.111,0c-0.438,0.292 -3.32,2.213 -3.32,2.213l0.205,-1.34c0,0 1.669,-1.11 2.145,-1.427c0.028,-0.019 0.045,-0.05 0.045,-0.083c-0,-0.033 -0.017,-0.065 -0.045,-0.083c-0.416,-0.276 -1.725,-1.147 -1.725,-1.147l0.27,-1.73c0,0 1.223,-0.976 1.582,-1.262c0.024,-0.019 0.038,-0.048 0.038,-0.078c0,-0.03 -0.014,-0.059 -0.037,-0.078c-0.304,-0.244 -1.212,-0.972 -1.212,-0.972l0.16,-1.05c0.09,0.01 0.18,0.05 0.26,0.11c0,0 1.322,1.056 1.628,1.3c0.036,0.029 0.088,0.029 0.125,0c0.305,-0.244 1.628,-1.3 1.628,-1.3c0.08,-0.06 0.17,-0.1 0.26,-0.11l0.16,1.05c0,0 -0.909,0.728 -1.212,0.972c-0.024,0.019 -0.038,0.048 -0.037,0.078c0,0.03 0.014,0.059 0.038,0.078c0.359,0.286 1.582,1.262 1.582,1.262l0.27,1.73c0,0 -1.309,0.87 -1.725,1.147c-0.028,0.019 -0.045,0.05 -0.045,0.083c-0,0.033 0.017,0.065 0.045,0.083c0.476,0.316 2.145,1.427 2.145,1.427Zm-3.225,-2.147c0.034,0.022 0.077,0.022 0.111,0c0.279,-0.186 1.534,-1.02 1.921,-1.277c0.027,-0.018 0.043,-0.047 0.045,-0.079c0.001,-0.032 -0.013,-0.063 -0.037,-0.082c-0.376,-0.3 -1.626,-1.299 -1.921,-1.535c-0.037,-0.029 -0.088,-0.029 -0.125,-0c-0.294,0.235 -1.545,1.235 -1.921,1.535c-0.025,0.02 -0.039,0.051 -0.037,0.082c0.001,0.032 0.018,0.061 0.045,0.079c0.387,0.257 1.641,1.092 1.921,1.277Z" style="fill:#ce4d4b;"/><path d="M4.131,13.207c-0.004,0.028 -0.02,0.052 -0.043,0.068c-0.137,0.091 -0.626,0.417 -0.899,0.599c-0.033,0.022 -0.076,0.022 -0.109,0.001c-0.033,-0.021 -0.051,-0.06 -0.045,-0.1c0.212,-1.377 1.333,-8.655 1.488,-9.66c0.004,-0.029 -0.004,-0.058 -0.023,-0.08c-0.019,-0.022 -0.047,-0.035 -0.076,-0.035c-0.096,-0 -0.232,-0 -0.323,-0c-0.027,-0 -0.052,0.011 -0.071,0.029c-0.019,0.019 -0.029,0.044 -0.029,0.071c-0,0.096 -0,0.248 -0,0.4c-0,0.276 -0.224,0.5 -0.5,0.5c-0.276,-0 -0.5,-0.224 -0.5,-0.5l0,-0.4c0,-0.027 -0.011,-0.052 -0.029,-0.071c-0.019,-0.019 -0.044,-0.029 -0.071,-0.029c-0.192,-0 -0.608,-0 -0.8,-0c-0.027,-0 -0.052,0.011 -0.071,0.029c-0.019,0.019 -0.029,0.044 -0.029,0.071c-0,0.096 -0,0.248 -0,0.4c-0,0.276 -0.224,0.5 -0.5,0.5c-0.133,-0 -0.26,-0.053 -0.354,-0.146c-0.094,-0.094 -0.146,-0.221 -0.146,-0.354c-0,-0.305 -0,-0.695 -0,-1c-0,-0.133 0.053,-0.26 0.146,-0.354c0.094,-0.094 0.221,-0.146 0.354,-0.146c0.889,0 2.691,0 3.104,0c0.049,0 0.091,-0.036 0.099,-0.085c0.039,-0.252 0.156,-1.008 0.231,-1.492c0.038,-0.244 0.248,-0.423 0.494,-0.423c0.945,0 3.198,0 4.143,0c0.247,-0 0.456,0.18 0.494,0.423c0.075,0.483 0.192,1.24 0.231,1.492c0.008,0.049 0.05,0.085 0.099,0.085c0.413,-0 2.215,-0 3.104,-0c0.133,-0 0.26,0.053 0.354,0.146c0.094,0.094 0.146,0.221 0.146,0.354c0,0.305 0,0.695 0,1c0,0.133 -0.053,0.26 -0.146,0.354c-0.094,0.094 -0.221,0.146 -0.354,0.146c-0.276,-0 -0.5,-0.224 -0.5,-0.5l0,-0.4c0,-0.027 -0.011,-0.052 -0.029,-0.071c-0.019,-0.019 -0.044,-0.029 -0.071,-0.029c-0.192,-0 -0.608,-0 -0.8,-0c-0.027,-0 -0.052,0.011 -0.071,0.029c-0.019,0.019 -0.029,0.044 -0.029,0.071c-0,0.096 -0,0.248 -0,0.4c-0,0.276 -0.224,0.5 -0.5,0.5c-0.276,-0 -0.5,-0.224 -0.5,-0.5l0,-0.4c0,-0.027 -0.011,-0.052 -0.029,-0.071c-0.019,-0.019 -0.044,-0.029 -0.071,-0.029c-0.092,0 -0.227,0 -0.323,0c-0.029,0 -0.057,0.013 -0.076,0.035c-0.019,0.022 -0.027,0.051 -0.023,0.08c0.155,1.005 1.276,8.284 1.488,9.66c0.006,0.039 -0.012,0.078 -0.045,0.1c-0.033,0.021 -0.076,0.021 -0.109,-0.001c-0.273,-0.182 -0.762,-0.508 -0.899,-0.599c-0.023,-0.016 -0.039,-0.04 -0.043,-0.068c-0.099,-0.644 -1.269,-8.233 -1.406,-9.122c-0.008,-0.049 -0.049,-0.085 -0.099,-0.085c-0.517,0 -3.212,0 -3.728,0c-0.049,-0 -0.091,0.036 -0.099,0.085c-0.137,0.889 -1.306,8.478 -1.406,9.122Zm1.587,-10.323c-0.005,0.029 0.004,0.058 0.023,0.081c0.019,0.022 0.047,0.035 0.076,0.035c0.544,0 2.821,0 3.365,0c0.029,0 0.057,-0.013 0.076,-0.035c0.019,-0.022 0.027,-0.052 0.023,-0.081c-0.033,-0.204 -0.099,-0.621 -0.128,-0.8c-0.008,-0.049 -0.05,-0.084 -0.099,-0.084c-0.461,-0 -2.649,-0 -3.109,-0c-0.049,-0 -0.091,0.036 -0.099,0.084c-0.029,0.179 -0.095,0.596 -0.128,0.8Z" style="fill:#7a7a7a;"/><circle cx="1.5" cy="4.5" r="0.5" style="fill:#171717;"/><circle cx="3.5" cy="4.5" r="0.5" style="fill:#171717;"/><circle cx="11.5" cy="4.5" r="0.5" style="fill:#171717;"/><circle cx="13.5" cy="4.5" r="0.5" style="fill:#171717;"/></svg>