<svg xmlns="http://www.w3.org/2000/svg" xml:space="preserve" fill-rule="evenodd" stroke-linejoin="round" stroke-miterlimit="2" clip-rule="evenodd" viewBox="0 0 15 15"><path fill="#f4f4f4" d="M9.923 10.616h.883c.468 0 1.316.087 1.375-.735.021-.312-.02-.625-.12-.921-.324-.96.931-1.356 1.314-.616.143.276 1.062 2.285-.208 3.41-.647.578-1.406.8-2.364.784h-.888s.008.203-.034.36c-.066.243-.235.458-.449.58-.284.163-.665.164-.961-.002-.345-.194-1.495-.861-1.834-1.065-.291-.174-.48-.506-.479-.834s.192-.659.484-.831c.341-.201 1.496-.861 1.842-1.053.296-.164.676-.161.959.003.212.123.381.339.446.581.038.144.033.339.033.339ZM3.805 8.445l-.442.765c-.234.405-.733 1.096-.051 1.558.26.174.551.295.858.357.993.2.709 1.485-.124 1.446-.31-.014-2.51-.222-2.849-1.885-.178-.849.01-1.617.503-2.44l.444-.769s-.18-.094-.295-.21c-.178-.179-.279-.433-.278-.679.001-.328.191-.658.483-.831.34-.202 1.493-.864 1.839-1.056.296-.165.678-.162.962.003s.474.495.478.835c.004.396-.002 1.727-.009 2.122-.006.338-.199.666-.482.829-.213.122-.484.16-.726.095-.143-.039-.31-.141-.31-.141Zm5.103-3.643-.442-.765c-.234-.405-.583-1.183-1.324-.823-.281.138-.531.33-.738.564-.669.76-1.64-.129-1.19-.83.168-.262 1.447-2.062 3.057-1.525.824.271 1.396.817 1.861 1.656l.444.769s.171-.109.329-.15c.244-.064.514-.025.727.099.283.165.474.494.478.833.005.395.001 1.725-.005 2.12-.006.339-.199.669-.483.832-.285.163-.666.163-.962-.004-.344-.194-1.494-.865-1.833-1.069-.289-.174-.478-.505-.477-.832.001-.245.103-.499.28-.676.105-.105.277-.198.277-.198Z"/><path fill="#5dca19" d="M12.921 8.554s1.02 1.849-.087 2.827c-.553.495-1.207.672-2.029.657h-1.39l-.002.608a.46.46 0 0 1-.232.398.463.463 0 0 1-.461-.001l-1.834-1.065a.461.461 0 0 1-.23-.4.463.463 0 0 1 .232-.399l1.842-1.053a.458.458 0 0 1 .46.002c.142.082.23.234.23.399v.589h1.383c.631 0 1.788.009 1.874-1.201a2.9 2.9 0 0 0-.145-1.116c-.12-.376.305-.421.386-.246Zm-8.829 3.519s-2.111-.041-2.405-1.489c-.152-.727.022-1.381.445-2.085l.695-1.204-.526-.306a.46.46 0 0 1-.229-.4c0-.165.089-.317.231-.399l1.839-1.056a.4603.4603 0 0 1 .69.402l-.009 2.122a.463.463 0 0 1-.231.398.458.458 0 0 1-.46-.001l-.51-.294-.692 1.198c-.315.546-.902 1.544.103 2.223.314.211.667.358 1.039.432.386.085.212.475.02.458Zm1.531-8.836s1.091-1.808 2.492-1.338c.706.232 1.185.71 1.584 1.428l.695 1.204.528-.303a.463.463 0 0 1 .461.001c.142.083.23.235.229.4l-.005 2.12c0 .165-.089.317-.232.399a.46.46 0 0 1-.461-.002L9.081 6.077a.462.462 0 0 1-.229-.399c0-.164.088-.316.231-.398l.51-.294-.692-1.198c-.315-.546-.886-1.553-1.976-1.022-.34.167-.644.399-.894.683-.266.292-.517-.054-.406-.211Z"/></svg>