<?xml version="1.0" encoding="UTF-8" standalone="no"?><!DOCTYPE svg PUBLIC "-//W3C//DTD SVG 1.1//EN" "http://www.w3.org/Graphics/SVG/1.1/DTD/svg11.dtd"><svg width="100%" height="100%" viewBox="0 0 15 15" version="1.1" xmlns="http://www.w3.org/2000/svg" xmlns:xlink="http://www.w3.org/1999/xlink" xml:space="preserve" xmlns:serif="http://www.serif.com/" style="fill-rule:evenodd;clip-rule:evenodd;stroke-linejoin:round;stroke-miterlimit:2;"><path d="M2.456,8.613c-0.338,0.598 -0.955,1.689 0.137,2.418c0.343,0.227 0.728,0.384 1.131,0.461c0.307,0.046 0.323,0.519 -0.038,0.507c-0.385,-0.019 -2.26,-0.193 -2.561,-1.599c-0.156,-0.821 0.02,-1.557 0.504,-2.356l0.697,-1.233c0,0 -0.267,-0.152 -0.559,-0.318c-0.155,-0.088 -0.251,-0.252 -0.253,-0.43c-0.002,-0.178 0.091,-0.344 0.245,-0.435c0.584,-0.347 1.397,-0.83 1.986,-1.18c0.155,-0.092 0.346,-0.094 0.503,-0.005c0.156,0.089 0.253,0.255 0.253,0.435c0,0.682 0,1.62 0,2.289c-0,0.176 -0.092,0.338 -0.242,0.429c-0.15,0.09 -0.337,0.095 -0.492,0.013c-0.297,-0.158 -0.571,-0.304 -0.571,-0.304l-0.739,1.308Zm4.244,-6.579c1.155,-0.628 1.823,0.43 2.191,1.007l0.806,1.263c0,0 -0.257,0.164 -0.54,0.344c-0.15,0.096 -0.238,0.265 -0.231,0.443c0.008,0.178 0.109,0.339 0.267,0.422c0.599,0.315 1.43,0.751 2.031,1.067c0.159,0.083 0.35,0.075 0.501,-0.021c0.151,-0.097 0.239,-0.267 0.23,-0.446c-0.033,-0.679 -0.079,-1.616 -0.112,-2.292c-0.009,-0.178 -0.112,-0.338 -0.27,-0.42c-0.158,-0.082 -0.348,-0.073 -0.499,0.023c-0.282,0.18 -0.538,0.343 -0.538,0.343l-0.76,-1.189c-0.522,-0.746 -0.904,-1.297 -1.835,-1.545c-1.637,-0.313 -2.643,1.586 -2.633,1.574c-0.164,0.287 0.216,0.54 0.451,0.21c0.258,-0.32 0.577,-0.586 0.938,-0.783Zm6.594,6.187c-0.088,-0.19 -0.549,-0.141 -0.419,0.267c0.131,0.389 0.184,0.8 0.157,1.21c-0.093,1.312 -1.348,1.302 -2.032,1.302l-1.5,0l0,-0.638c0,-0.178 -0.095,-0.343 -0.249,-0.432c-0.154,-0.089 -0.344,-0.09 -0.499,-0.002c-0.589,0.337 -1.407,0.804 -1.998,1.142c-0.155,0.089 -0.251,0.254 -0.252,0.432c-0.001,0.179 0.094,0.344 0.249,0.434c0.588,0.341 1.402,0.814 1.989,1.155c0.154,0.09 0.345,0.09 0.5,0.001c0.155,-0.089 0.251,-0.254 0.251,-0.432c0.001,-0.344 0.002,-0.66 0.002,-0.66l1.507,0c0.891,0.015 1.6,-0.176 2.2,-0.713c1.2,-1.061 0.094,-3.066 0.094,-3.066Z" style="fill:#5dca19;fill-rule:nonzero;"/></svg>