<?xml version="1.0" encoding="UTF-8" standalone="no"?><!DOCTYPE svg PUBLIC "-//W3C//DTD SVG 1.1//EN" "http://www.w3.org/Graphics/SVG/1.1/DTD/svg11.dtd"><svg width="100%" height="100%" viewBox="0 0 15 15" version="1.1" xmlns="http://www.w3.org/2000/svg" xmlns:xlink="http://www.w3.org/1999/xlink" xml:space="preserve" xmlns:serif="http://www.serif.com/" style="fill-rule:evenodd;clip-rule:evenodd;stroke-linejoin:round;stroke-miterlimit:2;"><circle cx="7.5" cy="7.5" r="7.5" style="fill:#f4f4f4;"/><circle cx="7.5" cy="7.5" r="6.5" style="fill:#eee;"/><path d="M5.273,2.875c-0.048,0 -0.09,0.035 -0.098,0.082c-0.094,0.518 -0.602,3.31 -0.602,3.31c-0.09,0.496 1.099,0.728 1.079,1.233l-0.154,4.009c-0.024,0.616 0.617,0.617 0.617,0.617c0,0 0.64,-0 0.617,-0.617l-0.154,-4.009c-0.019,-0.504 1.069,-0.728 1.079,-1.233l-0.617,-3.392l-0.202,0c-0.028,0 -0.054,0.011 -0.073,0.032c-0.019,0.02 -0.029,0.047 -0.027,0.075c0.027,0.424 0.124,1.988 0.144,2.305c0.002,0.035 -0.014,0.068 -0.043,0.087c-0.064,0.042 -0.18,0.12 -0.274,0.183c-0.029,0.019 -0.066,0.022 -0.098,0.006c-0.031,-0.016 -0.052,-0.047 -0.054,-0.082c-0.034,-0.603 -0.145,-2.605 -0.145,-2.605l-0.214,0c-0.053,0 -0.097,0.041 -0.1,0.094c-0.022,0.404 -0.11,1.986 -0.139,2.511c-0.002,0.035 -0.022,0.066 -0.054,0.082c-0.031,0.016 -0.068,0.013 -0.098,-0.006c-0.094,-0.062 -0.21,-0.14 -0.274,-0.183c-0.029,-0.019 -0.045,-0.052 -0.043,-0.087c0.023,-0.366 0.15,-2.405 0.151,-2.411c-0,-0 -0,-0.001 -0.001,-0.001c-0,-0 -0.001,0 -0.001,0.001c-0.012,0 -0.136,0 -0.223,0Zm5.159,0.103c0,-0.027 -0.011,-0.053 -0.03,-0.071c-0.019,-0.018 -0.046,-0.028 -0.072,-0.027c-0.458,0.054 -1.13,0.442 -1.411,1.004c-0.252,0.454 -0.336,1.469 -0.336,2.074l0,1.542c0,0.289 0.221,0.449 0.457,0.534c0.229,0.099 0.368,0.334 0.345,0.583c-0.01,0.953 -0.186,2.892 -0.186,2.892c-0.056,0.614 0.617,0.617 0.617,0.617c0,0 0.617,0 0.617,-0.617l0,-8.532Z" style="fill:#a7a7a7;fill-rule:nonzero;"/></svg>