<svg xmlns="http://www.w3.org/2000/svg" xml:space="preserve" fill-rule="evenodd" stroke-linejoin="round" stroke-miterlimit="2" clip-rule="evenodd" viewBox="0 0 15 15"><path fill="#f4f4f4" d="M1 2a1 1 0 0 1 1-1h11a1 1 0 0 1 1 1v11a1 1 0 0 1-1 1H2a1 1 0 0 1-1-1z"/><path fill="#00329b" d="M2 2.5a.5.5 0 0 1 .5-.5h10a.5.5 0 0 1 .5.5v10a.5.5 0 0 1-.5.5h-10a.5.5 0 0 1-.5-.5z"/><path fill="#f4f4f4" fill-rule="nonzero" d="M3.528 11a.5.5 0 0 1-.5-.5v-6a.5.5 0 0 1 .5-.5h1.803q1.31 0 1.707.105.61.157 1.023.685t.412 1.363q0 .645-.238 1.084-.237.44-.604.69a2.1 2.1 0 0 1-.744.332q-.514.1-1.488.1h-.836a.1.1 0 0 0-.1.1V10.5a.5.5 0 0 1-.5.5zm1.035-5.816a.1.1 0 0 0-.1.1V7.07q.001.041.029.071a.1.1 0 0 0 .071.029h.685q.849 0 1.134-.11a.94.94 0 0 0 .448-.344.93.93 0 0 0 .162-.544.9.9 0 0 0-.228-.63 1 1 0 0 0-.577-.31q-.257-.048-1.033-.048h-.593Z"/><path fill="#f4f4f4" d="M10.446 10.358a1.276 1.276 0 0 1-.996-1.459c.442-2.601.872-3.898 1.298-3.898q.632 0 1.238 3.893a1.29 1.29 0 0 1-1.002 1.459v1.378a.27.27 0 0 1-.269.269.27.27 0 0 1-.269-.269zM7 11.751a.25.25 0 0 0 .249.249h.002a.25.25 0 0 0 .249-.249v-.676c0-.041.034-.075.075-.075H8.5a.25.25 0 0 0 .249-.249v-.002A.25.25 0 0 0 8.5 10.5H5.999a.25.25 0 0 0-.249.249v.002a.25.25 0 0 0 .249.249h.926c.041 0 .075.034.075.075z"/></svg>