<svg xmlns="http://www.w3.org/2000/svg" xml:space="preserve" fill-rule="evenodd" stroke-linejoin="round" stroke-miterlimit="2" clip-rule="evenodd" viewBox="0 0 15 15"><path fill="#5a5a5a" fill-rule="nonzero" d="M1.339 12.53V5.747c0-.452 2.713-.452 2.713 0v6.783c0 .452-2.713.452-2.713 0m4.522-6.783v6.783c0 .452 2.713.452 2.713 0V5.747c0-.452-2.713-.452-2.713 0M11 6.651l-.008-.008c-.463-.421-2.232 1.349-1.808 1.81l.006.007 3.159 4.061a.5.5 0 0 0 .061.066c.304.251.762.336 1.165.248a.447.447 0 0 0 .238-.682c-.426-.706-.486-1.517-.297-2.017a.47.47 0 0 0-.043-.555c-.622-.769-2.471-2.926-2.474-2.93ZM8.581 2.999l-.007-.001-7.228-.868q-.02-.002-.041-.002c-.418.137-.407 2.714.034 2.714h7.235c.597 0 .428-1.824.007-1.843"/></svg>