<svg xmlns="http://www.w3.org/2000/svg" xml:space="preserve" fill-rule="evenodd" stroke-linejoin="round" stroke-miterlimit="2" clip-rule="evenodd" viewBox="0 0 15 15"><path fill="#895100" d="M4.32 4h6.18L10 6H3zM14 8.493c-.762 0-1.331.446-2.173.168-.215-.071-1.168-.496-2.212-.222-1.925.505-2.568.242-3.075 0-1.152-.549-2.126.305-2.959.092C2.468 8.246 2.361 8.203 1 8.49v-.991h13z"/><path fill="#5dca19" d="M1 8.491c1.362-.287 1.468-.244 2.581.041.834.213 1.807-.641 2.959-.092.507.242 1.15.505 3.075 0 1.044-.274 1.997.151 2.212.222.842.278 1.411-.169 2.173-.168v1.007H1z"/><path fill="#d39f10" d="M1 9.5h13v.5c0 1.11-.89 2-2 2H3a2 2 0 0 1-2-2zM9.32 4l-.75 1.24c-.14.24-.06.55.17.69.24.14.55.06.69-.17L10.5 4H12c1.11 0 2 .89 2 2v1.5H1V6a2 2 0 0 1 2-2h1.32l-.75 1.24c-.14.24-.06.55.17.69.24.14.55.06.69-.17L5.5 4h1.32l-.75 1.24c-.14.24-.06.55.17.69.24.14.55.06.69-.17L8 4z"/><path fill="#e5c200" d="M11.5 9.5 10 11 8.5 9.5z"/><path fill="#5dca19" d="M1 9.761c1.362.287 1.468.244 2.581-.041.834-.213 1.807.641 2.959.092.507-.242 1.15-.505 3.075 0 1.044.274 1.997-.151 2.212-.222.842-.278 1.411.169 2.173.168V8.751H1z"/><path fill="#ce4d4b" d="M2 7.5h3s-.417.5-1.5.5C2.415 8 2 7.5 2 7.5m6.622 0h3.756s-.523.626-1.878.626c-1.359 0-1.878-.626-1.878-.626"/><path fill="#692710" d="M2.5 8c.28 0 .5.22.5.5s-.22.5-.5.5h-1c-.28 0-.5-.22-.5-.5s.22-.5.5-.5zm4 0c.28 0 .5.22.5.5s-.22.5-.5.5h-2c-.28 0-.5-.22-.5-.5s.22-.5.5-.5zm7 0c.28 0 .5.22.5.5s-.22.5-.5.5h-2c-.28 0-.5-.22-.5-.5s.22-.5.5-.5zm-4 0c.28 0 .5.22.5.5s-.22.5-.5.5h-1c-.28 0-.5-.22-.5-.5s.22-.5.5-.5z"/></svg>