<?xml version="1.0" encoding="UTF-8" standalone="no"?><!DOCTYPE svg PUBLIC "-//W3C//DTD SVG 1.1//EN" "http://www.w3.org/Graphics/SVG/1.1/DTD/svg11.dtd"><svg width="100%" height="100%" viewBox="0 0 15 15" version="1.1" xmlns="http://www.w3.org/2000/svg" xmlns:xlink="http://www.w3.org/1999/xlink" xml:space="preserve" xmlns:serif="http://www.serif.com/" style="fill-rule:evenodd;clip-rule:evenodd;stroke-linejoin:round;stroke-miterlimit:2;"><path d="M10.5,4l1.5,0c1.11,0 2,0.89 2,2l0,1.5l-13,0l0,-1.5c0,-1.11 0.9,-2 2,-2l1.32,0l-0.75,1.24c-0.14,0.24 -0.06,0.55 0.17,0.69c0.24,0.14 0.55,0.06 0.69,-0.17l1.07,-1.76l1.32,0l-0.75,1.24c-0.14,0.24 -0.06,0.55 0.17,0.69c0.24,0.14 0.55,0.06 0.69,-0.17l1.07,-1.76l1.32,0l-0.75,1.24c-0.14,0.24 -0.06,0.55 0.17,0.69c0.24,0.14 0.55,0.06 0.69,-0.17l1.07,-1.76Zm-9.5,5.5l13,0l0,0.5c0,1.11 -0.89,2 -2,2l-9,0c-1.1,0 -2,-0.89 -2,-2l0,-0.5Z" style="fill:#d39f10;"/><path d="M6.82,4l1.18,0l-1.07,1.76c-0.14,0.23 -0.45,0.31 -0.69,0.17c-0.23,-0.14 -0.31,-0.45 -0.17,-0.69l0.75,-1.24Zm2.5,0l1.18,0l-1.07,1.76c-0.14,0.23 -0.45,0.31 -0.69,0.17c-0.23,-0.14 -0.31,-0.45 -0.17,-0.69l0.75,-1.24Zm-5,0l1.18,0l-1.07,1.76c-0.14,0.23 -0.45,0.31 -0.69,0.17c-0.23,-0.14 -0.31,-0.45 -0.17,-0.69l0.75,-1.24Zm9.68,3.5l0,0.993c-0.762,-0 -1.331,0.446 -2.173,0.168c-0.215,-0.071 -1.168,-0.496 -2.212,-0.222c-1.925,0.505 -2.568,0.242 -3.075,0c-1.152,-0.549 -2.126,0.305 -2.959,0.092c-1.113,-0.285 -1.22,-0.328 -2.581,-0.041l0,-0.991l13,0Z" style="fill:#895100;"/><path d="M11.5,9.5l-1.5,1.5l-1.5,-1.5l3,0Z" style="fill:#e5c200;"/><path d="M1,9.761l0,-1.27c1.362,-0.287 1.468,-0.244 2.581,0.041c0.834,0.213 1.807,-0.641 2.959,-0.092c0.507,0.242 1.15,0.505 3.075,-0c1.044,-0.274 1.997,0.151 2.212,0.222c0.2,0.066 0.384,0.091 0.559,0.091c0.563,-0 1.032,-0.26 1.613,-0.259l0,1.267c-0.581,0 -1.05,-0.259 -1.613,-0.259c-0.175,0 -0.36,0.025 -0.559,0.091c-0.215,0.071 -1.168,0.496 -2.212,0.222c-1.925,-0.505 -2.568,-0.242 -3.075,-0c-1.152,0.549 -2.126,-0.305 -2.959,-0.092c-1.113,0.285 -1.22,0.328 -2.581,0.041Z" style="fill:#5dca19;"/><path d="M2,7.5l3,0c0,0 -0.417,0.5 -1.5,0.5c-1.085,0 -1.5,-0.5 -1.5,-0.5Zm8,0l3,0c0,0 -0.417,0.5 -1.5,0.5c-1.085,0 -1.5,-0.5 -1.5,-0.5Zm-4.378,0l3.756,0c0,0 -0.523,0.626 -1.878,0.626c-1.359,0 -1.878,-0.626 -1.878,-0.626Z" style="fill:#ce4d4b;"/><path d="M2.5,8c0.28,0 0.5,0.22 0.5,0.5c0,0.28 -0.22,0.5 -0.5,0.5l-1,0c-0.28,0 -0.5,-0.22 -0.5,-0.5c0,-0.28 0.22,-0.5 0.5,-0.5l1,0Zm4,0c0.28,0 0.5,0.22 0.5,0.5c0,0.28 -0.22,0.5 -0.5,0.5l-2,0c-0.28,0 -0.5,-0.22 -0.5,-0.5c0,-0.28 0.22,-0.5 0.5,-0.5l2,0Zm7,0c0.28,0 0.5,0.22 0.5,0.5c0,0.28 -0.22,0.5 -0.5,0.5l-2,0c-0.28,0 -0.5,-0.22 -0.5,-0.5c0,-0.28 0.22,-0.5 0.5,-0.5l2,0Zm-4,0c0.28,0 0.5,0.22 0.5,0.5c0,0.28 -0.22,0.5 -0.5,0.5l-1,0c-0.28,0 -0.5,-0.22 -0.5,-0.5c0,-0.28 0.22,-0.5 0.5,-0.5l1,0Z" style="fill:#692710;"/></svg>