<svg xmlns="http://www.w3.org/2000/svg" xml:space="preserve" fill-rule="evenodd" stroke-linejoin="round" stroke-miterlimit="2" clip-rule="evenodd" viewBox="0 0 15 15"><path fill="#d39f10" d="M10.5 4H12c1.11 0 2 .89 2 2v1.5H1V6a2 2 0 0 1 2-2h1.32l-.75 1.24c-.14.24-.06.55.17.69.24.14.55.06.69-.17L5.5 4h1.32l-.75 1.24c-.14.24-.06.55.17.69.24.14.55.06.69-.17L8 4h1.32l-.75 1.24c-.14.24-.06.55.17.69.24.14.55.06.69-.17zM1 9.5h13v.5c0 1.11-.89 2-2 2H3a2 2 0 0 1-2-2z"/><path fill="#895100" d="M6.82 4H8L6.93 5.76c-.14.23-.45.31-.69.17a.51.51 0 0 1-.17-.69zm2.5 0h1.18L9.43 5.76c-.14.23-.45.31-.69.17a.51.51 0 0 1-.17-.69zm-5 0H5.5L4.43 5.76c-.14.23-.45.31-.69.17a.51.51 0 0 1-.17-.69zM14 7.5v.993c-.762 0-1.331.446-2.173.168-.215-.071-1.168-.496-2.212-.222-1.925.505-2.568.242-3.075 0-1.152-.549-2.126.305-2.959.092C2.468 8.246 2.361 8.203 1 8.49v-.991z"/><path fill="#e5c200" d="M11.5 9.5 10 11 8.5 9.5z"/><path fill="#5dca19" d="M1 9.761v-1.27c1.362-.287 1.468-.244 2.581.041.834.213 1.807-.641 2.959-.092.507.242 1.15.505 3.075 0 1.044-.274 1.997.151 2.212.222.2.066.384.091.559.091.563 0 1.032-.26 1.613-.259v1.267c-.581 0-1.05-.259-1.613-.259-.175 0-.36.025-.559.091-.215.071-1.168.496-2.212.222-1.925-.505-2.568-.242-3.075 0-1.152.549-2.126-.305-2.959-.092-1.113.285-1.22.328-2.581.041Z"/><path fill="#ce4d4b" d="M2 7.5h3s-.417.5-1.5.5C2.415 8 2 7.5 2 7.5m8 0h3s-.417.5-1.5.5c-1.085 0-1.5-.5-1.5-.5m-4.378 0h3.756s-.523.626-1.878.626c-1.359 0-1.878-.626-1.878-.626"/><path fill="#692710" d="M2.5 8c.28 0 .5.22.5.5s-.22.5-.5.5h-1c-.28 0-.5-.22-.5-.5s.22-.5.5-.5zm4 0c.28 0 .5.22.5.5s-.22.5-.5.5h-2c-.28 0-.5-.22-.5-.5s.22-.5.5-.5zm7 0c.28 0 .5.22.5.5s-.22.5-.5.5h-2c-.28 0-.5-.22-.5-.5s.22-.5.5-.5zm-4 0c.28 0 .5.22.5.5s-.22.5-.5.5h-1c-.28 0-.5-.22-.5-.5s.22-.5.5-.5z"/></svg>