<svg xmlns="http://www.w3.org/2000/svg" xml:space="preserve" fill-rule="evenodd" stroke-linejoin="round" stroke-miterlimit="2" clip-rule="evenodd" viewBox="0 0 15 15"><path fill="#5a5a5a" d="M10.138 2.724A.5.5 0 0 1 9.691 3H5.309a.5.5 0 0 1-.447-.276l-.5-1a.5.5 0 0 1 .447-.723h5.382a.5.5 0 0 1 .447.723zM4 12.5a.5.5 0 0 1 .5-.5h6a.5.5 0 0 1 .5.5.5.5 0 0 0 .5.5.5.5 0 0 1 0 1h-8a.5.5 0 0 1 0-1 .5.5 0 0 0 .5-.5"/><path fill="#d39f10" d="m6 12-.815-1.223a.5.5 0 0 1 0-.555l.63-.945a.5.5 0 0 0 0-.555l-.63-.945a.5.5 0 0 1 0-.555l.63-.945a.5.5 0 0 0 0-.555l-.63-.945a.5.5 0 0 1 0-.555L6 2.999h3l.815 1.223a.5.5 0 0 1 0 .555l-.63.945a.5.5 0 0 0 0 .555l.63.945a.5.5 0 0 1 0 .555l-.63.945a.5.5 0 0 0 0 .555l.63.945a.5.5 0 0 1 0 .555L9 12zm.571-4.571a.1.1 0 0 0-.029.071q.001.041.029.071l.859.859a.1.1 0 0 0 .071.029.1.1 0 0 0 .071-.029l.859-.859A.1.1 0 0 0 8.46 7.5a.1.1 0 0 0-.029-.071l-.859-.859a.1.1 0 0 0-.071-.029.1.1 0 0 0-.071.029zm0-3a.1.1 0 0 0-.029.071q.001.041.029.071l.859.859a.1.1 0 0 0 .071.029.1.1 0 0 0 .071-.029l.859-.859A.1.1 0 0 0 8.46 4.5a.1.1 0 0 0-.029-.071l-.859-.859a.1.1 0 0 0-.071-.029.1.1 0 0 0-.071.029zm0 6a.1.1 0 0 0-.029.071q.001.041.029.071l.859.859a.1.1 0 0 0 .071.029.1.1 0 0 0 .071-.029l.859-.859a.1.1 0 0 0 .029-.071.1.1 0 0 0-.029-.071l-.859-.859a.1.1 0 0 0-.071-.029.1.1 0 0 0-.071.029z"/></svg>