<svg xmlns="http://www.w3.org/2000/svg" xml:space="preserve" fill-rule="evenodd" stroke-linecap="round" stroke-linejoin="round" stroke-miterlimit="1.5" clip-rule="evenodd" viewBox="0 0 15 15"><path fill="#00329b" stroke="#f4f4f4" d="M12.5 1.5a.997.997 0 0 1 1 1v10a.997.997 0 0 1-1 1h-10a.997.997 0 0 1-1-1v-10a.997.997 0 0 1 1-1z"/><path fill="#f4f4f4" d="M11.183 7.818 9.907 6.542a.2.2 0 0 1 .071-.1l1.671-1.157a.06.06 0 0 1 .077.007l.05.05a.06.06 0 0 1-.003.088l-1.045.924a.06.06 0 0 0-.019.056l.039.195c.008.041.065.06.097.032l1.132-1.013a.06.06 0 0 1 .083.002l.051.051a.06.06 0 0 1 .002.083L11.1 6.892c-.028.031-.009.089.032.097l.195.039a.06.06 0 0 0 .056-.019l.923-1.046a.063.063 0 0 1 .088-.003l.051.051a.06.06 0 0 1 .007.077l-1.157 1.671a.23.23 0 0 1-.112.058Zm-1.854.153.217.217a.43.43 0 0 0 .304.131L8.661 9.603c-.253.273-.527 0-.527 0s-.273-.274 0-.527zM8.512 5.36l3.644 3.644c.263.263 0 .527 0 .527s-.288.286-.527 0c0 0-.753-.904-1.156-1.315a.35.35 0 0 0-.397-.101c-.137.065-.3.091-.423-.033l-.658-.658c-.259-.259-.656-.728-.742-1.029-.12-.36.001-.813.174-1.032a.06.06 0 0 1 .086-.002ZM7 9.9c0 .053-.047.1-.1.1H4.1a.103.103 0 0 1-.1-.1V5.3c0-.159.141-.3.3-.3h2.4c.159 0 .3.141.3.3zm-.6-4.4H4.6c-.053 0-.1.047-.1.1V7c0 .053.047.1.1.1h1.8c.053 0 .1-.047.1-.1V5.6c0-.053-.047-.1-.1-.1"/><path fill="#f4f4f4" d="m3.574 6.653-.033-.586a.47.47 0 0 1 .471-.498v.8h-.154s.068 1.171.066 1.607c0 .65.009.792-.09 1.004a.71.71 0 0 1-.654.426c-.213 0-.367-.069-.472-.177-.151-.154-.204-.4-.152-.678a3.53 3.53 0 0 1 1.017-1.897Zm.021.41a3.3 3.3 0 0 0-.743 1.543c-.032.168-.02.32.071.413q.086.087.257.086c.194 0 .32-.119.382-.253.086-.185.062-.31.062-.878.001-.206-.014-.579-.03-.912Z"/></svg>