<svg xmlns="http://www.w3.org/2000/svg" xml:space="preserve" fill-rule="evenodd" stroke-linejoin="round" stroke-miterlimit="2" clip-rule="evenodd" viewBox="0 0 15 15"><path d="M1.6 11.5a.62.62 0 0 1-.424-.176A.62.62 0 0 1 1 10.9a963 963 0 0 1 0-6.8.62.62 0 0 1 .176-.424A.62.62 0 0 1 1.6 3.5c2.006-.008 9.795-.008 11.8 0a.62.62 0 0 1 .424.176A.62.62 0 0 1 14 4.1c.008 1.172.008 5.628 0 6.8a.62.62 0 0 1-.176.424.62.62 0 0 1-.424.176c-2.006.008-9.795.008-11.8 0"/><path fill="#f4f4f4" d="M1.5 10.9V4.1a.1.1 0 0 1 .1-.1h11.8a.1.1 0 0 1 .1.1v6.8a.1.1 0 0 1-.1.1H1.6a.1.1 0 0 1-.1-.1"/><path fill="#090909" d="M4.457 10 9.25 7.5l.25.5h.5v-.5l.75-.5.75.5V8h.5V6.724l.5-.224.5.224V10zm1.5-2.607L2 9.458V7.501l.75-.25.75.25v.5h1.04v-.5l.709-2.5.709 2.393Z"/><path fill="#ce4d4b" d="M1.5 10.9V10L13 4h.4a.1.1 0 0 1 .1.1V5L2 11h-.4a.1.1 0 0 1-.1-.1"/></svg>