<svg xmlns="http://www.w3.org/2000/svg" xml:space="preserve" fill-rule="evenodd" stroke-linejoin="round" stroke-miterlimit="2" clip-rule="evenodd" viewBox="0 0 15 15"><path fill="#c50000" fill-rule="nonzero" d="M0 7.5a7.5 7.5 0 1 1 15 0 7.5 7.5 0 0 1-15 0"/><path fill="#fff" fill-rule="nonzero" d="M13.34 7.5a5.84 5.84 0 1 0-11.68 0 5.84 5.84 0 0 0 11.68 0"/><path fill="#090909" d="M12.031 6.488a.75.75 0 0 0 0-.976l-2.143-2.5a.75.75 0 0 0-1.139.977l1.082 1.262H7.012c-.69 0-1.388.327-1.905.845-.517.517-.845 1.215-.845 1.905v3a.75.75 0 0 0 1.5 0v-3c0-.31.173-.612.405-.845s.535-.405.845-.405h2.819L8.749 8.013a.752.752 0 0 0 1.139.977l2.143-2.5Z"/><path fill="#c50000" fill-rule="nonzero" d="m13.114 12.267-.846.846L1.887 2.732l.846-.846z"/></svg>