<svg xmlns="http://www.w3.org/2000/svg" xml:space="preserve" fill-rule="evenodd" stroke-linejoin="round" stroke-miterlimit="2" clip-rule="evenodd" viewBox="0 0 15 15"><path fill="#f4f4f4" d="M1.6 11a.1.1 0 0 1-.1-.1V4.1a.1.1 0 0 1 .1-.1h11.8a.1.1 0 0 1 .1.1v6.8a.1.1 0 0 1-.1.1z"/><path fill="#090909" d="M2 10h11V6.75l-.5-.25-.5.25V8h-.5v-.5l-.75-.5-.75.5V8h-.5L9 7H7.5L7 8H6v-.5L5 5 4 7.5V8h-.5v-.5l-.75-.25L2 7.5z"/><path d="M1.6 11.5a.62.62 0 0 1-.424-.176A.62.62 0 0 1 1 10.9a963 963 0 0 1 0-6.8.62.62 0 0 1 .176-.424A.62.62 0 0 1 1.6 3.5c2.006-.008 9.795-.008 11.8 0a.62.62 0 0 1 .424.176A.62.62 0 0 1 14 4.1c.008 1.172.008 5.628 0 6.8a.62.62 0 0 1-.176.424.62.62 0 0 1-.424.176c-2.006.008-9.795.008-11.8 0m0-.5h11.8a.1.1 0 0 0 .1-.1V4H1.6a.1.1 0 0 0-.1.1v6.8a.1.1 0 0 0 .1.1"/><path d="M13.4 4h.1v.1a.1.1 0 0 0-.1-.1"/></svg>