<svg xmlns="http://www.w3.org/2000/svg" xml:space="preserve" fill-rule="evenodd" stroke-linejoin="round" stroke-miterlimit="2" clip-rule="evenodd" viewBox="0 0 15 15"><path fill="#f4f4f4" d="M10.207 0c.265 0 .52.105.707.293l3.808 3.808a1 1 0 0 1 .293.707v5.385c0 .265-.105.52-.293.707l-3.808 3.808a1 1 0 0 1-.707.293H4.822a1 1 0 0 1-.707-.293L.307 10.9a1 1 0 0 1-.293-.707V4.808c0-.265.105-.52.293-.707L4.115.293A1 1 0 0 1 4.822 0z"/><path fill="#ce4d4b" d="M10.207.5c.133 0 .26.053.354.146l3.808 3.808a.5.5 0 0 1 .146.354v5.385c0 .133-.053.26-.146.354l-3.808 3.808a.5.5 0 0 1-.354.146H4.822a.5.5 0 0 1-.354-.146L.66 10.547a.5.5 0 0 1-.146-.354V4.808c0-.133.053-.26.146-.354L4.468.646A.5.5 0 0 1 4.822.5z"/><path fill="#f4f4f4" fill-rule="nonzero" d="M10.429 5.151a.1.1 0 0 1 .1-.1h.96c.388 0 .672.089.915.342s.319.561.319 1.142c0 .424-.035.806-.201 1.073-.194.315-.506.506-1.026.506h-.361v1.707a.1.1 0 0 1-.1.1h-.507a.1.1 0 0 1-.1-.1zm.707 2.207q.001.042.029.071a.1.1 0 0 0 .071.029h.24c.575 0 .582-.43.582-.915 0-.459 0-.835-.555-.835h-.267a.1.1 0 0 0-.1.1zM7.375 6.211c0-.794.61-1.19 1.185-1.19s1.185.397 1.185 1.19v2.572c0 .794-.61 1.19-1.185 1.19s-1.185-.397-1.185-1.19zm.707 2.572c0 .335.222.492.478.492.257 0 .478-.157.478-.492V6.211c0-.335-.222-.493-.478-.493s-.478.157-.478.493zM5.675 5.757h-.646a.1.1 0 0 1-.1-.1V5.2q.001-.042.029-.071a.1.1 0 0 1 .071-.029h1.999q.042.001.071.029a.1.1 0 0 1 .029.071v.457a.1.1 0 0 1-.1.1h-.646v4.076a.1.1 0 0 1-.1.1h-.507a.1.1 0 0 1-.1-.1zM3.437 7.775c-.575 0-1.157-.395-1.157-1.189v-.397c0-.793.61-1.19 1.185-1.19.549 0 1.129.361 1.181 1.084a.1.1 0 0 1-.026.074.1.1 0 0 1-.072.031c-.138.002-.383.002-.515.002a.1.1 0 0 1-.099-.087c-.032-.275-.237-.405-.47-.405-.257 0-.478.157-.478.492v.397c0 .335.194.49.45.49l.042.009c.575 0 1.164.392 1.164 1.185v.538c0 .794-.61 1.19-1.185 1.19-.549 0-1.13-.361-1.182-1.084a.1.1 0 0 1 .026-.074.1.1 0 0 1 .072-.031c.138-.002.383-.002.515-.002a.1.1 0 0 1 .099.087c.032.276.237.405.47.405.256 0 .478-.157.478-.492V8.27c0-.335-.222-.492-.478-.492h-.021"/></svg>