<svg xmlns="http://www.w3.org/2000/svg" xml:space="preserve" fill-rule="evenodd" stroke-linejoin="round" stroke-miterlimit="2" clip-rule="evenodd" viewBox="0 0 15 15"><path fill="#c50000" fill-rule="nonzero" d="M0 7.5a7.5 7.5 0 1 1 15 0 7.5 7.5 0 0 1-15 0"/><path fill="#fff" fill-rule="nonzero" d="M13.34 7.5a5.84 5.84 0 1 0-11.68 0 5.84 5.84 0 0 0 11.68 0"/><path fill="#c50000" d="m7.691 6.845 5.422 5.422-.846.846-5.45-5.45z"/><path d="M5.75 10.5a.1.1 0 0 1-.02.06l-.65.867a.1.1 0 0 1-.08.04.1.1 0 0 1-.08-.04l-.65-.867a.1.1 0 0 1-.02-.06V6c0-.972.34-1.776.907-2.343S6.528 2.75 7.5 2.75s1.776.34 2.343.907.907 1.371.907 2.343v5.233a.1.1 0 0 1-.068.095.1.1 0 0 1-.112-.035l-.49-.653a.1.1 0 0 0-.08-.04.1.1 0 0 0-.08.04l-.49.653a.1.1 0 0 1-.112.035.1.1 0 0 1-.068-.095V6c0-.528-.16-.974-.468-1.282S8.028 4.25 7.5 4.25s-.974.16-1.282.468S5.75 5.472 5.75 6z"/><path fill="#c50000" d="M6.817 7.663 1.886 2.732l.846-.846 4.959 4.959z"/></svg>