<svg xmlns="http://www.w3.org/2000/svg" xml:space="preserve" fill-rule="evenodd" stroke-linejoin="round" stroke-miterlimit="2" clip-rule="evenodd" viewBox="0 0 15 15"><path fill="#f4f4f4" d="M0 7.5C0 3.361 3.361 0 7.5 0S15 3.361 15 7.5 11.639 15 7.5 15A7.504 7.504 0 0 1 0 7.5"/><path fill="#00329b" fill-rule="nonzero" d="M7.5.468A7.03 7.03 0 0 1 14.532 7.5 7.03 7.03 0 0 1 7.5 14.532 7.03 7.03 0 0 1 .468 7.5 7.03 7.03 0 0 1 7.5.468"/><path fill="#f4f4f4" d="M2.98 6.488a.75.75 0 0 1 0-.976l2.143-2.5a.75.75 0 0 1 1.139.977L5.18 5.251h2.819c.69 0 1.388.327 1.905.845.517.517.845 1.215.845 1.905v3a.75.75 0 0 1-1.5 0v-3c0-.31-.173-.612-.405-.845s-.535-.405-.845-.405H5.18l1.082 1.262a.752.752 0 0 1-1.139.977L2.98 6.49Z"/></svg>