<svg xmlns="http://www.w3.org/2000/svg" xml:space="preserve" fill-rule="evenodd" stroke-linejoin="round" stroke-miterlimit="2" clip-rule="evenodd" viewBox="0 0 15 15"><path fill="#c50000" fill-rule="nonzero" d="M0 7.5a7.5 7.5 0 1 1 15 0 7.5 7.5 0 0 1-15 0"/><path fill="#fff" fill-rule="nonzero" d="M13.34 7.5a5.84 5.84 0 1 0-11.68 0 5.84 5.84 0 0 0 11.68 0"/><path fill="#090909" d="M6.75 4.631 5.488 5.713a.752.752 0 0 1-.977-1.139l2.5-2.143a.75.75 0 0 1 .976 0l2.5 2.143a.75.75 0 0 1-.977 1.139L8.248 4.631V12a.75.75 0 0 1-1.5 0V4.631Z"/><path fill="#c50000" fill-rule="nonzero" d="m13.114 12.267-.846.846L1.887 2.732l.846-.846z"/></svg>