<svg xmlns="http://www.w3.org/2000/svg" xml:space="preserve" fill-rule="evenodd" stroke-linejoin="round" stroke-miterlimit="2" clip-rule="evenodd" viewBox="0 0 15 15"><path fill="#f4f4f4" d="M0 7.5C0 3.361 3.361 0 7.5 0S15 3.361 15 7.5 11.639 15 7.5 15A7.504 7.504 0 0 1 0 7.5"/><path fill="#00329b" fill-rule="nonzero" d="M7.5.468A7.03 7.03 0 0 1 14.532 7.5 7.03 7.03 0 0 1 7.5 14.532 7.03 7.03 0 0 1 .468 7.5 7.03 7.03 0 0 1 7.5.468"/><path fill="#f4f4f4" d="M6.75 4.631 5.488 5.713a.752.752 0 0 1-.977-1.139l2.5-2.143a.75.75 0 0 1 .976 0l2.5 2.143a.75.75 0 0 1-.977 1.139L8.248 4.631V12a.75.75 0 0 1-1.5 0V4.631Z"/></svg>