<svg xmlns="http://www.w3.org/2000/svg" xml:space="preserve" fill-rule="evenodd" stroke-linejoin="round" stroke-miterlimit="2" clip-rule="evenodd" viewBox="0 0 15 15"><path fill="#ce4d4b" d="M12.515 1.487a1.55 1.55 0 0 1 1.293.739c.258.439.271 1.03.018 1.489a2045 2045 0 0 1-5.015 9.027 1.55 1.55 0 0 1-1.311.772 1.54 1.54 0 0 1-1.311-.772c-.876-1.558-4.155-7.461-5.015-9.027a1.55 1.55 0 0 1 .018-1.489 1.54 1.54 0 0 1 1.293-.739c1.736-.009 8.293-.009 10.03 0"/><path fill="#eee" d="M12.515 2.487a.502.502 0 0 1 .437.742l-5.015 9.027a.498.498 0 0 1-.874 0L2.048 3.229a.5.5 0 0 1 .437-.742z"/></svg>