<svg xmlns="http://www.w3.org/2000/svg" xml:space="preserve" fill-rule="evenodd" stroke-linejoin="round" stroke-miterlimit="2" clip-rule="evenodd" viewBox="0 0 15 15"><path fill="#a83c3a" d="M2 2.5a.5.5 0 0 1 .5-.5h10a.5.5 0 0 1 .5.5v10a.5.5 0 0 1-.5.5h-10a.5.5 0 0 1-.5-.5z"/><path fill="#f4f4f4" d="M1 2a1 1 0 0 1 1-1h11a1 1 0 0 1 1 1v11a1 1 0 0 1-1 1H2a1 1 0 0 1-1-1zm1 .5v10a.5.5 0 0 0 .5.5h10a.5.5 0 0 0 .5-.5v-10a.5.5 0 0 0-.5-.5h-10a.5.5 0 0 0-.5.5m8.715 3.8.282 1.129.003.022v.713c0 .051-.043.121-.094.121h-.989a.483.483 0 1 1-.966 0H6.534a.483.483 0 1 1-.966 0l-1.487-.114a.09.09 0 0 1-.082-.088V6.954l.059-.64a.087.087 0 0 1 .088-.08h6.482c.041 0 .076.028.086.067Zm-5.508.263v.668a.09.09 0 0 0 .089.089h1.03a.09.09 0 0 0 .089-.089v-.668a.09.09 0 0 0-.089-.089h-1.03a.09.09 0 0 0-.089.089m-.935.756h.725a.09.09 0 0 0 .089-.089v-.668a.09.09 0 0 0-.089-.089h-.671a.09.09 0 0 0-.088.081l-.054.668a.09.09 0 0 0 .088.096Zm2.351-.845a.09.09 0 0 0-.089.089v.668a.09.09 0 0 0 .089.089h.909a.09.09 0 0 0 .089-.089v-.668a.09.09 0 0 0-.089-.089zm1.638.845h.168c.02 0 .037-.016.037-.037v-.771a.04.04 0 0 0-.011-.026.04.04 0 0 0-.026-.011h-.168a.04.04 0 0 0-.026.011.04.04 0 0 0-.011.026v.771c0 .02.016.037.037.037m2.387-.777a.09.09 0 0 0-.086-.067h-.445a.09.09 0 0 0-.089.089v1.03a.09.09 0 0 0 .089.089h.46q.056 0 .095-.039l.145-.146a.14.14 0 0 0 .035-.127l-.204-.828Zm-.734.021a.09.09 0 0 0-.089-.089h-1.15a.09.09 0 0 0-.089.089v.668c0 .049.04.089.089.089h1.151a.09.09 0 0 0 .089-.089zm-2.015.756h.168c.02 0 .037-.016.037-.037v-.771a.04.04 0 0 0-.011-.026.04.04 0 0 0-.026-.011h-.168a.04.04 0 0 0-.026.011.04.04 0 0 0-.011.026v.771c0 .02.016.037.037.037"/></svg>