<svg xmlns="http://www.w3.org/2000/svg" xml:space="preserve" fill-rule="evenodd" stroke-linejoin="round" stroke-miterlimit="2" clip-rule="evenodd" viewBox="0 0 15 15"><path fill="#a83c3a" d="M2 2.5a.5.5 0 0 1 .5-.5h10a.5.5 0 0 1 .5.5v10a.5.5 0 0 1-.5.5h-10a.5.5 0 0 1-.5-.5z"/><path fill="#f4f4f4" d="M1 2a1 1 0 0 1 1-1h11a1 1 0 0 1 1 1v11a1 1 0 0 1-1 1H2a1 1 0 0 1-1-1zm1 .5v10a.5.5 0 0 0 .5.5h10a.5.5 0 0 0 .5-.5v-10a.5.5 0 0 0-.5-.5h-10a.5.5 0 0 0-.5.5m2.962 7.703c-.564 0-.564-.564-.564-.564V5.127c0-.62.508-1.128 1.128-1.128h3.948c.62 0 1.128.508 1.128 1.128v4.512c0 .564-.564.564-.564.564v.564c0 .31-1.128.31-1.128 0v-.564H6.09v.564c0 .31-1.128.31-1.128 0zm.162-1.672A.103.103 0 0 0 5 8.628V9s0 .5.507.5C6 9.5 6 9 6 9v-.172a.1.1 0 0 0-.076-.097zm.402-3.685a.28.28 0 0 0 .282.282h3.384a.28.28 0 0 0 .282-.282.28.28 0 0 0-.282-.282H5.808a.28.28 0 0 0-.282.282m4.35 3.685-.8.2A.1.1 0 0 0 9 8.828V9s0 .5.493.5C10 9.5 10 9 10 9v-.372a.103.103 0 0 0-.124-.097M5.244 5.692a.28.28 0 0 0-.282.282v1.692a.28.28 0 0 0 .282.282h4.512a.28.28 0 0 0 .282-.282V5.974a.28.28 0 0 0-.282-.282z"/></svg>