<svg xmlns="http://www.w3.org/2000/svg" xml:space="preserve" fill-rule="evenodd" stroke-linecap="round" stroke-linejoin="round" stroke-miterlimit="1.5" clip-rule="evenodd" viewBox="0 0 15 15"><circle cx="7.5" cy="7.5" r="7.5" fill="#f4f4f4"/><circle cx="7.5" cy="7.5" r="6" fill="none" stroke="#ce4d4b" stroke-width="2"/><path fill="#090909" fill-rule="nonzero" d="M7.972 8.696a.3.3 0 0 1-.296.27c-.151.002-.333.002-.48.002a.28.28 0 0 1-.272-.271h.001q0-.502.167-.826c.223-.432 1.137-1.093 1.267-1.26.761-1.003-1.382-1.973-1.904-.472a.296.296 0 0 1-.315.194 20 20 0 0 1-.5-.058.31.31 0 0 1-.256-.366q.137-.514.578-.903c.919-.808 2.357-.632 3.082.006.533.469.749 1.308.369 1.906-.237.372-1.218 1.092-1.365 1.398q-.06.123-.075.38ZM7.428 10.5a.5.5 0 0 1-.5-.5v-.138a.5.5 0 0 1 .5-.5h.145a.5.5 0 0 1 .5.5V10a.5.5 0 0 1-.5.5z"/></svg>