<svg xmlns="http://www.w3.org/2000/svg" xml:space="preserve" fill-rule="evenodd" stroke-linejoin="round" stroke-miterlimit="2" clip-rule="evenodd" viewBox="0 0 14 14"><path fill="#7a7a7a" d="M7 1a1.038 1.038 0 1 1 0 2.076A1.038 1.038 0 1 1 7 1M5.961 3.5h2.078a.69.69 0 0 1 .691.691c0 .692-1.211 1.809-1.211 2.732v1.976a.1.1 0 0 1-.1.1H6.58a.1.1 0 0 1-.1-.1V6.923c0-.924-1.211-2.04-1.211-2.732 0-.36.326-.691.691-.691Z"/><path fill="#5a5a5a" d="M9.5 11.5A.5.5 0 0 0 9 11H5a.5.5 0 0 0-.5.5v1a.5.5 0 0 0 .5.5h4a.5.5 0 0 0 .5-.5z"/><path fill="#d39f10" d="M9.5 9.5a.5.5 0 1 1 0 1h-5a.5.5 0 1 1 0-1z"/></svg>