<?xml version="1.0" encoding="UTF-8" standalone="no"?><!DOCTYPE svg PUBLIC "-//W3C//DTD SVG 1.1//EN" "http://www.w3.org/Graphics/SVG/1.1/DTD/svg11.dtd"><svg width="100%" height="100%" viewBox="0 0 15 15" version="1.1" xmlns="http://www.w3.org/2000/svg" xmlns:xlink="http://www.w3.org/1999/xlink" xml:space="preserve" xmlns:serif="http://www.serif.com/" style="fill-rule:evenodd;clip-rule:evenodd;stroke-linejoin:round;stroke-miterlimit:2;"><path d="M8,3l-0.5,0c-0.8,0 -1.5,0.7 -1.5,1.5l0,7.4c0,0 0,0.1 0,0.1c0,0 0,0 0.1,0l0.9,0c0.5,0 1,0.4 1,1l0,0.5c0,0.1 -0.1,0.3 -0.1,0.4c-0.1,0.1 -0.2,0.1 -0.4,0.1l-5,0c-0.1,0 -0.3,-0.1 -0.4,-0.1c-0.1,-0.1 -0.1,-0.2 -0.1,-0.4l0,-0.5c0,-0.6 0.5,-1 1,-1l0.9,0c0,0 0.1,-0 0.1,-0c0,-0 0,-0 0,-0.1l-0,-7.9c0,-1.7 1.3,-3 3,-3l1,0l0,2Z" style="fill:#090909;"/><path d="M8,1l4.5,0c0.1,-0 0.3,0.1 0.4,0.1c0.1,0.1 0.1,0.2 0.1,0.4l0,1.5c0,1.1 -0.9,2 -2,2l-1,0c-1.1,0 -2,-0.9 -2,-2l0,-2Zm1.1,1c-0,-0 -0.1,0 -0.1,0c-0,0 -0,0 -0,0.1l-0,0.9c0,0.5 0.4,1 1,1l1,0c0.6,0 1,-0.5 1,-1l0,-0.9c0,-0 -0,-0.1 -0,-0.1c-0,-0 -0,-0 -0.1,-0l-2.8,0Z" style="fill:#5a5a5a;"/><path d="M9.1,2l2.8,-0c0,-0 0.1,0 0.1,0c0,0 0,0 0,0.1l0,0.9c0,0.5 -0.4,1 -1,1l-1,0c-0.6,0 -1,-0.5 -1,-1l0,-0.9c-0,-0 0,-0.1 0,-0.1c0,-0 0,-0 0.1,-0Z" style="fill:#f4f4f4;"/></svg>