<svg xmlns="http://www.w3.org/2000/svg" xml:space="preserve" fill-rule="evenodd" stroke-linecap="round" stroke-linejoin="round" stroke-miterlimit="1.5" clip-rule="evenodd" viewBox="0 0 15 15"><path fill="#171717" d="M5 13.9v-.4c0-.3.2-.5.5-.5H7V3h1v10h1.5c.3 0 .5.2.5.5v.5H5zM11 1h2c.6 0 1 .4 1 1h-3zM1 2c0-.6.4-1 1-1h2v1z"/><path fill="#e5c200" d="M1 2h3c0 .6-.4 1-1 1H2c-.6 0-1-.4-1-1m10 0h3c0 .6-.4 1-1 1h-1c-.6 0-1-.4-1-1"/><path fill="none" stroke="#171717" d="M7.5 3s.9-.8 1.5-1 2-.5 2-.5M7.5 3S6.6 2.2 6 2s-2-.5-2-.5"/></svg>