<?xml version="1.0" encoding="UTF-8" standalone="no"?><!DOCTYPE svg PUBLIC "-//W3C//DTD SVG 1.1//EN" "http://www.w3.org/Graphics/SVG/1.1/DTD/svg11.dtd"><svg width="100%" height="100%" viewBox="0 0 15 15" version="1.1" xmlns="http://www.w3.org/2000/svg" xmlns:xlink="http://www.w3.org/1999/xlink" xml:space="preserve" xmlns:serif="http://www.serif.com/" style="fill-rule:evenodd;clip-rule:evenodd;stroke-linejoin:round;stroke-miterlimit:2;"><path d="M2.481,12.443l2.316,0.002l0,1.233c0,0.154 -0.232,0.309 -0.386,0.309l-1.544,0c-0.212,0 -0.386,-0.174 -0.386,-0.386l0,-1.158Zm7.721,0.007l2.316,0.002l0,1.149c0,0.212 -0.174,0.386 -0.386,0.386l-1.621,0c-0.154,0 -0.309,-0.232 -0.309,-0.386l0,-1.151Z" style="fill:#171717;"/><path d="M11.518,13.223c0.265,0 0.52,-0.105 0.708,-0.293c0.188,-0.188 0.293,-0.442 0.293,-0.707c0,-0.848 0,-1.927 0,-1.927c0,-0.107 -0.045,-0.21 -0.124,-0.283l-0.957,-0.889l-0.849,-1.699c-0.148,-0.241 -0.412,-0.388 -0.695,-0.386l-4.787,0c-0.283,-0.001 -0.547,0.145 -0.695,0.386l-0.849,1.699l-0.957,0.889c-0.079,0.073 -0.124,0.176 -0.124,0.283l0,1.92c0,0.552 0.447,0.999 0.999,1c1.922,0.002 6.114,0.005 8.037,0.007Z" style="fill:#db8900;"/><path d="M6.342,7.038l2.316,0l0,-0.272c-0,-0.276 -0.224,-0.5 -0.5,-0.5c-0.389,0 -0.927,0 -1.316,0c-0.276,-0 -0.5,0.224 -0.5,0.5c-0,0.148 -0,0.272 -0,0.272Z" style="fill:#cc6933;"/><path d="M5.57,11.362c0,0.154 -0.232,0.309 -0.386,0.309l-1.621,0c-0.154,0 -0.309,-0.232 -0.309,-0.386l0,-0.849c0.077,-0.232 0.232,-0.386 0.463,-0.309l1.544,0.309c0.154,0 0.309,0.232 0.309,0.386l0,0.54Zm6.177,-0.077c0,0.154 -0.154,0.386 -0.309,0.386l-1.621,0c-0.154,0 -0.386,-0.154 -0.386,-0.309l0,-0.54c0,-0.154 0.154,-0.386 0.309,-0.386l1.544,-0.309c0.232,-0.077 0.386,0.077 0.463,0.309l0,0.849Z" style="fill:#f4f4f4;"/><path d="M5.156,7.866c0.017,-0.034 0.052,-0.055 0.089,-0.055c0.509,-0 4,-0 4.509,-0c0.038,0 0.072,0.021 0.089,0.055c0.108,0.217 0.507,1.014 0.672,1.344c0.015,0.031 0.014,0.068 -0.004,0.097c-0.018,0.029 -0.05,0.047 -0.085,0.047c-0.87,0 -4.983,0 -5.853,0c-0.035,-0 -0.067,-0.018 -0.085,-0.047c-0.018,-0.029 -0.02,-0.066 -0.004,-0.097c0.165,-0.33 0.564,-1.127 0.672,-1.344Z" style="fill:#7da8e6;"/><path d="M10.5,3.5c0,-0.276 0.224,-0.5 0.5,-0.5c0.305,-0 0.695,-0 1,-0c0.133,-0 0.26,0.053 0.354,0.146c0.094,0.094 0.146,0.221 0.146,0.354c0,0.305 0,0.695 0,1c0,0.133 -0.053,0.26 -0.146,0.354c-0.094,0.094 -0.221,0.146 -0.354,0.146c-0.305,-0 -0.695,-0 -1,-0c-0.133,0 -0.26,-0.053 -0.354,-0.146c-0.094,-0.094 -0.146,-0.221 -0.146,-0.354c0,-0.305 0,-0.695 0,-1Zm-5.5,-0.5c-0.276,-0 -0.5,-0.224 -0.5,-0.5c-0,-0.305 -0,-0.695 -0,-1c-0,-0.133 0.053,-0.26 0.146,-0.354c0.094,-0.094 0.221,-0.146 0.354,-0.146c0.305,-0 0.695,-0 1,-0c0.276,0 0.5,0.224 0.5,0.5c-0,0.305 -0,0.695 -0,1c-0,0.276 -0.224,0.5 -0.5,0.5c-0.305,-0 -0.695,-0 -1,-0Zm1.5,0.5c0,-0.276 0.224,-0.5 0.5,-0.5c0.305,0 0.695,0 1,0c0.276,0 0.5,0.224 0.5,0.5c-0,0.305 -0,0.695 -0,1c0,0.133 -0.053,0.26 -0.146,0.354c-0.094,0.094 -0.221,0.146 -0.354,0.146c-0.305,-0 -0.695,-0 -1,-0c-0.276,-0 -0.5,-0.224 -0.5,-0.5c0,-0.305 0,-0.695 0,-1Zm2.5,-0.5c-0.133,0 -0.26,-0.053 -0.354,-0.146c-0.094,-0.094 -0.146,-0.221 -0.146,-0.354c0,-0.305 0,-0.695 0,-1c-0,-0.133 0.053,-0.26 0.146,-0.354c0.094,-0.094 0.221,-0.146 0.354,-0.146c0.305,0 0.695,0 1,0c0.133,-0 0.26,0.053 0.354,0.146c0.094,0.094 0.146,0.221 0.146,0.354c-0,0.305 -0,0.695 -0,1c-0,0.276 -0.224,0.5 -0.5,0.5c-0.305,0 -0.695,0 -1,0Zm-5,0c0.276,0 0.5,0.224 0.5,0.5c0,0.305 0,0.695 0,1c0,0.133 -0.053,0.26 -0.146,0.354c-0.094,0.094 -0.221,0.146 -0.354,0.146c-0.305,0 -0.695,0 -1,0c-0.133,-0 -0.26,-0.053 -0.354,-0.146c-0.094,-0.094 -0.146,-0.221 -0.146,-0.354c-0,-0.305 -0,-0.695 -0,-1c-0,-0.133 0.053,-0.26 0.146,-0.354c0.094,-0.094 0.221,-0.146 0.354,-0.146c0.305,0 0.695,0 1,0Z" style="fill:#272727;"/></svg>