<?xml version="1.0" encoding="UTF-8" standalone="no"?><!DOCTYPE svg PUBLIC "-//W3C//DTD SVG 1.1//EN" "http://www.w3.org/Graphics/SVG/1.1/DTD/svg11.dtd"><svg width="100%" height="100%" viewBox="0 0 15 15" version="1.1" xmlns="http://www.w3.org/2000/svg" xmlns:xlink="http://www.w3.org/1999/xlink" xml:space="preserve" xmlns:serif="http://www.serif.com/" style="fill-rule:evenodd;clip-rule:evenodd;stroke-linejoin:round;stroke-miterlimit:2;"><path d="M1,11l3,0.003l0,1.597c0,0.2 -0.3,0.4 -0.5,0.4l-2,0c-0.274,0 -0.5,-0.226 -0.5,-0.5l0,-1.5Zm10,0.009l3,0.003l0,1.488c0,0.274 -0.226,0.5 -0.5,0.5l-2.1,0c-0.2,0 -0.4,-0.3 -0.4,-0.5l0,-1.491Z" style="fill:#171717;"/><path d="M12.999,12.011c0.265,0 0.52,-0.105 0.708,-0.293c0.188,-0.188 0.293,-0.442 0.293,-0.707c-0,-1.124 -0,-2.792 -0,-2.792c0,-0.139 -0.058,-0.272 -0.16,-0.367l-1.24,-1.152l-1.1,-2.2c-0.192,-0.312 -0.534,-0.502 -0.9,-0.5l-6.2,0c-0.366,-0.002 -0.708,0.188 -0.9,0.5l-1.1,2.2l-1.24,1.152c-0.102,0.095 -0.16,0.228 -0.16,0.367l0,2.782c-0,0.552 0.447,1 0.999,1c2.421,0.002 8.578,0.008 11,0.01Z" style="fill:#e5c200;"/><path d="M6,4l3,0l0,-0.5c0,-0.133 -0.053,-0.26 -0.146,-0.354c-0.094,-0.094 -0.221,-0.146 -0.354,-0.146c-0.555,-0 -1.445,-0 -2,-0c-0.133,-0 -0.26,0.053 -0.354,0.146c-0.094,0.094 -0.146,0.221 -0.146,0.354c0,0.25 0,0.5 0,0.5Z" style="fill:#d39f10;"/><path d="M5,9.6c0,0.2 -0.3,0.4 -0.5,0.4l-2.1,0c-0.2,0 -0.4,-0.3 -0.4,-0.5l0,-1.1c0.1,-0.3 0.3,-0.5 0.6,-0.4l2,0.4c0.2,0 0.4,0.3 0.4,0.5l0,0.7Zm8,-0.1c0,0.2 -0.2,0.5 -0.4,0.5l-2.1,0c-0.2,0 -0.5,-0.2 -0.5,-0.4l0,-0.7c0,-0.2 0.2,-0.5 0.4,-0.5l2,-0.4c0.3,-0.1 0.5,0.1 0.6,0.4l0,1.1Z" style="fill:#f4f4f4;"/><path d="M4.472,5.055c0.017,-0.034 0.052,-0.055 0.089,-0.055c0.594,0 5.282,0 5.876,0c0.038,-0 0.072,0.021 0.089,0.055c0.132,0.263 0.698,1.395 0.9,1.8c0.015,0.031 0.014,0.068 -0.004,0.097c-0.018,0.029 -0.05,0.047 -0.085,0.047c-1.029,0 -6.648,0 -7.676,0c-0.035,-0 -0.067,-0.018 -0.085,-0.047c-0.018,-0.029 -0.02,-0.066 -0.004,-0.097c0.202,-0.405 0.768,-1.537 0.9,-1.8Z" style="fill:#7da8e6;"/></svg>