<?xml version="1.0" encoding="UTF-8" standalone="no"?><!DOCTYPE svg PUBLIC "-//W3C//DTD SVG 1.1//EN" "http://www.w3.org/Graphics/SVG/1.1/DTD/svg11.dtd"><svg width="100%" height="100%" viewBox="0 0 15 15" version="1.1" xmlns="http://www.w3.org/2000/svg" xmlns:xlink="http://www.w3.org/1999/xlink" xml:space="preserve" xmlns:serif="http://www.serif.com/" style="fill-rule:evenodd;clip-rule:evenodd;stroke-linejoin:round;stroke-miterlimit:2;"><path d="M11.3,6.6c0.2,-0 0.3,0.1 0.4,0.2c0.2,1 0,4 -1.6,5.2c-0.1,0.1 -0.2,0.2 -0.2,0.4c-0,0 -0,0.1 -0,0.1c-0,0.1 -0.1,0.3 -0.1,0.4c-0.1,0.1 -0.2,0.1 -0.4,0.1c-0.9,0 -2.9,0 -3.8,0c-0.1,0 -0.3,-0.1 -0.4,-0.1c-0.1,-0.1 -0.1,-0.2 -0.1,-0.4c0,-0 0,-0.1 0,-0.1c-0,-0.2 -0.1,-0.3 -0.2,-0.4c-1.7,-1.2 -1.8,-4.2 -1.6,-5.2c0.1,-0.1 0.2,-0.2 0.4,-0.2c1.3,-0 6.4,-0 7.7,-0Z" style="fill:#f0eed0;"/><path d="M8.4,5.4c0.2,-0.2 0.5,-0.5 0.5,-1c0,-0.5 -0.4,-0.7 -0.9,-0.9c-0.5,-0.2 -1,-0.5 -1,-1.1c0,-0.4 0.2,-0.8 0.4,-1c0,-0 0.1,-0 0.1,-0c0,0 0.1,0.1 0,0.1c-0.1,0.2 -0.1,0.4 -0.1,0.7c0,0.4 0.4,0.5 0.9,0.6c0.7,0.2 1.4,0.4 1.4,1.3c0,0.9 -0.8,1.3 -1.3,1.4c-0,0 -0.1,-0 -0.1,-0c-0,-0 -0,-0.1 0,-0.1Zm-1.4,-0.7c0,0.5 -0.4,0.7 -0.7,0.8c-0,0 -0.1,0 -0.1,-0c-0,-0 -0,-0.1 0,-0.1c0.1,-0.1 0.2,-0.2 0.2,-0.4c0,-0.3 -0.3,-0.4 -0.5,-0.6c-0.3,-0.2 -0.7,-0.4 -0.7,-0.8c0,-0.3 0.2,-0.6 0.4,-0.8c0,-0 0.1,-0 0.1,-0c0,0 0.1,0.1 0,0.1c-0,0.1 -0.1,0.3 -0.1,0.4c0,0.4 0.3,0.5 0.7,0.6c0.4,0.2 0.7,0.3 0.7,0.7Z" style="fill:#588f35;"/></svg>