<svg xmlns="http://www.w3.org/2000/svg" xml:space="preserve" fill-rule="evenodd" stroke-linejoin="round" stroke-miterlimit="2" clip-rule="evenodd" viewBox="0 0 14 14"><path fill="#eee" fill-rule="nonzero" stroke="#f4f4f4" d="M6.857 1a.5.5 0 0 0-.5.5v11a.5.5 0 0 0 .5.5h.286a.5.5 0 0 0 .5-.5v-11a.5.5 0 0 0-.5-.5zm-3.714.857a1.286 1.286 0 1 0 0 2.573 1.286 1.286 0 0 0 0-2.573Zm7.714 0a1.286 1.286 0 1 0 0 2.573 1.286 1.286 0 0 0 0-2.573ZM2.286 5.286c-.514 0-.857.487-.857.857 0 .452 1.071 1.283 1.071 1.714 0 .467-1.439.842-1.498 2.468a.1.1 0 0 0 .028.072.1.1 0 0 0 .071.03l1.399.001v2.071a.5.5 0 0 0 .5.5h.286a.5.5 0 0 0 .5-.5v-2.071h1.399a.1.1 0 0 0 .1-.104c-.06-1.627-1.5-2.023-1.5-2.468 0-.454 1.071-1.242 1.071-1.714 0-.349-.364-.857-.857-.857H2.285Zm7.286 0c-.452 0-.857.412-.857.857 0 .857 1.5 3.442 1.5 4.286V12.5a.5.5 0 0 0 .5.5h.286a.5.5 0 0 0 .5-.5v-2.071c0-.827 1.5-3.429 1.5-4.286a.857.857 0 0 0-.857-.857H9.573Z"/><path fill="#00329b" fill-rule="nonzero" d="M6.857 1a.5.5 0 0 0-.5.5v11a.5.5 0 0 0 .5.5h.286a.5.5 0 0 0 .5-.5v-11a.5.5 0 0 0-.5-.5zm-3.714.857a1.286 1.286 0 1 0 0 2.573 1.286 1.286 0 0 0 0-2.573m7.714 0a1.286 1.286 0 1 0 0 2.573 1.286 1.286 0 0 0 0-2.573M2.286 5.286c-.514 0-.857.487-.857.857 0 .452 1.071 1.283 1.071 1.714 0 .467-1.439.842-1.498 2.468a.1.1 0 0 0 .028.072.1.1 0 0 0 .071.03l1.399.001v2.071a.5.5 0 0 0 .5.5h.286a.5.5 0 0 0 .5-.5v-2.071h1.399a.1.1 0 0 0 .1-.104c-.06-1.627-1.5-2.023-1.5-2.468 0-.454 1.071-1.242 1.071-1.714 0-.349-.364-.857-.857-.857H2.285Zm7.286 0c-.452 0-.857.412-.857.857 0 .857 1.5 3.442 1.5 4.286V12.5a.5.5 0 0 0 .5.5h.286a.5.5 0 0 0 .5-.5v-2.071c0-.827 1.5-3.429 1.5-4.286a.857.857 0 0 0-.857-.857H9.573Z"/></svg>