<svg xmlns="http://www.w3.org/2000/svg" xml:space="preserve" fill-rule="evenodd" stroke-linejoin="round" stroke-miterlimit="2" clip-rule="evenodd" viewBox="0 0 15 15"><path fill="#ce4d4b" d="M.05 10a.05.05 0 0 1-.035-.015A.05.05 0 0 1 0 9.95V9.3q0-.02.015-.035A.05.05 0 0 1 .05 9.25h14.9q.02 0 .035.015A.05.05 0 0 1 15 9.3v.65a.05.05 0 0 1-.015.035.05.05 0 0 1-.035.015zm0-1.25a.05.05 0 0 1-.035-.015A.05.05 0 0 1 0 8.7v-.4q0-.02.015-.035A.05.05 0 0 1 .05 8.25h14.9q.02 0 .035.015A.05.05 0 0 1 15 8.3v.4a.05.05 0 0 1-.015.035.05.05 0 0 1-.035.015zm0-1a.05.05 0 0 1-.035-.015A.05.05 0 0 1 0 7.7v-.4q0-.02.015-.035A.05.05 0 0 1 .05 7.25h14.9q.02 0 .035.015A.05.05 0 0 1 15 7.3v.4a.05.05 0 0 1-.015.035.05.05 0 0 1-.035.015zm0-1a.05.05 0 0 1-.035-.015A.05.05 0 0 1 0 6.7v-.4q0-.02.015-.035A.05.05 0 0 1 .05 6.25h14.9q.02 0 .035.015A.05.05 0 0 1 15 6.3v.4a.05.05 0 0 1-.015.035.05.05 0 0 1-.035.015zm0-1a.05.05 0 0 1-.035-.015A.05.05 0 0 1 0 5.7v-.65q0-.02.015-.035A.05.05 0 0 1 .05 5h14.9q.02 0 .035.015A.05.05 0 0 1 15 5.05v.65a.05.05 0 0 1-.015.035.05.05 0 0 1-.035.015z"/></svg>