<svg xmlns="http://www.w3.org/2000/svg" xml:space="preserve" fill-rule="evenodd" stroke-linejoin="round" stroke-miterlimit="2" clip-rule="evenodd" viewBox="0 0 15 15"><path fill="#171717" d="M.75 7.502v-.003a.5.5 0 0 1 .498-.498h12.504c.273 0 .499.225.499.498v.003a.5.5 0 0 1-.499.498H1.248a.5.5 0 0 1-.498-.498m0-2v-.003a.5.5 0 0 1 .498-.498h12.504c.273 0 .499.225.499.498v.003a.5.5 0 0 1-.499.498H1.248a.5.5 0 0 1-.498-.498m0 4v-.003a.5.5 0 0 1 .498-.498h12.504c.273 0 .499.225.499.498v.003a.5.5 0 0 1-.499.498H1.248a.5.5 0 0 1-.498-.498"/><path fill="#e5c200" d="M1.25 7h.5v1h-.5zm1.625 0h.25v1h-.25zm2 0h.25v1h-.25zm2 0h.25v1h-.25zm1 0h.25v1h-.25zm2 0h.25v1h-.25zm2 0h.25v1h-.25zm1.375 0h.5v1h-.5zm-12-2h.5v1h-.5zm1.625 0h.25v1h-.25zm2 0h.25v1h-.25zm2 0h.25v1h-.25zm1 0h.25v1h-.25zm2 0h.25v1h-.25zm2 0h.25v1h-.25zm1.375 0h.5v1h-.5zm-12 4h.5v1h-.5zm1.625 0h.25v1h-.25zm2 0h.25v1h-.25zm2 0h.25v1h-.25zm1 0h.25v1h-.25zm2 0h.25v1h-.25zm2 0h.25v1h-.25zm1.375 0h.5v1h-.5z"/></svg>