<svg xmlns="http://www.w3.org/2000/svg" xml:space="preserve" fill-rule="evenodd" stroke-linejoin="round" stroke-miterlimit="2" clip-rule="evenodd" viewBox="0 0 15 15"><path fill="#7a7a7a" d="M.55 3.057C1.647 3.244 4 4.049 4 7.5S1.647 11.756.553 11.965a.5.5 0 0 1-.552-.498c0-1.597 0-6.338.022-7.935a.48.48 0 0 1 .528-.475ZM15 3.532c0 1.597 0 6.338-.022 7.935a.48.48 0 0 1-.528.475C13.353 11.755 11 10.95 11 7.499s2.353-4.256 3.447-4.465a.5.5 0 0 1 .552.498Z"/><path fill="#a7a7a7" d="M.5 11.466c0-1.591 0-6.292.022-7.907.985.181 2.978.91 2.978 3.94 0 3.046-2.019 3.77-3 3.966Zm14-7.933c0 1.591 0 6.292-.022 7.907-.985-.181-2.978-.91-2.978-3.94 0-3.046 2.019-3.77 3-3.966Z"/></svg>