<svg xmlns="http://www.w3.org/2000/svg" xml:space="preserve" fill-rule="evenodd" stroke-linejoin="round" stroke-miterlimit="2" clip-rule="evenodd" viewBox="0 0 15 15"><circle cx="7.5" cy="7.5" r="3" fill="#7a7a7a"/><circle cx="7.5" cy="7.5" r="2.5" fill="#a7a7a7"/><path fill="#f4f4f4" fill-rule="nonzero" d="M7.512 6.823v-.042c-.003-.009-.011-.009-.014 0-.026.074-.067.328-.346.328-.105.002-.276.001-.385.001-.15 0-.386-.096-.35-.392.035-.281.138-.507.299-.671.542-.548 1.877-.387 1.877.715v.002c0 .383-.163.622-.342.839-.114.138-.248.257-.268.451-.017.159-.12.226-.12.226s.037.033.059.065a.36.36 0 0 1 .06.196v.36a.36.36 0 0 1-.35.35h-.36a.36.36 0 0 1-.35-.35v-.36a.37.37 0 0 1 .06-.196.4.4 0 0 1 .062-.068s-.143-.067-.12-.295c.036-.355.206-.582.374-.784.101-.12.214-.217.214-.375"/><path fill="#e5c200" fill-rule="nonzero" d="M7.272 8.116a.104.104 0 0 1-.1-.109c.059-.59.59-.743.59-1.184v-.002a.3.3 0 0 0-.069-.215c-.092-.102-.292-.105-.384.008a.33.33 0 0 0-.064.162.1.1 0 0 1-.097.083l-.383.001c-.057 0-.107-.055-.1-.111.027-.219.103-.398.229-.525.417-.422 1.449-.305 1.449.539v.002c0 .622-.556.768-.609 1.263a.1.1 0 0 1-.099.089l-.362.001ZM7.27 9a.1.1 0 0 1-.1-.1v-.36a.1.1 0 0 1 .1-.1h.36a.1.1 0 0 1 .1.1v.36a.1.1 0 0 1-.1.1z"/></svg>