<svg xmlns="http://www.w3.org/2000/svg" xml:space="preserve" fill-rule="evenodd" stroke-linejoin="round" stroke-miterlimit="2" clip-rule="evenodd" viewBox="0 0 15 15"><path fill="#171717" d="M4 3a2 2 0 0 1 2-2h3a2 2 0 0 1 2 2v9a2 2 0 0 1-2 2H6a2 2 0 0 1-2-2z"/><path fill="#272727" d="M9.3 11.501a1.8 1.8 0 0 1-3.6 0zm0-4a1.8 1.8 0 0 1-3.6 0zm0-4a1.8 1.8 0 0 1-3.6 0z"/><path fill="#414141" d="M5.7 11.501a1.8 1.8 0 0 1 3.6 0zm0-4a1.8 1.8 0 0 1 3.6 0zm0-4a1.8 1.8 0 0 1 3.6 0z"/><ellipse cx="7.5" cy="11.501" fill="#5dca19" rx="1.5" ry="1.499"/><ellipse cx="7.5" cy="7.501" fill="#e5c200" rx="1.5" ry="1.499"/><ellipse cx="7.5" cy="3.501" fill="#ce4d4b" rx="1.5" ry="1.499"/></svg>