<svg xmlns="http://www.w3.org/2000/svg" xml:space="preserve" fill-rule="evenodd" stroke-linejoin="round" stroke-miterlimit="2" clip-rule="evenodd" viewBox="0 0 15 15"><path fill="#089d00" d="M3.839 13.196c.093.467.504.804.981.804h5.36c.477 0 .887-.336.981-.804.351-1.755 1.187-4.935 1.6-7a.999.999 0 0 0-.207-.83A1 1 0 0 0 11.781 5h-8.56c-.3 0-.583.134-.773.366a.999.999 0 0 0-.207.83c.413 2.065 1.249 5.245 1.6 7Z"/><path fill="#d39f10" d="M2 3.5c0 .276.224.5.5.5h10c.276 0 .5-.224.5-.5 0-.133-.053-.26-.146-.354A.5.5 0 0 0 12.5 3h-3c-.133 0-.26-.053-.354-.146A.5.5 0 0 1 9 2.5c0-.133-.053-.26-.146-.354A.5.5 0 0 0 8.5 2h-2c-.133 0-.26.053-.354.146A.5.5 0 0 0 6 2.5c0 .133-.053.26-.146.354A.5.5 0 0 1 5.5 3h-3c-.133 0-.26.053-.354.146A.5.5 0 0 0 2 3.5"/><path fill="#f4f4f4" fill-rule="nonzero" d="m5.239 9.066-.147-.084a.308.308 0 0 1-.156-.266.307.307 0 0 1 .151-.268l.829-.493a.309.309 0 0 1 .311-.003c.097.055.156.157.156.268v.956a.31.31 0 0 1-.15.265.308.308 0 0 1-.304.008l-.152-.081-.261.461c-.053.094-.125.219-.163.354-.05.177-.037.373.189.524.132.087.28.148.435.178.168.028.22.22.141.329-.034.047-.092.084-.178.081h-.002c-.103-.005-.443-.036-.729-.194-.203-.112-.377-.287-.434-.553v-.002c-.07-.367.007-.696.222-1.053zm1.29-1.831.018-.034c.038-.066.164-.266.362-.435.207-.176.49-.315.832-.25l.007.002c.415.111.59.352.823.685l.002.003.264.412.14-.09c.093-.059.21-.065.308-.014s.161.149.167.259l.047.957a.3086.3086 0 0 1-.452.288l-.849-.446a.31.31 0 0 1-.165-.26c-.005-.11.05-.214.142-.273l.141-.09-.283-.443c-.058-.091-.134-.213-.235-.31-.132-.127-.31-.207-.548-.077-.139.076-.261.178-.361.301-.069.094-.157.114-.227.1a.23.23 0 0 1-.052-.018.2.2 0 0 1-.044-.031.196.196 0 0 1-.055-.095c-.004-.018-.007-.091.018-.141m1.943 3.442h.527c.108 0 .252.001.388-.031.178-.042.342-.149.361-.42.011-.158-.01-.316-.061-.467l-.001-.002c-.029-.09-.011-.156.02-.201.04-.059.109-.088.176-.086.04.001.079.014.109.035s.06.072.06.072c.029.055.174.347.198.669.019.254-.037.524-.264.724-.269.241-.586.33-.986.323h-.53l-.001.176c0 .11-.059.212-.155.267a.308.308 0 0 1-.309-.001l-.831-.482a.309.309 0 0 1-.154-.268c0-.11.06-.212.156-.267l.835-.477a.309.309 0 0 1 .462.268v.167Z"/></svg>