<?xml version="1.0" encoding="UTF-8" standalone="no"?><!DOCTYPE svg PUBLIC "-//W3C//DTD SVG 1.1//EN" "http://www.w3.org/Graphics/SVG/1.1/DTD/svg11.dtd"><svg width="100%" height="100%" viewBox="0 0 15 15" version="1.1" xmlns="http://www.w3.org/2000/svg" xmlns:xlink="http://www.w3.org/1999/xlink" xml:space="preserve" xmlns:serif="http://www.serif.com/" style="fill-rule:evenodd;clip-rule:evenodd;stroke-linejoin:round;stroke-miterlimit:2;"><path d="M4.195,13.629l-1.662,-8.308c-0.027,-0.136 0.008,-0.276 0.096,-0.383c0.088,-0.107 0.219,-0.169 0.357,-0.169l9.028,0c0.138,0 0.269,0.062 0.357,0.169c0.088,0.107 0.123,0.248 0.096,0.383l-1.662,8.308c-0.043,0.216 -0.233,0.371 -0.453,0.371l-5.705,-0c-0.22,-0 -0.409,-0.155 -0.453,-0.371Z" style="fill:#089d00;"/><path d="M2.423,3.385c0,-0.122 0.049,-0.24 0.135,-0.326c0.087,-0.087 0.204,-0.135 0.326,-0.135l2.769,-0c0.122,0 0.24,-0.049 0.326,-0.135c0.087,-0.087 0.135,-0.204 0.135,-0.326c0,-0.122 0.049,-0.24 0.135,-0.326c0.087,-0.087 0.204,-0.135 0.326,-0.135l1.846,0c0.122,-0 0.24,0.049 0.326,0.135c0.087,0.087 0.135,0.204 0.135,0.326c0,0.122 0.049,0.24 0.135,0.326c0.087,0.087 0.204,0.135 0.326,0.135l2.769,0c0.122,-0 0.24,0.049 0.326,0.135c0.087,0.087 0.135,0.204 0.135,0.326c0,0.255 -0.207,0.462 -0.462,0.462l-9.231,-0c-0.255,-0 -0.462,-0.207 -0.462,-0.462Z" style="fill:#e5c200;"/></svg>