<svg xmlns="http://www.w3.org/2000/svg" xml:space="preserve" fill-rule="evenodd" stroke-linejoin="round" stroke-miterlimit="2" clip-rule="evenodd" viewBox="0 0 15 15"><path d="M1 3c0-.79.7-1.49 1.5-1.5h2.6s.08-.2.17-.34C5.54.77 6.01.51 6.5.5h2c.49.01.96.26 1.23.66.09.14.17.34.17.34h2.6c.7.01 1.33.53 1.47 1.19.07.32.06.91-.41 1.37-.09.09-.26.2-.26.2a2 2 0 0 1 .44 1.63c-.41 2.06-1.25 5.25-1.6 7a2 2 0 0 1-1.96 1.61H4.82a2 2 0 0 1-1.96-1.61c-.35-1.75-1.19-4.94-1.6-7-.12-.58.07-1.18.44-1.63 0 0-.16-.11-.26-.2A1.5 1.5 0 0 1 1 3"/><path fill="#089d00" d="M3.84 12.7c.09.47.5.8.98.8h5.36a1 1 0 0 0 .98-.8c.35-1.75 1.19-4.94 1.6-7 .12-.59-.38-1.2-.98-1.2H3.22c-.6 0-1.1.61-.98 1.2.41 2.06 1.25 5.25 1.6 7"/><path fill="#d39f10" d="M2 3c0 .28.22.5.5.5h10A.5.5 0 0 0 13 3a.5.5 0 0 0-.5-.5h-3A.5.5 0 0 1 9 2a.5.5 0 0 0-.5-.5h-2A.5.5 0 0 0 6 2a.5.5 0 0 1-.5.5h-3A.5.5 0 0 0 2 3"/><path fill="#f4f4f4" fill-rule="nonzero" d="m4.81 8.55-.17-.1c-.23-.13-.23-.5-.01-.64l.99-.59c.23-.13.56.05.56.32v1.14c0 .26-.31.45-.54.32l-.18-.1-.31.55c-.06.11-.15.26-.19.42-.06.21-.04.44.22.62q.24.16.52.21c.2.03.26.26.17.39q-.06.1-.21.1c-.17-.01-1.22-.1-1.38-.89q-.12-.64.26-1.25l.29-.51Zm1.53-2.18s.55-1.03 1.44-.86h.01c.49.13.7.42.98.81l.31.49.17-.11c.22-.14.55.03.56.29l.06 1.14c.01.26-.3.47-.54.34l-1.01-.53c-.23-.12-.25-.49-.03-.63l.17-.11-.34-.53a2 2 0 0 0-.28-.37c-.16-.15-.37-.25-.65-.09q-.25.13-.43.36-.13.16-.27.12a.3.3 0 0 1-.18-.17.3.3 0 0 1 .02-.17Zm2.31 4.09h.63c.3 0 .85.02.89-.54.01-.19-.04-.45-.07-.56q-.04-.16.02-.24.08-.1.21-.1.17.01.2.13c.06.12.54 1.11-.08 1.66q-.47.41-1.17.38h-.63v.21c0 .26-.32.45-.55.32l-.99-.57c-.23-.13-.23-.51 0-.64l.99-.57c.23-.13.55.06.55.32z"/></svg>