<?xml version="1.0" encoding="UTF-8" standalone="no"?><!DOCTYPE svg PUBLIC "-//W3C//DTD SVG 1.1//EN" "http://www.w3.org/Graphics/SVG/1.1/DTD/svg11.dtd"><svg width="100%" height="100%" viewBox="0 0 15 15" version="1.1" xmlns="http://www.w3.org/2000/svg" xmlns:xlink="http://www.w3.org/1999/xlink" xml:space="preserve" xmlns:serif="http://www.serif.com/" style="fill-rule:evenodd;clip-rule:evenodd;stroke-linejoin:round;stroke-miterlimit:2;"><path d="M3.839,13.196c0.093,0.467 0.504,0.804 0.981,0.804c1.347,-0 4.013,-0 5.36,-0c0.477,0 0.887,-0.336 0.981,-0.804c0.351,-1.755 1.187,-5.935 1.6,-8c0.059,-0.294 -0.017,-0.598 -0.207,-0.83c-0.19,-0.232 -0.474,-0.366 -0.773,-0.366c-2.116,-0 -6.444,-0 -8.56,-0c-0.3,-0 -0.583,0.134 -0.773,0.366c-0.19,0.232 -0.266,0.536 -0.207,0.83c0.413,2.065 1.249,6.245 1.6,8Z" style="fill:#089d00;"/><path d="M2,2.5c0,0.276 0.224,0.5 0.5,0.5c1.832,0 8.168,0 10,0c0.276,-0 0.5,-0.224 0.5,-0.5c-0,-0.133 -0.053,-0.26 -0.146,-0.354c-0.094,-0.094 -0.221,-0.146 -0.354,-0.146c-0.769,-0 -2.231,-0 -3,-0c-0.133,0 -0.26,-0.053 -0.354,-0.146c-0.094,-0.094 -0.146,-0.221 -0.146,-0.354c-0,-0.133 -0.053,-0.26 -0.146,-0.354c-0.094,-0.094 -0.221,-0.146 -0.354,-0.146c-0.555,-0 -1.445,-0 -2,-0c-0.133,-0 -0.26,0.053 -0.354,0.146c-0.094,0.094 -0.146,0.221 -0.146,0.354c-0,0.133 -0.053,0.26 -0.146,0.354c-0.094,0.094 -0.221,0.146 -0.354,0.146c-0.769,0 -2.231,0 -3,0c-0.133,-0 -0.26,0.053 -0.354,0.146c-0.094,0.094 -0.146,0.221 -0.146,0.354Z" style="fill:#171717;"/></svg>