<?xml version="1.0" encoding="UTF-8" standalone="no"?><!DOCTYPE svg PUBLIC "-//W3C//DTD SVG 1.1//EN" "http://www.w3.org/Graphics/SVG/1.1/DTD/svg11.dtd"><svg width="100%" height="100%" viewBox="0 0 15 15" version="1.1" xmlns="http://www.w3.org/2000/svg" xmlns:xlink="http://www.w3.org/1999/xlink" xml:space="preserve" xmlns:serif="http://www.serif.com/" style="fill-rule:evenodd;clip-rule:evenodd;stroke-linejoin:round;stroke-miterlimit:2;"><path d="M3.9,13.6c0,0.2 0.3,0.4 0.5,0.4c1.2,0 4.9,0 6.2,0c0.2,-0 0.4,-0.2 0.5,-0.4c0.3,-1.6 1.4,-7.1 1.8,-9c0,-0.1 -0,-0.3 -0.1,-0.4c-0.1,-0.1 -0.2,-0.2 -0.4,-0.2c-1.9,-0 -7.9,-0 -9.8,-0c-0.1,0 -0.3,0.1 -0.4,0.2c-0.1,0.1 -0.1,0.3 -0.1,0.4c0.4,1.9 1.5,7.4 1.8,9Z" style="fill:#245f00;"/><path d="M2,2.5c0,0.3 0.2,0.5 0.5,0.5c1.8,0 8.2,0 10,0c0.3,-0 0.5,-0.2 0.5,-0.5c-0,-0.1 -0.1,-0.3 -0.1,-0.4c-0.1,-0.1 -0.2,-0.1 -0.4,-0.1c-0.8,-0 -2.2,-0 -3,-0c-0.1,0 -0.3,-0.1 -0.4,-0.1c-0.1,-0.1 -0.1,-0.2 -0.1,-0.4c-0,-0.1 -0.1,-0.3 -0.1,-0.4c-0.1,-0.1 -0.2,-0.1 -0.4,-0.1c-0.6,-0 -1.4,-0 -2,-0c-0.1,-0 -0.3,0.1 -0.4,0.1c-0.1,0.1 -0.1,0.2 -0.1,0.4c-0,0.1 -0.1,0.3 -0.1,0.4c-0.1,0.1 -0.2,0.1 -0.4,0.1c-0.8,0 -2.2,0 -3,0c-0.1,-0 -0.3,0.1 -0.4,0.1c-0.1,0.1 -0.1,0.2 -0.1,0.4Z" style="fill:#171717;"/></svg>