<?xml version="1.0" encoding="UTF-8" standalone="no"?><!DOCTYPE svg PUBLIC "-//W3C//DTD SVG 1.1//EN" "http://www.w3.org/Graphics/SVG/1.1/DTD/svg11.dtd"><svg width="100%" height="100%" viewBox="0 0 15 15" version="1.1" xmlns="http://www.w3.org/2000/svg" xmlns:xlink="http://www.w3.org/1999/xlink" xml:space="preserve" xmlns:serif="http://www.serif.com/" style="fill-rule:evenodd;clip-rule:evenodd;stroke-linejoin:round;stroke-miterlimit:2;"><path d="M6.65,8l0,5c0,0 -0.045,0.027 -0.119,0.072c-0.192,0.116 -0.283,0.346 -0.222,0.562c0.06,0.216 0.257,0.365 0.482,0.365l1.467,-0c0.223,-0 0.419,-0.148 0.481,-0.362c0.061,-0.214 -0.026,-0.444 -0.216,-0.562c-0.076,-0.047 -0.122,-0.076 -0.122,-0.076l0,-2c0.74,-0.89 1.69,-1.58 2.77,-2l-0.62,-0.28c-0.79,0.37 -1.55,0.9 -2.15,1.53l0,-3.43l-1.75,1.18Z" style="fill:#472a00;"/><path d="M11.17,9c0.83,0 1.6,-0.31 1.79,-1.11c0.04,-0.12 0.04,-0.53 0.04,-0.53c0.62,-0.36 1,-0.92 1,-1.61c0,-0.69 -0.38,-1.32 -1,-1.61c-0.05,-0.65 -0.6,-1.14 -1.25,-1.14l-0.3,0c0,-0.66 -0.64,-1.15 -1.3,-1.09c-0.25,0.09 -0.5,0.2 -0.69,0.34c0,-0.69 -0.56,-1.25 -1.25,-1.25c-0.69,0 -1.25,0.59 -1.25,1.25c0,0 0.04,0.05 0.04,0.08c-0.51,-0.44 -1.28,-0.38 -1.75,0.13c-0.12,0.17 -0.25,0.39 -0.25,0.54l-0.49,0c-0.83,0 -1.51,0.66 -1.51,1.49c0,0.2 0,0.4 0.11,0.51c-0.79,0.3 -1.26,1.11 -1.11,1.91c0.22,0.5 0.61,0.89 1.11,1.03c0.25,0.78 1.09,1.21 1.88,0.96c0.53,-0.17 0.92,-0.63 1.01,-1.19c0.18,0.16 0.41,0.26 0.65,0.29c0.35,0 1.35,0 1.75,-1.18c0.27,0.48 0.78,0.78 1.33,0.78l0.25,0c0,0.44 0.22,0.85 0.57,1.12c0,0 0.393,0.28 0.62,0.28Z" style="fill:#59a42b;"/></svg>