<?xml version="1.0" encoding="UTF-8" standalone="no"?><!DOCTYPE svg PUBLIC "-//W3C//DTD SVG 1.1//EN" "http://www.w3.org/Graphics/SVG/1.1/DTD/svg11.dtd"><svg width="100%" height="100%" viewBox="0 0 15 15" version="1.1" xmlns="http://www.w3.org/2000/svg" xmlns:xlink="http://www.w3.org/1999/xlink" xml:space="preserve" xmlns:serif="http://www.serif.com/" style="fill-rule:evenodd;clip-rule:evenodd;stroke-linejoin:round;stroke-miterlimit:2;"><path d="M12,10.94l0,2.56c0,0.133 -0.053,0.26 -0.146,0.354c-0.094,0.094 -0.221,0.146 -0.354,0.146c-0.133,-0 -0.26,-0.053 -0.354,-0.146c-0.094,-0.094 -0.146,-0.221 -0.146,-0.354c-0,-0.865 -0,-2.55 -0,-2.55l1,-0.01Zm-4,0l0,2.56c0,0.133 -0.053,0.26 -0.146,0.354c-0.094,0.094 -0.221,0.146 -0.354,0.146c-0.133,-0 -0.26,-0.053 -0.354,-0.146c-0.094,-0.094 -0.146,-0.221 -0.146,-0.354c-0,-0.865 -0,-2.55 -0,-2.55l1,-0.01Zm-4,0l0,2.56c0,0.133 -0.053,0.26 -0.146,0.354c-0.094,0.094 -0.221,0.146 -0.354,0.146c-0.133,-0 -0.26,-0.053 -0.354,-0.146c-0.094,-0.094 -0.146,-0.221 -0.146,-0.354c-0,-0.865 -0,-2.55 -0,-2.55l1,-0.01Z" style="fill:#895100;"/><path d="M5.49,9.91c-0.33,0.51 -0.86,0.9 -1.49,1.03c-0.302,0.035 -0.635,0.039 -1,0.01c-1.07,-0.22 -1.88,-1.18 -1.88,-2.32c0,-0.13 0.01,-0.26 0.03,-0.39c0.82,-4.83 1.62,-7.24 2.41,-7.24c0.66,0 1.32,1.74 1.96,5.23l-0.03,3.68Z" style="fill:#5dca19;"/><path d="M9.52,6.23c0.69,-3.49 1.37,-5.23 2.04,-5.23c0.78,0 1.55,2.41 2.3,7.23c0.19,1.26 -0.63,2.45 -1.86,2.71c-0.333,0.044 -0.667,0.046 -1,0.01c-0.63,-0.13 -1.17,-0.51 -1.51,-1.04l0.03,-3.68Z" style="fill:#5dca19;"/><path d="M5.52,6.23c0.69,-3.49 1.37,-5.23 2.04,-5.23c0.66,0 1.32,1.74 1.96,5.23c0.314,1.227 0.56,2.453 -0.03,3.68c-0.33,0.51 -0.86,0.9 -1.49,1.03c-0.333,0.043 -0.667,0.046 -1,0.01c-0.63,-0.13 -1.17,-0.51 -1.51,-1.04c-0.572,-1.227 -0.263,-2.453 0.03,-3.68Z" style="fill:#59a42b;"/></svg>