<?xml version="1.0" encoding="UTF-8" standalone="no"?><!DOCTYPE svg PUBLIC "-//W3C//DTD SVG 1.1//EN" "http://www.w3.org/Graphics/SVG/1.1/DTD/svg11.dtd"><svg width="100%" height="100%" viewBox="0 0 15 15" version="1.1" xmlns="http://www.w3.org/2000/svg" xmlns:xlink="http://www.w3.org/1999/xlink" xml:space="preserve" xmlns:serif="http://www.serif.com/" style="fill-rule:evenodd;clip-rule:evenodd;stroke-linejoin:round;stroke-miterlimit:2;"><path d="M4,10.94l0,2.56c0,0.133 -0.053,0.26 -0.146,0.354c-0.094,0.094 -0.221,0.146 -0.354,0.146c-0.133,-0 -0.26,-0.053 -0.354,-0.146c-0.094,-0.094 -0.146,-0.221 -0.146,-0.354l-0,-2.55l1,-0.01Zm3,-2.44c0,-0.276 0.224,-0.5 0.5,-0.5l5,0c0.276,-0 0.5,0.224 0.5,0.5l0,1.5c-0,0.276 -0.224,0.5 -0.5,0.5l-5,-0c-0.276,0 -0.5,-0.224 -0.5,-0.5l-0,-1.5Z" style="fill:#895100;"/><path d="M3,10.95c-1.07,-0.22 -1.88,-1.18 -1.88,-2.32c0,-0.13 0.01,-0.26 0.03,-0.39c0.82,-4.83 1.62,-7.24 2.41,-7.24c0.78,0 1.55,2.41 2.3,7.23c0.19,1.26 -0.63,2.45 -1.86,2.71c-0.333,0.065 -0.667,0.067 -1,0.01Z" style="fill:#5dca19;"/><path d="M12,11l1.5,0c0.276,0 0.5,0.224 0.5,0.5l-0,2c0,0.133 -0.053,0.26 -0.146,0.354c-0.094,0.094 -0.221,0.146 -0.354,0.146c-0.133,-0 -0.26,-0.053 -0.354,-0.146c-0.094,-0.094 -0.146,-0.221 -0.146,-0.354l-0,-1.4c0,-0.027 -0.011,-0.052 -0.029,-0.071c-0.019,-0.019 -0.044,-0.029 -0.071,-0.029l-0.9,-1Z" style="fill:#171717;"/><path d="M7.1,12c-0.027,0 -0.052,0.011 -0.071,0.029c-0.019,0.019 -0.029,0.044 -0.029,0.071l-0,1.4c0,0.133 -0.053,0.26 -0.146,0.354c-0.094,0.094 -0.221,0.146 -0.354,0.146c-0.133,-0 -0.26,-0.053 -0.354,-0.146c-0.094,-0.094 -0.146,-0.221 -0.146,-0.354l-0,-2c-0,-0.133 0.053,-0.26 0.146,-0.354c0.094,-0.094 0.221,-0.146 0.354,-0.146l1.5,0l-0.9,1Z" style="fill:#171717;"/><path d="M7,11.1c-0,-0.027 0.011,-0.052 0.029,-0.071c0.019,-0.019 0.044,-0.029 0.071,-0.029c0.718,0 5.082,0 5.8,0c0.027,-0 0.052,0.011 0.071,0.029c0.019,0.019 0.029,0.044 0.029,0.071c0,0.192 0,0.608 0,0.8c0,0.027 -0.011,0.052 -0.029,0.071c-0.019,0.019 -0.044,0.029 -0.071,0.029c-0.718,-0 -5.082,-0 -5.8,-0c-0.027,0 -0.052,-0.011 -0.071,-0.029c-0.019,-0.019 -0.029,-0.044 -0.029,-0.071c-0,-0.192 -0,-0.608 -0,-0.8Z" style="fill:#895100;"/></svg>