<svg xmlns="http://www.w3.org/2000/svg" xml:space="preserve" fill-rule="evenodd" stroke-linejoin="round" stroke-miterlimit="2" clip-rule="evenodd" viewBox="0 0 15 15"><path fill="#59a42b" d="M5.114 4.809a.1.1 0 0 0 .096-.07c.114-.357.628-1.971.781-2.403.226-.639.865-1.097 1.509-1.097s1.285.461 1.509 1.097c.153.432.668 2.046.781 2.403a.1.1 0 0 0 .096.07c.374-.002 2.068-.011 2.526 0 .678.017 1.31.484 1.509 1.097.199.612-.041 1.364-.577 1.774-.364.279-1.739 1.267-2.044 1.485a.1.1 0 0 0-.037.113c.118.355.65 1.964.78 2.403.193.65-.055 1.396-.577 1.774s-1.31.382-1.866 0c-.378-.26-1.743-1.263-2.044-1.485a.1.1 0 0 0-.119 0c-.302.222-1.667 1.225-2.044 1.485-.559.384-1.344.379-1.866 0-.521-.378-.768-1.128-.577-1.774.13-.439.662-2.047.78-2.403a.1.1 0 0 0-.037-.113A160 160 0 0 1 1.649 7.68c-.538-.413-.776-1.162-.577-1.774s.835-1.079 1.509-1.097c.458-.012 2.152-.003 2.526 0Z"/><path fill="#52d700" d="M6.997 2.664a.53.53 0 0 1 1.006 0l.803 2.473c.142.436.548.731 1.006.731h2.6a.53.53 0 0 1 .311.957L10.62 8.353a1.06 1.06 0 0 0-.384 1.183l.803 2.473a.528.528 0 0 1-.814.591l-2.103-1.528a1.06 1.06 0 0 0-1.244 0L4.775 12.6a.528.528 0 0 1-.814-.591l.803-2.473a1.06 1.06 0 0 0-.384-1.183L2.277 6.825a.53.53 0 0 1 .311-.957h2.6c.458 0 .865-.295 1.006-.731z"/><circle cx="7.5" cy="8" r="1" fill="#59a42b"/></svg>