<?xml version="1.0" encoding="UTF-8" standalone="no"?><!DOCTYPE svg PUBLIC "-//W3C//DTD SVG 1.1//EN" "http://www.w3.org/Graphics/SVG/1.1/DTD/svg11.dtd"><svg width="100%" height="100%" viewBox="0 0 15 15" version="1.1" xmlns="http://www.w3.org/2000/svg" xmlns:xlink="http://www.w3.org/1999/xlink" xml:space="preserve" xmlns:serif="http://www.serif.com/" style="fill-rule:evenodd;clip-rule:evenodd;stroke-linejoin:round;stroke-miterlimit:2;"><path d="M8.432,12.53c-0.02,-0.019 -0.032,-0.045 -0.032,-0.073c0,-0.573 0,-6.637 0,-6.637l-1.75,1.18l0,5.456c0,0.028 -0.012,0.055 -0.033,0.074c-0.092,0.083 -0.364,0.331 -0.66,0.6c-0.153,0.139 -0.205,0.358 -0.13,0.55c0.074,0.193 0.26,0.32 0.466,0.32c0.752,-0 1.695,-0 2.442,-0c0.205,-0 0.39,-0.125 0.465,-0.316c0.075,-0.191 0.027,-0.408 -0.123,-0.549c-0.289,-0.271 -0.557,-0.522 -0.646,-0.606Z" style="fill:#895100;"/><path d="M2.396,4.765c0.003,-0.345 0.076,-0.708 0.206,-0.95c0.289,-0.538 0.966,-1.02 1.799,-1.097c0.032,-0.051 0.063,-0.096 0.092,-0.133c0.016,-0.021 0.033,-0.041 0.051,-0.061c0.418,-0.453 0.991,-0.668 1.551,-0.636c0.344,-0.524 0.935,-0.887 1.607,-0.887c0.635,0 1.198,0.308 1.549,0.783l0.048,-0.003c0.754,-0.062 1.471,0.345 1.815,0.968c0.667,0.135 1.215,0.611 1.434,1.248c0.599,0.44 0.957,1.15 0.957,1.918c0,0.742 -0.32,1.379 -0.886,1.843c-0.006,0.065 -0.013,0.121 -0.019,0.154c-0.231,1.15 -1.185,1.874 -2.526,1.62c-0.457,-0.086 -0.66,-0.183 -0.95,-0.45c-0.177,-0.163 -0.395,-0.448 -0.553,-0.775c-0.184,-0.038 -0.361,-0.099 -0.527,-0.182c-0.599,0.556 -1.347,0.568 -1.674,0.568c-0.035,0 -0.071,-0.002 -0.106,-0.007l-0.014,-0.002c-0.259,0.342 -0.618,0.602 -1.038,0.737l-0.003,0.001c-0.983,0.311 -2.019,-0.12 -2.502,-0.973c-0.559,-0.287 -1.034,-0.811 -1.148,-1.371c-0.191,-0.931 0.148,-1.827 0.838,-2.312Z" style="fill:#59a42b;"/><path d="M10.231,8.692c0.805,0.152 1.392,-0.259 1.53,-0.949c0.021,-0.106 0.034,-0.453 0.034,-0.453c0.53,-0.308 0.855,-0.786 0.855,-1.376c0,-0.59 -0.325,-1.128 -0.855,-1.376c-0.043,-0.556 -0.513,-0.974 -1.068,-0.974c-0.556,0 -0.256,0 -0.256,0c0,-0.564 -0.547,-0.983 -1.111,-0.932c-0.339,0.019 -0.473,0.15 -0.59,0.291c0,-0.59 -0.479,-1.068 -1.068,-1.068c-0.59,0 -1.068,0.504 -1.068,1.068c0,0 0.034,0.043 0.034,0.068c-0.436,-0.376 -1.094,-0.325 -1.496,0.111c-0.072,0.095 -0.179,0.276 -0.214,0.461l-0.419,0c-0.541,0.03 -0.999,0.31 -1.185,0.655c-0.154,0.286 -0.124,0.863 -0.012,1.054c-0.728,0.142 -1.103,0.88 -0.949,1.632c0.084,0.41 0.521,0.761 0.949,0.88c0.214,0.667 0.932,1.034 1.607,0.82c0.453,-0.145 0.786,-0.538 0.863,-1.017c0.154,0.137 0.35,0.222 0.556,0.248c0.299,0 1.154,0 1.496,-1.008c0.231,0.41 0.667,0.667 1.137,0.667l0.214,0c0,0.376 0.295,0.78 0.487,0.957c0.16,0.148 0.277,0.192 0.53,0.239Z" style="fill:#52d700;"/></svg>