<svg xmlns="http://www.w3.org/2000/svg" xml:space="preserve" fill-rule="evenodd" stroke-linejoin="round" stroke-miterlimit="2" clip-rule="evenodd" viewBox="0 0 15 15"><path fill="#59a42b" d="M10.866 3.137A3.84 3.84 0 0 1 14 6.902a3.8 3.8 0 0 1-1.053 2.636q.033.25.033.501a3.85 3.85 0 0 1-3.83 3.83 3.8 3.8 0 0 1-1.649-.373 3.8 3.8 0 0 1-1.65.374 3.85 3.85 0 0 1-3.83-3.83q0-.251.033-.501A3.82 3.82 0 0 1 1 6.902a3.84 3.84 0 0 1 3.134-3.765A3.83 3.83 0 0 1 7.5 1.133c1.402 0 2.697.771 3.366 2.003z"/><path fill="#5dca19" d="M10.164 4.009a.1.1 0 0 0 .092.066 2.843 2.843 0 0 1 2.745 2.828c0 .91-.431 1.72-1.099 2.238a.1.1 0 0 0-.034.107c.075.257.113.524.113.792a2.844 2.844 0 0 1-2.83 2.83 2.83 2.83 0 0 1-1.592-.49.1.1 0 0 0-.113 0 2.83 2.83 0 0 1-1.592.49 2.844 2.844 0 0 1-2.83-2.83q0-.404.113-.791a.1.1 0 0 0-.035-.107 2.83 2.83 0 0 1-1.101-2.239 2.84 2.84 0 0 1 2.747-2.826.1.1 0 0 0 .091-.067 2.84 2.84 0 0 1 2.664-1.876c1.192 0 2.262.754 2.664 1.876z"/><circle cx="7.5" cy="7.502" r="1" fill="#59a42b"/></svg>