<?xml version="1.0" encoding="UTF-8" standalone="no"?><!DOCTYPE svg PUBLIC "-//W3C//DTD SVG 1.1//EN" "http://www.w3.org/Graphics/SVG/1.1/DTD/svg11.dtd"><svg width="100%" height="100%" viewBox="0 0 15 15" version="1.1" xmlns="http://www.w3.org/2000/svg" xmlns:xlink="http://www.w3.org/1999/xlink" xml:space="preserve" xmlns:serif="http://www.serif.com/" style="fill-rule:evenodd;clip-rule:evenodd;stroke-linejoin:round;stroke-miterlimit:2;"><path d="M5.468,4.182c0.025,0.035 0.071,0.05 0.112,0.037c0.041,-0.013 0.069,-0.052 0.069,-0.095c0,-0.15 0,-0.285 0,-0.285c0,-0.972 0.213,-1.644 0.483,-2.06c0.13,-0.201 0.279,-0.356 0.434,-0.473l0.285,-0.171l0.319,-0.106l0.374,-0.03l0.359,0.06c0.203,0.059 0.41,0.162 0.608,0.316c0.616,0.479 1.235,1.603 1.235,3.29l0,0.602c0,0.031 0.014,0.06 0.039,0.078c0.024,0.019 0.056,0.026 0.085,0.018c0.032,-0.027 0.059,-0.048 0.059,-0.048l0.274,-0.13l0.298,-0.059l0.293,0.014c0.571,0.095 1.315,0.747 1.315,1.889c0,0.888 -0.019,1.774 -0.241,2.44c-0.156,0.469 -0.406,0.85 -0.758,1.124c-0.319,0.248 -0.729,0.419 -1.269,0.449c-0.053,0.003 -0.094,0.047 -0.094,0.1c-0,0.33 -0,1.401 -0,1.401l-0.033,0.283l-0.094,0.262l-0.138,0.221l-0.161,0.175c-0.333,0.305 -0.969,0.517 -1.623,0.517c-0.654,-0 -1.29,-0.212 -1.623,-0.517l-0.161,-0.175l-0.138,-0.221l-0.094,-0.262l-0.033,-0.283l0,-2.582c-0,-0.053 -0.042,-0.097 -0.095,-0.099c-1.339,-0.057 -2.016,-0.776 -2.365,-1.753c-0.277,-0.775 -0.297,-1.769 -0.297,-2.655c0,-0.442 0.187,-0.889 0.466,-1.211c0.085,-0.099 0.178,-0.186 0.275,-0.259l0.351,-0.203l0.293,-0.085l0.343,-0.01l0.243,0.053l0.233,0.106l0.203,0.151l0.163,0.181c0.002,0.002 0.003,0.004 0.005,0.006Z" style="fill:#59a42b;fill-rule:nonzero;"/><path d="M6.415,7.422c0.027,-0 0.052,-0.011 0.071,-0.029c0.019,-0.019 0.029,-0.044 0.029,-0.071c0,-0.565 0,-3.339 0,-3.484c0,-3.111 2.363,-2.324 2.363,0.827l0,3.838c0,0.055 0.045,0.1 0.1,0.1c0.064,-0 0.161,-0 0.294,-0c0.788,0 0.788,-0.788 0.788,-1.575c0,-1.575 1.182,-1.182 1.182,0c0,1.575 0,3.151 -1.575,3.151l-0.688,0c-0.027,-0 -0.052,0.011 -0.071,0.029c-0.019,0.019 -0.029,0.044 -0.029,0.071c-0,0.45 -0,2.263 -0,2.263c0,0.788 -2.363,0.788 -2.363,0l-0,-3.444c-0,-0.027 -0.011,-0.052 -0.029,-0.071c-0.019,-0.019 -0.044,-0.029 -0.071,-0.029c-0.164,0 -0.49,0.001 -0.687,-0c-1.969,-0.015 -1.969,-1.969 -1.969,-3.545c0,-0.788 1.182,-1.575 1.182,0c0,0.788 0,1.969 0.788,1.969l0.688,-0Z" style="fill:#52d700;fill-rule:nonzero;"/></svg>