<?xml version="1.0" encoding="UTF-8" standalone="no"?><!DOCTYPE svg PUBLIC "-//W3C//DTD SVG 1.1//EN" "http://www.w3.org/Graphics/SVG/1.1/DTD/svg11.dtd"><svg width="100%" height="100%" viewBox="0 0 15 15" version="1.1" xmlns="http://www.w3.org/2000/svg" xmlns:xlink="http://www.w3.org/1999/xlink" xml:space="preserve" xmlns:serif="http://www.serif.com/" style="fill-rule:evenodd;clip-rule:evenodd;stroke-linejoin:round;stroke-miterlimit:2;"><path d="M5.187,4.81l0.803,-2.473l0.229,-0.447l0.348,-0.346l0.437,-0.224l0.496,-0.08l0.496,0.08l0.437,0.224l0.348,0.346l0.229,0.447l0.803,2.473l2.6,0l0.496,0.08l0.437,0.224l0.348,0.346l0.229,0.447l0.078,0.496l-0.078,0.484l-0.222,0.438l-0.355,0.356l-2.103,1.528l0.803,2.473l0.078,0.496l-0.078,0.484l-0.222,0.438l-0.355,0.356l-0.448,0.227l-0.485,0.076l-0.485,-0.076l-0.448,-0.227l-2.103,-1.528l-2.103,1.528l-0.448,0.227l-0.485,0.076l-0.485,-0.076l-0.448,-0.227l-0.355,-0.356l-0.222,-0.438l-0.078,-0.484l0.078,-0.496l0.803,-2.473l-2.103,-1.528l-0.355,-0.356l-0.222,-0.438l-0.078,-0.484l0.078,-0.496l0.229,-0.447l0.348,-0.346l0.437,-0.224l0.496,-0.08l2.6,0Z" style="fill:#59a42b;"/><path d="M6.997,2.664c0.071,-0.218 0.274,-0.366 0.503,-0.366c0.229,-0 0.432,0.148 0.503,0.366c0.27,0.831 0.59,1.816 0.803,2.473c0.142,0.436 0.548,0.731 1.006,0.731c0.69,0 1.726,0 2.6,0c0.229,0 0.432,0.148 0.503,0.366c0.071,0.218 -0.007,0.457 -0.192,0.591c-0.707,0.514 -1.545,1.123 -2.103,1.528c-0.371,0.269 -0.526,0.747 -0.384,1.183c0.213,0.656 0.533,1.642 0.803,2.473c0.071,0.218 -0.007,0.457 -0.192,0.591c-0.185,0.135 -0.437,0.135 -0.622,0c-0.707,-0.514 -1.545,-1.123 -2.103,-1.528c-0.371,-0.269 -0.873,-0.269 -1.244,-0c-0.558,0.406 -1.397,1.015 -2.103,1.528c-0.185,0.135 -0.437,0.135 -0.622,-0c-0.185,-0.135 -0.263,-0.374 -0.192,-0.591c0.27,-0.831 0.59,-1.816 0.803,-2.473c0.142,-0.436 -0.014,-0.914 -0.384,-1.183c-0.558,-0.406 -1.397,-1.015 -2.103,-1.528c-0.185,-0.135 -0.263,-0.374 -0.192,-0.591c0.071,-0.218 0.274,-0.366 0.503,-0.366c0.874,-0 1.91,-0 2.6,-0c0.458,-0 0.865,-0.295 1.006,-0.731c0.213,-0.656 0.533,-1.642 0.803,-2.473Z" style="fill:#52d700;"/><circle cx="7.5" cy="8" r="1" style="fill:#59a42b;"/></svg>