<?xml version="1.0" encoding="UTF-8" standalone="no"?><!DOCTYPE svg PUBLIC "-//W3C//DTD SVG 1.1//EN" "http://www.w3.org/Graphics/SVG/1.1/DTD/svg11.dtd"><svg width="100%" height="100%" viewBox="0 0 15 15" version="1.1" xmlns="http://www.w3.org/2000/svg" xmlns:xlink="http://www.w3.org/1999/xlink" xml:space="preserve" xmlns:serif="http://www.serif.com/" style="fill-rule:evenodd;clip-rule:evenodd;stroke-linejoin:round;stroke-miterlimit:2;"><path d="M9.154,6.564c0.166,0.933 0.346,2.129 0.346,2.936c0,1.499 -0.499,2.997 -0.999,4.496c-0.002,0.008 -0.003,0.016 -0.003,0.024c-0.061,0.459 -2.286,0.473 -2.484,0.043c-0.004,-0.036 0.001,-0.073 0.013,-0.108c0.495,-1.477 1.473,-2.477 1.473,-4.455c0,-1.19 -0.177,-2.025 -0.32,-2.507c0.355,-0.444 0.657,-0.801 0.771,-0.936c0.029,-0.034 0.077,-0.045 0.117,-0.026c0.156,0.071 0.568,0.262 1.086,0.533Z" style="fill:#957b32;"/><path d="M7.18,6.993c-0.607,0.758 -1.37,1.769 -1.623,2.354c-0.011,0.034 -0.039,0.059 -0.074,0.067c-0.035,0.007 -0.071,-0.004 -0.095,-0.031c-1.017,-1.184 -0.219,-2.895 0.175,-3.582c0.022,-0.036 0.019,-0.083 -0.01,-0.115c-0.028,-0.032 -0.074,-0.042 -0.113,-0.024c-0.5,0.284 -1.601,1.018 -3.304,2.703c-0.027,0.027 -0.066,0.036 -0.102,0.024c-0.036,-0.012 -0.062,-0.043 -0.068,-0.08c-0.225,-1.865 1.755,-3.141 2.63,-3.61c0.041,-0.02 0.063,-0.066 0.052,-0.11c-0.011,-0.045 -0.051,-0.076 -0.097,-0.074c-0.681,0.026 -2.043,0.124 -3.426,0.455c-0.031,0.008 -0.063,0.001 -0.087,-0.019c-0.024,-0.02 -0.038,-0.05 -0.037,-0.082c0.133,-1.967 3.194,-1.95 4.189,-1.892c0.042,0.003 0.081,-0.021 0.097,-0.059c0.016,-0.039 0.006,-0.083 -0.025,-0.111c-0.406,-0.303 -1.359,-0.888 -3.025,-1.256c-0.04,-0.008 -0.071,-0.04 -0.078,-0.081c-0.007,-0.04 0.012,-0.081 0.047,-0.102c2.548,-1.515 4.695,0.495 5.188,1.016c0.024,0.027 0.06,0.038 0.095,0.031c0.035,-0.008 0.063,-0.033 0.073,-0.067c0.22,-0.445 1.15,-1.681 4.601,-1.38c0.043,0.004 0.079,0.036 0.088,0.078c0.009,0.043 -0.012,0.086 -0.05,0.106c-1.342,0.708 -2.184,1.388 -2.526,1.688c-0.029,0.028 -0.038,0.07 -0.024,0.107c0.014,0.037 0.049,0.062 0.089,0.064c0.848,0.054 3.679,0.416 4.221,2.792c0.007,0.037 -0.007,0.074 -0.037,0.097c-0.03,0.023 -0.07,0.027 -0.103,0.011c-1.361,-0.649 -2.907,-1.075 -3.731,-1.276c-0.047,-0.009 -0.094,0.016 -0.112,0.061c-0.018,0.045 -0.001,0.096 0.039,0.122c0.82,0.555 2.333,1.849 2.472,3.88c0.001,0.043 -0.025,0.081 -0.065,0.096c-0.04,0.014 -0.085,0.001 -0.111,-0.033c-0.73,-0.837 -2.148,-1.668 -3.159,-2.196c-0.518,-0.271 -0.93,-0.462 -1.086,-0.533c-0.041,-0.018 -0.088,-0.008 -0.117,0.026c-0.114,0.134 -0.416,0.491 -0.771,0.936Z" style="fill:#5dca19;"/></svg>