<?xml version="1.0" encoding="UTF-8" standalone="no"?><!DOCTYPE svg PUBLIC "-//W3C//DTD SVG 1.1//EN" "http://www.w3.org/Graphics/SVG/1.1/DTD/svg11.dtd"><svg width="100%" height="100%" viewBox="0 0 15 15" version="1.1" xmlns="http://www.w3.org/2000/svg" xmlns:xlink="http://www.w3.org/1999/xlink" xml:space="preserve" xmlns:serif="http://www.serif.com/" style="fill-rule:evenodd;clip-rule:evenodd;stroke-linejoin:round;stroke-miterlimit:2;"><path d="M4.134,11.865c-1.782,-0.327 -3.134,-1.889 -3.134,-3.765c-0,-1.022 0.401,-1.951 1.053,-2.636c-0.022,-0.165 -0.033,-0.333 -0.033,-0.504c0,-2.113 1.715,-3.828 3.828,-3.828c0.591,0 1.151,0.134 1.651,0.374c0.5,-0.24 1.06,-0.374 1.652,-0.374c2.113,0 3.828,1.715 3.828,3.828c0,0.171 -0.011,0.339 -0.033,0.503c0.653,0.687 1.054,1.616 1.054,2.637c0,1.876 -1.353,3.439 -3.134,3.765c-0.649,1.194 -1.913,2.005 -3.366,2.005c-1.453,0 -2.717,-0.811 -3.366,-2.004Z" style="fill:#59a42b;"/><path d="M4.814,10.928c-1.554,-0.008 -2.814,-1.272 -2.814,-2.828c0,-0.935 0.454,-1.764 1.154,-2.279c-0.087,-0.272 -0.134,-0.561 -0.134,-0.861c0,-1.561 1.267,-2.828 2.828,-2.828c0.616,0 1.186,0.197 1.651,0.532c0.465,-0.335 1.035,-0.532 1.651,-0.532c1.561,0 2.828,1.267 2.828,2.828c-0,0.3 -0.047,0.59 -0.134,0.861c0.7,0.515 1.154,1.345 1.154,2.279c0,1.556 -1.259,2.821 -2.814,2.828c-0.373,1.127 -1.435,1.941 -2.686,1.941c-1.251,0 -2.314,-0.814 -2.686,-1.941Z" style="fill:#52d700;"/><circle cx="7.5" cy="7.5" r="1" style="fill:#59a42b;"/></svg>