<?xml version="1.0" encoding="UTF-8" standalone="no"?><!DOCTYPE svg PUBLIC "-//W3C//DTD SVG 1.1//EN" "http://www.w3.org/Graphics/SVG/1.1/DTD/svg11.dtd"><svg width="100%" height="100%" viewBox="0 0 15 15" version="1.1" xmlns="http://www.w3.org/2000/svg" xmlns:xlink="http://www.w3.org/1999/xlink" xml:space="preserve" xmlns:serif="http://www.serif.com/" style="fill-rule:evenodd;clip-rule:evenodd;stroke-linejoin:round;stroke-miterlimit:2;"><path d="M6.596,12.304l0,1.357c0,0.452 1.809,0.452 1.809,0l0,-1.357l-1.809,0Z" style="fill:#895100;"/><path d="M3.792,9.866l-0.079,-0.038l-0.202,-0.183l-0.143,-0.239l-0.067,-0.27l0.014,-0.272l0.091,-0.257l0.165,-0.224l0.881,-0.883l-0.173,-0.148l-0.147,-0.224l-0.078,-0.256l-0.003,-0.263l0.07,-0.253l0.14,-0.228l0.852,-1.024l-0.062,-0.05l-0.149,-0.212l-0.086,-0.244l-0.016,-0.254l0.052,-0.249l0.12,-0.229l1.763,-2.472l0.151,-0.166l0.183,-0.124l0.207,-0.077l0.222,-0.027l0.222,0.027l0.207,0.077l0.183,0.124l0.151,0.166l1.763,2.472l0.12,0.229l0.052,0.249l-0.016,0.254l-0.086,0.244l-0.149,0.212l-0.062,0.05l0.852,1.024l0.14,0.228l0.07,0.253l-0.003,0.263l-0.078,0.256l-0.147,0.224l-0.173,0.148l0.881,0.883l0.165,0.224l0.091,0.257l0.014,0.272l-0.067,0.27l-0.143,0.239l-0.202,0.183l-0.079,0.038l0.915,0.786l0.187,0.219l0.111,0.259l0.029,0.28l-0.057,0.282l-0.14,0.252l-0.204,0.194l-0.252,0.124l-0.284,0.044l-8.025,-0l-0.284,-0.044l-0.252,-0.124l-0.204,-0.194l-0.14,-0.252l-0.057,-0.282l0.029,-0.28l0.111,-0.259l0.187,-0.219l0.915,-0.786Z" style="fill:#59a42b;"/><path d="M3.462,11.274c-0.032,0.027 -0.043,0.071 -0.029,0.111c0.015,0.039 0.052,0.065 0.094,0.065c1.274,0 6.673,0 7.946,0c0.042,-0 0.079,-0.026 0.094,-0.065c0.015,-0.039 0.003,-0.083 -0.029,-0.111c-0.502,-0.431 -1.788,-1.535 -2.29,-1.966c-0.032,-0.027 -0.043,-0.071 -0.029,-0.111c0.015,-0.039 0.052,-0.065 0.094,-0.065c0.377,0 1.056,0 1.418,0c0.04,0 0.077,-0.024 0.092,-0.062c0.015,-0.037 0.007,-0.08 -0.022,-0.109c-0.428,-0.429 -1.545,-1.548 -1.974,-1.976c-0.029,-0.029 -0.037,-0.072 -0.022,-0.109c0.015,-0.037 0.052,-0.062 0.092,-0.062c0.299,-0 0.803,-0 1.089,-0c0.039,0 0.074,-0.022 0.091,-0.058c0.016,-0.035 0.011,-0.077 -0.014,-0.106c-0.354,-0.426 -1.301,-1.564 -1.656,-1.99c-0.025,-0.03 -0.03,-0.071 -0.014,-0.106c0.016,-0.035 0.052,-0.058 0.091,-0.058c0.215,-0 0.542,-0 0.75,-0c0.037,-0 0.072,-0.021 0.089,-0.054c0.017,-0.033 0.014,-0.073 -0.007,-0.104c-0.353,-0.494 -1.429,-2.004 -1.735,-2.432c-0.019,-0.026 -0.049,-0.042 -0.081,-0.042c-0.032,-0 -0.063,0.016 -0.081,0.042c-0.305,0.428 -1.382,1.937 -1.735,2.432c-0.022,0.03 -0.025,0.071 -0.007,0.104c0.017,0.033 0.051,0.054 0.089,0.054c0.207,0 0.535,0 0.75,0c0.039,-0 0.074,0.022 0.091,0.058c0.016,0.035 0.011,0.077 -0.014,0.106c-0.354,0.426 -1.301,1.564 -1.656,1.99c-0.025,0.03 -0.03,0.071 -0.014,0.106c0.016,0.035 0.052,0.058 0.091,0.058c0.285,-0 0.79,-0 1.089,-0c0.04,0 0.077,0.024 0.092,0.062c0.015,0.037 0.007,0.08 -0.022,0.109c-0.428,0.429 -1.545,1.548 -1.974,1.976c-0.029,0.029 -0.037,0.072 -0.022,0.109c0.015,0.037 0.052,0.062 0.092,0.062c0.361,-0 1.04,-0 1.418,-0c0.042,0 0.079,0.026 0.094,0.065c0.015,0.039 0.003,0.083 -0.029,0.111c-0.502,0.431 -1.788,1.535 -2.29,1.966Z" style="fill:#52d700;"/></svg>