<?xml version="1.0" encoding="UTF-8" standalone="no"?><!DOCTYPE svg PUBLIC "-//W3C//DTD SVG 1.1//EN" "http://www.w3.org/Graphics/SVG/1.1/DTD/svg11.dtd"><svg width="100%" height="100%" viewBox="0 0 15 15" version="1.1" xmlns="http://www.w3.org/2000/svg" xmlns:xlink="http://www.w3.org/1999/xlink" xml:space="preserve" xmlns:serif="http://www.serif.com/" style="fill-rule:evenodd;clip-rule:evenodd;stroke-linejoin:round;stroke-miterlimit:2;"><path d="M4.134,11.865c-1.782,-0.327 -3.134,-1.889 -3.134,-3.765c-0,-1.022 0.401,-1.951 1.053,-2.636c-0.022,-0.165 -0.033,-0.333 -0.033,-0.504c0,-2.113 1.715,-3.828 3.828,-3.828c0.591,0 1.151,0.134 1.651,0.374c0.5,-0.24 1.06,-0.374 1.652,-0.374c2.113,0 3.828,1.715 3.828,3.828c0,0.171 -0.011,0.339 -0.033,0.503c0.653,0.687 1.054,1.616 1.054,2.637c0,1.876 -1.353,3.439 -3.134,3.765c-0.649,1.194 -1.913,2.005 -3.366,2.005c-1.453,0 -2.717,-0.811 -3.366,-2.004Z" style="fill:#59a42b;"/><path d="M4.836,10.993c-0.014,-0.039 -0.05,-0.065 -0.092,-0.066c-1.522,-0.045 -2.745,-1.295 -2.745,-2.828c0,-0.91 0.431,-1.72 1.099,-2.238c0.032,-0.025 0.046,-0.068 0.034,-0.107c-0.073,-0.253 -0.113,-0.52 -0.113,-0.796c0,-1.561 1.267,-2.828 2.828,-2.828c0.591,0 1.14,0.182 1.594,0.492c0.034,0.023 0.079,0.023 0.113,-0c0.454,-0.31 1.004,-0.492 1.595,-0.492c1.561,0 2.828,1.267 2.828,2.828c0,0.276 -0.04,0.543 -0.114,0.795c-0.011,0.04 0.003,0.082 0.035,0.107c0.668,0.518 1.099,1.328 1.099,2.238c0,1.533 -1.222,2.783 -2.745,2.827c-0.041,0.001 -0.077,0.028 -0.091,0.067c-0.392,1.093 -1.437,1.876 -2.664,1.876c-1.227,0 -2.272,-0.783 -2.664,-1.876Z" style="fill:#5dca19;"/><circle cx="7.5" cy="7.5" r="1" style="fill:#59a42b;"/></svg>