<svg xmlns="http://www.w3.org/2000/svg" xml:space="preserve" fill-rule="evenodd" stroke-linejoin="round" stroke-miterlimit="2" clip-rule="evenodd" viewBox="0 0 15 15"><path fill="#272727" d="M6 11.434a1 1 0 0 0-.605-.918A4.96 4.96 0 0 1 2.5 6c0-2.76 2.24-5 5-5s5 2.24 5 5a5 5 0 0 1-2.888 4.533.98.98 0 0 0-.593.901C9 12.238 9 13.533 9 13.9a.1.1 0 0 1-.1.1H6.1a.1.1 0 0 1-.1-.1z"/><path fill="#f4f4f4" d="M7.25 12.25v-1.5h.5v1.5zm0 1.75v-.5h.5v.5z"/><circle cx="7.5" cy="6" r="3.5" fill="none"/><path fill="#f4f4f4" d="M4.001 6.068 4 6a3.5 3.5 0 0 1 .234-1.261l.466.18c-.13.335-.201.7-.201 1.08l.001.058-.5.01ZM5.81 2.935l.242.437a3 3 0 0 0-.886.744l-.389-.314a3.5 3.5 0 0 1 1.033-.868Zm2.365-.37-.096.491a3 3 0 0 0-1.158 0l-.096-.491a3.5 3.5 0 0 1 1.35 0m2.049 1.238-.389.314a3 3 0 0 0-.886-.744l.242-.437c.398.22.749.516 1.033.868Zm.775 2.265-.5-.01L10.5 6c0-.381-.071-.745-.201-1.08l.466-.18c.151.391.234.816.234 1.261l-.001.068Zm-.863 2.233-.377-.329c.253-.29.452-.629.579-1.001l.473.162c-.149.434-.38.829-.676 1.168ZM8.04 9.459l-.077-.494a3 3 0 0 0 1.085-.395l.259.428a3.5 3.5 0 0 1-1.267.462Zm-2.349-.462.259-.428c.326.197.693.335 1.085.395l-.077.494a3.5 3.5 0 0 1-1.267-.462ZM4.187 7.134l.473-.162c.127.372.326.711.579 1.001l-.377.329a3.5 3.5 0 0 1-.676-1.168Z"/><circle cx="7.5" cy="6" r=".375" fill="#f4f4f4"/></svg>