<?xml version="1.0" encoding="UTF-8" standalone="no"?><!DOCTYPE svg PUBLIC "-//W3C//DTD SVG 1.1//EN" "http://www.w3.org/Graphics/SVG/1.1/DTD/svg11.dtd"><svg width="100%" height="100%" viewBox="0 0 15 15" version="1.1" xmlns="http://www.w3.org/2000/svg" xmlns:xlink="http://www.w3.org/1999/xlink" xml:space="preserve" xmlns:serif="http://www.serif.com/" style="fill-rule:evenodd;clip-rule:evenodd;stroke-linejoin:round;stroke-miterlimit:2;"><path d="M13,0.5c0.996,0.498 0.008,11.91 -0.494,11.999c-0.002,0 -0.005,0.001 -0.007,0.001c-1.323,0.44 -3.421,0.492 -3.9,0.498c-0.055,0 -0.099,0.045 -0.099,0.1c-0,0.334 -0,1.401 -0,1.401c0,0.5 -2,0.5 -2,0l0,-1.401c-0,-0.055 -0.045,-0.099 -0.099,-0.1c-0.479,-0.007 -2.577,-0.059 -3.9,-0.499c-0.002,-0.001 -0.005,-0.001 -0.007,-0.001c-0.502,-0.09 -1.49,-11.501 -0.494,-12c1,-0.5 10,-0.5 11,0Z" style="fill:#588f35;"/><path d="M10,1.5l-5,0c-0.61,0 -1,2 -0.5,2l6,0c0.5,0 0,-2 -0.5,-2Z" style="fill:#090909;"/><path d="M7.5,7.335l0.611,-0.305l1.222,0.916l-0.352,0.611l-1.48,-1.222Z" style="fill:#00329b;"/><path d="M8.722,5.502c0.305,0 0.305,0.305 0.305,0.305l0,0.305c0.305,0 0.611,0 0.916,0.305l0.916,0.916c0,0 0,0.611 -0.611,0.611l-0.916,0l-1.222,-0.916l0.305,-1.222c0.092,-0.281 0.305,-0.305 0.305,-0.305Zm-3.055,0.611c0.415,-0.006 0.415,0.617 0,0.611c0,0 -0.092,0.006 -0.171,0.043c-0.079,0.043 -0.134,0.061 -0.134,0.263l0,0.305l2.138,0l0.916,0.611c0.226,0.147 0.611,0.373 0.611,0.916l0,1.527c0,0 0.305,0 0.305,0.305c0,0.305 -0.305,0.305 -0.305,0.305l-0.305,0c0,0 -0.305,0 -0.513,-0.617c0,0 -0.318,-0.96 -0.389,-1.174c-0.008,-0.025 -0.032,-0.042 -0.058,-0.042c-0.245,0 -1.442,0 -1.728,0c-0.016,-0 -0.032,0.006 -0.043,0.018c-0.011,0.011 -0.018,0.027 -0.018,0.043c0,0.285 0,1.466 0,1.466c0,0 0,0.305 -0.305,0.305c-0.305,0 -0.305,-0.305 -0.305,-0.305l0,-1.1c-0.189,0.098 -0.397,0.183 -0.611,0.183l0,0.916c0,0 0,0.305 -0.305,0.305c-0.305,0 -0.305,-0.305 -0.305,-0.305l0,-1.222c0,-0.305 0.305,-0.305 0.305,-0.305c0.305,0 0.305,-0.305 0.305,-0.916l0,-1.222c0,-0.409 0.25,-0.696 0.477,-0.806c0.226,-0.116 0.44,-0.11 0.44,-0.11Z" style="fill:#d39f10;"/></svg>