<svg xmlns="http://www.w3.org/2000/svg" xml:space="preserve" fill-rule="evenodd" stroke-linejoin="round" stroke-miterlimit="2" clip-rule="evenodd" viewBox="0 0 15 15"><path fill="#414141" d="M13 1a1 1 0 0 0-1-1H3a1 1 0 0 0-1 1v13a1 1 0 0 0 1 1h9a1 1 0 0 0 1-1z"/><path fill="#090909" d="M9.5 2a.5.5 0 0 1 .5.5v7a.5.5 0 0 1-.5.5h-5a.5.5 0 0 1-.5-.5v-7a.5.5 0 0 1 .5-.5z"/><path fill="#a7a7a7" d="M11.631 4.5c.204 0 .369.165.369.369v.012a.37.37 0 0 1-.369.369h-.262A.37.37 0 0 1 11 4.881v-.012c0-.204.165-.369.369-.369zm0 1.5c.204 0 .369.165.369.369v.012a.37.37 0 0 1-.369.369h-.262A.37.37 0 0 1 11 6.381v-.012c0-.204.165-.369.369-.369zm0 1.5c.204 0 .369.165.369.369v.012a.37.37 0 0 1-.369.369h-.262A.37.37 0 0 1 11 7.881v-.012c0-.204.165-.369.369-.369zm0 1.5c.204 0 .369.165.369.369v.012a.37.37 0 0 1-.369.369h-.262A.37.37 0 0 1 11 9.381v-.012c0-.204.165-.369.369-.369z"/><path fill="#272727" d="M9.5 12a.5.5 0 1 1 0 1h-5a.5.5 0 1 1 0-1z"/><path fill="#00329b" fill-rule="nonzero" d="M8.693 2.75a.3.3 0 0 1 .3.3v5.9a.3.3 0 0 1-.3.3h-.858a.1.1 0 0 1-.099-.093c-.085-.876-1.401-.876-1.489 0a.097.097 0 0 1-.097.09c-.179.003-.578.003-.858.003a.3.3 0 0 1-.3-.3v-5.9a.3.3 0 0 1 .3-.3h.858a.1.1 0 0 1 .099.093c.085.876 1.401.876 1.489 0a.097.097 0 0 1 .097-.09c.179-.003.578-.003.858-.003"/><path fill="#f4f4f4" fill-rule="nonzero" d="M6.184 7.286A.184.184 0 0 1 6 7.102V4.898c0-.101.082-.184.184-.184h.662q.481 0 .627.039.225.058.376.252A.8.8 0 0 1 8 5.506a.8.8 0 0 1-.087.398.7.7 0 0 1-.222.253.8.8 0 0 1-.273.122 3 3 0 0 1-.547.037h-.307a.04.04 0 0 0-.026.011.04.04 0 0 0-.011.026v.75a.184.184 0 0 1-.184.184h-.16Zm.38-2.136a.04.04 0 0 0-.026.011.04.04 0 0 0-.011.026v.656q0 .015.011.026a.04.04 0 0 0 .026.011h.252q.312 0 .417-.04a.34.34 0 0 0 .225-.326.33.33 0 0 0-.084-.232.36.36 0 0 0-.212-.114 2.5 2.5 0 0 0-.379-.018z"/></svg>