<svg xmlns="http://www.w3.org/2000/svg" xml:space="preserve" fill-rule="evenodd" stroke-linejoin="round" stroke-miterlimit="2" clip-rule="evenodd" viewBox="0 0 15 15"><path fill="#f4f4f4" fill-rule="nonzero" d="M8.086 13.126c-.074-.58-.979-.729-1.175 0-.234.874-.894.863-.913.87-.314.003-1.118.003-1.618.003-.654 0-1.207-.59-1.207-1.207 0-1.774-.037-9.789-.037-9.789h8.727s-.037 8.015-.037 9.789c0 .654-.582 1.199-1.207 1.207-.308.004-1.582 0-1.609 0-.072 0-.813 0-.924-.874Z"/><path fill="#00329b" fill-rule="nonzero" d="M11.078 3s-.037 8.018-.037 9.793a.434.434 0 0 1-.422.422H9.01a.14.14 0 0 1-.139-.133c-.132-1.553-2.61-1.553-2.744 0a.136.136 0 0 1-.137.129c-.313.003-1.112.003-1.609.003a.434.434 0 0 1-.422-.422c0-1.775-.037-9.793-.037-9.793z"/><path fill="#f4f4f4" fill-rule="nonzero" d="M5.979 9.568a.34.34 0 0 1-.342-.342V5.119c0-.189.153-.342.342-.342h1.234q.896 0 1.168.072.418.108.7.469.282.362.282.933 0 .441-.163.742-.162.3-.413.472-.25.171-.509.227-.352.069-1.019.069h-.572a.07.07 0 0 0-.048.02.07.07 0 0 0-.02.048v1.397a.34.34 0 0 1-.342.342zm.709-3.981a.07.07 0 0 0-.048.02.07.07 0 0 0-.02.048v1.223q0 .028.02.048t.048.02h.469q.58 0 .777-.075a.64.64 0 0 0 .307-.235.64.64 0 0 0 .111-.373.6.6 0 0 0-.156-.431.7.7 0 0 0-.395-.212q-.176-.033-.707-.033z"/><path fill="#272727" d="M1.5 3.5c0 .265.235.5.5.5s.5-.235.5-.5v-1c0-.265.235-.5.5-.5h9c.265 0 .5.235.5.5v1c0 .265.235.5.5.5s.5-.235.5-.5V2a1 1 0 0 0-1-1h-10a1 1 0 0 0-1 1z"/></svg>