<?xml version="1.0" encoding="UTF-8" standalone="no"?><!DOCTYPE svg PUBLIC "-//W3C//DTD SVG 1.1//EN" "http://www.w3.org/Graphics/SVG/1.1/DTD/svg11.dtd"><svg width="100%" height="100%" viewBox="0 0 15 15" version="1.1" xmlns="http://www.w3.org/2000/svg" xmlns:xlink="http://www.w3.org/1999/xlink" xml:space="preserve" xmlns:serif="http://www.serif.com/" style="fill-rule:evenodd;clip-rule:evenodd;stroke-linejoin:round;stroke-miterlimit:2;"><path d="M5.626,5.906c0.658,-0.113 1.147,-0.712 1.221,-1.427c0.076,-0.729 0.246,-3.657 -0.853,-3.47c-2.851,0.483 -2.651,5.284 -0.367,4.897Zm3.75,0c2.283,0.387 2.484,-4.414 -0.367,-4.897c-1.099,-0.187 -0.93,2.741 -0.853,3.47c0.073,0.718 0.562,1.317 1.221,1.427Zm-4.923,2.264c0,-0.381 -0.136,-0.726 -0.356,-0.978c-0.359,-0.472 -1.506,-1.421 -1.786,-1.178c-0.588,0.511 -0.568,1.766 -0.215,2.679c0.181,0.509 0.622,0.865 1.133,0.865c0.675,0 1.224,-0.622 1.224,-1.387Zm8.235,-2.156c-0.28,-0.243 -1.427,0.709 -1.786,1.178c-0.218,0.252 -0.356,0.596 -0.356,0.978c0,0.766 0.548,1.387 1.224,1.387c0.514,0 0.952,-0.356 1.133,-0.865c0.353,-0.913 0.373,-2.167 -0.215,-2.679Zm-2.3,4.318c-1.04,-0.517 -1.006,-1.515 -1.243,-2.425c-0.187,-0.726 -0.853,-1.263 -1.645,-1.263c-0.774,0 -1.43,0.514 -1.633,1.218c-0.252,0.87 -0.102,1.885 -1.232,2.464c-0.918,0.3 -1.291,0.738 -1.291,1.772c0,0.839 0.96,1.613 1.653,1.851c0.693,0.238 1.671,-0.421 2.507,-0.421c0.836,0 1.813,0.659 2.507,0.421c0.693,-0.238 1.653,-1.009 1.653,-1.851c0,-1.057 -0.35,-1.45 -1.272,-1.766l-0.003,-0Zm-1.221,0.763c-0,0.276 -0.224,0.5 -0.5,0.5c-0.027,-0 -0.054,-0 -0.081,-0c-0.133,-0 -0.26,0.053 -0.354,0.147c-0.094,0.094 -0.146,0.222 -0.146,0.354c0,0.042 0,0.085 0,0.128c0,0.133 -0.052,0.26 -0.146,0.354c-0.094,0.094 -0.221,0.147 -0.354,0.147c-0.057,-0 -0.116,-0 -0.173,-0c-0.133,0 -0.26,-0.053 -0.354,-0.147c-0.094,-0.094 -0.146,-0.222 -0.146,-0.354c0,-0.042 0,-0.085 0,-0.128c0,-0.133 -0.052,-0.26 -0.146,-0.354c-0.094,-0.094 -0.221,-0.147 -0.354,-0.147c-0.047,0 -0.094,0 -0.14,0c-0.276,-0 -0.5,-0.224 -0.5,-0.5c-0,-0.043 -0,-0.087 -0,-0.13c0,-0.276 0.224,-0.5 0.5,-0.5c0.048,0 0.096,0 0.143,0c0.133,0 0.26,-0.053 0.354,-0.147c0.094,-0.094 0.146,-0.222 0.146,-0.354c-0,-0.042 -0,-0.085 -0,-0.128c-0,-0.133 0.052,-0.26 0.146,-0.354c0.094,-0.094 0.221,-0.147 0.354,-0.147c0.058,0 0.117,0 0.174,0c0.276,0 0.5,0.224 0.5,0.5c0,0.043 0,0.087 0,0.13c0,0.276 0.224,0.5 0.5,0.5c0.026,-0 0.051,-0 0.077,-0c0.276,0 0.5,0.224 0.5,0.5c0,0.043 0,0.087 0,0.13Z" style="fill:#ce4d4b;fill-rule:nonzero;"/><path d="M9.167,11.094c-0,0.276 -0.224,0.5 -0.5,0.5l-0.081,-0c-0.133,-0 -0.26,0.053 -0.354,0.147c-0.094,0.094 -0.146,0.222 -0.146,0.354l0,0.128c0,0.133 -0.052,0.26 -0.146,0.354c-0.094,0.094 -0.221,0.147 -0.354,0.147l-0.173,-0c-0.133,0 -0.26,-0.053 -0.354,-0.147c-0.094,-0.094 -0.146,-0.222 -0.146,-0.354l0,-0.128c0,-0.133 -0.052,-0.26 -0.146,-0.354c-0.094,-0.094 -0.221,-0.147 -0.354,-0.147l-0.14,0c-0.276,-0 -0.5,-0.224 -0.5,-0.5l-0,-0.13c0,-0.276 0.224,-0.5 0.5,-0.5l0.143,0c0.133,0 0.26,-0.053 0.354,-0.147c0.094,-0.094 0.146,-0.222 0.146,-0.354l-0,-0.128c-0,-0.133 0.052,-0.26 0.146,-0.354c0.094,-0.094 0.221,-0.147 0.354,-0.147l0.174,0c0.276,0 0.5,0.224 0.5,0.5l0,0.13c0,0.276 0.224,0.5 0.5,0.5l0.077,-0c0.276,0 0.5,0.224 0.5,0.5l0,0.13Z" style="fill:#f4f4f4;"/></svg>