<?xml version="1.0" encoding="UTF-8" standalone="no"?><!DOCTYPE svg PUBLIC "-//W3C//DTD SVG 1.1//EN" "http://www.w3.org/Graphics/SVG/1.1/DTD/svg11.dtd"><svg width="100%" height="100%" viewBox="0 0 15 15" version="1.1" xmlns="http://www.w3.org/2000/svg" xmlns:xlink="http://www.w3.org/1999/xlink" xml:space="preserve" xmlns:serif="http://www.serif.com/" style="fill-rule:evenodd;clip-rule:evenodd;stroke-linejoin:round;stroke-miterlimit:2;"><path d="M11,8.8l1.1,4.4c0.1,0.3 -0.1,0.7 -0.5,0.8c-0.3,0.1 -0.7,-0.1 -0.8,-0.5l-1,-4c-0.5,0.2 -1.1,0.3 -1.8,0.3c0,0 0,0 0,0l0,3.5c0,0.3 -0.3,0.6 -0.6,0.6c-0.3,0 -0.6,-0.3 -0.6,-0.6l0,-3.5c-0.7,-0 -1.3,-0.1 -1.8,-0.3l-1,4c-0.1,0.3 -0.4,0.5 -0.8,0.5c-0.3,-0.1 -0.5,-0.4 -0.5,-0.8l1.1,-4.4l0,-3.9c-0,-0.1 0.1,-0.3 0.1,-0.4c0.1,-0.1 0.2,-0.1 0.4,-0.1c1.3,0 4.7,0 5.9,0c0.1,-0 0.3,0.1 0.4,0.1c0.1,0.1 0.1,0.2 0.1,0.4c0,1.1 0,3.9 0,3.9Zm-3.7,-7.8c0.1,-0.1 0.3,-0.1 0.4,-0c0.7,0.3 3.1,1.4 4,1.8c0.2,0.1 0.3,0.3 0.3,0.5c-0,0.1 -0,0.1 -0,0.2c0,0.1 -0.1,0.3 -0.1,0.4c-0.1,0.1 -0.2,0.1 -0.4,0.1c-1.6,-0 -6.3,-0 -7.9,-0c-0.1,-0 -0.3,-0.1 -0.4,-0.1c-0.1,-0.1 -0.1,-0.2 -0.1,-0.4c-0,-0.1 -0,-0.1 -0,-0.2c-0,-0.2 0.1,-0.4 0.3,-0.5c0.8,-0.4 3.2,-1.4 4,-1.8Z" style="fill:#272727;fill-rule:nonzero;"/><path d="M7.5,8.5c0.5,0 1.1,-0.3 1.1,-1.1c0,-0.5 -0.6,-1.4 -1,-1.9c-0,-0 -0.1,-0 -0.1,-0c-0,0 -0.1,0 -0.1,0c-0.3,0.4 -1,1.4 -1,1.9c0,0.8 0.6,1.1 1.1,1.1Z" style="fill:#4166d0;fill-rule:nonzero;"/></svg>