<?xml version="1.0" encoding="UTF-8" standalone="no"?><!DOCTYPE svg PUBLIC "-//W3C//DTD SVG 1.1//EN" "http://www.w3.org/Graphics/SVG/1.1/DTD/svg11.dtd"><svg width="100%" height="100%" viewBox="0 0 15 15" version="1.1" xmlns="http://www.w3.org/2000/svg" xmlns:xlink="http://www.w3.org/1999/xlink" xml:space="preserve" xmlns:serif="http://www.serif.com/" style="fill-rule:evenodd;clip-rule:evenodd;stroke-linejoin:round;stroke-miterlimit:2;"><path d="M6.2,3.5l-1.4,-1.2c-0.2,-0.2 -0.5,-0.2 -0.7,0l-2.4,2.1c-0.1,0.1 -0.2,0.3 -0.1,0.4c0.1,0.1 0.2,0.2 0.3,0.2l0,-0l-0,4.3c-0,0.2 0.1,0.3 0.3,0.4c0.2,0.1 0.3,0.1 0.5,-0l1,-0.6c0.2,-0.1 0.4,-0.1 0.5,0l2,1.2c0.2,0.1 0.4,0.1 0.5,0l0.2,-0.1c-1.2,-0.8 -2,-2.2 -2,-3.7c0,-1.2 0.4,-2.2 1.2,-3Z" style="fill:#a83c3a;"/><path d="M9.5,10.3c-0.3,-0.2 -0.7,-0.2 -1,-0c-0.4,0.3 -1,0.6 -1.5,0.9c-0.3,0.2 -0.7,0.2 -1,-0c-0.4,-0.3 -1,-0.6 -1.5,-0.9c-0.3,-0.2 -0.7,-0.2 -1,-0c-0.5,0.3 -1.3,0.8 -1.7,1c-0.2,0.1 -0.2,0.3 -0.2,0.4c-0,0.1 -0,0.2 -0,0.3c-0,0.2 0.1,0.3 0.3,0.4c0.2,0.1 0.3,0.1 0.5,-0c0.4,-0.2 0.9,-0.5 1.2,-0.7c0.3,-0.2 0.7,-0.2 1,-0c0.4,0.3 1,0.6 1.5,0.9c0.3,0.2 0.7,0.2 1,0c0.4,-0.3 1,-0.6 1.5,-0.9c0.3,-0.2 0.7,-0.2 1,0c0.4,0.3 1,0.6 1.5,0.9c0.3,0.2 0.7,0.2 1,0c0.5,-0.3 1.3,-0.8 1.7,-1c0.2,-0.1 0.2,-0.3 0.2,-0.4c0,-0.1 0,-0.2 0,-0.3c0,-0.2 -0.1,-0.3 -0.3,-0.4c-0.2,-0.1 -0.3,-0.1 -0.5,0c-0.4,0.2 -0.9,0.5 -1.2,0.7c-0.3,0.2 -0.7,0.2 -1,-0c-0.4,-0.3 -1,-0.6 -1.5,-0.9Z" style="fill:#4166d0;"/><path d="M14,6.5c-0,0.1 -0,0.2 -0,0.3c-0.1,1.3 -0.8,2.5 -1.8,3.3c-0,0 -0.1,0 -0.1,0.1c-0.1,0.1 -0.6,0.4 -0.6,0.4c-0,0 -0.1,0 -0.1,-0c-0,-0 -0.1,-0.1 -0.2,-0.1c-0.1,-0.1 -0.2,-0.3 -0.2,-0.4c0,-0.2 0.1,-0.3 0.2,-0.4c0.2,-0.1 0.4,-0.3 0.6,-0.5l-1.4,-1.4c-0.2,0.2 -0.5,0.3 -0.8,0.3l0,1.4l-0.2,-0.2l0,-1.2c-0.3,-0 -0.6,-0.2 -0.8,-0.3l-1.4,1.4c0.1,0.1 0.1,0.1 0.2,0.2c0.1,0.1 0.2,0.3 0.2,0.4c-0,0.2 -0.1,0.3 -0.2,0.4l-0.3,0.2c-1.2,-0.8 -2,-2.2 -2,-3.7c0,-1.2 0.4,-2.2 1.2,-3c0.8,-0.9 2,-1.5 3.3,-1.5l0,-0c2.5,0 4.5,2 4.5,4.5l-0,0Zm-4.6,-3.5l0,2c-0.3,0 -0.6,0.2 -0.8,0.3l-1.4,-1.4c0.6,-0.6 1.4,-0.9 2.3,-0.9Zm2.7,5.9l-1.4,-1.4c0.2,-0.2 0.3,-0.5 0.3,-0.8l2,0c-0,0.9 -0.4,1.7 -0.9,2.3Zm-2.4,-5.9c0.9,0 1.7,0.4 2.3,0.9l-1.4,1.4c-0.2,-0.2 -0.5,-0.3 -0.8,-0.3l0,-2Zm3.4,3.4l-2,0c-0,-0.3 -0.2,-0.6 -0.3,-0.8l1.4,-1.4c0.6,0.6 0.9,1.4 0.9,2.3Zm-6,-2.3l1.4,1.4c-0.2,0.2 -0.3,0.5 -0.3,0.8l-2,0c0,-0.9 0.4,-1.7 0.9,-2.3Zm1.1,2.5c0,0.3 0.2,0.6 0.3,0.8l-1.4,1.4c-0.6,-0.6 -0.9,-1.4 -0.9,-2.3l2,0Z" style="fill:#472a00;"/></svg>