<?xml version="1.0" encoding="UTF-8" standalone="no"?><!DOCTYPE svg PUBLIC "-//W3C//DTD SVG 1.1//EN" "http://www.w3.org/Graphics/SVG/1.1/DTD/svg11.dtd"><svg width="100%" height="100%" viewBox="0 0 15 15" version="1.1" xmlns="http://www.w3.org/2000/svg" xmlns:xlink="http://www.w3.org/1999/xlink" xml:space="preserve" xmlns:serif="http://www.serif.com/" style="fill-rule:evenodd;clip-rule:evenodd;stroke-linejoin:round;stroke-miterlimit:2;"><path d="M14,1.5c0,-0.1 -0.1,-0.3 -0.1,-0.4c-0.1,-0.1 -0.2,-0.1 -0.4,-0.1c-1.9,0 -8.5,0 -8.5,0c-1.7,0 -3,1.3 -3,3l0,4.9c-0.6,0.4 -1,1.1 -1,1.9c0,1.2 1,2.2 2.2,2.2c0.5,0 0.9,-0.1 1.2,-0.4c0.4,0.2 0.8,0.4 1.2,0.4c0.5,0 1,-0.2 1.4,-0.5l0.4,0c0.5,0.3 1.1,0.5 1.7,0.5c1.8,0 3.2,-1.5 3.2,-3.2c0,-1.4 -0.8,-2.5 -2,-3l0,-1.7c0,-1.1 0.9,-2 2,-2l1,0c0.1,-0 0.3,-0.1 0.4,-0.1c0.1,-0.1 0.1,-0.2 0.1,-0.4c0,-0.3 0,-0.7 0,-1Zm-2.5,8.2c0,1.2 -1,2.2 -2.2,2.2c-0.4,0 -0.8,-0.1 -1.2,-0.3c-0.2,-0.1 -0.3,-0.2 -0.5,-0.2c-0.1,-0 -0.3,-0 -0.4,-0c-0.2,0 -0.4,0.1 -0.6,0.2c-0.2,0.2 -0.5,0.3 -0.7,0.3c-0.3,0 -0.6,-0.1 -0.8,-0.3c-0.1,-0.1 -0.2,-0.1 -0.4,-0.1c-0,-0 -0.1,-0 -0.1,-0c-0.1,0 -0.3,0.1 -0.4,0.1c-0.2,0.2 -0.5,0.4 -0.9,0.4c-0.7,0 -1.2,-0.6 -1.2,-1.2c0,-0.4 0.2,-0.8 0.5,-1c0.3,-0.2 0.4,-0.5 0.4,-0.8c0.1,-1 0.1,-3.2 0.1,-3.2c0,-0.4 0.3,-0.8 0.8,-0.8c0.4,0 0.8,0.3 0.8,0.8l0,3.2c0,0.3 0.2,0.5 0.5,0.5c0.3,0 0.5,-0.2 0.5,-0.5l0,-2.2c0,-0.4 0.3,-0.8 0.8,-0.8c0.4,0 0.8,0.3 0.8,0.8l0,2.2c0,0.3 0.2,0.5 0.5,0.5c0.3,0 0.5,-0.2 0.5,-0.5l0,-3.2c0,-0.4 0.3,-0.8 0.8,-0.8c0.4,0 0.8,0.3 0.8,0.8l0,1.1c0,0.4 0.3,0.8 0.6,0.9c0.8,0.3 1.4,1.1 1.4,2Z" style="fill:#4166d0;fill-rule:nonzero;"/><path d="M11.5,9.8c0,1.2 -1,2.2 -2.2,2.2c-0.4,0 -0.8,-0.1 -1.2,-0.3c-0.2,-0.1 -0.3,-0.2 -0.5,-0.2c-0.1,-0 -0.3,-0 -0.4,-0c-0.2,0 -0.4,0.1 -0.6,0.2c-0.2,0.2 -0.5,0.3 -0.7,0.3c-0.3,0 -0.6,-0.1 -0.8,-0.3c-0.1,-0.1 -0.2,-0.1 -0.4,-0.1c-0,-0 -0.1,-0 -0.1,-0c-0.1,0 -0.3,0.1 -0.4,0.1c-0.2,0.2 -0.5,0.4 -0.9,0.4c-0.7,0 -1.2,-0.6 -1.2,-1.2c0,-0.4 0.2,-0.8 0.5,-1c0.3,-0.2 0.4,-0.5 0.4,-0.8c0.1,-1 0.1,-3.2 0.1,-3.2c0,-0.4 0.3,-0.8 0.8,-0.8c0.4,0 0.8,0.3 0.8,0.8l0,3.2c0,0.3 0.2,0.5 0.5,0.5c0.3,0 0.5,-0.2 0.5,-0.5l0,-2.2c0,-0.4 0.3,-0.8 0.8,-0.8c0.4,0 0.8,0.3 0.8,0.8l0,2.2c0,0.3 0.2,0.5 0.5,0.5c0.3,0 0.5,-0.2 0.5,-0.5l0,-3.2c0,-0.4 0.3,-0.8 0.8,-0.8c0.4,0 0.8,0.3 0.8,0.8l0,1.1c0,0.4 0.3,0.8 0.6,0.9c0.8,0.3 1.4,1.1 1.4,2Z" style="fill:#f4f4f4;"/></svg>