<?xml version="1.0" encoding="UTF-8" standalone="no"?><!DOCTYPE svg PUBLIC "-//W3C//DTD SVG 1.1//EN" "http://www.w3.org/Graphics/SVG/1.1/DTD/svg11.dtd"><svg width="100%" height="100%" viewBox="0 0 15 15" version="1.1" xmlns="http://www.w3.org/2000/svg" xmlns:xlink="http://www.w3.org/1999/xlink" xml:space="preserve" xmlns:serif="http://www.serif.com/" style="fill-rule:evenodd;clip-rule:evenodd;stroke-linejoin:round;stroke-miterlimit:2;"><path d="M6.4,2c-0.3,0 -0.3,-1 0,-1l2.2,0c0.3,0 0.3,1 0,1l-2.2,0Z" style="fill:#4166d0;"/><path d="M8.6,2l0,0.6c0,0.2 0.2,0.4 0.4,0.5c0.7,0.2 1.2,0.9 1.2,1.6c0,0.1 -0.1,0.3 -0.3,0.3l-4.9,0c-0.1,0 -0.3,-0.1 -0.3,-0.3c0,-0.8 0.5,-1.5 1.2,-1.6c0.2,-0 0.4,-0.2 0.4,-0.5c0,-0.3 0,-0.6 0,-0.6l2.2,0Zm-3.5,3.5l4.9,0c0.1,0 0.3,0.1 0.3,0.3l0,0.5c0,0.1 -0.1,0.3 -0.3,0.3l-4.9,0c-0.1,0 -0.3,-0.1 -0.3,-0.3l0,-0.5c0,-0.1 0.1,-0.3 0.3,-0.3Zm0,1.5l4.9,0c0.1,0 0.3,0.1 0.3,0.3l0,0.5c0,0.1 -0.1,0.3 -0.3,0.3l-4.9,0c-0.1,0 -0.3,-0.1 -0.3,-0.3l0,-0.5c0,-0.1 0.1,-0.3 0.3,-0.3Zm4.9,3c0.1,0 0.3,0.1 0.3,0.3l0,3.2c0,0.3 -0.2,0.5 -0.5,0.5l-4.3,0c-0.3,0 -0.5,-0.2 -0.5,-0.5l0,-3.2c0,-0.1 0.1,-0.3 0.3,-0.3l4.9,0Zm-4.9,-1.5l4.9,0c0.1,0 0.3,0.1 0.3,0.3l0,0.5c0,0.1 -0.1,0.3 -0.3,0.3l-4.9,0c-0.1,0 -0.3,-0.1 -0.3,-0.3l0,-0.5c0,-0.1 0.1,-0.3 0.3,-0.3Z" style="fill:#7da8e6;"/></svg>