<?xml version="1.0" encoding="UTF-8" standalone="no"?><!DOCTYPE svg PUBLIC "-//W3C//DTD SVG 1.1//EN" "http://www.w3.org/Graphics/SVG/1.1/DTD/svg11.dtd"><svg width="100%" height="100%" viewBox="0 0 15 15" version="1.1" xmlns="http://www.w3.org/2000/svg" xmlns:xlink="http://www.w3.org/1999/xlink" xml:space="preserve" xmlns:serif="http://www.serif.com/" style="fill-rule:evenodd;clip-rule:evenodd;stroke-linejoin:round;stroke-miterlimit:2;"><path d="M2.1,4.8c-0,-0 -0.1,-0 -0.1,-0.1c-0,-0 0,-0.1 0,-0.1c0.3,-0.2 0.7,-0.3 1.2,-0.3c1.1,-0.1 2.1,0.7 2.2,1.8c0,0 0.4,2.3 0.6,3.5c0,0.2 -0,0.3 -0.1,0.4c-0.1,0.1 -0.3,0.2 -0.4,0.2c-0.2,-0 -0.4,-0 -0.6,0c-0.1,0 -0.3,0 -0.4,-0.1c-0.1,-0.1 -0.2,-0.2 -0.2,-0.3c-0.2,-1.2 -0.6,-3.7 -0.6,-3.7c-0.2,-0.7 -0.8,-1.2 -1.5,-1.3Zm5.4,5.8c-0.2,0.1 -0.4,0.1 -0.5,0c-0,-0 -0.1,-0 -0.1,-0.1c-0.2,-0.1 -0.3,-0.3 -0.3,-0.5c0.2,-1.4 1.1,-6.6 1.1,-6.6c0.2,-1.1 1.1,-1.9 2.2,-1.8c0.4,-0 0.8,0.1 1.1,0.3c0,0 0,0.1 0,0.1c-0,0 -0,0.1 -0.1,0.1c-0.7,0.1 -1.3,0.6 -1.5,1.3c0,0 -0.8,5.2 -1,6.5c-0,0.2 -0.2,0.3 -0.3,0.4c-0.2,0.1 -0.4,0.2 -0.6,0.3Zm3.8,-0.4c-0.1,0.1 -0.3,0.1 -0.5,-0c-0.2,-0.2 -0.4,-0.3 -0.7,-0.4c-0.2,-0.1 -0.4,-0.3 -0.3,-0.5c0.2,-1 0.5,-3.2 0.5,-3.2c0.2,-1.1 1.1,-1.9 2.2,-1.8c0.4,-0 0.8,0.1 1.1,0.3c0,0 0,0.1 0,0.1c-0,0 -0,0.1 -0.1,0.1c-0.7,0.1 -1.3,0.6 -1.5,1.3c0,0 -0.5,2.9 -0.6,3.7c-0,0.1 -0.1,0.3 -0.2,0.3c-0,0 -0,0 -0,0Z" style="fill:#59a42b;"/><path d="M13.1,11.5c-0.4,-0 -0.8,0.1 -1.1,0.4l-0.4,0.4c-0.3,0.2 -0.6,0.2 -0.9,0c-0.1,-0.1 -0.3,-0.2 -0.4,-0.3c-0.6,-0.5 -1.6,-0.5 -2.2,0c-0.1,0.1 -0.3,0.3 -0.4,0.4c-0.3,0.2 -0.6,0.2 -0.9,0c-0.1,-0.1 -0.3,-0.3 -0.4,-0.4c-0.6,-0.5 -1.6,-0.5 -2.2,0c-0.1,0.1 -0.3,0.2 -0.4,0.3c-0.1,0.1 -0.2,0.1 -0.3,0.1c-0.3,0.1 -0.5,-0 -0.7,-0.2c-0.2,-0.2 -0.5,-0.4 -0.7,-0.5c-0.2,-0.1 -0.4,-0.2 -0.6,-0.1l-0.1,0c-0.2,0 -0.4,0.2 -0.4,0.4c0,0.2 0.2,0.4 0.4,0.4c0.2,0 0.4,0.1 0.6,0.3l0.3,0.2c0.6,0.5 1.5,0.5 2.1,0.1c0.2,-0.1 0.3,-0.3 0.5,-0.4c0.3,-0.2 0.6,-0.2 0.9,0l0.3,0.3c0.6,0.6 1.6,0.6 2.2,0.1c0.1,-0.1 0.2,-0.2 0.4,-0.3c0.3,-0.3 0.7,-0.3 1,-0l0,0l0.3,0.3c0.4,0.4 1,0.5 1.6,0.3c0.3,-0.1 0.7,-0.3 0.9,-0.5c0.1,-0.2 0.3,-0.3 0.5,-0.3c0.2,0 0.4,-0.2 0.4,-0.4c0,-0.2 -0.2,-0.4 -0.4,-0.4Z" style="fill:#4166d0;"/></svg>