<?xml version="1.0" encoding="UTF-8" standalone="no"?><!DOCTYPE svg PUBLIC "-//W3C//DTD SVG 1.1//EN" "http://www.w3.org/Graphics/SVG/1.1/DTD/svg11.dtd"><svg width="100%" height="100%" viewBox="0 0 15 15" version="1.1" xmlns="http://www.w3.org/2000/svg" xmlns:xlink="http://www.w3.org/1999/xlink" xml:space="preserve" xmlns:serif="http://www.serif.com/" style="fill-rule:evenodd;clip-rule:evenodd;stroke-linejoin:round;stroke-miterlimit:2;"><path d="M5,12l0,0.5c-0,0.133 -0.053,0.26 -0.146,0.354c-0.094,0.094 -0.221,0.146 -0.354,0.146l-1,-0c-0.133,0 -0.26,-0.053 -0.354,-0.146c-0.094,-0.094 -0.146,-0.221 -0.146,-0.354l0,-10.003c-0,-0.133 0.053,-0.26 0.147,-0.354c0.094,-0.094 0.221,-0.146 0.354,-0.146l1.361,0.002c0.066,0 0.131,0.007 0.195,0.02c0.456,0.164 3.455,1.286 3.455,1.286c0.292,0.109 0.487,0.39 0.487,0.702l0,5.96c-0,0.312 -0.195,0.593 -0.487,0.702l-3.513,1.33Zm0,-8.583l0,5.224c0,0.17 0.167,0.291 0.33,0.237l0.5,-0.166c0.102,-0.034 0.17,-0.131 0.17,-0.238l0,-4.87c0,-0.104 -0.065,-0.197 -0.162,-0.234l-0.5,-0.187c-0.028,-0.011 -0.058,-0.016 -0.088,-0.016c-0.137,0 -0.25,0.113 -0.25,0.25Zm2,0.75l-0,3.808c0,0.137 0.113,0.251 0.25,0.251c0.027,0 0.054,-0.004 0.08,-0.013l0.5,-0.167c0.102,-0.034 0.17,-0.131 0.17,-0.238l0,-3.454c0,-0.104 -0.065,-0.197 -0.162,-0.234l-0.5,-0.187c-0.028,-0.011 -0.058,-0.016 -0.088,-0.016c-0.137,0 -0.25,0.113 -0.25,0.25Z" style="fill:#090909;"/><path d="M10.501,1.997c-0.133,-0 -0.26,0.052 -0.354,0.146c-0.094,0.094 -0.147,0.221 -0.147,0.354c-0,1.834 -0,8.17 -0,10.003c-0,0.133 0.053,0.26 0.146,0.354c0.094,0.094 0.221,0.146 0.354,0.146c0.305,0 0.695,0 1,0c0.133,0 0.26,-0.053 0.354,-0.146c0.094,-0.094 0.146,-0.221 0.146,-0.354c-0,-1.833 -0,-8.17 -0,-10.001c0,-0.276 -0.223,-0.5 -0.499,-0.5c-0.305,-0.001 -0.694,-0.001 -1,-0.002Z" style="fill:#090909;"/></svg>